999
dxflib 3.17.0.0
  0
SECTION
  2
HEADER
  9
$ACADVER
  1
AC1015
  9
$HANDSEED
  5
FFFF
  9
$DIMADEC
 70
0
  9
$DIMASZ
 40
0.18
  9
$DIMAUNIT
 70
0
  9
$DIMAZIN
 70
0
  9
$DIMDEC
 70
4
  9
$DIMDLI
 40
0.36
  9
$DIMDSEP
 70
46
  9
$DIMEXE
 40
0.18
  9
$DIMEXO
 40
0.0625
  9
$DIMGAP
 40
0.09
  9
$DIMLUNIT
 70
2
  9
$DIMSCALE
 40
1.0
  9
$DIMTSZ
 40
0.0
  9
$DIMTXT
 40
0.18
  9
$DIMZIN
 70
0
  9
$DWGCODEPAGE
  3
ANSI_1252
  9
$INSUNITS
 70
4
  9
$LTSCALE
 40
1.0
  9
$MAXACTVP
 70
64
  9
$MEASUREMENT
 70
1
  9
$MIRRTEXT
 70
0
  9
$PDMODE
 70
0
  9
$PDSIZE
 40
0.0
  0
ENDSEC
  0
SECTION
  2
TABLES
  0
TABLE
  2
VPORT
  5
8
100
AcDbSymbolTable
 70
1
  0
VPORT
  5
30
100
AcDbSymbolTableRecord
100
AcDbViewportTableRecord
  2
*Active
 70
0
 10
0.0
 20
0.0
 11
1.0
 21
1.0
 12
286.3055555555554861
 22
148.5
 13
0.0
 23
0.0
 14
10.0
 24
10.0
 15
10.0
 25
10.0
 16
0.0
 26
0.0
 36
1.0
 17
0.0
 27
0.0
 37
0.0
 40
297.0
 41
1.92798353909465
 42
50.0
 43
0.0
 44
0.0
 50
0.0
 51
0.0
 71
0
 72
100
 73
1
 74
3
 75
1
 76
1
 77
0
 78
0
281
0
 65
1
110
0.0
120
0.0
130
0.0
111
1.0
121
0.0
131
0.0
112
0.0
122
1.0
132
0.0
 79
0
146
0.0
  0
ENDTAB
  0
TABLE
  2
LTYPE
  5
5
100
AcDbSymbolTable
 70
41
  0
LTYPE
  5
16
100
AcDbSymbolTableRecord
100
AcDbLinetypeTableRecord
  2
CONTINUOUS
 70
0
  3
Solid line
 72
65
 73
0
 40
0.0
  0
LTYPE
  5
31
100
AcDbSymbolTableRecord
100
AcDbLinetypeTableRecord
  2
DASHED2
 70
0
  3
Dashed (.5x) _ _ _ _ _ _ _ _ _ _ _ _ _ _ _ _ _ 
 72
65
 73
2
 40
9.5249999999999986
 49
6.3499999999999996
 74
0
 49
-3.1749999999999998
 74
0
  0
LTYPE
  5
32
100
AcDbSymbolTableRecord
100
AcDbLinetypeTableRecord
  2
ACAD_ISO09W100
 70
0
  3
ISO long-dash double-short-dash ____ __ __ ____
 72
65
 73
6
 40
45.0
 49
24.0
 74
0
 49
-3.0
 74
0
 49
6.0
 74
0
 49
-3.0
 74
0
 49
6.0
 74
0
 49
-3.0
 74
0
  0
LTYPE
  5
33
100
AcDbSymbolTableRecord
100
AcDbLinetypeTableRecord
  2
PHANTOM2
 70
0
  3
Phantom (.5x) ___ _ _ ___ _ _ ___ _ _ ___ _ _
 72
65
 73
6
 40
31.7500000000000036
 49
15.875
 74
0
 49
-3.1749999999999998
 74
0
 49
3.1749999999999998
 74
0
 49
-3.1749999999999998
 74
0
 49
3.1749999999999998
 74
0
 49
-3.1749999999999998
 74
0
  0
LTYPE
  5
34
100
AcDbSymbolTableRecord
100
AcDbLinetypeTableRecord
  2
DOTX2
 70
0
  3
Dot (2x) .  .  .  .  .  .  .  .  .  .  .  .  .  .
 72
65
 73
2
 40
12.6999999999999993
 49
0.1
 74
0
 49
-12.5999999999999996
 74
0
  0
LTYPE
  5
35
100
AcDbSymbolTableRecord
100
AcDbLinetypeTableRecord
  2
CENTER
 70
0
  3
Center ____ _ ____ _ ____ _ ____ _ ____ _ ____
 72
65
 73
4
 40
50.8000000000000043
 49
31.75
 74
0
 49
-6.3499999999999996
 74
0
 49
6.3499999999999996
 74
0
 49
-6.3499999999999996
 74
0
  0
LTYPE
  5
36
100
AcDbSymbolTableRecord
100
AcDbLinetypeTableRecord
  2
ACAD_ISO05W100
 70
0
  3
ISO long-dash double-dot ____ .. ____ .. ____ . 
 72
65
 73
6
 40
33.0000000000000071
 49
24.0
 74
0
 49
-2.9500000000000002
 74
0
 49
0.1
 74
0
 49
-2.9000000000000004
 74
0
 49
0.1
 74
0
 49
-2.9500000000000002
 74
0
  0
LTYPE
  5
37
100
AcDbSymbolTableRecord
100
AcDbLinetypeTableRecord
  2
BORDERX2
 70
0
  3
Border (2x) ____  ____  .  ____  ____  .  ___
 72
65
 73
6
 40
88.8999999999999773
 49
25.3999999999999986
 74
0
 49
-12.6999999999999993
 74
0
 49
25.3999999999999986
 74
0
 49
-12.6499999999999986
 74
0
 49
0.1
 74
0
 49
-12.6499999999999986
 74
0
  0
LTYPE
  5
38
100
AcDbSymbolTableRecord
100
AcDbLinetypeTableRecord
  2
PHANTOM
 70
0
  3
Phantom ______  __  __  ______  __  __  ______ 
 72
65
 73
6
 40
63.5000000000000071
 49
31.75
 74
0
 49
-6.3499999999999996
 74
0
 49
6.3499999999999996
 74
0
 49
-6.3499999999999996
 74
0
 49
6.3499999999999996
 74
0
 49
-6.3499999999999996
 74
0
  0
LTYPE
  5
15
100
AcDbSymbolTableRecord
100
AcDbLinetypeTableRecord
  2
BYLAYER
 70
0
  3

 72
65
 73
0
 40
0.0
  0
LTYPE
  5
39
100
AcDbSymbolTableRecord
100
AcDbLinetypeTableRecord
  2
ACAD_ISO06W100
 70
0
  3
ISO long-dash triple-dot ____ ... ____ ... ____
 72
65
 73
8
 40
36.0000000000000071
 49
24.0
 74
0
 49
-2.9500000000000002
 74
0
 49
0.1
 74
0
 49
-2.9000000000000004
 74
0
 49
0.1
 74
0
 49
-2.9000000000000004
 74
0
 49
0.1
 74
0
 49
-2.9500000000000002
 74
0
  0
LTYPE
  5
3A
100
AcDbSymbolTableRecord
100
AcDbLinetypeTableRecord
  2
HIDDEN
 70
0
  3
Hidden __ __ __ __ __ __ __ __ __ __ __ __ __ __
 72
65
 73
2
 40
9.5249999999999986
 49
6.3499999999999996
 74
0
 49
-3.1749999999999998
 74
0
  0
LTYPE
  5
3B
100
AcDbSymbolTableRecord
100
AcDbLinetypeTableRecord
  2
DOT
 70
0
  3
Dot . . . . . . . . . . . . . . . . . . . . . . . .
 72
65
 73
2
 40
6.3499999999999996
 49
0.1
 74
0
 49
-6.25
 74
0
  0
LTYPE
  5
3C
100
AcDbSymbolTableRecord
100
AcDbLinetypeTableRecord
  2
DIVIDEX2
 70
0
  3
Divide (2x) ________  .  .  ________  .  .  _
 72
65
 73
6
 40
63.5
 49
25.3999999999999986
 74
0
 49
-12.6499999999999986
 74
0
 49
0.1
 74
0
 49
-12.5999999999999979
 74
0
 49
0.1
 74
0
 49
-12.6499999999999986
 74
0
  0
LTYPE
  5
3D
100
AcDbSymbolTableRecord
100
AcDbLinetypeTableRecord
  2
ACAD_ISO14W100
 70
0
  3
ISO dash triple-dot __ . . . __ . . . __ . . . _
 72
65
 73
8
 40
24.0000000000000036
 49
12.0
 74
0
 49
-2.9500000000000002
 74
0
 49
0.1
 74
0
 49
-2.9000000000000004
 74
0
 49
0.1
 74
0
 49
-2.9000000000000004
 74
0
 49
0.1
 74
0
 49
-2.9500000000000002
 74
0
  0
LTYPE
  5
3E
100
AcDbSymbolTableRecord
100
AcDbLinetypeTableRecord
  2
DOT2
 70
0
  3
Dot (.5x) ........................................
 72
65
 73
2
 40
3.1749999999999998
 49
0.1
 74
0
 49
-3.0749999999999997
 74
0
  0
LTYPE
  5
3F
100
AcDbSymbolTableRecord
100
AcDbLinetypeTableRecord
  2
ACAD_ISO13W100
 70
0
  3
ISO double-dash double-dot __ __ . . __ __ . . _
 72
65
 73
8
 40
36.0000000000000071
 49
12.0
 74
0
 49
-3.0
 74
0
 49
12.0
 74
0
 49
-2.9500000000000002
 74
0
 49
0.1
 74
0
 49
-2.9000000000000004
 74
0
 49
0.1
 74
0
 49
-2.9500000000000002
 74
0
  0
LTYPE
  5
14
100
AcDbSymbolTableRecord
100
AcDbLinetypeTableRecord
  2
BYBLOCK
 70
0
  3

 72
65
 73
0
 40
0.0
  0
LTYPE
  5
40
100
AcDbSymbolTableRecord
100
AcDbLinetypeTableRecord
  2
DASHED
 70
0
  3
Dashed __ __ __ __ __ __ __ __ __ __ __ __ __ _
 72
65
 73
2
 40
19.0499999999999972
 49
12.6999999999999993
 74
0
 49
-6.3499999999999996
 74
0
  0
LTYPE
  5
41
100
AcDbSymbolTableRecord
100
AcDbLinetypeTableRecord
  2
DASHDOT
 70
0
  3
Dash dot __ . __ . __ . __ . __ . __ . __ . __
 72
65
 73
4
 40
25.4000000000000021
 49
12.6999999999999993
 74
0
 49
-6.2999999999999998
 74
0
 49
0.1
 74
0
 49
-6.2999999999999998
 74
0
  0
LTYPE
  5
42
100
AcDbSymbolTableRecord
100
AcDbLinetypeTableRecord
  2
ACAD_ISO11W100
 70
0
  3
ISO double-dash dot __ __ . __ __ . __ __ . __ _
 72
65
 73
6
 40
33.0
 49
12.0
 74
0
 49
-3.0
 74
0
 49
12.0
 74
0
 49
-2.9500000000000002
 74
0
 49
0.1
 74
0
 49
-2.9500000000000002
 74
0
  0
LTYPE
  5
43
100
AcDbSymbolTableRecord
100
AcDbLinetypeTableRecord
  2
DIVIDE
 70
0
  3
Divide ____ . . ____ . . ____ . . ____ . . ____
 72
65
 73
6
 40
31.7500000000000036
 49
12.6999999999999993
 74
0
 49
-6.2999999999999998
 74
0
 49
0.1
 74
0
 49
-6.25
 74
0
 49
0.1
 74
0
 49
-6.2999999999999998
 74
0
  0
LTYPE
  5
44
100
AcDbSymbolTableRecord
100
AcDbLinetypeTableRecord
  2
ACAD_ISO10W100
 70
0
  3
ISO dash dot __ . __ . __ . __ . __ . __ . __ . 
 72
65
 73
4
 40
18.0
 49
12.0
 74
0
 49
-2.9500000000000002
 74
0
 49
0.1
 74
0
 49
-2.9500000000000002
 74
0
  0
LTYPE
  5
45
100
AcDbSymbolTableRecord
100
AcDbLinetypeTableRecord
  2
HIDDEN2
 70
0
  3
Hidden (.5x) _ _ _ _ _ _ _ _ _ _ _ _ _ _ _ _ _ 
 72
65
 73
2
 40
4.7624999999999993
 49
3.1749999999999998
 74
0
 49
-1.5874999999999999
 74
0
  0
LTYPE
  5
46
100
AcDbSymbolTableRecord
100
AcDbLinetypeTableRecord
  2
HIDDENX2
 70
0
  3
Hidden (2x) ____ ____ ____ ____ ____ ____ ____ 
 72
65
 73
2
 40
19.0499999999999972
 49
12.6999999999999993
 74
0
 49
-6.3499999999999996
 74
0
  0
LTYPE
  5
47
100
AcDbSymbolTableRecord
100
AcDbLinetypeTableRecord
  2
BORDER
 70
0
  3
Border __ __ . __ __ . __ __ . __ __ . __ __ .
 72
65
 73
6
 40
44.4499999999999957
 49
12.6999999999999993
 74
0
 49
-6.3499999999999996
 74
0
 49
12.6999999999999993
 74
0
 49
-6.2999999999999998
 74
0
 49
0.1
 74
0
 49
-6.2999999999999998
 74
0
  0
LTYPE
  5
48
100
AcDbSymbolTableRecord
100
AcDbLinetypeTableRecord
  2
ACAD_ISO08W100
 70
0
  3
ISO long-dash short-dash ____ __ ____ __ ____ _
 72
65
 73
4
 40
36.0
 49
24.0
 74
0
 49
-3.0
 74
0
 49
6.0
 74
0
 49
-3.0
 74
0
  0
LTYPE
  5
49
100
AcDbSymbolTableRecord
100
AcDbLinetypeTableRecord
  2
CENTERX2
 70
0
  3
Center (2x) ________  __  ________  __  _____
 72
65
 73
4
 40
101.6000000000000085
 49
63.5
 74
0
 49
-12.6999999999999993
 74
0
 49
12.6999999999999993
 74
0
 49
-12.6999999999999993
 74
0
  0
LTYPE
  5
4A
100
AcDbSymbolTableRecord
100
AcDbLinetypeTableRecord
  2
DASHDOT2
 70
0
  3
Dash dot (.5x) _._._._._._._._._._._._._._._.
 72
65
 73
4
 40
12.6999999999999993
 49
6.3499999999999996
 74
0
 49
-3.125
 74
0
 49
0.1
 74
0
 49
-3.125
 74
0
  0
LTYPE
  5
4B
100
AcDbSymbolTableRecord
100
AcDbLinetypeTableRecord
  2
CENTER2
 70
0
  3
Center (.5x) ___ _ ___ _ ___ _ ___ _ ___ _ ___
 72
65
 73
4
 40
28.5750000000000028
 49
19.0500000000000007
 74
0
 49
-3.1749999999999998
 74
0
 49
3.1749999999999998
 74
0
 49
-3.1749999999999998
 74
0
  0
LTYPE
  5
4C
100
AcDbSymbolTableRecord
100
AcDbLinetypeTableRecord
  2
ACAD_ISO02W100
 70
0
  3
ISO dash __ __ __ __ __ __ __ __ __ __ __ __ __
 72
65
 73
2
 40
15.0
 49
12.0
 74
0
 49
-3.0
 74
0
  0
LTYPE
  5
4D
100
AcDbSymbolTableRecord
100
AcDbLinetypeTableRecord
  2
ACAD_ISO04W100
 70
0
  3
ISO long-dash dot ____ . ____ . ____ . ____ . _
 72
65
 73
4
 40
30.0
 49
24.0
 74
0
 49
-2.9500000000000002
 74
0
 49
0.1
 74
0
 49
-2.9500000000000002
 74
0
  0
LTYPE
  5
4E
100
AcDbSymbolTableRecord
100
AcDbLinetypeTableRecord
  2
BORDER2
 70
0
  3
Border (.5x) __.__.__.__.__.__.__.__.__.__.__.
 72
65
 73
6
 40
22.2250000000000014
 49
6.3499999999999996
 74
0
 49
-3.1749999999999998
 74
0
 49
6.3499999999999996
 74
0
 49
-3.125
 74
0
 49
0.1
 74
0
 49
-3.125
 74
0
  0
LTYPE
  5
4F
100
AcDbSymbolTableRecord
100
AcDbLinetypeTableRecord
  2
ACAD_ISO12W100
 70
0
  3
ISO dash double-dot __ . . __ . . __ . . __ . . 
 72
65
 73
6
 40
21.0
 49
12.0
 74
0
 49
-2.9500000000000002
 74
0
 49
0.1
 74
0
 49
-2.9000000000000004
 74
0
 49
0.1
 74
0
 49
-2.9500000000000002
 74
0
  0
LTYPE
  5
50
100
AcDbSymbolTableRecord
100
AcDbLinetypeTableRecord
  2
DASHEDX2
 70
0
  3
Dashed (2x) ____  ____  ____  ____  ____  ___
 72
65
 73
2
 40
38.0999999999999943
 49
25.3999999999999986
 74
0
 49
-12.6999999999999993
 74
0
  0
LTYPE
  5
51
100
AcDbSymbolTableRecord
100
AcDbLinetypeTableRecord
  2
DIVIDE2
 70
0
  3
Divide (.5x) __..__..__..__..__..__..__..__.._
 72
65
 73
6
 40
15.8749999999999982
 49
6.3499999999999996
 74
0
 49
-3.125
 74
0
 49
0.1
 74
0
 49
-3.0750000000000002
 74
0
 49
0.1
 74
0
 49
-3.125
 74
0
  0
LTYPE
  5
52
100
AcDbSymbolTableRecord
100
AcDbLinetypeTableRecord
  2
ACAD_ISO15W100
 70
0
  3
ISO double-dash triple-dot __ __ . . . __ __ . .
 72
65
 73
10
 40
39.0000000000000071
 49
12.0
 74
0
 49
-3.0
 74
0
 49
12.0
 74
0
 49
-2.9500000000000002
 74
0
 49
0.1
 74
0
 49
-2.9000000000000004
 74
0
 49
0.1
 74
0
 49
-2.9000000000000004
 74
0
 49
0.1
 74
0
 49
-2.9500000000000002
 74
0
  0
LTYPE
  5
53
100
AcDbSymbolTableRecord
100
AcDbLinetypeTableRecord
  2
ACAD_ISO03W100
 70
0
  3
ISO dash space __    __    __    __    __    __
 72
65
 73
2
 40
30.0
 49
12.0
 74
0
 49
-18.0
 74
0
  0
LTYPE
  5
54
100
AcDbSymbolTableRecord
100
AcDbLinetypeTableRecord
  2
DASHDOTX2
 70
0
  3
Dash dot (2x) ____  .  ____  .  ____  .  ___
 72
65
 73
4
 40
50.7999999999999972
 49
25.3999999999999986
 74
0
 49
-12.6499999999999986
 74
0
 49
0.1
 74
0
 49
-12.6499999999999986
 74
0
  0
LTYPE
  5
55
100
AcDbSymbolTableRecord
100
AcDbLinetypeTableRecord
  2
PHANTOMX2
 70
0
  3
Phantom (2x) ____________    ____    ____   _
 72
65
 73
6
 40
127.0000000000000142
 49
63.5
 74
0
 49
-12.6999999999999993
 74
0
 49
12.6999999999999993
 74
0
 49
-12.6999999999999993
 74
0
 49
12.6999999999999993
 74
0
 49
-12.6999999999999993
 74
0
  0
LTYPE
  5
56
100
AcDbSymbolTableRecord
100
AcDbLinetypeTableRecord
  2
ACAD_ISO07W100
 70
0
  3
ISO dot . . . . . . . . . . . . . . . . . . . . 
 72
65
 73
2
 40
3.0
 49
0.1
 74
0
 49
-2.8999999999999999
 74
0
  0
ENDTAB
  0
TABLE
  2
LAYER
  5
2
100
AcDbSymbolTable
 70
1
  0
LAYER
  5
10
100
AcDbSymbolTableRecord
100
AcDbLayerTableRecord
  2
0
 70
0
 62
7
420
16777215
  6
CONTINUOUS
370
25
390
F
  0
ENDTAB
  0
TABLE
  2
STYLE
  5
3
100
AcDbSymbolTable
 70
1
  0
STYLE
  5
57
100
AcDbSymbolTableRecord
100
AcDbTextStyleTableRecord
  2
Standard
 70
0
 40
0.0
 41
1.0
 50
0.0
 71
0
 42
2.5
  3

  4

1001
ACAD
1000
txt
1071
0
  0
ENDTAB
  0
TABLE
  2
VIEW
  5
6
100
AcDbSymbolTable
 70
0
  0
ENDTAB
  0
TABLE
  2
UCS
  5
7
100
AcDbSymbolTable
 70
0
  0
ENDTAB
  0
TABLE
  2
APPID
  5
9
100
AcDbSymbolTable
 70
1
  0
APPID
  5
12
100
AcDbSymbolTableRecord
100
AcDbRegAppTableRecord
  2
ACAD
 70
0
  0
APPID
  5
58
100
AcDbSymbolTableRecord
100
AcDbRegAppTableRecord
  2
QCAD
 70
0
  0
ENDTAB
  0
TABLE
  2
DIMSTYLE
  5
A
100
AcDbSymbolTable
 70
1
100
AcDbDimStyleTable
 71
0
  0
DIMSTYLE
105
27
100
AcDbSymbolTableRecord
100
AcDbDimStyleTableRecord
  2
Standard
 41
0.18
 42
0.0625
 43
3.75
 44
0.18
 70
0
 73
0
 74
0
 77
1
 78
8
140
0.18
141
2.5
143
0.03937007874016
147
0.09
171
3
172
1
271
2
272
2
274
3
278
44
283
0
284
8
340
57
  0
ENDTAB
  0
TABLE
  2
BLOCK_RECORD
  5
1
100
AcDbSymbolTable
 70
1
  0
BLOCK_RECORD
  5
1F
100
AcDbSymbolTableRecord
100
AcDbBlockTableRecord
  2
*Model_Space
340
22
  0
BLOCK_RECORD
  5
1B
100
AcDbSymbolTableRecord
100
AcDbBlockTableRecord
  2
*Paper_Space
340
1E
  0
BLOCK_RECORD
  5
23
100
AcDbSymbolTableRecord
100
AcDbBlockTableRecord
  2
*Paper_Space0
340
26
  0
ENDTAB
  0
ENDSEC
  0
SECTION
  2
BLOCKS
  0
BLOCK
  5
20
100
AcDbEntity
  8
0
100
AcDbBlockBegin
  2
*Model_Space
 70
0
 10
0.0
 20
0.0
 30
0.0
  3
*Model_Space
  1

  0
ENDBLK
  5
21
100
AcDbEntity
  8
0
100
AcDbBlockEnd
  0
BLOCK
  5
1C
100
AcDbEntity
 67
1
  8
0
100
AcDbBlockBegin
  2
*Paper_Space
 70
0
 10
0.0
 20
0.0
 30
0.0
  3
*Paper_Space
  1

  0
ENDBLK
  5
1D
100
AcDbEntity
 67
1
  8
0
100
AcDbBlockEnd
  0
BLOCK
  5
24
100
AcDbEntity
  8
0
100
AcDbBlockBegin
  2
*Paper_Space0
 70
0
 10
0.0
 20
0.0
 30
0.0
  3
*Paper_Space0
  1

  0
ENDBLK
  5
25
100
AcDbEntity
  8
0
100
AcDbBlockEnd
  0
ENDSEC
  0
SECTION
  2
ENTITIES
  0
LINE
  5
59
100
AcDbEntity
  8
0
 62
0
370
-1
 48
1.0
  6
BYLAYER
100
AcDbLine
 10
129.55012463671207
 20
-115.9976858753830271
 30
0.0
 11
141.6727482388866122
 21
-108.9986858753830035
 31
0.0
  0
LINE
  5
5A
100
AcDbEntity
  8
0
 62
0
370
-1
 48
1.0
  6
BYLAYER
100
AcDbLine
 10
141.6727482388866122
 20
-108.9986858753830035
 30
0.0
 11
148.6717782388866453
 21
-121.1213614390818094
 31
0.0
  0
LINE
  5
5B
100
AcDbEntity
  8
0
 62
0
370
-1
 48
1.0
  6
BYLAYER
100
AcDbLine
 10
148.6717782388866453
 20
-121.1213614390818094
 30
0.0
 11
136.5491546367120463
 21
-128.1203614390817904
 31
0.0
  0
LINE
  5
5C
100
AcDbEntity
  8
0
 62
0
370
-1
 48
1.0
  6
BYLAYER
100
AcDbLine
 10
136.5491546367120463
 20
-128.1203614390817904
 30
0.0
 11
129.55012463671207
 21
-115.9976858753830271
 31
0.0
  0
LINE
  5
5D
100
AcDbEntity
  8
0
 62
0
370
-1
 48
1.0
  6
BYLAYER
100
AcDbLine
 10
74.6659495225356835
 20
-108.9986858753830035
 30
0.0
 11
86.7885731247102257
 21
-115.9976858753830129
 31
0.0
  0
LINE
  5
5E
100
AcDbEntity
  8
0
 62
0
370
-1
 48
1.0
  6
BYLAYER
100
AcDbLine
 10
86.7885731247102257
 20
-115.9976858753830129
 30
0.0
 11
79.7895431247102067
 21
-128.1203614390817904
 31
0.0
  0
LINE
  5
5F
100
AcDbEntity
  8
0
 62
0
370
-1
 48
1.0
  6
BYLAYER
100
AcDbLine
 10
79.7895431247102067
 20
-128.1203614390817904
 30
0.0
 11
67.666919522535693
 21
-121.1213614390818094
 31
0.0
  0
LINE
  5
60
100
AcDbEntity
  8
0
 62
0
370
-1
 48
1.0
  6
BYLAYER
100
AcDbLine
 10
67.666919522535693
 20
-121.1213614390818094
 30
0.0
 11
74.6659495225356835
 21
-108.9986858753830035
 31
0.0
  0
LINE
  5
61
100
AcDbEntity
  8
0
 62
0
370
-1
 48
1.0
  6
BYLAYER
100
AcDbLine
 10
233.3211358942629374
 20
-72.0224262417911092
 30
0.0
 11
246.8421656106573892
 21
-68.3994772484460754
 31
0.0
  0
LINE
  5
62
100
AcDbEntity
  8
0
 62
0
370
-1
 48
1.0
  6
BYLAYER
100
AcDbLine
 10
246.8421656106573892
 20
-68.3994772484460754
 30
0.0
 11
250.4651327213356353
 21
-81.9205745796483598
 31
0.0
  0
LINE
  5
63
100
AcDbEntity
  8
0
 62
0
370
-1
 48
1.0
  6
BYLAYER
100
AcDbLine
 10
250.4651327213356353
 20
-81.9205745796483598
 30
0.0
 11
236.944103004941212
 21
-85.543523572993422
 31
0.0
  0
LINE
  5
64
100
AcDbEntity
  8
0
 62
0
370
-1
 48
1.0
  6
BYLAYER
100
AcDbLine
 10
236.944103004941212
 20
-85.543523572993422
 30
0.0
 11
233.3211358942629374
 21
-72.0224262417911092
 31
0.0
  0
LINE
  5
65
100
AcDbEntity
  8
0
 62
0
370
-1
 48
1.0
  6
BYLAYER
100
AcDbLine
 10
214.9202489034562404
 20
-76.9529290509941717
 30
0.0
 11
228.4412786198505501
 21
-73.3299800576491094
 31
0.0
  0
LINE
  5
66
100
AcDbEntity
  8
0
 62
0
370
-1
 48
1.0
  6
BYLAYER
100
AcDbLine
 10
228.4412786198505501
 20
-73.3299800576491094
 30
0.0
 11
232.0642457305287962
 21
-86.8510773888513938
 31
0.0
  0
LINE
  5
67
100
AcDbEntity
  8
0
 62
0
370
-1
 48
1.0
  6
BYLAYER
100
AcDbLine
 10
232.0642457305287962
 20
-86.8510773888513938
 30
0.0
 11
218.5432160141344866
 21
-90.474026382196385
 31
0.0
  0
LINE
  5
68
100
AcDbEntity
  8
0
 62
0
370
-1
 48
1.0
  6
BYLAYER
100
AcDbLine
 10
218.5432160141344866
 20
-90.474026382196385
 30
0.0
 11
214.9202489034562404
 21
-76.9529290509941717
 31
0.0
  0
LINE
  5
69
100
AcDbEntity
  8
0
 62
0
370
-1
 48
1.0
  6
BYLAYER
100
AcDbLine
 10
196.5193619126494866
 20
-81.8834318601971773
 30
0.0
 11
210.0403916290438531
 21
-78.2604828668521009
 31
0.0
  0
LINE
  5
6A
100
AcDbEntity
  8
0
 62
0
370
-1
 48
1.0
  6
BYLAYER
100
AcDbLine
 10
210.0403916290438531
 20
-78.2604828668521009
 30
0.0
 11
213.6633587397220992
 21
-91.7815801980543569
 31
0.0
  0
LINE
  5
6B
100
AcDbEntity
  8
0
 62
0
370
-1
 48
1.0
  6
BYLAYER
100
AcDbLine
 10
213.6633587397220992
 20
-91.7815801980543569
 30
0.0
 11
200.1423290233277328
 21
-95.4045291913994191
 31
0.0
  0
LINE
  5
6C
100
AcDbEntity
  8
0
 62
0
370
-1
 48
1.0
  6
BYLAYER
100
AcDbLine
 10
200.1423290233277328
 20
-95.4045291913994191
 30
0.0
 11
196.5193619126494866
 21
-81.8834318601971773
 31
0.0
  0
LINE
  5
6D
100
AcDbEntity
  8
0
 62
0
370
-1
 48
1.0
  6
BYLAYER
100
AcDbLine
 10
178.1184749218427328
 20
-86.8139346694002256
 30
0.0
 11
191.6395046382370992
 21
-83.1909856760551207
 31
0.0
  0
LINE
  5
6E
100
AcDbEntity
  8
0
 62
0
370
-1
 48
1.0
  6
BYLAYER
100
AcDbLine
 10
191.6395046382370992
 20
-83.1909856760551207
 30
0.0
 11
195.2624717489153454
 21
-96.7120830072573767
 31
0.0
  0
LINE
  5
6F
100
AcDbEntity
  8
0
 62
0
370
-1
 48
1.0
  6
BYLAYER
100
AcDbLine
 10
195.2624717489153454
 20
-96.7120830072573767
 30
0.0
 11
181.7414420325209505
 21
-100.3350320006024532
 31
0.0
  0
LINE
  5
70
100
AcDbEntity
  8
0
 62
0
370
-1
 48
1.0
  6
BYLAYER
100
AcDbLine
 10
181.7414420325209505
 20
-100.3350320006024532
 30
0.0
 11
178.1184749218427328
 21
-86.8139346694002256
 31
0.0
  0
LINE
  5
71
100
AcDbEntity
  8
0
 62
0
370
-1
 48
1.0
  6
BYLAYER
100
AcDbLine
 10
151.9155505498524121
 20
-97.5857398898596529
 30
0.0
 11
164.0381741520269543
 21
-90.5867398898596576
 31
0.0
  0
LINE
  5
72
100
AcDbEntity
  8
0
 62
0
370
-1
 48
1.0
  6
BYLAYER
100
AcDbLine
 10
164.0381741520269543
 20
-90.5867398898596576
 30
0.0
 11
171.0372091520269748
 21
-102.7094241138124886
 31
0.0
  0
LINE
  5
73
100
AcDbEntity
  8
0
 62
0
370
-1
 48
1.0
  6
BYLAYER
100
AcDbLine
 10
171.0372091520269748
 20
-102.7094241138124886
 30
0.0
 11
158.9145855498524043
 21
-109.7084241138124838
 31
0.0
  0
LINE
  5
74
100
AcDbEntity
  8
0
 62
0
370
-1
 48
1.0
  6
BYLAYER
100
AcDbLine
 10
158.9145855498524043
 20
-109.7084241138124838
 30
0.0
 11
151.9155505498524121
 21
-97.5857398898596529
 31
0.0
  0
LINE
  5
75
100
AcDbEntity
  8
0
 62
0
370
-1
 48
1.0
  6
BYLAYER
100
AcDbLine
 10
52.3005236093953414
 20
-90.5867398898596292
 30
0.0
 11
64.4231472115698978
 21
-97.5857398898596244
 31
0.0
  0
LINE
  5
76
100
AcDbEntity
  8
0
 62
0
370
-1
 48
1.0
  6
BYLAYER
100
AcDbLine
 10
64.4231472115698978
 20
-97.5857398898596244
 30
0.0
 11
57.4241122115698914
 21
-109.7084241138124838
 31
0.0
  0
LINE
  5
77
100
AcDbEntity
  8
0
 62
0
370
-1
 48
1.0
  6
BYLAYER
100
AcDbLine
 10
57.4241122115698914
 20
-109.7084241138124838
 30
0.0
 11
45.3014886093953066
 21
-102.7094241138124744
 31
0.0
  0
LINE
  5
78
100
AcDbEntity
  8
0
 62
0
370
-1
 48
1.0
  6
BYLAYER
100
AcDbLine
 10
45.3014886093953066
 20
-102.7094241138124744
 30
0.0
 11
52.3005236093953414
 21
-90.5867398898596292
 31
0.0
  0
LINE
  5
79
100
AcDbEntity
  8
0
 62
0
370
-1
 48
1.0
  6
BYLAYER
100
AcDbLine
 10
24.6988067528546829
 20
-83.1908821484370264
 30
0.0
 11
38.2197398766664236
 21
-86.8138052598776113
 31
0.0
  0
LINE
  5
7A
100
AcDbEntity
  8
0
 62
0
370
-1
 48
1.0
  6
BYLAYER
100
AcDbLine
 10
38.2197398766664236
 20
-86.8138052598776113
 30
0.0
 11
34.5967727659881774
 21
-100.3349025910798531
 31
0.0
  0
LINE
  5
7B
100
AcDbEntity
  8
0
 62
0
370
-1
 48
1.0
  6
BYLAYER
100
AcDbLine
 10
34.5967727659881774
 20
-100.3349025910798531
 30
0.0
 11
21.0758396421764154
 21
-96.711979479639254
 31
0.0
  0
LINE
  5
7C
100
AcDbEntity
  8
0
 62
0
370
-1
 48
1.0
  6
BYLAYER
100
AcDbLine
 10
21.0758396421764154
 20
-96.711979479639254
 30
0.0
 11
24.6988067528546829
 21
-83.1908821484370264
 31
0.0
  0
LINE
  5
7D
100
AcDbEntity
  8
0
 62
0
370
-1
 48
1.0
  6
BYLAYER
100
AcDbLine
 10
6.297919762047929
 20
-78.2603793392340066
 30
0.0
 11
19.8188528858596804
 21
-81.8833024506745915
 31
0.0
  0
LINE
  5
7E
100
AcDbEntity
  8
0
 62
0
370
-1
 48
1.0
  6
BYLAYER
100
AcDbLine
 10
19.8188528858596804
 20
-81.8833024506745915
 30
0.0
 11
16.1958857751814271
 21
-95.4043997818768332
 31
0.0
  0
LINE
  5
7F
100
AcDbEntity
  8
0
 62
0
370
-1
 48
1.0
  6
BYLAYER
100
AcDbLine
 10
16.1958857751814271
 20
-95.4043997818768332
 30
0.0
 11
2.6749526513696829
 21
-91.7814766704362199
 31
0.0
  0
LINE
  5
80
100
AcDbEntity
  8
0
 62
0
370
-1
 48
1.0
  6
BYLAYER
100
AcDbLine
 10
2.6749526513696829
 20
-91.7814766704362199
 30
0.0
 11
6.297919762047929
 21
-78.2603793392340066
 31
0.0
  0
LINE
  5
81
100
AcDbEntity
  8
0
 62
0
370
-1
 48
1.0
  6
BYLAYER
100
AcDbLine
 10
-12.1029672287588248
 20
-73.3298765300309725
 30
0.0
 11
1.4179658950529337
 21
-76.9527996414715432
 31
0.0
  0
LINE
  5
82
100
AcDbEntity
  8
0
 62
0
370
-1
 48
1.0
  6
BYLAYER
100
AcDbLine
 10
1.4179658950529337
 20
-76.9527996414715432
 30
0.0
 11
-2.2050012156253267
 21
-90.4738969726737707
 31
0.0
  0
LINE
  5
83
100
AcDbEntity
  8
0
 62
0
370
-1
 48
1.0
  6
BYLAYER
100
AcDbLine
 10
-2.2050012156253267
 20
-90.4738969726737707
 30
0.0
 11
-15.7259343394370852
 21
-86.8509738612332143
 31
0.0
  0
LINE
  5
84
100
AcDbEntity
  8
0
 62
0
370
-1
 48
1.0
  6
BYLAYER
100
AcDbLine
 10
-15.7259343394370852
 20
-86.8509738612332143
 30
0.0
 11
-12.1029672287588248
 21
-73.3298765300309725
 31
0.0
  0
LINE
  5
85
100
AcDbEntity
  8
0
 62
0
370
-1
 48
1.0
  6
BYLAYER
100
AcDbLine
 10
-30.5039508121481866
 20
-68.39934783892339
 30
0.0
 11
-16.9828245031711837
 21
-72.0223227141729865
 31
0.0
  0
LINE
  5
86
100
AcDbEntity
  8
0
 62
0
370
-1
 48
1.0
  6
BYLAYER
100
AcDbLine
 10
-16.9828245031711837
 20
-72.0223227141729865
 30
0.0
 11
-20.6057916138494441
 21
-85.5434200453752567
 31
0.0
  0
LINE
  5
87
100
AcDbEntity
  8
0
 62
0
370
-1
 48
1.0
  6
BYLAYER
100
AcDbLine
 10
-20.6057916138494441
 20
-85.5434200453752567
 30
0.0
 11
-34.1269179228264505
 21
-81.9204451701256602
 31
0.0
  0
LINE
  5
88
100
AcDbEntity
  8
0
 62
0
370
-1
 48
1.0
  6
BYLAYER
100
AcDbLine
 10
-34.1269179228264505
 20
-81.9204451701256602
 30
0.0
 11
-30.5039508121481866
 21
-68.39934783892339
 31
0.0
  0
LINE
  5
89
100
AcDbEntity
  8
0
 62
0
370
-1
 48
1.0
  6
BYLAYER
100
AcDbLine
 10
224.8581638722694436
 20
-49.6376622422544287
 30
0.0
 11
238.3791935886638953
 21
-46.0147132489093593
 31
0.0
  0
LINE
  5
8A
100
AcDbEntity
  8
0
 62
0
370
-1
 48
1.0
  6
BYLAYER
100
AcDbLine
 10
238.3791935886638953
 20
-46.0147132489093593
 30
0.0
 11
242.0021425820089576
 21
-59.5357429653037258
 31
0.0
  0
LINE
  5
8B
100
AcDbEntity
  8
0
 62
0
370
-1
 48
1.0
  6
BYLAYER
100
AcDbLine
 10
242.0021425820089576
 20
-59.5357429653037258
 30
0.0
 11
228.4811128656145343
 21
-63.1586919586488591
 31
0.0
  0
LINE
  5
8C
100
AcDbEntity
  8
0
 62
0
370
-1
 48
1.0
  6
BYLAYER
100
AcDbLine
 10
228.4811128656145343
 20
-63.1586919586488591
 30
0.0
 11
224.8581638722694436
 21
-49.6376622422544287
 31
0.0
  0
LINE
  5
8D
100
AcDbEntity
  8
0
 62
0
370
-1
 48
1.0
  6
BYLAYER
100
AcDbLine
 10
204.1574074890684187
 20
-55.1844131978465668
 30
0.0
 11
217.678437205462842
 21
-51.5614642045015046
 31
0.0
  0
LINE
  5
8E
100
AcDbEntity
  8
0
 62
0
370
-1
 48
1.0
  6
BYLAYER
100
AcDbLine
 10
217.678437205462842
 20
-51.5614642045015046
 30
0.0
 11
221.3013861988079043
 21
-65.0824939208958
 31
0.0
  0
LINE
  5
8F
100
AcDbEntity
  8
0
 62
0
370
-1
 48
1.0
  6
BYLAYER
100
AcDbLine
 10
221.3013861988079043
 20
-65.0824939208958
 30
0.0
 11
207.780356482413481
 21
-68.7054429142409191
 31
0.0
  0
LINE
  5
90
100
AcDbEntity
  8
0
 62
0
370
-1
 48
1.0
  6
BYLAYER
100
AcDbLine
 10
207.780356482413481
 20
-68.7054429142409191
 30
0.0
 11
204.1574074890684187
 21
-55.1844131978465668
 31
0.0
  0
LINE
  5
91
100
AcDbEntity
  8
0
 62
0
370
-1
 48
1.0
  6
BYLAYER
100
AcDbLine
 10
185.7565204982616933
 20
-60.1149160070496151
 30
0.0
 11
199.2775502146560598
 21
-56.4919670137045102
 31
0.0
  0
LINE
  5
92
100
AcDbEntity
  8
0
 62
0
370
-1
 48
1.0
  6
BYLAYER
100
AcDbLine
 10
199.2775502146560598
 20
-56.4919670137045102
 30
0.0
 11
202.900499208001122
 21
-70.0129967300988483
 31
0.0
  0
LINE
  5
93
100
AcDbEntity
  8
0
 62
0
370
-1
 48
1.0
  6
BYLAYER
100
AcDbLine
 10
202.900499208001122
 20
-70.0129967300988483
 30
0.0
 11
189.3794694916067556
 21
-73.6359457234439247
 31
0.0
  0
LINE
  5
94
100
AcDbEntity
  8
0
 62
0
370
-1
 48
1.0
  6
BYLAYER
100
AcDbLine
 10
189.3794694916067556
 20
-73.6359457234439247
 30
0.0
 11
185.7565204982616933
 21
-60.1149160070496151
 31
0.0
  0
LINE
  5
95
100
AcDbEntity
  8
0
 62
0
370
-1
 48
1.0
  6
BYLAYER
100
AcDbLine
 10
167.3556335074549111
 20
-65.0454188162525924
 30
0.0
 11
180.8766632238492775
 21
-61.4224698229075017
 31
0.0
  0
LINE
  5
96
100
AcDbEntity
  8
0
 62
0
370
-1
 48
1.0
  6
BYLAYER
100
AcDbLine
 10
180.8766632238492775
 20
-61.4224698229075017
 30
0.0
 11
184.4996122171943682
 21
-74.9434995393018966
 31
0.0
  0
LINE
  5
97
100
AcDbEntity
  8
0
 62
0
370
-1
 48
1.0
  6
BYLAYER
100
AcDbLine
 10
184.4996122171943682
 20
-74.9434995393018966
 30
0.0
 11
170.9785825008000018
 21
-78.566448532646973
 31
0.0
  0
LINE
  5
98
100
AcDbEntity
  8
0
 62
0
370
-1
 48
1.0
  6
BYLAYER
100
AcDbLine
 10
170.9785825008000018
 20
-78.566448532646973
 30
0.0
 11
167.3556335074549111
 21
-65.0454188162525924
 31
0.0
  0
LINE
  5
99
100
AcDbEntity
  8
0
 62
0
370
-1
 48
1.0
  6
BYLAYER
100
AcDbLine
 10
148.9547465166481572
 20
-69.9759216254556122
 30
0.0
 11
162.4757762330425521
 21
-66.3529726321105215
 31
0.0
  0
LINE
  5
9A
100
AcDbEntity
  8
0
 62
0
370
-1
 48
1.0
  6
BYLAYER
100
AcDbLine
 10
162.4757762330425521
 20
-66.3529726321105215
 30
0.0
 11
166.0987252263876428
 21
-79.874002348504888
 31
0.0
  0
LINE
  5
9B
100
AcDbEntity
  8
0
 62
0
370
-1
 48
1.0
  6
BYLAYER
100
AcDbLine
 10
166.0987252263876428
 20
-79.874002348504888
 30
0.0
 11
152.5776955099932479
 21
-83.4969513418499787
 31
0.0
  0
LINE
  5
9C
100
AcDbEntity
  8
0
 62
0
370
-1
 48
1.0
  6
BYLAYER
100
AcDbLine
 10
152.5776955099932479
 20
-83.4969513418499787
 30
0.0
 11
148.9547465166481572
 21
-69.9759216254556122
 31
0.0
  0
LINE
  5
9D
100
AcDbEntity
  8
0
 62
0
370
-1
 48
1.0
  6
BYLAYER
100
AcDbLine
 10
130.5538595258414318
 20
-74.9064244346586321
 30
0.0
 11
144.0748892422357983
 21
-71.2834754413135414
 31
0.0
  0
LINE
  5
9E
100
AcDbEntity
  8
0
 62
0
370
-1
 48
1.0
  6
BYLAYER
100
AcDbLine
 10
144.0748892422357983
 20
-71.2834754413135414
 30
0.0
 11
147.6978382355808606
 21
-84.8045051577079079
 31
0.0
  0
LINE
  5
9F
100
AcDbEntity
  8
0
 62
0
370
-1
 48
1.0
  6
BYLAYER
100
AcDbLine
 10
147.6978382355808606
 20
-84.8045051577079079
 30
0.0
 11
134.1768085191864941
 21
-88.4274541510529986
 31
0.0
  0
LINE
  5
A0
100
AcDbEntity
  8
0
 62
0
370
-1
 48
1.0
  6
BYLAYER
100
AcDbLine
 10
134.1768085191864941
 20
-88.4274541510529986
 30
0.0
 11
130.5538595258414318
 21
-74.9064244346586321
 31
0.0
  0
LINE
  5
A1
100
AcDbEntity
  8
0
 62
0
370
-1
 48
1.0
  6
BYLAYER
100
AcDbLine
 10
72.2638085191865116
 20
-71.2834754413135414
 30
0.0
 11
85.7848382355808923
 21
-74.9064244346586179
 31
0.0
  0
LINE
  5
A2
100
AcDbEntity
  8
0
 62
0
370
-1
 48
1.0
  6
BYLAYER
100
AcDbLine
 10
85.7848382355808923
 20
-74.9064244346586179
 30
0.0
 11
82.1618892422358016
 21
-88.4274541510529986
 31
0.0
  0
LINE
  5
A3
100
AcDbEntity
  8
0
 62
0
370
-1
 48
1.0
  6
BYLAYER
100
AcDbLine
 10
82.1618892422358016
 20
-88.4274541510529986
 30
0.0
 11
68.6408595258414209
 21
-84.8045051577079079
 31
0.0
  0
LINE
  5
A4
100
AcDbEntity
  8
0
 62
0
370
-1
 48
1.0
  6
BYLAYER
100
AcDbLine
 10
68.6408595258414209
 20
-84.8045051577079079
 30
0.0
 11
72.2638085191865116
 21
-71.2834754413135414
 31
0.0
  0
LINE
  5
A5
100
AcDbEntity
  8
0
 62
0
370
-1
 48
1.0
  6
BYLAYER
100
AcDbLine
 10
53.86301812096238
 20
-66.3529985140150131
 30
0.0
 11
67.3839512447741242
 21
-69.975921625455598
 31
0.0
  0
LINE
  5
A6
100
AcDbEntity
  8
0
 62
0
370
-1
 48
1.0
  6
BYLAYER
100
AcDbLine
 10
67.3839512447741242
 20
-69.975921625455598
 30
0.0
 11
63.7610022514290478
 21
-83.4969513418499645
 31
0.0
  0
LINE
  5
A7
100
AcDbEntity
  8
0
 62
0
370
-1
 48
1.0
  6
BYLAYER
100
AcDbLine
 10
63.7610022514290478
 20
-83.4969513418499645
 30
0.0
 11
50.2400691276172893
 21
-79.8740282304093938
 31
0.0
  0
LINE
  5
A8
100
AcDbEntity
  8
0
 62
0
370
-1
 48
1.0
  6
BYLAYER
100
AcDbLine
 10
50.2400691276172893
 20
-79.8740282304093938
 30
0.0
 11
53.86301812096238
 21
-66.3529985140150131
 31
0.0
  0
LINE
  5
A9
100
AcDbEntity
  8
0
 62
0
370
-1
 48
1.0
  6
BYLAYER
100
AcDbLine
 10
35.4621311301556261
 20
-61.4224957048120217
 30
0.0
 11
48.9830642539673704
 21
-65.0454188162525924
 31
0.0
  0
LINE
  5
AA
100
AcDbEntity
  8
0
 62
0
370
-1
 48
1.0
  6
BYLAYER
100
AcDbLine
 10
48.9830642539673704
 20
-65.0454188162525924
 30
0.0
 11
45.3601152606223081
 21
-78.5664485326469304
 31
0.0
  0
LINE
  5
AB
100
AcDbEntity
  8
0
 62
0
370
-1
 48
1.0
  6
BYLAYER
100
AcDbLine
 10
45.3601152606223081
 20
-78.5664485326469304
 30
0.0
 11
31.8391821368105532
 21
-74.9435254212063313
 31
0.0
  0
LINE
  5
AC
100
AcDbEntity
  8
0
 62
0
370
-1
 48
1.0
  6
BYLAYER
100
AcDbLine
 10
31.8391821368105532
 20
-74.9435254212063313
 30
0.0
 11
35.4621311301556261
 21
-61.4224957048120217
 31
0.0
  0
LINE
  5
AD
100
AcDbEntity
  8
0
 62
0
370
-1
 48
1.0
  6
BYLAYER
100
AcDbLine
 10
17.0612441393488758
 20
-56.4919928956089592
 30
0.0
 11
30.5821772631606201
 21
-60.1149160070496009
 31
0.0
  0
LINE
  5
AE
100
AcDbEntity
  8
0
 62
0
370
-1
 48
1.0
  6
BYLAYER
100
AcDbLine
 10
30.5821772631606201
 20
-60.1149160070496009
 30
0.0
 11
26.959228269815565
 21
-73.6359457234438537
 31
0.0
  0
LINE
  5
AF
100
AcDbEntity
  8
0
 62
0
370
-1
 48
1.0
  6
BYLAYER
100
AcDbLine
 10
26.959228269815565
 20
-73.6359457234438537
 30
0.0
 11
13.4382951460037781
 21
-70.0130226120033399
 31
0.0
  0
LINE
  5
B0
100
AcDbEntity
  8
0
 62
0
370
-1
 48
1.0
  6
BYLAYER
100
AcDbLine
 10
13.4382951460037781
 20
-70.0130226120033399
 30
0.0
 11
17.0612441393488758
 21
-56.4919928956089592
 31
0.0
  0
LINE
  5
B1
100
AcDbEntity
  8
0
 62
0
370
-1
 48
1.0
  6
BYLAYER
100
AcDbLine
 10
-1.3396428514578496
 20
-51.5614900864059109
 30
0.0
 11
12.1812902723538663
 21
-55.1844131978465526
 31
0.0
  0
LINE
  5
B2
100
AcDbEntity
  8
0
 62
0
370
-1
 48
1.0
  6
BYLAYER
100
AcDbLine
 10
-51.9419854835936974
 20
-38.0026332430017391
 30
0.0
 11
-38.421052359782081
 21
-41.6255563544427361
 31
0.0
  0
LINE
  5
B3
100
AcDbEntity
  8
0
 62
0
370
-1
 48
1.0
  6
BYLAYER
100
AcDbLine
 10
12.1812902723538663
 20
-55.1844131978465526
 30
0.0
 11
8.5583412790087898
 21
-68.7054429142408623
 31
0.0
  0
LINE
  5
B4
100
AcDbEntity
  8
0
 62
0
370
-1
 48
1.0
  6
BYLAYER
100
AcDbLine
 10
-38.421052359782081
 20
-41.6255563544427361
 30
0.0
 11
-42.0440013531272143
 21
-55.1465860708372446
 31
0.0
  0
LINE
  5
B5
100
AcDbEntity
  8
0
 62
0
370
-1
 48
1.0
  6
BYLAYER
100
AcDbLine
 10
8.5583412790087898
 20
-68.7054429142408623
 30
0.0
 11
-4.9625918448029545
 21
-65.0825198028003484
 31
0.0
  0
LINE
  5
B6
100
AcDbEntity
  8
0
 62
0
370
-1
 48
1.0
  6
BYLAYER
100
AcDbLine
 10
-42.0440013531272143
 20
-55.1465860708372446
 30
0.0
 11
-55.564934476938987
 21
-51.5236629593968871
 31
0.0
  0
LINE
  5
B7
100
AcDbEntity
  8
0
 62
0
370
-1
 48
1.0
  6
BYLAYER
100
AcDbLine
 10
-4.9625918448029545
 20
-65.0825198028003484
 30
0.0
 11
-1.3396428514578496
 21
-51.5614900864059109
 31
0.0
  0
LINE
  5
B8
100
AcDbEntity
  8
0
 62
0
370
-1
 48
1.0
  6
BYLAYER
100
AcDbLine
 10
-55.564934476938987
 20
-51.5236629593968871
 30
0.0
 11
-51.9419854835936974
 21
-38.0026332430017391
 31
0.0
  0
LINE
  5
B9
100
AcDbEntity
  8
0
 62
0
370
-1
 48
1.0
  6
BYLAYER
100
AcDbLine
 10
-22.0406890124067552
 20
-46.0146614851002909
 30
0.0
 11
-8.5195627034297665
 21
-49.6376363603498874
 31
0.0
  0
LINE
  5
BA
100
AcDbEntity
  8
0
 62
0
370
-1
 48
1.0
  6
BYLAYER
100
AcDbLine
 10
-8.5195627034297665
 20
-49.6376363603498874
 30
0.0
 11
-12.1425116967748572
 21
-63.1586660767442396
 31
0.0
  0
LINE
  5
BB
100
AcDbEntity
  8
0
 62
0
370
-1
 48
1.0
  6
BYLAYER
100
AcDbLine
 10
-12.1425116967748572
 20
-63.1586660767442396
 30
0.0
 11
-25.6636380057518458
 21
-59.5356912014946573
 31
0.0
  0
LINE
  5
BC
100
AcDbEntity
  8
0
 62
0
370
-1
 48
1.0
  6
BYLAYER
100
AcDbLine
 10
-25.6636380057518458
 20
-59.5356912014946573
 30
0.0
 11
-22.0406890124067552
 21
-46.0146614851002909
 31
0.0
  0
LINE
  5
BD
100
AcDbEntity
  8
0
 62
0
370
-1
 48
1.0
  6
BYLAYER
100
AcDbLine
 10
217.6277916706721953
 20
-31.8530233978367683
 30
0.0
 11
231.1488213870665049
 21
-28.2300744044916918
 31
0.0
  0
LINE
  5
BE
100
AcDbEntity
  8
0
 62
0
370
-1
 48
1.0
  6
BYLAYER
100
AcDbLine
 10
231.1488213870665049
 20
-28.2300744044916918
 30
0.0
 11
234.7717186166025272
 21
-41.7509109357207535
 31
0.0
  0
LINE
  5
BF
100
AcDbEntity
  8
0
 62
0
370
-1
 48
1.0
  6
BYLAYER
100
AcDbLine
 10
234.7717186166025272
 20
-41.7509109357207535
 30
0.0
 11
221.2506889002082175
 21
-45.3738599290658442
 31
0.0
  0
LINE
  5
C0
100
AcDbEntity
  8
0
 62
0
370
-1
 48
1.0
  6
BYLAYER
100
AcDbLine
 10
221.2506889002082175
 20
-45.3738599290658442
 30
0.0
 11
217.6277916706721953
 21
-31.8530233978367683
 31
0.0
  0
LINE
  5
C1
100
AcDbEntity
  8
0
 62
0
370
-1
 48
1.0
  6
BYLAYER
100
AcDbLine
 10
199.2269046798653847
 20
-36.7835262070397846
 30
0.0
 11
212.7479343962597795
 21
-33.1605772136947081
 31
0.0
  0
LINE
  5
C2
100
AcDbEntity
  8
0
 62
0
370
-1
 48
1.0
  6
BYLAYER
100
AcDbLine
 10
212.7479343962597795
 20
-33.1605772136947081
 30
0.0
 11
216.3708316257958586
 21
-46.6814137449238444
 31
0.0
  0
LINE
  5
C3
100
AcDbEntity
  8
0
 62
0
370
-1
 48
1.0
  6
BYLAYER
100
AcDbLine
 10
216.3708316257958586
 20
-46.6814137449238444
 30
0.0
 11
202.8498019094014353
 21
-50.3043627382688783
 31
0.0
  0
LINE
  5
C4
100
AcDbEntity
  8
0
 62
0
370
-1
 48
1.0
  6
BYLAYER
100
AcDbLine
 10
202.8498019094014353
 20
-50.3043627382688783
 30
0.0
 11
199.2269046798653847
 21
-36.7835262070397846
 31
0.0
  0
LINE
  5
C5
100
AcDbEntity
  8
0
 62
0
370
-1
 48
1.0
  6
BYLAYER
100
AcDbLine
 10
180.8260176890586592
 20
-41.7140290162428187
 30
0.0
 11
194.3470474054530257
 21
-38.091080022897728
 31
0.0
  0
LINE
  5
C6
100
AcDbEntity
  8
0
 62
0
370
-1
 48
1.0
  6
BYLAYER
100
AcDbLine
 10
194.3470474054530257
 20
-38.091080022897728
 30
0.0
 11
197.9699446349890763
 21
-51.6119165541268501
 31
0.0
  0
LINE
  5
C7
100
AcDbEntity
  8
0
 62
0
370
-1
 48
1.0
  6
BYLAYER
100
AcDbLine
 10
197.9699446349890763
 20
-51.6119165541268501
 30
0.0
 11
184.4489149185947099
 21
-55.2348655474719408
 31
0.0
  0
LINE
  5
C8
100
AcDbEntity
  8
0
 62
0
370
-1
 48
1.0
  6
BYLAYER
100
AcDbLine
 10
184.4489149185947099
 20
-55.2348655474719408
 30
0.0
 11
180.8260176890586592
 21
-41.7140290162428187
 31
0.0
  0
LINE
  5
C9
100
AcDbEntity
  8
0
 62
0
370
-1
 48
1.0
  6
BYLAYER
100
AcDbLine
 10
162.4251306982519054
 20
-46.6445318254458243
 30
0.0
 11
175.9461604146462719
 21
-43.0215828321007336
 31
0.0
  0
LINE
  5
CA
100
AcDbEntity
  8
0
 62
0
370
-1
 48
1.0
  6
BYLAYER
100
AcDbLine
 10
175.9461604146462719
 20
-43.0215828321007336
 30
0.0
 11
179.5690576441823225
 21
-56.5424193633298842
 31
0.0
  0
LINE
  5
CB
100
AcDbEntity
  8
0
 62
0
370
-1
 48
1.0
  6
BYLAYER
100
AcDbLine
 10
179.5690576441823225
 20
-56.5424193633298842
 30
0.0
 11
166.0480279277879561
 21
-60.1653683566749606
 31
0.0
  0
LINE
  5
CC
100
AcDbEntity
  8
0
 62
0
370
-1
 48
1.0
  6
BYLAYER
100
AcDbLine
 10
166.0480279277879561
 20
-60.1653683566749606
 30
0.0
 11
162.4251306982519054
 21
-46.6445318254458243
 31
0.0
  0
LINE
  5
CD
100
AcDbEntity
  8
0
 62
0
370
-1
 48
1.0
  6
BYLAYER
100
AcDbLine
 10
144.0242437074451516
 20
-51.5750346346488442
 30
0.0
 11
157.545273423839518
 21
-47.9520856413037606
 31
0.0
  0
LINE
  5
CE
100
AcDbEntity
  8
0
 62
0
370
-1
 48
1.0
  6
BYLAYER
100
AcDbLine
 10
157.545273423839518
 20
-47.9520856413037606
 30
0.0
 11
161.1681706533755971
 21
-61.4729221725328898
 31
0.0
  0
LINE
  5
CF
100
AcDbEntity
  8
0
 62
0
370
-1
 48
1.0
  6
BYLAYER
100
AcDbLine
 10
161.1681706533755971
 20
-61.4729221725328898
 30
0.0
 11
147.6471409369812022
 21
-65.0958711658779805
 31
0.0
  0
LINE
  5
D0
100
AcDbEntity
  8
0
 62
0
370
-1
 48
1.0
  6
BYLAYER
100
AcDbLine
 10
147.6471409369812022
 20
-65.0958711658779805
 30
0.0
 11
144.0242437074451516
 21
-51.5750346346488442
 31
0.0
  0
LINE
  5
D1
100
AcDbEntity
  8
0
 62
0
370
-1
 48
1.0
  6
BYLAYER
100
AcDbLine
 10
125.6233567166383978
 20
-56.5055374438518641
 30
0.0
 11
139.1443864330327642
 21
-52.8825884505067805
 31
0.0
  0
LINE
  5
D2
100
AcDbEntity
  8
0
 62
0
370
-1
 48
1.0
  6
BYLAYER
100
AcDbLine
 10
139.1443864330327642
 20
-52.8825884505067805
 30
0.0
 11
142.7672836625688433
 21
-66.4034249817359097
 31
0.0
  0
LINE
  5
D3
100
AcDbEntity
  8
0
 62
0
370
-1
 48
1.0
  6
BYLAYER
100
AcDbLine
 10
142.7672836625688433
 20
-66.4034249817359097
 30
0.0
 11
129.2462539461744768
 21
-70.0263739750810004
 31
0.0
  0
LINE
  5
D4
100
AcDbEntity
  8
0
 62
0
370
-1
 48
1.0
  6
BYLAYER
100
AcDbLine
 10
129.2462539461744768
 20
-70.0263739750810004
 30
0.0
 11
125.6233567166383978
 21
-56.5055374438518641
 31
0.0
  0
LINE
  5
D5
100
AcDbEntity
  8
0
 62
0
370
-1
 48
1.0
  6
BYLAYER
100
AcDbLine
 10
77.1943113283895315
 20
-52.8825884505067734
 30
0.0
 11
90.7153410447839121
 21
-56.5055374438518641
 31
0.0
  0
LINE
  5
D6
100
AcDbEntity
  8
0
 62
0
370
-1
 48
1.0
  6
BYLAYER
100
AcDbLine
 10
90.7153410447839121
 20
-56.5055374438518641
 30
0.0
 11
87.0924438152478473
 21
-70.0263739750810004
 31
0.0
  0
LINE
  5
D7
100
AcDbEntity
  8
0
 62
0
370
-1
 48
1.0
  6
BYLAYER
100
AcDbLine
 10
87.0924438152478473
 20
-70.0263739750810004
 30
0.0
 11
73.5714140988534524
 21
-66.4034249817359097
 31
0.0
  0
LINE
  5
D8
100
AcDbEntity
  8
0
 62
0
370
-1
 48
1.0
  6
BYLAYER
100
AcDbLine
 10
73.5714140988534524
 20
-66.4034249817359097
 30
0.0
 11
77.1943113283895315
 21
-52.8825884505067734
 31
0.0
  0
LINE
  5
D9
100
AcDbEntity
  8
0
 62
0
370
-1
 48
1.0
  6
BYLAYER
100
AcDbLine
 10
58.793520930165414
 20
-47.9521115232082593
 30
0.0
 11
72.3144540539771441
 21
-51.5750346346488442
 31
0.0
  0
LINE
  5
DA
100
AcDbEntity
  8
0
 62
0
370
-1
 48
1.0
  6
BYLAYER
100
AcDbLine
 10
72.3144540539771441
 20
-51.5750346346488442
 30
0.0
 11
68.6915568244410792
 21
-65.0958711658779663
 31
0.0
  0
LINE
  5
DB
100
AcDbEntity
  8
0
 62
0
370
-1
 48
1.0
  6
BYLAYER
100
AcDbLine
 10
68.6915568244410792
 20
-65.0958711658779663
 30
0.0
 11
55.170623700629335
 21
-61.4729480544373956
 31
0.0
  0
LINE
  5
DC
100
AcDbEntity
  8
0
 62
0
370
-1
 48
1.0
  6
BYLAYER
100
AcDbLine
 10
55.170623700629335
 20
-61.4729480544373956
 30
0.0
 11
58.793520930165414
 21
-47.9521115232082593
 31
0.0
  0
LINE
  5
DD
100
AcDbEntity
  8
0
 62
0
370
-1
 48
1.0
  6
BYLAYER
100
AcDbLine
 10
40.3926339393586602
 20
-43.0216087140052394
 30
0.0
 11
53.9135670631704045
 21
-46.6445318254458243
 31
0.0
  0
LINE
  5
DE
100
AcDbEntity
  8
0
 62
0
370
-1
 48
1.0
  6
BYLAYER
100
AcDbLine
 10
53.9135670631704045
 20
-46.6445318254458243
 30
0.0
 11
50.2906698336343396
 21
-60.1653683566749464
 31
0.0
  0
LINE
  5
DF
100
AcDbEntity
  8
0
 62
0
370
-1
 48
1.0
  6
BYLAYER
100
AcDbLine
 10
50.2906698336343396
 20
-60.1653683566749464
 30
0.0
 11
36.7697367098225811
 21
-56.5424452452343758
 31
0.0
  0
LINE
  5
E0
100
AcDbEntity
  8
0
 62
0
370
-1
 48
1.0
  6
BYLAYER
100
AcDbLine
 10
36.7697367098225811
 20
-56.5424452452343758
 30
0.0
 11
40.3926339393586602
 21
-43.0216087140052394
 31
0.0
  0
LINE
  5
E1
100
AcDbEntity
  8
0
 62
0
370
-1
 48
1.0
  6
BYLAYER
100
AcDbLine
 10
21.9917469485518815
 20
-38.091105904802248
 30
0.0
 11
35.5126800723636507
 21
-41.7140290162428045
 31
0.0
  0
LINE
  5
E2
100
AcDbEntity
  8
0
 62
0
370
-1
 48
1.0
  6
BYLAYER
100
AcDbLine
 10
35.5126800723636507
 20
-41.7140290162428045
 30
0.0
 11
31.8897828428275965
 21
-55.2348655474719408
 31
0.0
  0
LINE
  5
E3
100
AcDbEntity
  8
0
 62
0
370
-1
 48
1.0
  6
BYLAYER
100
AcDbLine
 10
31.8897828428275965
 20
-55.2348655474719408
 30
0.0
 11
18.3688497190158451
 21
-51.6119424360312991
 31
0.0
  0
LINE
  5
E4
100
AcDbEntity
  8
0
 62
0
370
-1
 48
1.0
  6
BYLAYER
100
AcDbLine
 10
18.3688497190158451
 20
-51.6119424360312991
 30
0.0
 11
21.9917469485518815
 21
-38.091105904802248
 31
0.0
  0
LINE
  5
E5
100
AcDbEntity
  8
0
 62
0
370
-1
 48
1.0
  6
BYLAYER
100
AcDbLine
 10
3.5908599577451561
 20
-33.1606030955992139
 30
0.0
 11
17.1117930815569004
 21
-36.7835262070397562
 31
0.0
  0
LINE
  5
E6
100
AcDbEntity
  8
0
 62
0
370
-1
 48
1.0
  6
BYLAYER
100
AcDbLine
 10
-47.0114826743908054
 20
-19.6017462521954222
 30
0.0
 11
-33.4905495505790611
 21
-23.2246693636359929
 31
0.0
  0
LINE
  5
E7
100
AcDbEntity
  8
0
 62
0
370
-1
 48
1.0
  6
BYLAYER
100
AcDbLine
 10
17.1117930815569004
 20
-36.7835262070397562
 30
0.0
 11
13.4888958520208497
 21
-50.3043627382688499
 31
0.0
  0
LINE
  5
E8
100
AcDbEntity
  8
0
 62
0
370
-1
 48
1.0
  6
BYLAYER
100
AcDbLine
 10
-33.4905495505790611
 20
-23.2246693636359929
 30
0.0
 11
-37.113446780115126
 21
-36.745505894865147
 31
0.0
  0
LINE
  5
E9
100
AcDbEntity
  8
0
 62
0
370
-1
 48
1.0
  6
BYLAYER
100
AcDbLine
 10
13.4888958520208497
 20
-50.3043627382688499
 30
0.0
 11
-0.0320372717909088
 21
-46.681439626828336
 31
0.0
  0
LINE
  5
EA
100
AcDbEntity
  8
0
 62
0
370
-1
 48
1.0
  6
BYLAYER
100
AcDbLine
 10
-37.113446780115126
 20
-36.745505894865147
 30
0.0
 11
-50.6343799039268987
 21
-33.1225827834246616
 31
0.0
  0
LINE
  5
EB
100
AcDbEntity
  8
0
 62
0
370
-1
 48
1.0
  6
BYLAYER
100
AcDbLine
 10
-0.0320372717909088
 20
-46.681439626828336
 30
0.0
 11
3.5908599577451561
 21
-33.1606030955992139
 31
0.0
  0
LINE
  5
EC
100
AcDbEntity
  8
0
 62
0
370
-1
 48
1.0
  6
BYLAYER
100
AcDbLine
 10
-50.6343799039268987
 20
-33.1225827834246616
 30
0.0
 11
-47.0114826743908054
 21
-19.6017462521954222
 31
0.0
  0
LINE
  5
ED
100
AcDbEntity
  8
0
 62
0
370
-1
 48
1.0
  6
BYLAYER
100
AcDbLine
 10
-21.7104079509054451
 20
-26.3811487919927821
 30
0.0
 11
-8.189281641928428
 21
-30.0041236672423715
 31
0.0
  0
LINE
  5
EE
100
AcDbEntity
  8
0
 62
0
370
-1
 48
1.0
  6
BYLAYER
100
AcDbLine
 10
-8.189281641928428
 20
-30.0041236672423715
 30
0.0
 11
-11.8121788714644929
 21
-43.52496019847149
 31
0.0
  0
LINE
  5
EF
100
AcDbEntity
  8
0
 62
0
370
-1
 48
1.0
  6
BYLAYER
100
AcDbLine
 10
-11.8121788714644929
 20
-43.52496019847149
 30
0.0
 11
-25.3333051804415241
 21
-39.9019853232219361
 31
0.0
  0
LINE
  5
F0
100
AcDbEntity
  8
0
 62
0
370
-1
 48
1.0
  6
BYLAYER
100
AcDbLine
 10
-25.3333051804415241
 20
-39.9019853232219361
 30
0.0
 11
-21.7104079509054451
 21
-26.3811487919927821
 31
0.0
  0
LINE
  5
F1
100
AcDbEntity
  8
0
 62
0
370
-1
 48
1.0
  6
BYLAYER
100
AcDbLine
 10
212.6972888614691328
 20
-13.4521364070300073
 30
0.0
 11
226.2183185778634709
 21
-9.8291874136849451
 31
0.0
  0
LINE
  5
F2
100
AcDbEntity
  8
0
 62
0
370
-1
 48
1.0
  6
BYLAYER
100
AcDbLine
 10
226.2183185778634709
 20
-9.8291874136849451
 30
0.0
 11
229.8412158073995215
 21
-23.3500239449140174
 31
0.0
  0
LINE
  5
F3
100
AcDbEntity
  8
0
 62
0
370
-1
 48
1.0
  6
BYLAYER
100
AcDbLine
 10
229.8412158073995215
 20
-23.3500239449140174
 30
0.0
 11
216.3201860910052119
 21
-26.9729729382591152
 31
0.0
  0
LINE
  5
F4
100
AcDbEntity
  8
0
 62
0
370
-1
 48
1.0
  6
BYLAYER
100
AcDbLine
 10
216.3201860910052119
 20
-26.9729729382591152
 30
0.0
 11
212.6972888614691328
 21
-13.4521364070300073
 31
0.0
  0
LINE
  5
F5
100
AcDbEntity
  8
0
 62
0
370
-1
 48
1.0
  6
BYLAYER
100
AcDbLine
 10
194.296401870662379
 20
-18.3826392162330627
 30
0.0
 11
207.8174315870567739
 21
-14.7596902228879792
 31
0.0
  0
LINE
  5
F6
100
AcDbEntity
  8
0
 62
0
370
-1
 48
1.0
  6
BYLAYER
100
AcDbLine
 10
207.8174315870567739
 20
-14.7596902228879792
 30
0.0
 11
211.4403288165928245
 21
-28.2805267541170515
 31
0.0
  0
LINE
  5
F7
100
AcDbEntity
  8
0
 62
0
370
-1
 48
1.0
  6
BYLAYER
100
AcDbLine
 10
211.4403288165928245
 20
-28.2805267541170515
 30
0.0
 11
197.9192991001984296
 21
-31.9034757474621777
 31
0.0
  0
LINE
  5
F8
100
AcDbEntity
  8
0
 62
0
370
-1
 48
1.0
  6
BYLAYER
100
AcDbLine
 10
197.9192991001984296
 20
-31.9034757474621777
 30
0.0
 11
194.296401870662379
 21
-18.3826392162330627
 31
0.0
  0
LINE
  5
F9
100
AcDbEntity
  8
0
 62
0
370
-1
 48
1.0
  6
BYLAYER
100
AcDbLine
 10
175.8955148798556252
 20
-23.3131420254360613
 30
0.0
 11
189.41654459625002
 21
-19.6901930320909919
 31
0.0
  0
LINE
  5
FA
100
AcDbEntity
  8
0
 62
0
370
-1
 48
1.0
  6
BYLAYER
100
AcDbLine
 10
189.41654459625002
 20
-19.6901930320909919
 30
0.0
 11
193.0394418257860707
 21
-33.2110295633200963
 31
0.0
  0
LINE
  5
FB
100
AcDbEntity
  8
0
 62
0
370
-1
 48
1.0
  6
BYLAYER
100
AcDbLine
 10
193.0394418257860707
 20
-33.2110295633200963
 30
0.0
 11
179.5184121093917042
 21
-36.8339785566651727
 31
0.0
  0
LINE
  5
FC
100
AcDbEntity
  8
0
 62
0
370
-1
 48
1.0
  6
BYLAYER
100
AcDbLine
 10
179.5184121093917042
 20
-36.8339785566651727
 30
0.0
 11
175.8955148798556252
 21
-23.3131420254360613
 31
0.0
  0
LINE
  5
FD
100
AcDbEntity
  8
0
 62
0
370
-1
 48
1.0
  6
BYLAYER
100
AcDbLine
 10
157.4946278890488998
 20
-28.2436448346390883
 30
0.0
 11
171.0156576054432662
 21
-24.6206958412940118
 31
0.0
  0
LINE
  5
FE
100
AcDbEntity
  8
0
 62
0
370
-1
 48
1.0
  6
BYLAYER
100
AcDbLine
 10
171.0156576054432662
 20
-24.6206958412940118
 30
0.0
 11
174.6385548349793169
 21
-38.1415323725231161
 31
0.0
  0
LINE
  5
FF
100
AcDbEntity
  8
0
 62
0
370
-1
 48
1.0
  6
BYLAYER
100
AcDbLine
 10
174.6385548349793169
 20
-38.1415323725231161
 30
0.0
 11
161.117525118584922
 21
-41.7644813658681926
 31
0.0
  0
LINE
  5
100
100
AcDbEntity
  8
0
 62
0
370
-1
 48
1.0
  6
BYLAYER
100
AcDbLine
 10
161.117525118584922
 20
-41.7644813658681926
 30
0.0
 11
157.4946278890488998
 21
-28.2436448346390883
 31
0.0
  0
LINE
  5
101
100
AcDbEntity
  8
0
 62
0
370
-1
 48
1.0
  6
BYLAYER
100
AcDbLine
 10
139.0937408982421175
 20
-33.1741476438421188
 30
0.0
 11
152.6147706146365124
 21
-29.5511986504970174
 31
0.0
  0
LINE
  5
102
100
AcDbEntity
  8
0
 62
0
370
-1
 48
1.0
  6
BYLAYER
100
AcDbLine
 10
152.6147706146365124
 20
-29.5511986504970174
 30
0.0
 11
156.237667844172563
 21
-43.072035181726136
 31
0.0
  0
LINE
  5
103
100
AcDbEntity
  8
0
 62
0
370
-1
 48
1.0
  6
BYLAYER
100
AcDbLine
 10
156.237667844172563
 20
-43.072035181726136
 30
0.0
 11
142.7166381277781966
 21
-46.6949841750712267
 31
0.0
  0
LINE
  5
104
100
AcDbEntity
  8
0
 62
0
370
-1
 48
1.0
  6
BYLAYER
100
AcDbLine
 10
142.7166381277781966
 20
-46.6949841750712267
 30
0.0
 11
139.0937408982421175
 21
-33.1741476438421188
 31
0.0
  0
LINE
  5
105
100
AcDbEntity
  8
0
 62
0
370
-1
 48
1.0
  6
BYLAYER
100
AcDbLine
 10
120.6928539074353921
 20
-38.1046504530451244
 30
0.0
 11
134.2138836238297586
 21
-34.481701459700048
 31
0.0
  0
LINE
  5
106
100
AcDbEntity
  8
0
 62
0
370
-1
 48
1.0
  6
BYLAYER
100
AcDbLine
 10
134.2138836238297586
 20
-34.481701459700048
 30
0.0
 11
137.8367808533658092
 21
-48.0025379909291559
 31
0.0
  0
LINE
  5
107
100
AcDbEntity
  8
0
 62
0
370
-1
 48
1.0
  6
BYLAYER
100
AcDbLine
 10
137.8367808533658092
 20
-48.0025379909291559
 30
0.0
 11
124.3157511369714427
 21
-51.6254869842742323
 31
0.0
  0
LINE
  5
108
100
AcDbEntity
  8
0
 62
0
370
-1
 48
1.0
  6
BYLAYER
100
AcDbLine
 10
124.3157511369714427
 20
-51.6254869842742323
 30
0.0
 11
120.6928539074353921
 21
-38.1046504530451244
 31
0.0
  0
LINE
  5
109
100
AcDbEntity
  8
0
 62
0
370
-1
 48
1.0
  6
BYLAYER
100
AcDbLine
 10
82.1248141375925513
 20
-34.4817014597000338
 30
0.0
 11
95.6458438539869178
 21
-38.1046504530451244
 31
0.0
  0
LINE
  5
10A
100
AcDbEntity
  8
0
 62
0
370
-1
 48
1.0
  6
BYLAYER
100
AcDbLine
 10
95.6458438539869178
 20
-38.1046504530451244
 30
0.0
 11
92.0229466244508671
 21
-51.6254869842742323
 31
0.0
  0
LINE
  5
10B
100
AcDbEntity
  8
0
 62
0
370
-1
 48
1.0
  6
BYLAYER
100
AcDbLine
 10
92.0229466244508671
 20
-51.6254869842742323
 30
0.0
 11
78.5019169080564865
 21
-48.0025379909291487
 31
0.0
  0
LINE
  5
10C
100
AcDbEntity
  8
0
 62
0
370
-1
 48
1.0
  6
BYLAYER
100
AcDbLine
 10
78.5019169080564865
 20
-48.0025379909291487
 30
0.0
 11
82.1248141375925513
 21
-34.4817014597000338
 31
0.0
  0
LINE
  5
10D
100
AcDbEntity
  8
0
 62
0
370
-1
 48
1.0
  6
BYLAYER
100
AcDbLine
 10
63.7240237393684197
 20
-29.5512245324015304
 30
0.0
 11
77.244956863180164
 21
-33.1741476438421046
 31
0.0
  0
LINE
  5
10E
100
AcDbEntity
  8
0
 62
0
370
-1
 48
1.0
  6
BYLAYER
100
AcDbLine
 10
77.244956863180164
 20
-33.1741476438421046
 30
0.0
 11
73.6220596336440991
 21
-46.6949841750712125
 31
0.0
  0
LINE
  5
10F
100
AcDbEntity
  8
0
 62
0
370
-1
 48
1.0
  6
BYLAYER
100
AcDbLine
 10
73.6220596336440991
 20
-46.6949841750712125
 30
0.0
 11
60.1011265098323548
 21
-43.0720610636306418
 31
0.0
  0
LINE
  5
110
100
AcDbEntity
  8
0
 62
0
370
-1
 48
1.0
  6
BYLAYER
100
AcDbLine
 10
60.1011265098323548
 20
-43.0720610636306418
 30
0.0
 11
63.7240237393684197
 21
-29.5512245324015304
 31
0.0
  0
LINE
  5
111
100
AcDbEntity
  8
0
 62
0
370
-1
 48
1.0
  6
BYLAYER
100
AcDbLine
 10
45.3231367485616943
 20
-24.6207217231985034
 30
0.0
 11
58.8440698723734101
 21
-28.2436448346390883
 31
0.0
  0
LINE
  5
112
100
AcDbEntity
  8
0
 62
0
370
-1
 48
1.0
  6
BYLAYER
100
AcDbLine
 10
58.8440698723734101
 20
-28.2436448346390883
 30
0.0
 11
55.2211726428373595
 21
-41.7644813658681926
 31
0.0
  0
LINE
  5
113
100
AcDbEntity
  8
0
 62
0
370
-1
 48
1.0
  6
BYLAYER
100
AcDbLine
 10
55.2211726428373595
 20
-41.7644813658681926
 30
0.0
 11
41.7002395190256152
 21
-38.1415582544276219
 31
0.0
  0
LINE
  5
114
100
AcDbEntity
  8
0
 62
0
370
-1
 48
1.0
  6
BYLAYER
100
AcDbLine
 10
41.7002395190256152
 20
-38.1415582544276219
 30
0.0
 11
45.3231367485616943
 21
-24.6207217231985034
 31
0.0
  0
LINE
  5
115
100
AcDbEntity
  8
0
 62
0
370
-1
 48
1.0
  6
BYLAYER
100
AcDbLine
 10
26.9222497577549014
 20
-19.6902189139954835
 30
0.0
 11
40.4431828815666989
 21
-23.3131420254360542
 31
0.0
  0
LINE
  5
116
100
AcDbEntity
  8
0
 62
0
370
-1
 48
1.0
  6
BYLAYER
100
AcDbLine
 10
40.4431828815666989
 20
-23.3131420254360542
 30
0.0
 11
36.8202856520306199
 21
-36.8339785566651727
 31
0.0
  0
LINE
  5
117
100
AcDbEntity
  8
0
 62
0
370
-1
 48
1.0
  6
BYLAYER
100
AcDbLine
 10
36.8202856520306199
 20
-36.8339785566651727
 30
0.0
 11
23.2993525282188507
 21
-33.2110554452245736
 31
0.0
  0
LINE
  5
118
100
AcDbEntity
  8
0
 62
0
370
-1
 48
1.0
  6
BYLAYER
100
AcDbLine
 10
23.2993525282188507
 20
-33.2110554452245736
 30
0.0
 11
26.9222497577549014
 21
-19.6902189139954835
 31
0.0
  0
LINE
  5
119
100
AcDbEntity
  8
0
 62
0
370
-1
 48
1.0
  6
BYLAYER
100
AcDbLine
 10
8.5213627669482044
 20
-14.7597161047924423
 30
0.0
 11
22.0422958907599416
 21
-18.3826392162330272
 31
0.0
  0
LINE
  5
11A
100
AcDbEntity
  8
0
 62
0
370
-1
 48
1.0
  6
BYLAYER
100
AcDbLine
 10
-42.0809798651877998
 20
-1.2008592613887394
 30
0.0
 11
-28.5600467413760519
 21
-4.8237823728292959
 31
0.0
  0
LINE
  5
11B
100
AcDbEntity
  8
0
 62
0
370
-1
 48
1.0
  6
BYLAYER
100
AcDbLine
 10
22.0422958907599416
 20
-18.3826392162330272
 30
0.0
 11
18.4193986612238554
 21
-31.9034757474621493
 31
0.0
  0
LINE
  5
11C
100
AcDbEntity
  8
0
 62
0
370
-1
 48
1.0
  6
BYLAYER
100
AcDbLine
 10
-28.5600467413760519
 20
-4.8237823728292959
 30
0.0
 11
-32.1829439709121203
 21
-18.3446189040584109
 31
0.0
  0
LINE
  5
11D
100
AcDbEntity
  8
0
 62
0
370
-1
 48
1.0
  6
BYLAYER
100
AcDbLine
 10
18.4193986612238554
 20
-31.9034757474621493
 30
0.0
 11
4.8984655374121253
 21
-28.2805526360215573
 31
0.0
  0
LINE
  5
11E
100
AcDbEntity
  8
0
 62
0
370
-1
 48
1.0
  6
BYLAYER
100
AcDbLine
 10
-32.1829439709121203
 20
-18.3446189040584109
 30
0.0
 11
-45.7038770947238504
 21
-14.7216957926178331
 31
0.0
  0
LINE
  5
11F
100
AcDbEntity
  8
0
 62
0
370
-1
 48
1.0
  6
BYLAYER
100
AcDbLine
 10
4.8984655374121253
 20
-28.2805526360215573
 30
0.0
 11
8.5213627669482044
 21
-14.7597161047924423
 31
0.0
  0
LINE
  5
120
100
AcDbEntity
  8
0
 62
0
370
-1
 48
1.0
  6
BYLAYER
100
AcDbLine
 10
-45.7038770947238504
 20
-14.7216957926178331
 30
0.0
 11
-42.0809798651877998
 21
-1.2008592613887394
 31
0.0
  0
LINE
  5
121
100
AcDbEntity
  8
0
 62
0
370
-1
 48
1.0
  6
BYLAYER
100
AcDbLine
 10
-9.8796208164412285
 20
-9.8291874136849309
 30
0.0
 11
3.6414088999531664
 21
-13.4521364070300216
 31
0.0
  0
LINE
  5
122
100
AcDbEntity
  8
0
 62
0
370
-1
 48
1.0
  6
BYLAYER
100
AcDbLine
 10
3.6414088999531664
 20
-13.4521364070300216
 30
0.0
 11
0.0185116704171158
 21
-26.9729729382591152
 31
0.0
  0
LINE
  5
123
100
AcDbEntity
  8
0
 62
0
370
-1
 48
1.0
  6
BYLAYER
100
AcDbLine
 10
0.0185116704171158
 20
-26.9729729382591152
 30
0.0
 11
-13.5025180459772791
 21
-23.3500239449140459
 31
0.0
  0
LINE
  5
124
100
AcDbEntity
  8
0
 62
0
370
-1
 48
1.0
  6
BYLAYER
100
AcDbLine
 10
-13.5025180459772791
 20
-23.3500239449140459
 30
0.0
 11
-9.8796208164412285
 21
-9.8291874136849309
 31
0.0
  0
LINE
  5
125
100
AcDbEntity
  8
0
 62
0
370
-1
 48
1.0
  6
BYLAYER
100
AcDbLine
 10
207.7666825246481039
 20
4.9491369541072636
 30
0.0
 11
221.2877122410424136
 21
8.5720859474523401
 31
0.0
  0
LINE
  5
126
100
AcDbEntity
  8
0
 62
0
370
-1
 48
1.0
  6
BYLAYER
100
AcDbLine
 10
221.2877122410424136
 20
8.5720859474523401
 30
0.0
 11
224.9107129981965159
 21
-4.9491369541072991
 31
0.0
  0
LINE
  5
127
100
AcDbEntity
  8
0
 62
0
370
-1
 48
1.0
  6
BYLAYER
100
AcDbLine
 10
224.9107129981965159
 20
-4.9491369541072991
 30
0.0
 11
211.3896832818022062
 21
-8.5720859474523756
 31
0.0
  0
LINE
  5
128
100
AcDbEntity
  8
0
 62
0
370
-1
 48
1.0
  6
BYLAYER
100
AcDbLine
 10
211.3896832818022062
 20
-8.5720859474523756
 30
0.0
 11
207.7666825246481039
 21
4.9491369541072636
 31
0.0
  0
LINE
  5
129
100
AcDbEntity
  8
0
 62
0
370
-1
 48
1.0
  6
BYLAYER
100
AcDbLine
 10
189.3657955338412933
 20
0.018634144904258
 30
0.0
 11
202.8868252502356881
 21
3.6415831382493202
 31
0.0
  0
LINE
  5
12A
100
AcDbEntity
  8
0
 62
0
370
-1
 48
1.0
  6
BYLAYER
100
AcDbLine
 10
202.8868252502356881
 20
3.6415831382493202
 30
0.0
 11
206.5098260073898189
 21
-9.8796397633103332
 31
0.0
  0
LINE
  5
12B
100
AcDbEntity
  8
0
 62
0
370
-1
 48
1.0
  6
BYLAYER
100
AcDbLine
 10
206.5098260073898189
 20
-9.8796397633103332
 30
0.0
 11
192.988796290995424
 21
-13.5025887566554381
 31
0.0
  0
LINE
  5
12C
100
AcDbEntity
  8
0
 62
0
370
-1
 48
1.0
  6
BYLAYER
100
AcDbLine
 10
192.988796290995424
 20
-13.5025887566554381
 30
0.0
 11
189.3657955338412933
 21
0.018634144904258
 31
0.0
  0
LINE
  5
12D
100
AcDbEntity
  8
0
 62
0
370
-1
 48
1.0
  6
BYLAYER
100
AcDbLine
 10
170.9649085430345679
 20
-4.9118686642987619
 30
0.0
 11
184.4859382594289627
 21
-1.2889196709536996
 31
0.0
  0
LINE
  5
12E
100
AcDbEntity
  8
0
 62
0
370
-1
 48
1.0
  6
BYLAYER
100
AcDbLine
 10
184.4859382594289627
 20
-1.2889196709536996
 30
0.0
 11
188.108939016583065
 21
-14.8101425725133531
 31
0.0
  0
LINE
  5
12F
100
AcDbEntity
  8
0
 62
0
370
-1
 48
1.0
  6
BYLAYER
100
AcDbLine
 10
188.108939016583065
 20
-14.8101425725133531
 30
0.0
 11
174.5879093001886986
 21
-18.4330915658584367
 31
0.0
  0
LINE
  5
130
100
AcDbEntity
  8
0
 62
0
370
-1
 48
1.0
  6
BYLAYER
100
AcDbLine
 10
174.5879093001886986
 20
-18.4330915658584367
 30
0.0
 11
170.9649085430345679
 21
-4.9118686642987619
 31
0.0
  0
LINE
  5
131
100
AcDbEntity
  8
0
 62
0
370
-1
 48
1.0
  6
BYLAYER
100
AcDbLine
 10
152.564021552227814
 20
-9.842371473501796
 30
0.0
 11
166.0850512686221805
 21
-6.2194224801567053
 31
0.0
  0
LINE
  5
132
100
AcDbEntity
  8
0
 62
0
370
-1
 48
1.0
  6
BYLAYER
100
AcDbLine
 10
166.0850512686221805
 20
-6.2194224801567053
 30
0.0
 11
169.7080520257763112
 21
-19.7406453817163872
 31
0.0
  0
LINE
  5
133
100
AcDbEntity
  8
0
 62
0
370
-1
 48
1.0
  6
BYLAYER
100
AcDbLine
 10
169.7080520257763112
 20
-19.7406453817163872
 30
0.0
 11
156.1870223093819163
 21
-23.3635943750614565
 31
0.0
  0
LINE
  5
134
100
AcDbEntity
  8
0
 62
0
370
-1
 48
1.0
  6
BYLAYER
100
AcDbLine
 10
156.1870223093819163
 20
-23.3635943750614565
 30
0.0
 11
152.564021552227814
 21
-9.842371473501796
 31
0.0
  0
LINE
  5
135
100
AcDbEntity
  8
0
 62
0
370
-1
 48
1.0
  6
BYLAYER
100
AcDbLine
 10
134.1631345614210602
 20
-14.7728742827048301
 30
0.0
 11
147.6841642778154551
 21
-11.1499252893597252
 31
0.0
  0
LINE
  5
136
100
AcDbEntity
  8
0
 62
0
370
-1
 48
1.0
  6
BYLAYER
100
AcDbLine
 10
147.6841642778154551
 20
-11.1499252893597252
 30
0.0
 11
151.3071650349695574
 21
-24.6711481909193999
 31
0.0
  0
LINE
  5
137
100
AcDbEntity
  8
0
 62
0
370
-1
 48
1.0
  6
BYLAYER
100
AcDbLine
 10
151.3071650349695574
 20
-24.6711481909193999
 30
0.0
 11
137.7861353185751625
 21
-28.2940971842644764
 31
0.0
  0
LINE
  5
138
100
AcDbEntity
  8
0
 62
0
370
-1
 48
1.0
  6
BYLAYER
100
AcDbLine
 10
137.7861353185751625
 20
-28.2940971842644764
 30
0.0
 11
134.1631345614210602
 21
-14.7728742827048301
 31
0.0
  0
LINE
  5
139
100
AcDbEntity
  8
0
 62
0
370
-1
 48
1.0
  6
BYLAYER
100
AcDbLine
 10
115.7622475706143064
 20
-19.7033770919078357
 30
0.0
 11
129.2832772870086728
 21
-16.0804280985627521
 31
0.0
  0
LINE
  5
13A
100
AcDbEntity
  8
0
 62
0
370
-1
 48
1.0
  6
BYLAYER
100
AcDbLine
 10
129.2832772870086728
 20
-16.0804280985627521
 30
0.0
 11
132.9062780441628036
 21
-29.6016510001224127
 31
0.0
  0
LINE
  5
13B
100
AcDbEntity
  8
0
 62
0
370
-1
 48
1.0
  6
BYLAYER
100
AcDbLine
 10
132.9062780441628036
 20
-29.6016510001224127
 30
0.0
 11
119.3852483277684371
 21
-33.2245999934674927
 31
0.0
  0
LINE
  5
13C
100
AcDbEntity
  8
0
 62
0
370
-1
 48
1.0
  6
BYLAYER
100
AcDbLine
 10
119.3852483277684371
 20
-33.2245999934674927
 30
0.0
 11
115.7622475706143064
 21
-19.7033770919078357
 31
0.0
  0
LINE
  5
13D
100
AcDbEntity
  8
0
 62
0
370
-1
 48
1.0
  6
BYLAYER
100
AcDbLine
 10
87.0554204744136086
 20
-16.080428098562745
 30
0.0
 11
100.5764501908079893
 21
-19.7033770919078286
 31
0.0
  0
LINE
  5
13E
100
AcDbEntity
  8
0
 62
0
370
-1
 48
1.0
  6
BYLAYER
100
AcDbLine
 10
100.5764501908079893
 20
-19.7033770919078286
 30
0.0
 11
96.9534494336538728
 21
-33.2245999934674927
 31
0.0
  0
LINE
  5
13F
100
AcDbEntity
  8
0
 62
0
370
-1
 48
1.0
  6
BYLAYER
100
AcDbLine
 10
96.9534494336538728
 20
-33.2245999934674927
 30
0.0
 11
83.4324197172594921
 21
-29.6016510001224056
 31
0.0
  0
LINE
  5
140
100
AcDbEntity
  8
0
 62
0
370
-1
 48
1.0
  6
BYLAYER
100
AcDbLine
 10
83.4324197172594921
 20
-29.6016510001224056
 30
0.0
 11
87.0554204744136086
 21
-16.080428098562745
 31
0.0
  0
LINE
  5
141
100
AcDbEntity
  8
0
 62
0
370
-1
 48
1.0
  6
BYLAYER
100
AcDbLine
 10
68.654630076189477
 20
-11.1499511712642452
 30
0.0
 11
82.1755632000012355
 21
-14.7728742827048016
 31
0.0
  0
LINE
  5
142
100
AcDbEntity
  8
0
 62
0
370
-1
 48
1.0
  6
BYLAYER
100
AcDbLine
 10
82.1755632000012355
 20
-14.7728742827048016
 30
0.0
 11
78.552562442847119
 21
-28.2940971842644764
 31
0.0
  0
LINE
  5
143
100
AcDbEntity
  8
0
 62
0
370
-1
 48
1.0
  6
BYLAYER
100
AcDbLine
 10
78.552562442847119
 20
-28.2940971842644764
 30
0.0
 11
65.0316293190353605
 21
-24.6711740728238986
 31
0.0
  0
LINE
  5
144
100
AcDbEntity
  8
0
 62
0
370
-1
 48
1.0
  6
BYLAYER
100
AcDbLine
 10
65.0316293190353605
 20
-24.6711740728238986
 30
0.0
 11
68.654630076189477
 21
-11.1499511712642452
 31
0.0
  0
LINE
  5
145
100
AcDbEntity
  8
0
 62
0
370
-1
 48
1.0
  6
BYLAYER
100
AcDbLine
 10
50.2537430853827374
 20
-6.2194483620612253
 30
0.0
 11
63.7746762091944817
 21
-9.842371473501796
 31
0.0
  0
LINE
  5
146
100
AcDbEntity
  8
0
 62
0
370
-1
 48
1.0
  6
BYLAYER
100
AcDbLine
 10
63.7746762091944817
 20
-9.842371473501796
 30
0.0
 11
60.1516754520403651
 21
-23.3635943750614565
 31
0.0
  0
LINE
  5
147
100
AcDbEntity
  8
0
 62
0
370
-1
 48
1.0
  6
BYLAYER
100
AcDbLine
 10
60.1516754520403651
 20
-23.3635943750614565
 30
0.0
 11
46.6307423282286493
 21
-19.7406712636208717
 31
0.0
  0
LINE
  5
148
100
AcDbEntity
  8
0
 62
0
370
-1
 48
1.0
  6
BYLAYER
100
AcDbLine
 10
46.6307423282286493
 20
-19.7406712636208717
 30
0.0
 11
50.2537430853827374
 21
-6.2194483620612253
 31
0.0
  0
LINE
  5
149
100
AcDbEntity
  8
0
 62
0
370
-1
 48
1.0
  6
BYLAYER
100
AcDbLine
 10
31.8528560945759871
 20
-1.2889455528581912
 30
0.0
 11
45.3737892183877278
 21
-4.9118686642987619
 31
0.0
  0
LINE
  5
14A
100
AcDbEntity
  8
0
 62
0
370
-1
 48
1.0
  6
BYLAYER
100
AcDbLine
 10
45.3737892183877278
 20
-4.9118686642987619
 30
0.0
 11
41.7507884612336539
 21
-18.4330915658584296
 31
0.0
  0
LINE
  5
14B
100
AcDbEntity
  8
0
 62
0
370
-1
 48
1.0
  6
BYLAYER
100
AcDbLine
 10
41.7507884612336539
 20
-18.4330915658584296
 30
0.0
 11
28.2298553374218635
 21
-14.8101684544178589
 31
0.0
  0
LINE
  5
14C
100
AcDbEntity
  8
0
 62
0
370
-1
 48
1.0
  6
BYLAYER
100
AcDbLine
 10
28.2298553374218635
 20
-14.8101684544178589
 30
0.0
 11
31.8528560945759871
 21
-1.2889455528581912
 31
0.0
  0
LINE
  5
14D
100
AcDbEntity
  8
0
 62
0
370
-1
 48
1.0
  6
BYLAYER
100
AcDbLine
 10
13.4519691037692688
 20
3.6415572563448286
 30
0.0
 11
26.9729022275809847
 21
0.0186341449042438
 31
0.0
  0
LINE
  5
14E
100
AcDbEntity
  8
0
 62
0
370
-1
 48
1.0
  6
BYLAYER
100
AcDbLine
 10
-37.1503735283666856
 20
17.2004140997486452
 30
0.0
 11
-23.6294404045549378
 21
13.5774909883080319
 31
0.0
  0
LINE
  5
14F
100
AcDbEntity
  8
0
 62
0
370
-1
 48
1.0
  6
BYLAYER
100
AcDbLine
 10
26.9729022275809847
 20
0.0186341449042438
 30
0.0
 11
23.3499014704268681
 21
-13.5025887566554097
 31
0.0
  0
LINE
  5
150
100
AcDbEntity
  8
0
 62
0
370
-1
 48
1.0
  6
BYLAYER
100
AcDbLine
 10
-23.6294404045549378
 20
13.5774909883080319
 30
0.0
 11
-27.2524411617090685
 21
0.0562680867484069
 31
0.0
  0
LINE
  5
151
100
AcDbEntity
  8
0
 62
0
370
-1
 48
1.0
  6
BYLAYER
100
AcDbLine
 10
23.3499014704268681
 20
-13.5025887566554097
 30
0.0
 11
9.8289683466151594
 21
-9.8796656452148106
 31
0.0
  0
LINE
  5
152
100
AcDbEntity
  8
0
 62
0
370
-1
 48
1.0
  6
BYLAYER
100
AcDbLine
 10
-27.2524411617090685
 20
0.0562680867484069
 30
0.0
 11
-40.7733742855208163
 21
3.6791911981889918
 31
0.0
  0
LINE
  5
153
100
AcDbEntity
  8
0
 62
0
370
-1
 48
1.0
  6
BYLAYER
100
AcDbLine
 10
9.8289683466151594
 20
-9.8796656452148106
 30
0.0
 11
13.4519691037692688
 21
3.6415572563448286
 31
0.0
  0
LINE
  5
154
100
AcDbEntity
  8
0
 62
0
370
-1
 48
1.0
  6
BYLAYER
100
AcDbLine
 10
-40.7733742855208163
 20
3.6791911981889918
 30
0.0
 11
-37.1503735283666856
 21
17.2004140997486452
 31
0.0
  0
LINE
  5
155
100
AcDbEntity
  8
0
 62
0
370
-1
 48
1.0
  6
BYLAYER
100
AcDbLine
 10
-4.9490144796201427
 20
8.5720859474523543
 30
0.0
 11
8.5720152367742664
 21
4.9491369541072778
 31
0.0
  0
LINE
  5
156
100
AcDbEntity
  8
0
 62
0
370
-1
 48
1.0
  6
BYLAYER
100
AcDbLine
 10
8.5720152367742664
 20
4.9491369541072778
 30
0.0
 11
4.9490144796201356
 21
-8.5720859474523614
 31
0.0
  0
LINE
  5
157
100
AcDbEntity
  8
0
 62
0
370
-1
 48
1.0
  6
BYLAYER
100
AcDbLine
 10
4.9490144796201356
 20
-8.5720859474523614
 30
0.0
 11
-8.5720152367742166
 21
-4.9491369541072565
 31
0.0
  0
LINE
  5
158
100
AcDbEntity
  8
0
 62
0
370
-1
 48
1.0
  6
BYLAYER
100
AcDbLine
 10
-8.5720152367742166
 20
-4.9491369541072565
 30
0.0
 11
-4.9490144796201427
 21
8.5720859474523543
 31
0.0
  0
LINE
  5
159
100
AcDbEntity
  8
0
 62
256
370
-1
 48
1.0
  6
BYLAYER
100
AcDbLine
 10
-22.0406890124067552
 20
-46.0146614851002909
 30
0.0
 11
-12.1425116967748572
 21
-63.1586660767442396
 31
0.0
  0
LINE
  5
15A
100
AcDbEntity
  8
0
 62
256
370
-1
 48
1.0
  6
BYLAYER
100
AcDbLine
 10
-8.5195627034297665
 20
-49.6376363603498874
 30
0.0
 11
-25.6636380057518458
 21
-59.5356912014946573
 31
0.0
  0
LINE
  5
15B
100
AcDbEntity
  8
0
 62
256
370
-1
 48
1.0
  6
BYLAYER
100
AcDbLine
 10
-21.7104079509054451
 20
-26.3811487919927821
 30
0.0
 11
-11.8121788714644929
 21
-43.52496019847149
 31
0.0
  0
LINE
  5
15C
100
AcDbEntity
  8
0
 62
256
370
-1
 48
1.0
  6
BYLAYER
100
AcDbLine
 10
-8.189281641928428
 20
-30.0041236672423715
 30
0.0
 11
-25.3333051804415241
 21
-39.9019853232219361
 31
0.0
  0
LINE
  5
15D
100
AcDbEntity
  8
0
 62
256
370
-1
 48
1.0
  6
BYLAYER
100
AcDbLine
 10
-4.9490144796201427
 20
8.5720859474523543
 30
0.0
 11
4.9490144796201356
 21
-8.5720859474523614
 31
0.0
  0
LINE
  5
15E
100
AcDbEntity
  8
0
 62
256
370
-1
 48
1.0
  6
BYLAYER
100
AcDbLine
 10
8.5720152367742664
 20
4.9491369541072778
 30
0.0
 11
-8.5720152367742166
 21
-4.9491369541072565
 31
0.0
  0
LINE
  5
15F
100
AcDbEntity
  8
0
 62
256
370
-1
 48
1.0
  6
BYLAYER
100
AcDbLine
 10
207.7666825246481039
 20
4.9491369541072636
 30
0.0
 11
224.9107129981965159
 21
-4.9491369541072991
 31
0.0
  0
LINE
  5
160
100
AcDbEntity
  8
0
 62
256
370
-1
 48
1.0
  6
BYLAYER
100
AcDbLine
 10
221.2877122410424136
 20
8.5720859474523401
 30
0.0
 11
211.3896832818022062
 21
-8.5720859474523756
 31
0.0
  0
LINE
  5
161
100
AcDbEntity
  8
0
 62
256
370
-1
 48
1.0
  6
BYLAYER
100
AcDbLine
 10
224.8581638722694436
 20
-49.6376622422544287
 30
0.0
 11
242.0021425820089576
 21
-59.5357429653037258
 31
0.0
  0
LINE
  5
162
100
AcDbEntity
  8
0
 62
256
370
-1
 48
1.0
  6
BYLAYER
100
AcDbLine
 10
238.3791935886638953
 20
-46.0147132489093593
 30
0.0
 11
228.4811128656145343
 21
-63.1586919586488591
 31
0.0
  0
LINE
  5
163
100
AcDbEntity
  8
0
 62
256
370
-1
 48
1.0
  6
BYLAYER
100
AcDbLine
 10
233.3211358942629374
 20
-72.0224262417911092
 30
0.0
 11
250.4651327213356353
 21
-81.9205745796483598
 31
0.0
  0
LINE
  5
164
100
AcDbEntity
  8
0
 62
256
370
-1
 48
1.0
  6
BYLAYER
100
AcDbLine
 10
246.8421656106573892
 20
-68.3994772484460754
 30
0.0
 11
236.944103004941212
 21
-85.543523572993422
 31
0.0
  0
LINE
  5
165
100
AcDbEntity
  8
0
 62
256
370
-1
 48
1.0
  6
BYLAYER
100
AcDbLine
 10
-30.5039508121481866
 20
-68.39934783892339
 30
0.0
 11
-20.6057916138494441
 21
-85.5434200453752567
 31
0.0
  0
LINE
  5
166
100
AcDbEntity
  8
0
 62
256
370
-1
 48
1.0
  6
BYLAYER
100
AcDbLine
 10
-16.9828245031711837
 20
-72.0223227141729865
 30
0.0
 11
-34.1269179228264505
 21
-81.9204451701256602
 31
0.0
  0
LINE
  5
167
100
AcDbEntity
  8
0
 62
256
370
-1
 48
1.0
  6
BYLAYER
100
AcDbLine
 10
52.3005236093953556
 20
-90.5867398898596292
 30
0.0
 11
57.4241122115698772
 21
-109.7084241138125122
 31
0.0
  0
LINE
  5
168
100
AcDbEntity
  8
0
 62
256
370
-1
 48
1.0
  6
BYLAYER
100
AcDbLine
 10
64.4231472115698978
 20
-97.5857398898596244
 30
0.0
 11
45.3014886093953066
 21
-102.7094241138124744
 31
0.0
  0
LINE
  5
169
100
AcDbEntity
  8
0
 62
256
370
-1
 48
1.0
  6
BYLAYER
100
AcDbLine
 10
74.6659495225356835
 20
-108.9986858753830035
 30
0.0
 11
79.7895431247102067
 21
-128.1203614390817904
 31
0.0
  0
LINE
  5
16A
100
AcDbEntity
  8
0
 62
256
370
-1
 48
1.0
  6
BYLAYER
100
AcDbLine
 10
86.7885731247101972
 20
-115.9976858753830271
 30
0.0
 11
67.6669195225356503
 21
-121.1213614390818094
 31
0.0
  0
LINE
  5
16B
100
AcDbEntity
  8
0
 62
256
370
-1
 48
1.0
  6
BYLAYER
100
AcDbLine
 10
129.5501246367120416
 20
-115.9976858753830413
 30
0.0
 11
148.6717782388866453
 21
-121.1213614390817952
 31
0.0
  0
LINE
  5
16C
100
AcDbEntity
  8
0
 62
256
370
-1
 48
1.0
  6
BYLAYER
100
AcDbLine
 10
141.6727482388866406
 20
-108.9986858753829893
 30
0.0
 11
136.5491546367119895
 21
-128.1203614390817904
 31
0.0
  0
LINE
  5
16D
100
AcDbEntity
  8
0
 62
256
370
-1
 48
1.0
  6
BYLAYER
100
AcDbLine
 10
164.0381741520269543
 20
-90.5867398898596576
 30
0.0
 11
158.9145855498523758
 21
-109.7084241138124696
 31
0.0
  0
LINE
  5
16E
100
AcDbEntity
  8
0
 62
256
370
-1
 48
1.0
  6
BYLAYER
100
AcDbLine
 10
151.9155505498524121
 20
-97.5857398898596529
 30
0.0
 11
171.0372091520269748
 21
-102.7094241138124886
 31
0.0
  0
POINT
  5
16F
100
AcDbEntity
  8
0
 62
256
370
-1
 48
1.0
  6
BYLAYER
100
AcDbPoint
 10
-0.0000000000000107
 20
-0.0000000000000107
 30
0.0
  0
LINE
  5
170
100
AcDbEntity
  8
0
 62
256
370
-1
 48
1.0
  6
BYLAYER
100
AcDbLine
 10
-50.6343799039268703
 20
-33.1225827834246616
 30
0.0
 11
-33.4905495505790185
 21
-23.2246693636359502
 31
0.0
  0
LINE
  5
171
100
AcDbEntity
  8
0
 62
256
370
-1
 48
1.0
  6
BYLAYER
100
AcDbLine
 10
-47.0114826743908054
 20
-19.6017462521954222
 30
0.0
 11
-37.1134467801150976
 21
-36.7455058948651612
 31
0.0
  0
ENDSEC
  0
SECTION
  2
OBJECTS
  0
DICTIONARY
  5
C
100
AcDbDictionary
280
0
281
1
  3
ACAD_GROUP
350
D
  3
ACAD_LAYOUT
350
1A
  3
ACAD_MLINESTYLE
350
17
  3
ACAD_PLOTSETTINGS
350
19
  3
ACAD_PLOTSTYLENAME
350
E
  3
AcDbVariableDictionary
350
172
  3
QCAD_OBJECTS
350
173
  0
DICTIONARY
  5
D
100
AcDbDictionary
280
0
281
1
  0
ACDBDICTIONARYWDFLT
  5
E
100
AcDbDictionary
281
1
  3
Normal
350
F
100
AcDbDictionaryWithDefault
340
F
  0
ACDBPLACEHOLDER
  5
F
  0
DICTIONARY
  5
17
100
AcDbDictionary
280
0
281
1
  3
Standard
350
18
  0
MLINESTYLE
  5
18
100
AcDbMlineStyle
  2
STANDARD
 70
0
  3

 62
256
 51
90.0
 52
90.0
 71
2
 49
0.5
 62
256
  6
BYLAYER
 49
-0.5
 62
256
  6
BYLAYER
  0
DICTIONARY
  5
19
100
AcDbDictionary
280
0
281
1
  0
DICTIONARY
  5
1A
100
AcDbDictionary
281
1
  3
Layout1
350
1E
  3
Layout2
350
26
  3
Model
350
22
  0
LAYOUT
  5
1E
100
AcDbPlotSettings
  1

  2
none_device
  4

  6

 40
0.0
 41
0.0
 42
0.0
 43
0.0
 44
0.0
 45
0.0
 46
0.0
 47
0.0
 48
0.0
 49
0.0
140
0.0
141
0.0
142
1.0
143
1.0
 70
688
 72
0
 73
0
 74
5
  7

 75
16
147
1.0
148
0.0
149
0.0
100
AcDbLayout
  1
Layout1
 70
1
 71
1
 10
0.0
 20
0.0
 11
420.0
 21
297.0
 12
0.0
 22
0.0
 32
0.0
 14
100000000000000000000.0
 24
100000000000000000000.0
 34
100000000000000000000.0
 15
-100000000000000000000.0
 25
-100000000000000000000.0
 35
-100000000000000000000.0
146
0.0
 13
0.0
 23
0.0
 33
0.0
 16
1.0
 26
0.0
 36
0.0
 17
0.0
 27
1.0
 37
0.0
 76
0
330
1B
  0
LAYOUT
  5
22
100
AcDbPlotSettings
  1

  2
none_device
  4

  6

 40
0.0
 41
0.0
 42
0.0
 43
0.0
 44
0.0
 45
0.0
 46
0.0
 47
0.0
 48
0.0
 49
0.0
140
0.0
141
0.0
142
1.0
143
1.0
 70
1712
 72
0
 73
0
 74
0
  7

 75
0
147
1.0
148
0.0
149
0.0
100
AcDbLayout
  1
Model
 70
1
 71
0
 10
0.0
 20
0.0
 11
12.0
 21
9.0
 12
0.0
 22
0.0
 32
0.0
 14
0.0
 24
0.0
 34
0.0
 15
0.0
 25
0.0
 35
0.0
146
0.0
 13
0.0
 23
0.0
 33
0.0
 16
1.0
 26
0.0
 36
0.0
 17
0.0
 27
1.0
 37
0.0
 76
0
330
1F
  0
LAYOUT
  5
26
100
AcDbPlotSettings
  1

  2
none_device
  4

  6

 40
0.0
 41
0.0
 42
0.0
 43
0.0
 44
0.0
 45
0.0
 46
0.0
 47
0.0
 48
0.0
 49
0.0
140
0.0
141
0.0
142
1.0
143
1.0
 70
688
 72
0
 73
0
 74
5
  7

 75
16
147
1.0
148
0.0
149
0.0
100
AcDbLayout
  1
Layout2
 70
1
 71
2
 10
0.0
 20
0.0
 11
12.0
 21
9.0
 12
0.0
 22
0.0
 32
0.0
 14
0.0
 24
0.0
 34
0.0
 15
0.0
 25
0.0
 35
0.0
146
0.0
 13
0.0
 23
0.0
 33
0.0
 16
1.0
 26
0.0
 36
0.0
 17
0.0
 27
1.0
 37
0.0
 76
0
330
23
  0
DICTIONARY
  5
172
100
AcDbDictionary
281
1
  3
DIMASSOC
350
175
  3
HIDETEXT
350
174
  0
DICTIONARYVAR
  5
174
100
DictionaryVariables
280
0
  1
2
  0
DICTIONARYVAR
  5
175
100
DictionaryVariables
280
0
  1
1
  0
DICTIONARY
  5
173
100
AcDbDictionary
281
1
  3
ColorSettings/BackgroundColor
350
176
  3
ColorSettings/ColorMode
350
177
  3
Grid/DisplayGrid00
350
178
  3
Grid/DisplayGrid01
350
179
  3
Grid/DisplayGrid02
350
17A
  3
Grid/DisplayGrid03
350
17B
  3
Grid/GridSpacingX00
350
17C
  3
Grid/GridSpacingX01
350
17D
  3
Grid/GridSpacingX02
350
17E
  3
Grid/GridSpacingX03
350
17F
  3
Grid/GridSpacingY00
350
180
  3
Grid/GridSpacingY01
350
181
  3
Grid/GridSpacingY02
350
182
  3
Grid/GridSpacingY03
350
183
  3
Grid/IsometricGrid00
350
184
  3
Grid/IsometricGrid01
350
185
  3
Grid/IsometricGrid02
350
186
  3
Grid/IsometricGrid03
350
187
  3
Grid/IsometricProjection00
350
188
  3
Grid/IsometricProjection01
350
189
  3
Grid/IsometricProjection02
350
18A
  3
Grid/IsometricProjection03
350
18B
  3
Grid/MetaGridSpacingX00
350
18C
  3
Grid/MetaGridSpacingX01
350
18D
  3
Grid/MetaGridSpacingX02
350
18E
  3
Grid/MetaGridSpacingX03
350
18F
  3
Grid/MetaGridSpacingY00
350
190
  3
Grid/MetaGridSpacingY01
350
191
  3
Grid/MetaGridSpacingY02
350
192
  3
Grid/MetaGridSpacingY03
350
193
  3
MultiPageSettings/Columns
350
194
  3
MultiPageSettings/GlueMarginsBottom
350
195
  3
MultiPageSettings/GlueMarginsLeft
350
196
  3
MultiPageSettings/GlueMarginsRight
350
197
  3
MultiPageSettings/GlueMarginsTop
350
198
  3
MultiPageSettings/PrintCropMarks
350
199
  3
MultiPageSettings/Rows
350
19A
  3
PageSettings/OffsetX
350
19B
  3
PageSettings/OffsetY
350
19C
  3
PageSettings/PageOrientation
350
19D
  3
PageSettings/PaperHeight
350
19E
  3
PageSettings/PaperWidth
350
19F
  3
PageSettings/Scale
350
1A0
  3
PageSettings/ShowPaperBorders
350
1A1
  3
PageTagSettings/EnablePageTags
350
1A2
  3
PageTagSettings/TagAlignment
350
1A3
  3
PageTagSettings/TagFont
350
1A4
  3
PageTagSettings/TagPosition
350
1A5
  3
QCADVersion
350
1A6
  3
UnitSettings/PaperUnit
350
1A7
  3
ViewportCenter
350
1A8
  3
ViewportHeight
350
1A9
  3
ViewportWidth
350
1AA
  0
XRECORD
  5
176
330
173
100
AcDbXrecord
280
1
1000
White
  0
XRECORD
  5
177
330
173
100
AcDbXrecord
280
1
1000
FullColor
  0
XRECORD
  5
178
330
173
100
AcDbXrecord
280
1
290
0
  0
XRECORD
  5
179
330
173
100
AcDbXrecord
280
1
290
1
  0
XRECORD
  5
17A
330
173
100
AcDbXrecord
280
1
290
1
  0
XRECORD
  5
17B
330
173
100
AcDbXrecord
280
1
290
1
  0
XRECORD
  5
17C
330
173
100
AcDbXrecord
280
1
1000
auto
  0
XRECORD
  5
17D
330
173
100
AcDbXrecord
280
1
1000
auto
  0
XRECORD
  5
17E
330
173
100
AcDbXrecord
280
1
1000
auto
  0
XRECORD
  5
17F
330
173
100
AcDbXrecord
280
1
1000
auto
  0
XRECORD
  5
180
330
173
100
AcDbXrecord
280
1
1000
auto
  0
XRECORD
  5
181
330
173
100
AcDbXrecord
280
1
1000
auto
  0
XRECORD
  5
182
330
173
100
AcDbXrecord
280
1
1000
auto
  0
XRECORD
  5
183
330
173
100
AcDbXrecord
280
1
1000
auto
  0
XRECORD
  5
184
330
173
100
AcDbXrecord
280
1
290
0
  0
XRECORD
  5
185
330
173
100
AcDbXrecord
280
1
290
0
  0
XRECORD
  5
186
330
173
100
AcDbXrecord
280
1
290
0
  0
XRECORD
  5
187
330
173
100
AcDbXrecord
280
1
290
0
  0
XRECORD
  5
188
330
173
100
AcDbXrecord
280
1
 90
65537
  0
XRECORD
  5
189
330
173
100
AcDbXrecord
280
1
 90
65537
  0
XRECORD
  5
18A
330
173
100
AcDbXrecord
280
1
 90
65537
  0
XRECORD
  5
18B
330
173
100
AcDbXrecord
280
1
 90
65537
  0
XRECORD
  5
18C
330
173
100
AcDbXrecord
280
1
1000
auto
  0
XRECORD
  5
18D
330
173
100
AcDbXrecord
280
1
1000
auto
  0
XRECORD
  5
18E
330
173
100
AcDbXrecord
280
1
1000
auto
  0
XRECORD
  5
18F
330
173
100
AcDbXrecord
280
1
1000
auto
  0
XRECORD
  5
190
330
173
100
AcDbXrecord
280
1
1000
auto
  0
XRECORD
  5
191
330
173
100
AcDbXrecord
280
1
1000
auto
  0
XRECORD
  5
192
330
173
100
AcDbXrecord
280
1
1000
auto
  0
XRECORD
  5
193
330
173
100
AcDbXrecord
280
1
1000
auto
  0
XRECORD
  5
194
330
173
100
AcDbXrecord
280
1
 90
1
  0
XRECORD
  5
195
330
173
100
AcDbXrecord
280
1
 40
10.0
  0
XRECORD
  5
196
330
173
100
AcDbXrecord
280
1
 40
10.0
  0
XRECORD
  5
197
330
173
100
AcDbXrecord
280
1
 40
10.0
  0
XRECORD
  5
198
330
173
100
AcDbXrecord
280
1
 40
10.0
  0
XRECORD
  5
199
330
173
100
AcDbXrecord
280
1
290
0
  0
XRECORD
  5
19A
330
173
100
AcDbXrecord
280
1
 90
1
  0
XRECORD
  5
19B
330
173
100
AcDbXrecord
280
1
 40
0.0
  0
XRECORD
  5
19C
330
173
100
AcDbXrecord
280
1
 40
0.0
  0
XRECORD
  5
19D
330
173
100
AcDbXrecord
280
1
1000
Portrait
  0
XRECORD
  5
19E
330
173
100
AcDbXrecord
280
1
 40
297.0
  0
XRECORD
  5
19F
330
173
100
AcDbXrecord
280
1
 40
210.0
  0
XRECORD
  5
1A0
330
173
100
AcDbXrecord
280
1
1000
1:1
  0
XRECORD
  5
1A1
330
173
100
AcDbXrecord
280
1
290
1
  0
XRECORD
  5
1A2
330
173
100
AcDbXrecord
280
1
290
0
  0
XRECORD
  5
1A3
330
173
100
AcDbXrecord
280
1
1000
Inside
  0
XRECORD
  5
1A4
330
173
100
AcDbXrecord
280
1
1000
Arial,10,-1,5,50,0,0,0,0,0
  0
XRECORD
  5
1A5
330
173
100
AcDbXrecord
280
1
1000
TopLeft
  0
XRECORD
  5
1A6
330
173
100
AcDbXrecord
280
1
1000
3.26.4
  0
XRECORD
  5
1A7
330
173
100
AcDbXrecord
280
1
 90
4
  0
XRECORD
  5
1A9
330
173
100
AcDbXrecord
280
1
 40
166.9776885053800299
  0
XRECORD
  5
1AA
330
173
100
AcDbXrecord
280
1
 40
353.2130007202413253
  0
ENDSEC
  0
EOF
