  0
SECTION
  2
HEADER
  9
$ANGBASE
  50
0.0
  9
$ANGDIR
  70
1
  9
$MEASUREMENT
  70
1
  0
ENDSEC
  0
SECTION
  2
TABLES
  0
TABLE
  2
LTYPE
  70
4
  0
LTYPE
  5
40F
  2
CONTINUOUS
  70
0
  3
Solid line
  72
65
  73
0
  40
0.0
  0
LTYPE
  5
410
  2
DASHDOT
 70
0
  3
Dash Dot ____ _ ____ _
 72
65
 73
4
 40
2.0
 49
1.25
 49
-0.25
 49
0.25
 49
-0.25
  0
LTYPE
  5
411
  2
DASHED
 70
0
  3
Dashed __ __ __ __ __
 72
65
 73
2
 40
0.75
 49
0.5
 49
-0.25
  0
LTYPE
  5
43B
  2
DOTTED
 70
0
  3
Dotted .  .  .  .
 72
65
 73
2
 40
0.2
 49
0.0
 49
-0.2
  0
ENDTAB
  0
TABLE
  2
STYLE
  70
4
  0
STYLE
  2
KICAD
  70
0
  40
0
  41
1
  42
1
  50
0
  71
0
  3
isocp.shx
  0
STYLE
  2
KICADB
  70
0
  40
0
  41
1
  42
1
  50
0
  71
0
  3
isocp.shx
  0
STYLE
  2
KICADI
  70
0
  40
0
  41
1
  42
1
  50
15
  71
0
  3
isocp.shx
  0
STYLE
  2
KICADBI
  70
0
  40
0
  41
1
  42
1
  50
15
  71
0
  3
isocp.shx
  0
ENDTAB
  0
TABLE
  2
LAYER
  70
1
  0
LAYER
  2
BLACK
  70
0
  62
7
  6
CONTINUOUS
  0
ENDTAB
  0
ENDSEC
  0
SECTION
  2
ENTITIES
0
ARC
8
BLACK
10
19.05
20
-53.975
40
1.5875
50
90
51
180
0
ARC
8
BLACK
10
19.05
20
-149.225
40
1.5875
50
180
51
270
0
ARC
8
BLACK
10
347.662
20
-149.225
40
1.5875
50
-90
51
-0
0
ARC
8
BLACK
10
347.662
20
-53.975
40
1.5875
50
-0
51
90
0
LINE
8
BLACK
6
CONTINUOUS
10
349.25
20
-149.225
11
349.25
21
-53.975
0
LINE
8
BLACK
6
CONTINUOUS
10
19.05
20
-150.812
11
347.662
21
-150.812
0
LINE
8
BLACK
6
CONTINUOUS
10
17.4625
20
-53.975
11
17.4625
21
-149.225
0
LINE
8
BLACK
6
CONTINUOUS
10
347.662
20
-52.3875
11
19.05
21
-52.3875
0
LINE
8
BLACK
6
CONTINUOUS
10
33.575
20
-132.7
11
35.575
21
-132.7
0
LINE
8
BLACK
6
CONTINUOUS
10
35.575
20
-132.7
11
35.575
21
-134.7
0
LINE
8
BLACK
6
CONTINUOUS
10
33.575
20
-146.7
11
35.575
21
-146.7
0
LINE
8
BLACK
6
CONTINUOUS
10
35.575
20
-146.7
11
35.575
21
-144.7
0
LINE
8
BLACK
6
CONTINUOUS
10
21.575
20
-144.7
11
21.575
21
-146.7
0
LINE
8
BLACK
6
CONTINUOUS
10
21.575
20
-146.7
11
23.575
21
-146.7
0
LINE
8
BLACK
6
CONTINUOUS
10
23.575
20
-132.7
11
21.575
21
-132.7
0
LINE
8
BLACK
6
CONTINUOUS
10
21.575
20
-132.7
11
21.575
21
-134.7
0
LINE
8
BLACK
6
CONTINUOUS
10
19.05
20
-130.175
11
38.1
21
-130.175
0
LINE
8
BLACK
6
CONTINUOUS
10
38.1
20
-130.175
11
38.1
21
-149.225
0
LINE
8
BLACK
6
CONTINUOUS
10
38.1
20
-149.225
11
19.05
21
-149.225
0
LINE
8
BLACK
6
CONTINUOUS
10
19.05
20
-149.225
11
19.05
21
-130.175
0
LINE
8
BLACK
6
CONTINUOUS
10
33.575
20
-113.65
11
35.575
21
-113.65
0
LINE
8
BLACK
6
CONTINUOUS
10
35.575
20
-113.65
11
35.575
21
-115.65
0
LINE
8
BLACK
6
CONTINUOUS
10
33.575
20
-127.65
11
35.575
21
-127.65
0
LINE
8
BLACK
6
CONTINUOUS
10
35.575
20
-127.65
11
35.575
21
-125.65
0
LINE
8
BLACK
6
CONTINUOUS
10
21.575
20
-125.65
11
21.575
21
-127.65
0
LINE
8
BLACK
6
CONTINUOUS
10
21.575
20
-127.65
11
23.575
21
-127.65
0
LINE
8
BLACK
6
CONTINUOUS
10
23.575
20
-113.65
11
21.575
21
-113.65
0
LINE
8
BLACK
6
CONTINUOUS
10
21.575
20
-113.65
11
21.575
21
-115.65
0
LINE
8
BLACK
6
CONTINUOUS
10
19.05
20
-111.125
11
38.1
21
-111.125
0
LINE
8
BLACK
6
CONTINUOUS
10
38.1
20
-111.125
11
38.1
21
-130.175
0
LINE
8
BLACK
6
CONTINUOUS
10
38.1
20
-130.175
11
19.05
21
-130.175
0
LINE
8
BLACK
6
CONTINUOUS
10
19.05
20
-130.175
11
19.05
21
-111.125
0
LINE
8
BLACK
6
CONTINUOUS
10
33.575
20
-94.6
11
35.575
21
-94.6
0
LINE
8
BLACK
6
CONTINUOUS
10
35.575
20
-94.6
11
35.575
21
-96.6
0
LINE
8
BLACK
6
CONTINUOUS
10
33.575
20
-108.6
11
35.575
21
-108.6
0
LINE
8
BLACK
6
CONTINUOUS
10
35.575
20
-108.6
11
35.575
21
-106.6
0
LINE
8
BLACK
6
CONTINUOUS
10
21.575
20
-106.6
11
21.575
21
-108.6
0
LINE
8
BLACK
6
CONTINUOUS
10
21.575
20
-108.6
11
23.575
21
-108.6
0
LINE
8
BLACK
6
CONTINUOUS
10
23.575
20
-94.6
11
21.575
21
-94.6
0
LINE
8
BLACK
6
CONTINUOUS
10
21.575
20
-94.6
11
21.575
21
-96.6
0
LINE
8
BLACK
6
CONTINUOUS
10
19.05
20
-92.075
11
38.1
21
-92.075
0
LINE
8
BLACK
6
CONTINUOUS
10
38.1
20
-92.075
11
38.1
21
-111.125
0
LINE
8
BLACK
6
CONTINUOUS
10
38.1
20
-111.125
11
19.05
21
-111.125
0
LINE
8
BLACK
6
CONTINUOUS
10
19.05
20
-111.125
11
19.05
21
-92.075
0
LINE
8
BLACK
6
CONTINUOUS
10
33.575
20
-75.55
11
35.575
21
-75.55
0
LINE
8
BLACK
6
CONTINUOUS
10
35.575
20
-75.55
11
35.575
21
-77.55
0
LINE
8
BLACK
6
CONTINUOUS
10
33.575
20
-89.55
11
35.575
21
-89.55
0
LINE
8
BLACK
6
CONTINUOUS
10
35.575
20
-89.55
11
35.575
21
-87.55
0
LINE
8
BLACK
6
CONTINUOUS
10
21.575
20
-87.55
11
21.575
21
-89.55
0
LINE
8
BLACK
6
CONTINUOUS
10
21.575
20
-89.55
11
23.575
21
-89.55
0
LINE
8
BLACK
6
CONTINUOUS
10
23.575
20
-75.55
11
21.575
21
-75.55
0
LINE
8
BLACK
6
CONTINUOUS
10
21.575
20
-75.55
11
21.575
21
-77.55
0
LINE
8
BLACK
6
CONTINUOUS
10
19.05
20
-73.025
11
38.1
21
-73.025
0
LINE
8
BLACK
6
CONTINUOUS
10
38.1
20
-73.025
11
38.1
21
-92.075
0
LINE
8
BLACK
6
CONTINUOUS
10
38.1
20
-92.075
11
19.05
21
-92.075
0
LINE
8
BLACK
6
CONTINUOUS
10
19.05
20
-92.075
11
19.05
21
-73.025
0
LINE
8
BLACK
6
CONTINUOUS
10
33.575
20
-56.5
11
35.575
21
-56.5
0
LINE
8
BLACK
6
CONTINUOUS
10
35.575
20
-56.5
11
35.575
21
-58.5
0
LINE
8
BLACK
6
CONTINUOUS
10
33.575
20
-70.5
11
35.575
21
-70.5
0
LINE
8
BLACK
6
CONTINUOUS
10
35.575
20
-70.5
11
35.575
21
-68.5
0
LINE
8
BLACK
6
CONTINUOUS
10
21.575
20
-68.5
11
21.575
21
-70.5
0
LINE
8
BLACK
6
CONTINUOUS
10
21.575
20
-70.5
11
23.575
21
-70.5
0
LINE
8
BLACK
6
CONTINUOUS
10
23.575
20
-56.5
11
21.575
21
-56.5
0
LINE
8
BLACK
6
CONTINUOUS
10
21.575
20
-56.5
11
21.575
21
-58.5
0
LINE
8
BLACK
6
CONTINUOUS
10
19.05
20
-53.975
11
38.1
21
-53.975
0
LINE
8
BLACK
6
CONTINUOUS
10
38.1
20
-53.975
11
38.1
21
-73.025
0
LINE
8
BLACK
6
CONTINUOUS
10
38.1
20
-73.025
11
19.05
21
-73.025
0
LINE
8
BLACK
6
CONTINUOUS
10
19.05
20
-73.025
11
19.05
21
-53.975
0
LINE
8
BLACK
6
CONTINUOUS
10
52.625
20
-132.7
11
54.625
21
-132.7
0
LINE
8
BLACK
6
CONTINUOUS
10
54.625
20
-132.7
11
54.625
21
-134.7
0
LINE
8
BLACK
6
CONTINUOUS
10
52.625
20
-146.7
11
54.625
21
-146.7
0
LINE
8
BLACK
6
CONTINUOUS
10
54.625
20
-146.7
11
54.625
21
-144.7
0
LINE
8
BLACK
6
CONTINUOUS
10
40.625
20
-144.7
11
40.625
21
-146.7
0
LINE
8
BLACK
6
CONTINUOUS
10
40.625
20
-146.7
11
42.625
21
-146.7
0
LINE
8
BLACK
6
CONTINUOUS
10
42.625
20
-132.7
11
40.625
21
-132.7
0
LINE
8
BLACK
6
CONTINUOUS
10
40.625
20
-132.7
11
40.625
21
-134.7
0
LINE
8
BLACK
6
CONTINUOUS
10
38.1
20
-130.175
11
57.15
21
-130.175
0
LINE
8
BLACK
6
CONTINUOUS
10
57.15
20
-130.175
11
57.15
21
-149.225
0
LINE
8
BLACK
6
CONTINUOUS
10
57.15
20
-149.225
11
38.1
21
-149.225
0
LINE
8
BLACK
6
CONTINUOUS
10
38.1
20
-149.225
11
38.1
21
-130.175
0
LINE
8
BLACK
6
CONTINUOUS
10
52.625
20
-113.65
11
54.625
21
-113.65
0
LINE
8
BLACK
6
CONTINUOUS
10
54.625
20
-113.65
11
54.625
21
-115.65
0
LINE
8
BLACK
6
CONTINUOUS
10
52.625
20
-127.65
11
54.625
21
-127.65
0
LINE
8
BLACK
6
CONTINUOUS
10
54.625
20
-127.65
11
54.625
21
-125.65
0
LINE
8
BLACK
6
CONTINUOUS
10
40.625
20
-125.65
11
40.625
21
-127.65
0
LINE
8
BLACK
6
CONTINUOUS
10
40.625
20
-127.65
11
42.625
21
-127.65
0
LINE
8
BLACK
6
CONTINUOUS
10
42.625
20
-113.65
11
40.625
21
-113.65
0
LINE
8
BLACK
6
CONTINUOUS
10
40.625
20
-113.65
11
40.625
21
-115.65
0
LINE
8
BLACK
6
CONTINUOUS
10
38.1
20
-111.125
11
57.15
21
-111.125
0
LINE
8
BLACK
6
CONTINUOUS
10
57.15
20
-111.125
11
57.15
21
-130.175
0
LINE
8
BLACK
6
CONTINUOUS
10
57.15
20
-130.175
11
38.1
21
-130.175
0
LINE
8
BLACK
6
CONTINUOUS
10
38.1
20
-130.175
11
38.1
21
-111.125
0
LINE
8
BLACK
6
CONTINUOUS
10
52.625
20
-94.6
11
54.625
21
-94.6
0
LINE
8
BLACK
6
CONTINUOUS
10
54.625
20
-94.6
11
54.625
21
-96.6
0
LINE
8
BLACK
6
CONTINUOUS
10
52.625
20
-108.6
11
54.625
21
-108.6
0
LINE
8
BLACK
6
CONTINUOUS
10
54.625
20
-108.6
11
54.625
21
-106.6
0
LINE
8
BLACK
6
CONTINUOUS
10
40.625
20
-106.6
11
40.625
21
-108.6
0
LINE
8
BLACK
6
CONTINUOUS
10
40.625
20
-108.6
11
42.625
21
-108.6
0
LINE
8
BLACK
6
CONTINUOUS
10
42.625
20
-94.6
11
40.625
21
-94.6
0
LINE
8
BLACK
6
CONTINUOUS
10
40.625
20
-94.6
11
40.625
21
-96.6
0
LINE
8
BLACK
6
CONTINUOUS
10
38.1
20
-92.075
11
57.15
21
-92.075
0
LINE
8
BLACK
6
CONTINUOUS
10
57.15
20
-92.075
11
57.15
21
-111.125
0
LINE
8
BLACK
6
CONTINUOUS
10
57.15
20
-111.125
11
38.1
21
-111.125
0
LINE
8
BLACK
6
CONTINUOUS
10
38.1
20
-111.125
11
38.1
21
-92.075
0
LINE
8
BLACK
6
CONTINUOUS
10
52.625
20
-75.55
11
54.625
21
-75.55
0
LINE
8
BLACK
6
CONTINUOUS
10
54.625
20
-75.55
11
54.625
21
-77.55
0
LINE
8
BLACK
6
CONTINUOUS
10
52.625
20
-89.55
11
54.625
21
-89.55
0
LINE
8
BLACK
6
CONTINUOUS
10
54.625
20
-89.55
11
54.625
21
-87.55
0
LINE
8
BLACK
6
CONTINUOUS
10
40.625
20
-87.55
11
40.625
21
-89.55
0
LINE
8
BLACK
6
CONTINUOUS
10
40.625
20
-89.55
11
42.625
21
-89.55
0
LINE
8
BLACK
6
CONTINUOUS
10
42.625
20
-75.55
11
40.625
21
-75.55
0
LINE
8
BLACK
6
CONTINUOUS
10
40.625
20
-75.55
11
40.625
21
-77.55
0
LINE
8
BLACK
6
CONTINUOUS
10
38.1
20
-73.025
11
57.15
21
-73.025
0
LINE
8
BLACK
6
CONTINUOUS
10
57.15
20
-73.025
11
57.15
21
-92.075
0
LINE
8
BLACK
6
CONTINUOUS
10
57.15
20
-92.075
11
38.1
21
-92.075
0
LINE
8
BLACK
6
CONTINUOUS
10
38.1
20
-92.075
11
38.1
21
-73.025
0
LINE
8
BLACK
6
CONTINUOUS
10
52.625
20
-56.5
11
54.625
21
-56.5
0
LINE
8
BLACK
6
CONTINUOUS
10
54.625
20
-56.5
11
54.625
21
-58.5
0
LINE
8
BLACK
6
CONTINUOUS
10
52.625
20
-70.5
11
54.625
21
-70.5
0
LINE
8
BLACK
6
CONTINUOUS
10
54.625
20
-70.5
11
54.625
21
-68.5
0
LINE
8
BLACK
6
CONTINUOUS
10
40.625
20
-68.5
11
40.625
21
-70.5
0
LINE
8
BLACK
6
CONTINUOUS
10
40.625
20
-70.5
11
42.625
21
-70.5
0
LINE
8
BLACK
6
CONTINUOUS
10
42.625
20
-56.5
11
40.625
21
-56.5
0
LINE
8
BLACK
6
CONTINUOUS
10
40.625
20
-56.5
11
40.625
21
-58.5
0
LINE
8
BLACK
6
CONTINUOUS
10
38.1
20
-53.975
11
57.15
21
-53.975
0
LINE
8
BLACK
6
CONTINUOUS
10
57.15
20
-53.975
11
57.15
21
-73.025
0
LINE
8
BLACK
6
CONTINUOUS
10
57.15
20
-73.025
11
38.1
21
-73.025
0
LINE
8
BLACK
6
CONTINUOUS
10
38.1
20
-73.025
11
38.1
21
-53.975
0
LINE
8
BLACK
6
CONTINUOUS
10
71.675
20
-132.7
11
73.675
21
-132.7
0
LINE
8
BLACK
6
CONTINUOUS
10
73.675
20
-132.7
11
73.675
21
-134.7
0
LINE
8
BLACK
6
CONTINUOUS
10
71.675
20
-146.7
11
73.675
21
-146.7
0
LINE
8
BLACK
6
CONTINUOUS
10
73.675
20
-146.7
11
73.675
21
-144.7
0
LINE
8
BLACK
6
CONTINUOUS
10
59.675
20
-144.7
11
59.675
21
-146.7
0
LINE
8
BLACK
6
CONTINUOUS
10
59.675
20
-146.7
11
61.675
21
-146.7
0
LINE
8
BLACK
6
CONTINUOUS
10
61.675
20
-132.7
11
59.675
21
-132.7
0
LINE
8
BLACK
6
CONTINUOUS
10
59.675
20
-132.7
11
59.675
21
-134.7
0
LINE
8
BLACK
6
CONTINUOUS
10
57.15
20
-130.175
11
76.2
21
-130.175
0
LINE
8
BLACK
6
CONTINUOUS
10
76.2
20
-130.175
11
76.2
21
-149.225
0
LINE
8
BLACK
6
CONTINUOUS
10
76.2
20
-149.225
11
57.15
21
-149.225
0
LINE
8
BLACK
6
CONTINUOUS
10
57.15
20
-149.225
11
57.15
21
-130.175
0
LINE
8
BLACK
6
CONTINUOUS
10
71.675
20
-113.65
11
73.675
21
-113.65
0
LINE
8
BLACK
6
CONTINUOUS
10
73.675
20
-113.65
11
73.675
21
-115.65
0
LINE
8
BLACK
6
CONTINUOUS
10
71.675
20
-127.65
11
73.675
21
-127.65
0
LINE
8
BLACK
6
CONTINUOUS
10
73.675
20
-127.65
11
73.675
21
-125.65
0
LINE
8
BLACK
6
CONTINUOUS
10
59.675
20
-125.65
11
59.675
21
-127.65
0
LINE
8
BLACK
6
CONTINUOUS
10
59.675
20
-127.65
11
61.675
21
-127.65
0
LINE
8
BLACK
6
CONTINUOUS
10
61.675
20
-113.65
11
59.675
21
-113.65
0
LINE
8
BLACK
6
CONTINUOUS
10
59.675
20
-113.65
11
59.675
21
-115.65
0
LINE
8
BLACK
6
CONTINUOUS
10
57.15
20
-111.125
11
76.2
21
-111.125
0
LINE
8
BLACK
6
CONTINUOUS
10
76.2
20
-111.125
11
76.2
21
-130.175
0
LINE
8
BLACK
6
CONTINUOUS
10
76.2
20
-130.175
11
57.15
21
-130.175
0
LINE
8
BLACK
6
CONTINUOUS
10
57.15
20
-130.175
11
57.15
21
-111.125
0
LINE
8
BLACK
6
CONTINUOUS
10
71.675
20
-94.6
11
73.675
21
-94.6
0
LINE
8
BLACK
6
CONTINUOUS
10
73.675
20
-94.6
11
73.675
21
-96.6
0
LINE
8
BLACK
6
CONTINUOUS
10
71.675
20
-108.6
11
73.675
21
-108.6
0
LINE
8
BLACK
6
CONTINUOUS
10
73.675
20
-108.6
11
73.675
21
-106.6
0
LINE
8
BLACK
6
CONTINUOUS
10
59.675
20
-106.6
11
59.675
21
-108.6
0
LINE
8
BLACK
6
CONTINUOUS
10
59.675
20
-108.6
11
61.675
21
-108.6
0
LINE
8
BLACK
6
CONTINUOUS
10
61.675
20
-94.6
11
59.675
21
-94.6
0
LINE
8
BLACK
6
CONTINUOUS
10
59.675
20
-94.6
11
59.675
21
-96.6
0
LINE
8
BLACK
6
CONTINUOUS
10
57.15
20
-92.075
11
76.2
21
-92.075
0
LINE
8
BLACK
6
CONTINUOUS
10
76.2
20
-92.075
11
76.2
21
-111.125
0
LINE
8
BLACK
6
CONTINUOUS
10
76.2
20
-111.125
11
57.15
21
-111.125
0
LINE
8
BLACK
6
CONTINUOUS
10
57.15
20
-111.125
11
57.15
21
-92.075
0
LINE
8
BLACK
6
CONTINUOUS
10
71.675
20
-75.55
11
73.675
21
-75.55
0
LINE
8
BLACK
6
CONTINUOUS
10
73.675
20
-75.55
11
73.675
21
-77.55
0
LINE
8
BLACK
6
CONTINUOUS
10
71.675
20
-89.55
11
73.675
21
-89.55
0
LINE
8
BLACK
6
CONTINUOUS
10
73.675
20
-89.55
11
73.675
21
-87.55
0
LINE
8
BLACK
6
CONTINUOUS
10
59.675
20
-87.55
11
59.675
21
-89.55
0
LINE
8
BLACK
6
CONTINUOUS
10
59.675
20
-89.55
11
61.675
21
-89.55
0
LINE
8
BLACK
6
CONTINUOUS
10
61.675
20
-75.55
11
59.675
21
-75.55
0
LINE
8
BLACK
6
CONTINUOUS
10
59.675
20
-75.55
11
59.675
21
-77.55
0
LINE
8
BLACK
6
CONTINUOUS
10
57.15
20
-73.025
11
76.2
21
-73.025
0
LINE
8
BLACK
6
CONTINUOUS
10
76.2
20
-73.025
11
76.2
21
-92.075
0
LINE
8
BLACK
6
CONTINUOUS
10
76.2
20
-92.075
11
57.15
21
-92.075
0
LINE
8
BLACK
6
CONTINUOUS
10
57.15
20
-92.075
11
57.15
21
-73.025
0
LINE
8
BLACK
6
CONTINUOUS
10
71.675
20
-56.5
11
73.675
21
-56.5
0
LINE
8
BLACK
6
CONTINUOUS
10
73.675
20
-56.5
11
73.675
21
-58.5
0
LINE
8
BLACK
6
CONTINUOUS
10
71.675
20
-70.5
11
73.675
21
-70.5
0
LINE
8
BLACK
6
CONTINUOUS
10
73.675
20
-70.5
11
73.675
21
-68.5
0
LINE
8
BLACK
6
CONTINUOUS
10
59.675
20
-68.5
11
59.675
21
-70.5
0
LINE
8
BLACK
6
CONTINUOUS
10
59.675
20
-70.5
11
61.675
21
-70.5
0
LINE
8
BLACK
6
CONTINUOUS
10
61.675
20
-56.5
11
59.675
21
-56.5
0
LINE
8
BLACK
6
CONTINUOUS
10
59.675
20
-56.5
11
59.675
21
-58.5
0
LINE
8
BLACK
6
CONTINUOUS
10
57.15
20
-53.975
11
76.2
21
-53.975
0
LINE
8
BLACK
6
CONTINUOUS
10
76.2
20
-53.975
11
76.2
21
-73.025
0
LINE
8
BLACK
6
CONTINUOUS
10
76.2
20
-73.025
11
57.15
21
-73.025
0
LINE
8
BLACK
6
CONTINUOUS
10
57.15
20
-73.025
11
57.15
21
-53.975
0
LINE
8
BLACK
6
CONTINUOUS
10
90.725
20
-132.7
11
92.725
21
-132.7
0
LINE
8
BLACK
6
CONTINUOUS
10
92.725
20
-132.7
11
92.725
21
-134.7
0
LINE
8
BLACK
6
CONTINUOUS
10
90.725
20
-146.7
11
92.725
21
-146.7
0
LINE
8
BLACK
6
CONTINUOUS
10
92.725
20
-146.7
11
92.725
21
-144.7
0
LINE
8
BLACK
6
CONTINUOUS
10
78.725
20
-144.7
11
78.725
21
-146.7
0
LINE
8
BLACK
6
CONTINUOUS
10
78.725
20
-146.7
11
80.725
21
-146.7
0
LINE
8
BLACK
6
CONTINUOUS
10
80.725
20
-132.7
11
78.725
21
-132.7
0
LINE
8
BLACK
6
CONTINUOUS
10
78.725
20
-132.7
11
78.725
21
-134.7
0
LINE
8
BLACK
6
CONTINUOUS
10
76.2
20
-130.175
11
95.25
21
-130.175
0
LINE
8
BLACK
6
CONTINUOUS
10
95.25
20
-130.175
11
95.25
21
-149.225
0
LINE
8
BLACK
6
CONTINUOUS
10
95.25
20
-149.225
11
76.2
21
-149.225
0
LINE
8
BLACK
6
CONTINUOUS
10
76.2
20
-149.225
11
76.2
21
-130.175
0
LINE
8
BLACK
6
CONTINUOUS
10
90.725
20
-113.65
11
92.725
21
-113.65
0
LINE
8
BLACK
6
CONTINUOUS
10
92.725
20
-113.65
11
92.725
21
-115.65
0
LINE
8
BLACK
6
CONTINUOUS
10
90.725
20
-127.65
11
92.725
21
-127.65
0
LINE
8
BLACK
6
CONTINUOUS
10
92.725
20
-127.65
11
92.725
21
-125.65
0
LINE
8
BLACK
6
CONTINUOUS
10
78.725
20
-125.65
11
78.725
21
-127.65
0
LINE
8
BLACK
6
CONTINUOUS
10
78.725
20
-127.65
11
80.725
21
-127.65
0
LINE
8
BLACK
6
CONTINUOUS
10
80.725
20
-113.65
11
78.725
21
-113.65
0
LINE
8
BLACK
6
CONTINUOUS
10
78.725
20
-113.65
11
78.725
21
-115.65
0
LINE
8
BLACK
6
CONTINUOUS
10
76.2
20
-111.125
11
95.25
21
-111.125
0
LINE
8
BLACK
6
CONTINUOUS
10
95.25
20
-111.125
11
95.25
21
-130.175
0
LINE
8
BLACK
6
CONTINUOUS
10
95.25
20
-130.175
11
76.2
21
-130.175
0
LINE
8
BLACK
6
CONTINUOUS
10
76.2
20
-130.175
11
76.2
21
-111.125
0
LINE
8
BLACK
6
CONTINUOUS
10
90.725
20
-94.6
11
92.725
21
-94.6
0
LINE
8
BLACK
6
CONTINUOUS
10
92.725
20
-94.6
11
92.725
21
-96.6
0
LINE
8
BLACK
6
CONTINUOUS
10
90.725
20
-108.6
11
92.725
21
-108.6
0
LINE
8
BLACK
6
CONTINUOUS
10
92.725
20
-108.6
11
92.725
21
-106.6
0
LINE
8
BLACK
6
CONTINUOUS
10
78.725
20
-106.6
11
78.725
21
-108.6
0
LINE
8
BLACK
6
CONTINUOUS
10
78.725
20
-108.6
11
80.725
21
-108.6
0
LINE
8
BLACK
6
CONTINUOUS
10
80.725
20
-94.6
11
78.725
21
-94.6
0
LINE
8
BLACK
6
CONTINUOUS
10
78.725
20
-94.6
11
78.725
21
-96.6
0
LINE
8
BLACK
6
CONTINUOUS
10
76.2
20
-92.075
11
95.25
21
-92.075
0
LINE
8
BLACK
6
CONTINUOUS
10
95.25
20
-92.075
11
95.25
21
-111.125
0
LINE
8
BLACK
6
CONTINUOUS
10
95.25
20
-111.125
11
76.2
21
-111.125
0
LINE
8
BLACK
6
CONTINUOUS
10
76.2
20
-111.125
11
76.2
21
-92.075
0
LINE
8
BLACK
6
CONTINUOUS
10
90.725
20
-75.55
11
92.725
21
-75.55
0
LINE
8
BLACK
6
CONTINUOUS
10
92.725
20
-75.55
11
92.725
21
-77.55
0
LINE
8
BLACK
6
CONTINUOUS
10
90.725
20
-89.55
11
92.725
21
-89.55
0
LINE
8
BLACK
6
CONTINUOUS
10
92.725
20
-89.55
11
92.725
21
-87.55
0
LINE
8
BLACK
6
CONTINUOUS
10
78.725
20
-87.55
11
78.725
21
-89.55
0
LINE
8
BLACK
6
CONTINUOUS
10
78.725
20
-89.55
11
80.725
21
-89.55
0
LINE
8
BLACK
6
CONTINUOUS
10
80.725
20
-75.55
11
78.725
21
-75.55
0
LINE
8
BLACK
6
CONTINUOUS
10
78.725
20
-75.55
11
78.725
21
-77.55
0
LINE
8
BLACK
6
CONTINUOUS
10
76.2
20
-73.025
11
95.25
21
-73.025
0
LINE
8
BLACK
6
CONTINUOUS
10
95.25
20
-73.025
11
95.25
21
-92.075
0
LINE
8
BLACK
6
CONTINUOUS
10
95.25
20
-92.075
11
76.2
21
-92.075
0
LINE
8
BLACK
6
CONTINUOUS
10
76.2
20
-92.075
11
76.2
21
-73.025
0
LINE
8
BLACK
6
CONTINUOUS
10
90.725
20
-56.5
11
92.725
21
-56.5
0
LINE
8
BLACK
6
CONTINUOUS
10
92.725
20
-56.5
11
92.725
21
-58.5
0
LINE
8
BLACK
6
CONTINUOUS
10
90.725
20
-70.5
11
92.725
21
-70.5
0
LINE
8
BLACK
6
CONTINUOUS
10
92.725
20
-70.5
11
92.725
21
-68.5
0
LINE
8
BLACK
6
CONTINUOUS
10
78.725
20
-68.5
11
78.725
21
-70.5
0
LINE
8
BLACK
6
CONTINUOUS
10
78.725
20
-70.5
11
80.725
21
-70.5
0
LINE
8
BLACK
6
CONTINUOUS
10
80.725
20
-56.5
11
78.725
21
-56.5
0
LINE
8
BLACK
6
CONTINUOUS
10
78.725
20
-56.5
11
78.725
21
-58.5
0
LINE
8
BLACK
6
CONTINUOUS
10
76.2
20
-53.975
11
95.25
21
-53.975
0
LINE
8
BLACK
6
CONTINUOUS
10
95.25
20
-53.975
11
95.25
21
-73.025
0
LINE
8
BLACK
6
CONTINUOUS
10
95.25
20
-73.025
11
76.2
21
-73.025
0
LINE
8
BLACK
6
CONTINUOUS
10
76.2
20
-73.025
11
76.2
21
-53.975
0
LINE
8
BLACK
6
CONTINUOUS
10
109.775
20
-132.7
11
111.775
21
-132.7
0
LINE
8
BLACK
6
CONTINUOUS
10
111.775
20
-132.7
11
111.775
21
-134.7
0
LINE
8
BLACK
6
CONTINUOUS
10
109.775
20
-146.7
11
111.775
21
-146.7
0
LINE
8
BLACK
6
CONTINUOUS
10
111.775
20
-146.7
11
111.775
21
-144.7
0
LINE
8
BLACK
6
CONTINUOUS
10
97.775
20
-144.7
11
97.775
21
-146.7
0
LINE
8
BLACK
6
CONTINUOUS
10
97.775
20
-146.7
11
99.775
21
-146.7
0
LINE
8
BLACK
6
CONTINUOUS
10
99.775
20
-132.7
11
97.775
21
-132.7
0
LINE
8
BLACK
6
CONTINUOUS
10
97.775
20
-132.7
11
97.775
21
-134.7
0
LINE
8
BLACK
6
CONTINUOUS
10
95.25
20
-130.175
11
114.3
21
-130.175
0
LINE
8
BLACK
6
CONTINUOUS
10
114.3
20
-130.175
11
114.3
21
-149.225
0
LINE
8
BLACK
6
CONTINUOUS
10
114.3
20
-149.225
11
95.25
21
-149.225
0
LINE
8
BLACK
6
CONTINUOUS
10
95.25
20
-149.225
11
95.25
21
-130.175
0
LINE
8
BLACK
6
CONTINUOUS
10
109.775
20
-113.65
11
111.775
21
-113.65
0
LINE
8
BLACK
6
CONTINUOUS
10
111.775
20
-113.65
11
111.775
21
-115.65
0
LINE
8
BLACK
6
CONTINUOUS
10
109.775
20
-127.65
11
111.775
21
-127.65
0
LINE
8
BLACK
6
CONTINUOUS
10
111.775
20
-127.65
11
111.775
21
-125.65
0
LINE
8
BLACK
6
CONTINUOUS
10
97.775
20
-125.65
11
97.775
21
-127.65
0
LINE
8
BLACK
6
CONTINUOUS
10
97.775
20
-127.65
11
99.775
21
-127.65
0
LINE
8
BLACK
6
CONTINUOUS
10
99.775
20
-113.65
11
97.775
21
-113.65
0
LINE
8
BLACK
6
CONTINUOUS
10
97.775
20
-113.65
11
97.775
21
-115.65
0
LINE
8
BLACK
6
CONTINUOUS
10
95.25
20
-111.125
11
114.3
21
-111.125
0
LINE
8
BLACK
6
CONTINUOUS
10
114.3
20
-111.125
11
114.3
21
-130.175
0
LINE
8
BLACK
6
CONTINUOUS
10
114.3
20
-130.175
11
95.25
21
-130.175
0
LINE
8
BLACK
6
CONTINUOUS
10
95.25
20
-130.175
11
95.25
21
-111.125
0
LINE
8
BLACK
6
CONTINUOUS
10
109.775
20
-94.6
11
111.775
21
-94.6
0
LINE
8
BLACK
6
CONTINUOUS
10
111.775
20
-94.6
11
111.775
21
-96.6
0
LINE
8
BLACK
6
CONTINUOUS
10
109.775
20
-108.6
11
111.775
21
-108.6
0
LINE
8
BLACK
6
CONTINUOUS
10
111.775
20
-108.6
11
111.775
21
-106.6
0
LINE
8
BLACK
6
CONTINUOUS
10
97.775
20
-106.6
11
97.775
21
-108.6
0
LINE
8
BLACK
6
CONTINUOUS
10
97.775
20
-108.6
11
99.775
21
-108.6
0
LINE
8
BLACK
6
CONTINUOUS
10
99.775
20
-94.6
11
97.775
21
-94.6
0
LINE
8
BLACK
6
CONTINUOUS
10
97.775
20
-94.6
11
97.775
21
-96.6
0
LINE
8
BLACK
6
CONTINUOUS
10
95.25
20
-92.075
11
114.3
21
-92.075
0
LINE
8
BLACK
6
CONTINUOUS
10
114.3
20
-92.075
11
114.3
21
-111.125
0
LINE
8
BLACK
6
CONTINUOUS
10
114.3
20
-111.125
11
95.25
21
-111.125
0
LINE
8
BLACK
6
CONTINUOUS
10
95.25
20
-111.125
11
95.25
21
-92.075
0
LINE
8
BLACK
6
CONTINUOUS
10
109.775
20
-75.55
11
111.775
21
-75.55
0
LINE
8
BLACK
6
CONTINUOUS
10
111.775
20
-75.55
11
111.775
21
-77.55
0
LINE
8
BLACK
6
CONTINUOUS
10
109.775
20
-89.55
11
111.775
21
-89.55
0
LINE
8
BLACK
6
CONTINUOUS
10
111.775
20
-89.55
11
111.775
21
-87.55
0
LINE
8
BLACK
6
CONTINUOUS
10
97.775
20
-87.55
11
97.775
21
-89.55
0
LINE
8
BLACK
6
CONTINUOUS
10
97.775
20
-89.55
11
99.775
21
-89.55
0
LINE
8
BLACK
6
CONTINUOUS
10
99.775
20
-75.55
11
97.775
21
-75.55
0
LINE
8
BLACK
6
CONTINUOUS
10
97.775
20
-75.55
11
97.775
21
-77.55
0
LINE
8
BLACK
6
CONTINUOUS
10
95.25
20
-73.025
11
114.3
21
-73.025
0
LINE
8
BLACK
6
CONTINUOUS
10
114.3
20
-73.025
11
114.3
21
-92.075
0
LINE
8
BLACK
6
CONTINUOUS
10
114.3
20
-92.075
11
95.25
21
-92.075
0
LINE
8
BLACK
6
CONTINUOUS
10
95.25
20
-92.075
11
95.25
21
-73.025
0
LINE
8
BLACK
6
CONTINUOUS
10
109.775
20
-56.5
11
111.775
21
-56.5
0
LINE
8
BLACK
6
CONTINUOUS
10
111.775
20
-56.5
11
111.775
21
-58.5
0
LINE
8
BLACK
6
CONTINUOUS
10
109.775
20
-70.5
11
111.775
21
-70.5
0
LINE
8
BLACK
6
CONTINUOUS
10
111.775
20
-70.5
11
111.775
21
-68.5
0
LINE
8
BLACK
6
CONTINUOUS
10
97.775
20
-68.5
11
97.775
21
-70.5
0
LINE
8
BLACK
6
CONTINUOUS
10
97.775
20
-70.5
11
99.775
21
-70.5
0
LINE
8
BLACK
6
CONTINUOUS
10
99.775
20
-56.5
11
97.775
21
-56.5
0
LINE
8
BLACK
6
CONTINUOUS
10
97.775
20
-56.5
11
97.775
21
-58.5
0
LINE
8
BLACK
6
CONTINUOUS
10
95.25
20
-53.975
11
114.3
21
-53.975
0
LINE
8
BLACK
6
CONTINUOUS
10
114.3
20
-53.975
11
114.3
21
-73.025
0
LINE
8
BLACK
6
CONTINUOUS
10
114.3
20
-73.025
11
95.25
21
-73.025
0
LINE
8
BLACK
6
CONTINUOUS
10
95.25
20
-73.025
11
95.25
21
-53.975
0
LINE
8
BLACK
6
CONTINUOUS
10
128.825
20
-132.7
11
130.825
21
-132.7
0
LINE
8
BLACK
6
CONTINUOUS
10
130.825
20
-132.7
11
130.825
21
-134.7
0
LINE
8
BLACK
6
CONTINUOUS
10
128.825
20
-146.7
11
130.825
21
-146.7
0
LINE
8
BLACK
6
CONTINUOUS
10
130.825
20
-146.7
11
130.825
21
-144.7
0
LINE
8
BLACK
6
CONTINUOUS
10
116.825
20
-144.7
11
116.825
21
-146.7
0
LINE
8
BLACK
6
CONTINUOUS
10
116.825
20
-146.7
11
118.825
21
-146.7
0
LINE
8
BLACK
6
CONTINUOUS
10
118.825
20
-132.7
11
116.825
21
-132.7
0
LINE
8
BLACK
6
CONTINUOUS
10
116.825
20
-132.7
11
116.825
21
-134.7
0
LINE
8
BLACK
6
CONTINUOUS
10
114.3
20
-130.175
11
133.35
21
-130.175
0
LINE
8
BLACK
6
CONTINUOUS
10
133.35
20
-130.175
11
133.35
21
-149.225
0
LINE
8
BLACK
6
CONTINUOUS
10
133.35
20
-149.225
11
114.3
21
-149.225
0
LINE
8
BLACK
6
CONTINUOUS
10
114.3
20
-149.225
11
114.3
21
-130.175
0
LINE
8
BLACK
6
CONTINUOUS
10
128.825
20
-113.65
11
130.825
21
-113.65
0
LINE
8
BLACK
6
CONTINUOUS
10
130.825
20
-113.65
11
130.825
21
-115.65
0
LINE
8
BLACK
6
CONTINUOUS
10
128.825
20
-127.65
11
130.825
21
-127.65
0
LINE
8
BLACK
6
CONTINUOUS
10
130.825
20
-127.65
11
130.825
21
-125.65
0
LINE
8
BLACK
6
CONTINUOUS
10
116.825
20
-125.65
11
116.825
21
-127.65
0
LINE
8
BLACK
6
CONTINUOUS
10
116.825
20
-127.65
11
118.825
21
-127.65
0
LINE
8
BLACK
6
CONTINUOUS
10
118.825
20
-113.65
11
116.825
21
-113.65
0
LINE
8
BLACK
6
CONTINUOUS
10
116.825
20
-113.65
11
116.825
21
-115.65
0
LINE
8
BLACK
6
CONTINUOUS
10
114.3
20
-111.125
11
133.35
21
-111.125
0
LINE
8
BLACK
6
CONTINUOUS
10
133.35
20
-111.125
11
133.35
21
-130.175
0
LINE
8
BLACK
6
CONTINUOUS
10
133.35
20
-130.175
11
114.3
21
-130.175
0
LINE
8
BLACK
6
CONTINUOUS
10
114.3
20
-130.175
11
114.3
21
-111.125
0
LINE
8
BLACK
6
CONTINUOUS
10
128.825
20
-94.6
11
130.825
21
-94.6
0
LINE
8
BLACK
6
CONTINUOUS
10
130.825
20
-94.6
11
130.825
21
-96.6
0
LINE
8
BLACK
6
CONTINUOUS
10
128.825
20
-108.6
11
130.825
21
-108.6
0
LINE
8
BLACK
6
CONTINUOUS
10
130.825
20
-108.6
11
130.825
21
-106.6
0
LINE
8
BLACK
6
CONTINUOUS
10
116.825
20
-106.6
11
116.825
21
-108.6
0
LINE
8
BLACK
6
CONTINUOUS
10
116.825
20
-108.6
11
118.825
21
-108.6
0
LINE
8
BLACK
6
CONTINUOUS
10
118.825
20
-94.6
11
116.825
21
-94.6
0
LINE
8
BLACK
6
CONTINUOUS
10
116.825
20
-94.6
11
116.825
21
-96.6
0
LINE
8
BLACK
6
CONTINUOUS
10
114.3
20
-92.075
11
133.35
21
-92.075
0
LINE
8
BLACK
6
CONTINUOUS
10
133.35
20
-92.075
11
133.35
21
-111.125
0
LINE
8
BLACK
6
CONTINUOUS
10
133.35
20
-111.125
11
114.3
21
-111.125
0
LINE
8
BLACK
6
CONTINUOUS
10
114.3
20
-111.125
11
114.3
21
-92.075
0
LINE
8
BLACK
6
CONTINUOUS
10
128.825
20
-75.55
11
130.825
21
-75.55
0
LINE
8
BLACK
6
CONTINUOUS
10
130.825
20
-75.55
11
130.825
21
-77.55
0
LINE
8
BLACK
6
CONTINUOUS
10
128.825
20
-89.55
11
130.825
21
-89.55
0
LINE
8
BLACK
6
CONTINUOUS
10
130.825
20
-89.55
11
130.825
21
-87.55
0
LINE
8
BLACK
6
CONTINUOUS
10
116.825
20
-87.55
11
116.825
21
-89.55
0
LINE
8
BLACK
6
CONTINUOUS
10
116.825
20
-89.55
11
118.825
21
-89.55
0
LINE
8
BLACK
6
CONTINUOUS
10
118.825
20
-75.55
11
116.825
21
-75.55
0
LINE
8
BLACK
6
CONTINUOUS
10
116.825
20
-75.55
11
116.825
21
-77.55
0
LINE
8
BLACK
6
CONTINUOUS
10
114.3
20
-73.025
11
133.35
21
-73.025
0
LINE
8
BLACK
6
CONTINUOUS
10
133.35
20
-73.025
11
133.35
21
-92.075
0
LINE
8
BLACK
6
CONTINUOUS
10
133.35
20
-92.075
11
114.3
21
-92.075
0
LINE
8
BLACK
6
CONTINUOUS
10
114.3
20
-92.075
11
114.3
21
-73.025
0
LINE
8
BLACK
6
CONTINUOUS
10
128.825
20
-56.5
11
130.825
21
-56.5
0
LINE
8
BLACK
6
CONTINUOUS
10
130.825
20
-56.5
11
130.825
21
-58.5
0
LINE
8
BLACK
6
CONTINUOUS
10
128.825
20
-70.5
11
130.825
21
-70.5
0
LINE
8
BLACK
6
CONTINUOUS
10
130.825
20
-70.5
11
130.825
21
-68.5
0
LINE
8
BLACK
6
CONTINUOUS
10
116.825
20
-68.5
11
116.825
21
-70.5
0
LINE
8
BLACK
6
CONTINUOUS
10
116.825
20
-70.5
11
118.825
21
-70.5
0
LINE
8
BLACK
6
CONTINUOUS
10
118.825
20
-56.5
11
116.825
21
-56.5
0
LINE
8
BLACK
6
CONTINUOUS
10
116.825
20
-56.5
11
116.825
21
-58.5
0
LINE
8
BLACK
6
CONTINUOUS
10
114.3
20
-53.975
11
133.35
21
-53.975
0
LINE
8
BLACK
6
CONTINUOUS
10
133.35
20
-53.975
11
133.35
21
-73.025
0
LINE
8
BLACK
6
CONTINUOUS
10
133.35
20
-73.025
11
114.3
21
-73.025
0
LINE
8
BLACK
6
CONTINUOUS
10
114.3
20
-73.025
11
114.3
21
-53.975
0
LINE
8
BLACK
6
CONTINUOUS
10
214.312
20
-149.225
11
214.312
21
-130.175
0
LINE
8
BLACK
6
CONTINUOUS
10
233.362
20
-149.225
11
214.312
21
-149.225
0
LINE
8
BLACK
6
CONTINUOUS
10
233.362
20
-130.175
11
233.362
21
-149.225
0
LINE
8
BLACK
6
CONTINUOUS
10
214.312
20
-130.175
11
233.362
21
-130.175
0
LINE
8
BLACK
6
CONTINUOUS
10
216.837
20
-132.7
11
216.837
21
-134.7
0
LINE
8
BLACK
6
CONTINUOUS
10
218.837
20
-132.7
11
216.837
21
-132.7
0
LINE
8
BLACK
6
CONTINUOUS
10
216.837
20
-146.7
11
218.837
21
-146.7
0
LINE
8
BLACK
6
CONTINUOUS
10
216.837
20
-144.7
11
216.837
21
-146.7
0
LINE
8
BLACK
6
CONTINUOUS
10
230.837
20
-146.7
11
230.837
21
-144.7
0
LINE
8
BLACK
6
CONTINUOUS
10
228.837
20
-146.7
11
230.837
21
-146.7
0
LINE
8
BLACK
6
CONTINUOUS
10
230.837
20
-132.7
11
230.837
21
-134.7
0
LINE
8
BLACK
6
CONTINUOUS
10
228.837
20
-132.7
11
230.837
21
-132.7
0
LINE
8
BLACK
6
CONTINUOUS
10
214.312
20
-130.175
11
214.312
21
-111.125
0
LINE
8
BLACK
6
CONTINUOUS
10
233.362
20
-130.175
11
214.312
21
-130.175
0
LINE
8
BLACK
6
CONTINUOUS
10
233.362
20
-111.125
11
233.362
21
-130.175
0
LINE
8
BLACK
6
CONTINUOUS
10
214.312
20
-111.125
11
233.362
21
-111.125
0
LINE
8
BLACK
6
CONTINUOUS
10
216.837
20
-113.65
11
216.837
21
-115.65
0
LINE
8
BLACK
6
CONTINUOUS
10
218.837
20
-113.65
11
216.837
21
-113.65
0
LINE
8
BLACK
6
CONTINUOUS
10
216.837
20
-127.65
11
218.837
21
-127.65
0
LINE
8
BLACK
6
CONTINUOUS
10
216.837
20
-125.65
11
216.837
21
-127.65
0
LINE
8
BLACK
6
CONTINUOUS
10
230.837
20
-127.65
11
230.837
21
-125.65
0
LINE
8
BLACK
6
CONTINUOUS
10
228.837
20
-127.65
11
230.837
21
-127.65
0
LINE
8
BLACK
6
CONTINUOUS
10
230.837
20
-113.65
11
230.837
21
-115.65
0
LINE
8
BLACK
6
CONTINUOUS
10
228.837
20
-113.65
11
230.837
21
-113.65
0
LINE
8
BLACK
6
CONTINUOUS
10
214.312
20
-111.125
11
214.312
21
-92.075
0
LINE
8
BLACK
6
CONTINUOUS
10
233.362
20
-111.125
11
214.312
21
-111.125
0
LINE
8
BLACK
6
CONTINUOUS
10
233.362
20
-92.075
11
233.362
21
-111.125
0
LINE
8
BLACK
6
CONTINUOUS
10
214.312
20
-92.075
11
233.362
21
-92.075
0
LINE
8
BLACK
6
CONTINUOUS
10
216.837
20
-94.6
11
216.837
21
-96.6
0
LINE
8
BLACK
6
CONTINUOUS
10
218.837
20
-94.6
11
216.837
21
-94.6
0
LINE
8
BLACK
6
CONTINUOUS
10
216.837
20
-108.6
11
218.837
21
-108.6
0
LINE
8
BLACK
6
CONTINUOUS
10
216.837
20
-106.6
11
216.837
21
-108.6
0
LINE
8
BLACK
6
CONTINUOUS
10
230.837
20
-108.6
11
230.837
21
-106.6
0
LINE
8
BLACK
6
CONTINUOUS
10
228.837
20
-108.6
11
230.837
21
-108.6
0
LINE
8
BLACK
6
CONTINUOUS
10
230.837
20
-94.6
11
230.837
21
-96.6
0
LINE
8
BLACK
6
CONTINUOUS
10
228.837
20
-94.6
11
230.837
21
-94.6
0
LINE
8
BLACK
6
CONTINUOUS
10
214.312
20
-92.075
11
214.312
21
-73.025
0
LINE
8
BLACK
6
CONTINUOUS
10
233.362
20
-92.075
11
214.312
21
-92.075
0
LINE
8
BLACK
6
CONTINUOUS
10
233.362
20
-73.025
11
233.362
21
-92.075
0
LINE
8
BLACK
6
CONTINUOUS
10
214.312
20
-73.025
11
233.362
21
-73.025
0
LINE
8
BLACK
6
CONTINUOUS
10
216.837
20
-75.55
11
216.837
21
-77.55
0
LINE
8
BLACK
6
CONTINUOUS
10
218.837
20
-75.55
11
216.837
21
-75.55
0
LINE
8
BLACK
6
CONTINUOUS
10
216.837
20
-89.55
11
218.837
21
-89.55
0
LINE
8
BLACK
6
CONTINUOUS
10
216.837
20
-87.55
11
216.837
21
-89.55
0
LINE
8
BLACK
6
CONTINUOUS
10
230.837
20
-89.55
11
230.837
21
-87.55
0
LINE
8
BLACK
6
CONTINUOUS
10
228.837
20
-89.55
11
230.837
21
-89.55
0
LINE
8
BLACK
6
CONTINUOUS
10
230.837
20
-75.55
11
230.837
21
-77.55
0
LINE
8
BLACK
6
CONTINUOUS
10
228.837
20
-75.55
11
230.837
21
-75.55
0
LINE
8
BLACK
6
CONTINUOUS
10
214.312
20
-73.025
11
214.312
21
-53.975
0
LINE
8
BLACK
6
CONTINUOUS
10
233.362
20
-73.025
11
214.312
21
-73.025
0
LINE
8
BLACK
6
CONTINUOUS
10
233.362
20
-53.975
11
233.362
21
-73.025
0
LINE
8
BLACK
6
CONTINUOUS
10
214.312
20
-53.975
11
233.362
21
-53.975
0
LINE
8
BLACK
6
CONTINUOUS
10
216.837
20
-56.5
11
216.837
21
-58.5
0
LINE
8
BLACK
6
CONTINUOUS
10
218.837
20
-56.5
11
216.837
21
-56.5
0
LINE
8
BLACK
6
CONTINUOUS
10
216.837
20
-70.5
11
218.837
21
-70.5
0
LINE
8
BLACK
6
CONTINUOUS
10
216.837
20
-68.5
11
216.837
21
-70.5
0
LINE
8
BLACK
6
CONTINUOUS
10
230.837
20
-70.5
11
230.837
21
-68.5
0
LINE
8
BLACK
6
CONTINUOUS
10
228.837
20
-70.5
11
230.837
21
-70.5
0
LINE
8
BLACK
6
CONTINUOUS
10
230.837
20
-56.5
11
230.837
21
-58.5
0
LINE
8
BLACK
6
CONTINUOUS
10
228.837
20
-56.5
11
230.837
21
-56.5
0
LINE
8
BLACK
6
CONTINUOUS
10
233.362
20
-149.225
11
233.362
21
-130.175
0
LINE
8
BLACK
6
CONTINUOUS
10
252.412
20
-149.225
11
233.362
21
-149.225
0
LINE
8
BLACK
6
CONTINUOUS
10
252.412
20
-130.175
11
252.412
21
-149.225
0
LINE
8
BLACK
6
CONTINUOUS
10
233.362
20
-130.175
11
252.412
21
-130.175
0
LINE
8
BLACK
6
CONTINUOUS
10
235.887
20
-132.7
11
235.887
21
-134.7
0
LINE
8
BLACK
6
CONTINUOUS
10
237.887
20
-132.7
11
235.887
21
-132.7
0
LINE
8
BLACK
6
CONTINUOUS
10
235.887
20
-146.7
11
237.887
21
-146.7
0
LINE
8
BLACK
6
CONTINUOUS
10
235.887
20
-144.7
11
235.887
21
-146.7
0
LINE
8
BLACK
6
CONTINUOUS
10
249.887
20
-146.7
11
249.887
21
-144.7
0
LINE
8
BLACK
6
CONTINUOUS
10
247.887
20
-146.7
11
249.887
21
-146.7
0
LINE
8
BLACK
6
CONTINUOUS
10
249.887
20
-132.7
11
249.887
21
-134.7
0
LINE
8
BLACK
6
CONTINUOUS
10
247.887
20
-132.7
11
249.887
21
-132.7
0
LINE
8
BLACK
6
CONTINUOUS
10
233.362
20
-130.175
11
233.362
21
-111.125
0
LINE
8
BLACK
6
CONTINUOUS
10
252.412
20
-130.175
11
233.362
21
-130.175
0
LINE
8
BLACK
6
CONTINUOUS
10
252.412
20
-111.125
11
252.412
21
-130.175
0
LINE
8
BLACK
6
CONTINUOUS
10
233.362
20
-111.125
11
252.412
21
-111.125
0
LINE
8
BLACK
6
CONTINUOUS
10
235.887
20
-113.65
11
235.887
21
-115.65
0
LINE
8
BLACK
6
CONTINUOUS
10
237.887
20
-113.65
11
235.887
21
-113.65
0
LINE
8
BLACK
6
CONTINUOUS
10
235.887
20
-127.65
11
237.887
21
-127.65
0
LINE
8
BLACK
6
CONTINUOUS
10
235.887
20
-125.65
11
235.887
21
-127.65
0
LINE
8
BLACK
6
CONTINUOUS
10
249.887
20
-127.65
11
249.887
21
-125.65
0
LINE
8
BLACK
6
CONTINUOUS
10
247.887
20
-127.65
11
249.887
21
-127.65
0
LINE
8
BLACK
6
CONTINUOUS
10
249.887
20
-113.65
11
249.887
21
-115.65
0
LINE
8
BLACK
6
CONTINUOUS
10
247.887
20
-113.65
11
249.887
21
-113.65
0
LINE
8
BLACK
6
CONTINUOUS
10
233.362
20
-111.125
11
233.362
21
-92.075
0
LINE
8
BLACK
6
CONTINUOUS
10
252.412
20
-111.125
11
233.362
21
-111.125
0
LINE
8
BLACK
6
CONTINUOUS
10
252.412
20
-92.075
11
252.412
21
-111.125
0
LINE
8
BLACK
6
CONTINUOUS
10
233.362
20
-92.075
11
252.412
21
-92.075
0
LINE
8
BLACK
6
CONTINUOUS
10
235.887
20
-94.6
11
235.887
21
-96.6
0
LINE
8
BLACK
6
CONTINUOUS
10
237.887
20
-94.6
11
235.887
21
-94.6
0
LINE
8
BLACK
6
CONTINUOUS
10
235.887
20
-108.6
11
237.887
21
-108.6
0
LINE
8
BLACK
6
CONTINUOUS
10
235.887
20
-106.6
11
235.887
21
-108.6
0
LINE
8
BLACK
6
CONTINUOUS
10
249.887
20
-108.6
11
249.887
21
-106.6
0
LINE
8
BLACK
6
CONTINUOUS
10
247.887
20
-108.6
11
249.887
21
-108.6
0
LINE
8
BLACK
6
CONTINUOUS
10
249.887
20
-94.6
11
249.887
21
-96.6
0
LINE
8
BLACK
6
CONTINUOUS
10
247.887
20
-94.6
11
249.887
21
-94.6
0
LINE
8
BLACK
6
CONTINUOUS
10
233.362
20
-92.075
11
233.362
21
-73.025
0
LINE
8
BLACK
6
CONTINUOUS
10
252.412
20
-92.075
11
233.362
21
-92.075
0
LINE
8
BLACK
6
CONTINUOUS
10
252.412
20
-73.025
11
252.412
21
-92.075
0
LINE
8
BLACK
6
CONTINUOUS
10
233.362
20
-73.025
11
252.412
21
-73.025
0
LINE
8
BLACK
6
CONTINUOUS
10
235.887
20
-75.55
11
235.887
21
-77.55
0
LINE
8
BLACK
6
CONTINUOUS
10
237.887
20
-75.55
11
235.887
21
-75.55
0
LINE
8
BLACK
6
CONTINUOUS
10
235.887
20
-89.55
11
237.887
21
-89.55
0
LINE
8
BLACK
6
CONTINUOUS
10
235.887
20
-87.55
11
235.887
21
-89.55
0
LINE
8
BLACK
6
CONTINUOUS
10
249.887
20
-89.55
11
249.887
21
-87.55
0
LINE
8
BLACK
6
CONTINUOUS
10
247.887
20
-89.55
11
249.887
21
-89.55
0
LINE
8
BLACK
6
CONTINUOUS
10
249.887
20
-75.55
11
249.887
21
-77.55
0
LINE
8
BLACK
6
CONTINUOUS
10
247.887
20
-75.55
11
249.887
21
-75.55
0
LINE
8
BLACK
6
CONTINUOUS
10
233.362
20
-73.025
11
233.362
21
-53.975
0
LINE
8
BLACK
6
CONTINUOUS
10
252.412
20
-73.025
11
233.362
21
-73.025
0
LINE
8
BLACK
6
CONTINUOUS
10
252.412
20
-53.975
11
252.412
21
-73.025
0
LINE
8
BLACK
6
CONTINUOUS
10
233.362
20
-53.975
11
252.412
21
-53.975
0
LINE
8
BLACK
6
CONTINUOUS
10
235.887
20
-56.5
11
235.887
21
-58.5
0
LINE
8
BLACK
6
CONTINUOUS
10
237.887
20
-56.5
11
235.887
21
-56.5
0
LINE
8
BLACK
6
CONTINUOUS
10
235.887
20
-70.5
11
237.887
21
-70.5
0
LINE
8
BLACK
6
CONTINUOUS
10
235.887
20
-68.5
11
235.887
21
-70.5
0
LINE
8
BLACK
6
CONTINUOUS
10
249.887
20
-70.5
11
249.887
21
-68.5
0
LINE
8
BLACK
6
CONTINUOUS
10
247.887
20
-70.5
11
249.887
21
-70.5
0
LINE
8
BLACK
6
CONTINUOUS
10
249.887
20
-56.5
11
249.887
21
-58.5
0
LINE
8
BLACK
6
CONTINUOUS
10
247.887
20
-56.5
11
249.887
21
-56.5
0
LINE
8
BLACK
6
CONTINUOUS
10
252.412
20
-149.225
11
252.412
21
-130.175
0
LINE
8
BLACK
6
CONTINUOUS
10
271.462
20
-149.225
11
252.412
21
-149.225
0
LINE
8
BLACK
6
CONTINUOUS
10
271.462
20
-130.175
11
271.462
21
-149.225
0
LINE
8
BLACK
6
CONTINUOUS
10
252.412
20
-130.175
11
271.462
21
-130.175
0
LINE
8
BLACK
6
CONTINUOUS
10
254.938
20
-132.7
11
254.938
21
-134.7
0
LINE
8
BLACK
6
CONTINUOUS
10
256.938
20
-132.7
11
254.938
21
-132.7
0
LINE
8
BLACK
6
CONTINUOUS
10
254.938
20
-146.7
11
256.938
21
-146.7
0
LINE
8
BLACK
6
CONTINUOUS
10
254.938
20
-144.7
11
254.938
21
-146.7
0
LINE
8
BLACK
6
CONTINUOUS
10
268.938
20
-146.7
11
268.938
21
-144.7
0
LINE
8
BLACK
6
CONTINUOUS
10
266.938
20
-146.7
11
268.938
21
-146.7
0
LINE
8
BLACK
6
CONTINUOUS
10
268.938
20
-132.7
11
268.938
21
-134.7
0
LINE
8
BLACK
6
CONTINUOUS
10
266.938
20
-132.7
11
268.938
21
-132.7
0
LINE
8
BLACK
6
CONTINUOUS
10
252.412
20
-130.175
11
252.412
21
-111.125
0
LINE
8
BLACK
6
CONTINUOUS
10
271.462
20
-130.175
11
252.412
21
-130.175
0
LINE
8
BLACK
6
CONTINUOUS
10
271.462
20
-111.125
11
271.462
21
-130.175
0
LINE
8
BLACK
6
CONTINUOUS
10
252.412
20
-111.125
11
271.462
21
-111.125
0
LINE
8
BLACK
6
CONTINUOUS
10
254.938
20
-113.65
11
254.938
21
-115.65
0
LINE
8
BLACK
6
CONTINUOUS
10
256.938
20
-113.65
11
254.938
21
-113.65
0
LINE
8
BLACK
6
CONTINUOUS
10
254.938
20
-127.65
11
256.938
21
-127.65
0
LINE
8
BLACK
6
CONTINUOUS
10
254.938
20
-125.65
11
254.938
21
-127.65
0
LINE
8
BLACK
6
CONTINUOUS
10
268.938
20
-127.65
11
268.938
21
-125.65
0
LINE
8
BLACK
6
CONTINUOUS
10
266.938
20
-127.65
11
268.938
21
-127.65
0
LINE
8
BLACK
6
CONTINUOUS
10
268.938
20
-113.65
11
268.938
21
-115.65
0
LINE
8
BLACK
6
CONTINUOUS
10
266.938
20
-113.65
11
268.938
21
-113.65
0
LINE
8
BLACK
6
CONTINUOUS
10
252.412
20
-111.125
11
252.412
21
-92.075
0
LINE
8
BLACK
6
CONTINUOUS
10
271.462
20
-111.125
11
252.412
21
-111.125
0
LINE
8
BLACK
6
CONTINUOUS
10
271.462
20
-92.075
11
271.462
21
-111.125
0
LINE
8
BLACK
6
CONTINUOUS
10
252.412
20
-92.075
11
271.462
21
-92.075
0
LINE
8
BLACK
6
CONTINUOUS
10
254.938
20
-94.6
11
254.938
21
-96.6
0
LINE
8
BLACK
6
CONTINUOUS
10
256.938
20
-94.6
11
254.938
21
-94.6
0
LINE
8
BLACK
6
CONTINUOUS
10
254.938
20
-108.6
11
256.938
21
-108.6
0
LINE
8
BLACK
6
CONTINUOUS
10
254.938
20
-106.6
11
254.938
21
-108.6
0
LINE
8
BLACK
6
CONTINUOUS
10
268.938
20
-108.6
11
268.938
21
-106.6
0
LINE
8
BLACK
6
CONTINUOUS
10
266.938
20
-108.6
11
268.938
21
-108.6
0
LINE
8
BLACK
6
CONTINUOUS
10
268.938
20
-94.6
11
268.938
21
-96.6
0
LINE
8
BLACK
6
CONTINUOUS
10
266.938
20
-94.6
11
268.938
21
-94.6
0
LINE
8
BLACK
6
CONTINUOUS
10
252.412
20
-92.075
11
252.412
21
-73.025
0
LINE
8
BLACK
6
CONTINUOUS
10
271.462
20
-92.075
11
252.412
21
-92.075
0
LINE
8
BLACK
6
CONTINUOUS
10
271.462
20
-73.025
11
271.462
21
-92.075
0
LINE
8
BLACK
6
CONTINUOUS
10
252.412
20
-73.025
11
271.462
21
-73.025
0
LINE
8
BLACK
6
CONTINUOUS
10
254.938
20
-75.55
11
254.938
21
-77.55
0
LINE
8
BLACK
6
CONTINUOUS
10
256.938
20
-75.55
11
254.938
21
-75.55
0
LINE
8
BLACK
6
CONTINUOUS
10
254.938
20
-89.55
11
256.938
21
-89.55
0
LINE
8
BLACK
6
CONTINUOUS
10
254.938
20
-87.55
11
254.938
21
-89.55
0
LINE
8
BLACK
6
CONTINUOUS
10
268.938
20
-89.55
11
268.938
21
-87.55
0
LINE
8
BLACK
6
CONTINUOUS
10
266.938
20
-89.55
11
268.938
21
-89.55
0
LINE
8
BLACK
6
CONTINUOUS
10
268.938
20
-75.55
11
268.938
21
-77.55
0
LINE
8
BLACK
6
CONTINUOUS
10
266.938
20
-75.55
11
268.938
21
-75.55
0
LINE
8
BLACK
6
CONTINUOUS
10
252.412
20
-73.025
11
252.412
21
-53.975
0
LINE
8
BLACK
6
CONTINUOUS
10
271.462
20
-73.025
11
252.412
21
-73.025
0
LINE
8
BLACK
6
CONTINUOUS
10
271.462
20
-53.975
11
271.462
21
-73.025
0
LINE
8
BLACK
6
CONTINUOUS
10
252.412
20
-53.975
11
271.462
21
-53.975
0
LINE
8
BLACK
6
CONTINUOUS
10
254.938
20
-56.5
11
254.938
21
-58.5
0
LINE
8
BLACK
6
CONTINUOUS
10
256.938
20
-56.5
11
254.938
21
-56.5
0
LINE
8
BLACK
6
CONTINUOUS
10
254.938
20
-70.5
11
256.938
21
-70.5
0
LINE
8
BLACK
6
CONTINUOUS
10
254.938
20
-68.5
11
254.938
21
-70.5
0
LINE
8
BLACK
6
CONTINUOUS
10
268.938
20
-70.5
11
268.938
21
-68.5
0
LINE
8
BLACK
6
CONTINUOUS
10
266.938
20
-70.5
11
268.938
21
-70.5
0
LINE
8
BLACK
6
CONTINUOUS
10
268.938
20
-56.5
11
268.938
21
-58.5
0
LINE
8
BLACK
6
CONTINUOUS
10
266.938
20
-56.5
11
268.938
21
-56.5
0
LINE
8
BLACK
6
CONTINUOUS
10
271.462
20
-149.225
11
271.462
21
-130.175
0
LINE
8
BLACK
6
CONTINUOUS
10
290.512
20
-149.225
11
271.462
21
-149.225
0
LINE
8
BLACK
6
CONTINUOUS
10
290.512
20
-130.175
11
290.512
21
-149.225
0
LINE
8
BLACK
6
CONTINUOUS
10
271.462
20
-130.175
11
290.512
21
-130.175
0
LINE
8
BLACK
6
CONTINUOUS
10
273.988
20
-132.7
11
273.988
21
-134.7
0
LINE
8
BLACK
6
CONTINUOUS
10
275.988
20
-132.7
11
273.988
21
-132.7
0
LINE
8
BLACK
6
CONTINUOUS
10
273.988
20
-146.7
11
275.988
21
-146.7
0
LINE
8
BLACK
6
CONTINUOUS
10
273.988
20
-144.7
11
273.988
21
-146.7
0
LINE
8
BLACK
6
CONTINUOUS
10
287.988
20
-146.7
11
287.988
21
-144.7
0
LINE
8
BLACK
6
CONTINUOUS
10
285.988
20
-146.7
11
287.988
21
-146.7
0
LINE
8
BLACK
6
CONTINUOUS
10
287.988
20
-132.7
11
287.988
21
-134.7
0
LINE
8
BLACK
6
CONTINUOUS
10
285.988
20
-132.7
11
287.988
21
-132.7
0
LINE
8
BLACK
6
CONTINUOUS
10
271.462
20
-130.175
11
271.462
21
-111.125
0
LINE
8
BLACK
6
CONTINUOUS
10
290.512
20
-130.175
11
271.462
21
-130.175
0
LINE
8
BLACK
6
CONTINUOUS
10
290.512
20
-111.125
11
290.512
21
-130.175
0
LINE
8
BLACK
6
CONTINUOUS
10
271.462
20
-111.125
11
290.512
21
-111.125
0
LINE
8
BLACK
6
CONTINUOUS
10
273.988
20
-113.65
11
273.988
21
-115.65
0
LINE
8
BLACK
6
CONTINUOUS
10
275.988
20
-113.65
11
273.988
21
-113.65
0
LINE
8
BLACK
6
CONTINUOUS
10
273.988
20
-127.65
11
275.988
21
-127.65
0
LINE
8
BLACK
6
CONTINUOUS
10
273.988
20
-125.65
11
273.988
21
-127.65
0
LINE
8
BLACK
6
CONTINUOUS
10
287.988
20
-127.65
11
287.988
21
-125.65
0
LINE
8
BLACK
6
CONTINUOUS
10
285.988
20
-127.65
11
287.988
21
-127.65
0
LINE
8
BLACK
6
CONTINUOUS
10
287.988
20
-113.65
11
287.988
21
-115.65
0
LINE
8
BLACK
6
CONTINUOUS
10
285.988
20
-113.65
11
287.988
21
-113.65
0
LINE
8
BLACK
6
CONTINUOUS
10
271.462
20
-111.125
11
271.462
21
-92.075
0
LINE
8
BLACK
6
CONTINUOUS
10
290.512
20
-111.125
11
271.462
21
-111.125
0
LINE
8
BLACK
6
CONTINUOUS
10
290.512
20
-92.075
11
290.512
21
-111.125
0
LINE
8
BLACK
6
CONTINUOUS
10
271.462
20
-92.075
11
290.512
21
-92.075
0
LINE
8
BLACK
6
CONTINUOUS
10
273.988
20
-94.6
11
273.988
21
-96.6
0
LINE
8
BLACK
6
CONTINUOUS
10
275.988
20
-94.6
11
273.988
21
-94.6
0
LINE
8
BLACK
6
CONTINUOUS
10
273.988
20
-108.6
11
275.988
21
-108.6
0
LINE
8
BLACK
6
CONTINUOUS
10
273.988
20
-106.6
11
273.988
21
-108.6
0
LINE
8
BLACK
6
CONTINUOUS
10
287.988
20
-108.6
11
287.988
21
-106.6
0
LINE
8
BLACK
6
CONTINUOUS
10
285.988
20
-108.6
11
287.988
21
-108.6
0
LINE
8
BLACK
6
CONTINUOUS
10
287.988
20
-94.6
11
287.988
21
-96.6
0
LINE
8
BLACK
6
CONTINUOUS
10
285.988
20
-94.6
11
287.988
21
-94.6
0
LINE
8
BLACK
6
CONTINUOUS
10
271.462
20
-92.075
11
271.462
21
-73.025
0
LINE
8
BLACK
6
CONTINUOUS
10
290.512
20
-92.075
11
271.462
21
-92.075
0
LINE
8
BLACK
6
CONTINUOUS
10
290.512
20
-73.025
11
290.512
21
-92.075
0
LINE
8
BLACK
6
CONTINUOUS
10
271.462
20
-73.025
11
290.512
21
-73.025
0
LINE
8
BLACK
6
CONTINUOUS
10
273.988
20
-75.55
11
273.988
21
-77.55
0
LINE
8
BLACK
6
CONTINUOUS
10
275.988
20
-75.55
11
273.988
21
-75.55
0
LINE
8
BLACK
6
CONTINUOUS
10
273.988
20
-89.55
11
275.988
21
-89.55
0
LINE
8
BLACK
6
CONTINUOUS
10
273.988
20
-87.55
11
273.988
21
-89.55
0
LINE
8
BLACK
6
CONTINUOUS
10
287.988
20
-89.55
11
287.988
21
-87.55
0
LINE
8
BLACK
6
CONTINUOUS
10
285.988
20
-89.55
11
287.988
21
-89.55
0
LINE
8
BLACK
6
CONTINUOUS
10
287.988
20
-75.55
11
287.988
21
-77.55
0
LINE
8
BLACK
6
CONTINUOUS
10
285.988
20
-75.55
11
287.988
21
-75.55
0
LINE
8
BLACK
6
CONTINUOUS
10
271.462
20
-73.025
11
271.462
21
-53.975
0
LINE
8
BLACK
6
CONTINUOUS
10
290.512
20
-73.025
11
271.462
21
-73.025
0
LINE
8
BLACK
6
CONTINUOUS
10
290.512
20
-53.975
11
290.512
21
-73.025
0
LINE
8
BLACK
6
CONTINUOUS
10
271.462
20
-53.975
11
290.512
21
-53.975
0
LINE
8
BLACK
6
CONTINUOUS
10
273.988
20
-56.5
11
273.988
21
-58.5
0
LINE
8
BLACK
6
CONTINUOUS
10
275.988
20
-56.5
11
273.988
21
-56.5
0
LINE
8
BLACK
6
CONTINUOUS
10
273.988
20
-70.5
11
275.988
21
-70.5
0
LINE
8
BLACK
6
CONTINUOUS
10
273.988
20
-68.5
11
273.988
21
-70.5
0
LINE
8
BLACK
6
CONTINUOUS
10
287.988
20
-70.5
11
287.988
21
-68.5
0
LINE
8
BLACK
6
CONTINUOUS
10
285.988
20
-70.5
11
287.988
21
-70.5
0
LINE
8
BLACK
6
CONTINUOUS
10
287.988
20
-56.5
11
287.988
21
-58.5
0
LINE
8
BLACK
6
CONTINUOUS
10
285.988
20
-56.5
11
287.988
21
-56.5
0
LINE
8
BLACK
6
CONTINUOUS
10
290.512
20
-149.225
11
290.512
21
-130.175
0
LINE
8
BLACK
6
CONTINUOUS
10
309.562
20
-149.225
11
290.512
21
-149.225
0
LINE
8
BLACK
6
CONTINUOUS
10
309.562
20
-130.175
11
309.562
21
-149.225
0
LINE
8
BLACK
6
CONTINUOUS
10
290.512
20
-130.175
11
309.562
21
-130.175
0
LINE
8
BLACK
6
CONTINUOUS
10
293.037
20
-132.7
11
293.037
21
-134.7
0
LINE
8
BLACK
6
CONTINUOUS
10
295.037
20
-132.7
11
293.037
21
-132.7
0
LINE
8
BLACK
6
CONTINUOUS
10
293.037
20
-146.7
11
295.037
21
-146.7
0
LINE
8
BLACK
6
CONTINUOUS
10
293.037
20
-144.7
11
293.037
21
-146.7
0
LINE
8
BLACK
6
CONTINUOUS
10
307.037
20
-146.7
11
307.037
21
-144.7
0
LINE
8
BLACK
6
CONTINUOUS
10
305.037
20
-146.7
11
307.037
21
-146.7
0
LINE
8
BLACK
6
CONTINUOUS
10
307.037
20
-132.7
11
307.037
21
-134.7
0
LINE
8
BLACK
6
CONTINUOUS
10
305.037
20
-132.7
11
307.037
21
-132.7
0
LINE
8
BLACK
6
CONTINUOUS
10
290.512
20
-130.175
11
290.512
21
-111.125
0
LINE
8
BLACK
6
CONTINUOUS
10
309.562
20
-130.175
11
290.512
21
-130.175
0
LINE
8
BLACK
6
CONTINUOUS
10
309.562
20
-111.125
11
309.562
21
-130.175
0
LINE
8
BLACK
6
CONTINUOUS
10
290.512
20
-111.125
11
309.562
21
-111.125
0
LINE
8
BLACK
6
CONTINUOUS
10
293.037
20
-113.65
11
293.037
21
-115.65
0
LINE
8
BLACK
6
CONTINUOUS
10
295.037
20
-113.65
11
293.037
21
-113.65
0
LINE
8
BLACK
6
CONTINUOUS
10
293.037
20
-127.65
11
295.037
21
-127.65
0
LINE
8
BLACK
6
CONTINUOUS
10
293.037
20
-125.65
11
293.037
21
-127.65
0
LINE
8
BLACK
6
CONTINUOUS
10
307.037
20
-127.65
11
307.037
21
-125.65
0
LINE
8
BLACK
6
CONTINUOUS
10
305.037
20
-127.65
11
307.037
21
-127.65
0
LINE
8
BLACK
6
CONTINUOUS
10
307.037
20
-113.65
11
307.037
21
-115.65
0
LINE
8
BLACK
6
CONTINUOUS
10
305.037
20
-113.65
11
307.037
21
-113.65
0
LINE
8
BLACK
6
CONTINUOUS
10
290.512
20
-111.125
11
290.512
21
-92.075
0
LINE
8
BLACK
6
CONTINUOUS
10
309.562
20
-111.125
11
290.512
21
-111.125
0
LINE
8
BLACK
6
CONTINUOUS
10
309.562
20
-92.075
11
309.562
21
-111.125
0
LINE
8
BLACK
6
CONTINUOUS
10
290.512
20
-92.075
11
309.562
21
-92.075
0
LINE
8
BLACK
6
CONTINUOUS
10
293.037
20
-94.6
11
293.037
21
-96.6
0
LINE
8
BLACK
6
CONTINUOUS
10
295.037
20
-94.6
11
293.037
21
-94.6
0
LINE
8
BLACK
6
CONTINUOUS
10
293.037
20
-108.6
11
295.037
21
-108.6
0
LINE
8
BLACK
6
CONTINUOUS
10
293.037
20
-106.6
11
293.037
21
-108.6
0
LINE
8
BLACK
6
CONTINUOUS
10
307.037
20
-108.6
11
307.037
21
-106.6
0
LINE
8
BLACK
6
CONTINUOUS
10
305.037
20
-108.6
11
307.037
21
-108.6
0
LINE
8
BLACK
6
CONTINUOUS
10
307.037
20
-94.6
11
307.037
21
-96.6
0
LINE
8
BLACK
6
CONTINUOUS
10
305.037
20
-94.6
11
307.037
21
-94.6
0
LINE
8
BLACK
6
CONTINUOUS
10
290.512
20
-92.075
11
290.512
21
-73.025
0
LINE
8
BLACK
6
CONTINUOUS
10
309.562
20
-92.075
11
290.512
21
-92.075
0
LINE
8
BLACK
6
CONTINUOUS
10
309.562
20
-73.025
11
309.562
21
-92.075
0
LINE
8
BLACK
6
CONTINUOUS
10
290.512
20
-73.025
11
309.562
21
-73.025
0
LINE
8
BLACK
6
CONTINUOUS
10
293.037
20
-75.55
11
293.037
21
-77.55
0
LINE
8
BLACK
6
CONTINUOUS
10
295.037
20
-75.55
11
293.037
21
-75.55
0
LINE
8
BLACK
6
CONTINUOUS
10
293.037
20
-89.55
11
295.037
21
-89.55
0
LINE
8
BLACK
6
CONTINUOUS
10
293.037
20
-87.55
11
293.037
21
-89.55
0
LINE
8
BLACK
6
CONTINUOUS
10
307.037
20
-89.55
11
307.037
21
-87.55
0
LINE
8
BLACK
6
CONTINUOUS
10
305.037
20
-89.55
11
307.037
21
-89.55
0
LINE
8
BLACK
6
CONTINUOUS
10
307.037
20
-75.55
11
307.037
21
-77.55
0
LINE
8
BLACK
6
CONTINUOUS
10
305.037
20
-75.55
11
307.037
21
-75.55
0
LINE
8
BLACK
6
CONTINUOUS
10
290.512
20
-73.025
11
290.512
21
-53.975
0
LINE
8
BLACK
6
CONTINUOUS
10
309.562
20
-73.025
11
290.512
21
-73.025
0
LINE
8
BLACK
6
CONTINUOUS
10
309.562
20
-53.975
11
309.562
21
-73.025
0
LINE
8
BLACK
6
CONTINUOUS
10
290.512
20
-53.975
11
309.562
21
-53.975
0
LINE
8
BLACK
6
CONTINUOUS
10
293.037
20
-56.5
11
293.037
21
-58.5
0
LINE
8
BLACK
6
CONTINUOUS
10
295.037
20
-56.5
11
293.037
21
-56.5
0
LINE
8
BLACK
6
CONTINUOUS
10
293.037
20
-70.5
11
295.037
21
-70.5
0
LINE
8
BLACK
6
CONTINUOUS
10
293.037
20
-68.5
11
293.037
21
-70.5
0
LINE
8
BLACK
6
CONTINUOUS
10
307.037
20
-70.5
11
307.037
21
-68.5
0
LINE
8
BLACK
6
CONTINUOUS
10
305.037
20
-70.5
11
307.037
21
-70.5
0
LINE
8
BLACK
6
CONTINUOUS
10
307.037
20
-56.5
11
307.037
21
-58.5
0
LINE
8
BLACK
6
CONTINUOUS
10
305.037
20
-56.5
11
307.037
21
-56.5
0
LINE
8
BLACK
6
CONTINUOUS
10
309.562
20
-149.225
11
309.562
21
-130.175
0
LINE
8
BLACK
6
CONTINUOUS
10
328.613
20
-149.225
11
309.562
21
-149.225
0
LINE
8
BLACK
6
CONTINUOUS
10
328.613
20
-130.175
11
328.613
21
-149.225
0
LINE
8
BLACK
6
CONTINUOUS
10
309.562
20
-130.175
11
328.613
21
-130.175
0
LINE
8
BLACK
6
CONTINUOUS
10
312.087
20
-132.7
11
312.087
21
-134.7
0
LINE
8
BLACK
6
CONTINUOUS
10
314.087
20
-132.7
11
312.087
21
-132.7
0
LINE
8
BLACK
6
CONTINUOUS
10
312.087
20
-146.7
11
314.087
21
-146.7
0
LINE
8
BLACK
6
CONTINUOUS
10
312.087
20
-144.7
11
312.087
21
-146.7
0
LINE
8
BLACK
6
CONTINUOUS
10
326.087
20
-146.7
11
326.087
21
-144.7
0
LINE
8
BLACK
6
CONTINUOUS
10
324.087
20
-146.7
11
326.087
21
-146.7
0
LINE
8
BLACK
6
CONTINUOUS
10
326.087
20
-132.7
11
326.087
21
-134.7
0
LINE
8
BLACK
6
CONTINUOUS
10
324.087
20
-132.7
11
326.087
21
-132.7
0
LINE
8
BLACK
6
CONTINUOUS
10
309.562
20
-130.175
11
309.562
21
-111.125
0
LINE
8
BLACK
6
CONTINUOUS
10
328.613
20
-130.175
11
309.562
21
-130.175
0
LINE
8
BLACK
6
CONTINUOUS
10
328.613
20
-111.125
11
328.613
21
-130.175
0
LINE
8
BLACK
6
CONTINUOUS
10
309.562
20
-111.125
11
328.613
21
-111.125
0
LINE
8
BLACK
6
CONTINUOUS
10
312.087
20
-113.65
11
312.087
21
-115.65
0
LINE
8
BLACK
6
CONTINUOUS
10
314.087
20
-113.65
11
312.087
21
-113.65
0
LINE
8
BLACK
6
CONTINUOUS
10
312.087
20
-127.65
11
314.087
21
-127.65
0
LINE
8
BLACK
6
CONTINUOUS
10
312.087
20
-125.65
11
312.087
21
-127.65
0
LINE
8
BLACK
6
CONTINUOUS
10
326.087
20
-127.65
11
326.087
21
-125.65
0
LINE
8
BLACK
6
CONTINUOUS
10
324.087
20
-127.65
11
326.087
21
-127.65
0
LINE
8
BLACK
6
CONTINUOUS
10
326.087
20
-113.65
11
326.087
21
-115.65
0
LINE
8
BLACK
6
CONTINUOUS
10
324.087
20
-113.65
11
326.087
21
-113.65
0
LINE
8
BLACK
6
CONTINUOUS
10
309.562
20
-111.125
11
309.562
21
-92.075
0
LINE
8
BLACK
6
CONTINUOUS
10
328.613
20
-111.125
11
309.562
21
-111.125
0
LINE
8
BLACK
6
CONTINUOUS
10
328.613
20
-92.075
11
328.613
21
-111.125
0
LINE
8
BLACK
6
CONTINUOUS
10
309.562
20
-92.075
11
328.613
21
-92.075
0
LINE
8
BLACK
6
CONTINUOUS
10
312.087
20
-94.6
11
312.087
21
-96.6
0
LINE
8
BLACK
6
CONTINUOUS
10
314.087
20
-94.6
11
312.087
21
-94.6
0
LINE
8
BLACK
6
CONTINUOUS
10
312.087
20
-108.6
11
314.087
21
-108.6
0
LINE
8
BLACK
6
CONTINUOUS
10
312.087
20
-106.6
11
312.087
21
-108.6
0
LINE
8
BLACK
6
CONTINUOUS
10
326.087
20
-108.6
11
326.087
21
-106.6
0
LINE
8
BLACK
6
CONTINUOUS
10
324.087
20
-108.6
11
326.087
21
-108.6
0
LINE
8
BLACK
6
CONTINUOUS
10
326.087
20
-94.6
11
326.087
21
-96.6
0
LINE
8
BLACK
6
CONTINUOUS
10
324.087
20
-94.6
11
326.087
21
-94.6
0
LINE
8
BLACK
6
CONTINUOUS
10
309.562
20
-92.075
11
309.562
21
-73.025
0
LINE
8
BLACK
6
CONTINUOUS
10
328.613
20
-92.075
11
309.562
21
-92.075
0
LINE
8
BLACK
6
CONTINUOUS
10
328.613
20
-73.025
11
328.613
21
-92.075
0
LINE
8
BLACK
6
CONTINUOUS
10
309.562
20
-73.025
11
328.613
21
-73.025
0
LINE
8
BLACK
6
CONTINUOUS
10
312.087
20
-75.55
11
312.087
21
-77.55
0
LINE
8
BLACK
6
CONTINUOUS
10
314.087
20
-75.55
11
312.087
21
-75.55
0
LINE
8
BLACK
6
CONTINUOUS
10
312.087
20
-89.55
11
314.087
21
-89.55
0
LINE
8
BLACK
6
CONTINUOUS
10
312.087
20
-87.55
11
312.087
21
-89.55
0
LINE
8
BLACK
6
CONTINUOUS
10
326.087
20
-89.55
11
326.087
21
-87.55
0
LINE
8
BLACK
6
CONTINUOUS
10
324.087
20
-89.55
11
326.087
21
-89.55
0
LINE
8
BLACK
6
CONTINUOUS
10
326.087
20
-75.55
11
326.087
21
-77.55
0
LINE
8
BLACK
6
CONTINUOUS
10
324.087
20
-75.55
11
326.087
21
-75.55
0
LINE
8
BLACK
6
CONTINUOUS
10
309.562
20
-73.025
11
309.562
21
-53.975
0
LINE
8
BLACK
6
CONTINUOUS
10
328.613
20
-73.025
11
309.562
21
-73.025
0
LINE
8
BLACK
6
CONTINUOUS
10
328.613
20
-53.975
11
328.613
21
-73.025
0
LINE
8
BLACK
6
CONTINUOUS
10
309.562
20
-53.975
11
328.613
21
-53.975
0
LINE
8
BLACK
6
CONTINUOUS
10
312.087
20
-56.5
11
312.087
21
-58.5
0
LINE
8
BLACK
6
CONTINUOUS
10
314.087
20
-56.5
11
312.087
21
-56.5
0
LINE
8
BLACK
6
CONTINUOUS
10
312.087
20
-70.5
11
314.087
21
-70.5
0
LINE
8
BLACK
6
CONTINUOUS
10
312.087
20
-68.5
11
312.087
21
-70.5
0
LINE
8
BLACK
6
CONTINUOUS
10
326.087
20
-70.5
11
326.087
21
-68.5
0
LINE
8
BLACK
6
CONTINUOUS
10
324.087
20
-70.5
11
326.087
21
-70.5
0
LINE
8
BLACK
6
CONTINUOUS
10
326.087
20
-56.5
11
326.087
21
-58.5
0
LINE
8
BLACK
6
CONTINUOUS
10
324.087
20
-56.5
11
326.087
21
-56.5
0
LINE
8
BLACK
6
CONTINUOUS
10
328.613
20
-149.225
11
328.613
21
-130.175
0
LINE
8
BLACK
6
CONTINUOUS
10
347.662
20
-149.225
11
328.613
21
-149.225
0
LINE
8
BLACK
6
CONTINUOUS
10
347.662
20
-130.175
11
347.662
21
-149.225
0
LINE
8
BLACK
6
CONTINUOUS
10
328.613
20
-130.175
11
347.662
21
-130.175
0
LINE
8
BLACK
6
CONTINUOUS
10
331.137
20
-132.7
11
331.137
21
-134.7
0
LINE
8
BLACK
6
CONTINUOUS
10
333.137
20
-132.7
11
331.137
21
-132.7
0
LINE
8
BLACK
6
CONTINUOUS
10
331.137
20
-146.7
11
333.137
21
-146.7
0
LINE
8
BLACK
6
CONTINUOUS
10
331.137
20
-144.7
11
331.137
21
-146.7
0
LINE
8
BLACK
6
CONTINUOUS
10
345.137
20
-146.7
11
345.137
21
-144.7
0
LINE
8
BLACK
6
CONTINUOUS
10
343.137
20
-146.7
11
345.137
21
-146.7
0
LINE
8
BLACK
6
CONTINUOUS
10
345.137
20
-132.7
11
345.137
21
-134.7
0
LINE
8
BLACK
6
CONTINUOUS
10
343.137
20
-132.7
11
345.137
21
-132.7
0
LINE
8
BLACK
6
CONTINUOUS
10
328.613
20
-130.175
11
328.613
21
-111.125
0
LINE
8
BLACK
6
CONTINUOUS
10
347.662
20
-130.175
11
328.613
21
-130.175
0
LINE
8
BLACK
6
CONTINUOUS
10
347.662
20
-111.125
11
347.662
21
-130.175
0
LINE
8
BLACK
6
CONTINUOUS
10
328.613
20
-111.125
11
347.662
21
-111.125
0
LINE
8
BLACK
6
CONTINUOUS
10
331.137
20
-113.65
11
331.137
21
-115.65
0
LINE
8
BLACK
6
CONTINUOUS
10
333.137
20
-113.65
11
331.137
21
-113.65
0
LINE
8
BLACK
6
CONTINUOUS
10
331.137
20
-127.65
11
333.137
21
-127.65
0
LINE
8
BLACK
6
CONTINUOUS
10
331.137
20
-125.65
11
331.137
21
-127.65
0
LINE
8
BLACK
6
CONTINUOUS
10
345.137
20
-127.65
11
345.137
21
-125.65
0
LINE
8
BLACK
6
CONTINUOUS
10
343.137
20
-127.65
11
345.137
21
-127.65
0
LINE
8
BLACK
6
CONTINUOUS
10
345.137
20
-113.65
11
345.137
21
-115.65
0
LINE
8
BLACK
6
CONTINUOUS
10
343.137
20
-113.65
11
345.137
21
-113.65
0
LINE
8
BLACK
6
CONTINUOUS
10
328.613
20
-111.125
11
328.613
21
-92.075
0
LINE
8
BLACK
6
CONTINUOUS
10
347.662
20
-111.125
11
328.613
21
-111.125
0
LINE
8
BLACK
6
CONTINUOUS
10
347.662
20
-92.075
11
347.662
21
-111.125
0
LINE
8
BLACK
6
CONTINUOUS
10
328.613
20
-92.075
11
347.662
21
-92.075
0
LINE
8
BLACK
6
CONTINUOUS
10
331.137
20
-94.6
11
331.137
21
-96.6
0
LINE
8
BLACK
6
CONTINUOUS
10
333.137
20
-94.6
11
331.137
21
-94.6
0
LINE
8
BLACK
6
CONTINUOUS
10
331.137
20
-108.6
11
333.137
21
-108.6
0
LINE
8
BLACK
6
CONTINUOUS
10
331.137
20
-106.6
11
331.137
21
-108.6
0
LINE
8
BLACK
6
CONTINUOUS
10
345.137
20
-108.6
11
345.137
21
-106.6
0
LINE
8
BLACK
6
CONTINUOUS
10
343.137
20
-108.6
11
345.137
21
-108.6
0
LINE
8
BLACK
6
CONTINUOUS
10
345.137
20
-94.6
11
345.137
21
-96.6
0
LINE
8
BLACK
6
CONTINUOUS
10
343.137
20
-94.6
11
345.137
21
-94.6
0
LINE
8
BLACK
6
CONTINUOUS
10
328.613
20
-92.075
11
328.613
21
-73.025
0
LINE
8
BLACK
6
CONTINUOUS
10
347.662
20
-92.075
11
328.613
21
-92.075
0
LINE
8
BLACK
6
CONTINUOUS
10
347.662
20
-73.025
11
347.662
21
-92.075
0
LINE
8
BLACK
6
CONTINUOUS
10
328.613
20
-73.025
11
347.662
21
-73.025
0
LINE
8
BLACK
6
CONTINUOUS
10
331.137
20
-75.55
11
331.137
21
-77.55
0
LINE
8
BLACK
6
CONTINUOUS
10
333.137
20
-75.55
11
331.137
21
-75.55
0
LINE
8
BLACK
6
CONTINUOUS
10
331.137
20
-89.55
11
333.137
21
-89.55
0
LINE
8
BLACK
6
CONTINUOUS
10
331.137
20
-87.55
11
331.137
21
-89.55
0
LINE
8
BLACK
6
CONTINUOUS
10
345.137
20
-89.55
11
345.137
21
-87.55
0
LINE
8
BLACK
6
CONTINUOUS
10
343.137
20
-89.55
11
345.137
21
-89.55
0
LINE
8
BLACK
6
CONTINUOUS
10
345.137
20
-75.55
11
345.137
21
-77.55
0
LINE
8
BLACK
6
CONTINUOUS
10
343.137
20
-75.55
11
345.137
21
-75.55
0
LINE
8
BLACK
6
CONTINUOUS
10
328.613
20
-73.025
11
328.613
21
-53.975
0
LINE
8
BLACK
6
CONTINUOUS
10
347.662
20
-73.025
11
328.613
21
-73.025
0
LINE
8
BLACK
6
CONTINUOUS
10
347.662
20
-53.975
11
347.662
21
-73.025
0
LINE
8
BLACK
6
CONTINUOUS
10
328.613
20
-53.975
11
347.662
21
-53.975
0
LINE
8
BLACK
6
CONTINUOUS
10
331.137
20
-56.5
11
331.137
21
-58.5
0
LINE
8
BLACK
6
CONTINUOUS
10
333.137
20
-56.5
11
331.137
21
-56.5
0
LINE
8
BLACK
6
CONTINUOUS
10
331.137
20
-70.5
11
333.137
21
-70.5
0
LINE
8
BLACK
6
CONTINUOUS
10
331.137
20
-68.5
11
331.137
21
-70.5
0
LINE
8
BLACK
6
CONTINUOUS
10
345.137
20
-70.5
11
345.137
21
-68.5
0
LINE
8
BLACK
6
CONTINUOUS
10
343.137
20
-70.5
11
345.137
21
-70.5
0
LINE
8
BLACK
6
CONTINUOUS
10
345.137
20
-56.5
11
345.137
21
-58.5
0
LINE
8
BLACK
6
CONTINUOUS
10
343.137
20
-56.5
11
345.137
21
-56.5
  0
ENDSEC
  0
EOF
