G04 #@! TF.GenerationSoftware,KiCad,Pcbnew,(5.1.4)-1*
G04 #@! TF.CreationDate,2021-12-20T20:52:28+07:00*
G04 #@! TF.ProjectId,Eihi5x13,45696869-3578-4313-932e-6b696361645f,rev?*
G04 #@! TF.SameCoordinates,Original*
G04 #@! TF.FileFunction,Legend,Top*
G04 #@! TF.FilePolarity,Positive*
%FSLAX46Y46*%
G04 Gerber Fmt 4.6, Leading zero omitted, Abs format (unit mm)*
G04 Created by KiCad (PCBNEW (5.1.4)-1) date 2021-12-20 20:52:28*
%MOMM*%
%LPD*%
G04 APERTURE LIST*
%ADD10C,0.150000*%
%ADD11C,1.702000*%
%ADD12R,1.702000X1.702000*%
%ADD13C,4.089800*%
%ADD14C,1.852000*%
G04 APERTURE END LIST*
D10*
X183515000Y-130333750D02*
X165735000Y-130333750D01*
X183515000Y-99853750D02*
X183515000Y-130333750D01*
X178435000Y-99853750D02*
X183515000Y-99853750D01*
X178435000Y-97313750D02*
X178435000Y-99853750D01*
X170815000Y-97313750D02*
X178435000Y-97313750D01*
X170815000Y-99853750D02*
X170815000Y-97313750D01*
X165735000Y-99853750D02*
X170815000Y-99853750D01*
X165735000Y-99853750D02*
X165735000Y-130333750D01*
%LPC*%
D11*
X182245000Y-101123750D03*
X182245000Y-103663750D03*
X182245000Y-106203750D03*
X182245000Y-108743750D03*
X182245000Y-111283750D03*
X182245000Y-113823750D03*
X182245000Y-116363750D03*
X182245000Y-118903750D03*
X182245000Y-121443750D03*
X182245000Y-123983750D03*
X182245000Y-126523750D03*
X182245000Y-129063750D03*
X167005000Y-129063750D03*
X167005000Y-126523750D03*
X167005000Y-123983750D03*
X167005000Y-121443750D03*
X167005000Y-118903750D03*
X167005000Y-116363750D03*
X167005000Y-113823750D03*
X167005000Y-111283750D03*
X167005000Y-108743750D03*
X167005000Y-106203750D03*
X167005000Y-103663750D03*
D12*
X167005000Y-101123750D03*
D13*
X28575000Y-139700000D03*
D14*
X23495000Y-139700000D03*
X33655000Y-139700000D03*
D13*
X28575000Y-120649999D03*
D14*
X23495000Y-120649999D03*
X33655000Y-120649999D03*
D13*
X28574999Y-101600000D03*
D14*
X23494999Y-101600000D03*
X33654999Y-101600000D03*
D13*
X28575000Y-82550001D03*
D14*
X23495000Y-82550001D03*
X33655000Y-82550001D03*
D13*
X28575000Y-63500000D03*
D14*
X23495000Y-63500000D03*
X33655000Y-63500000D03*
D13*
X47625000Y-139700000D03*
D14*
X42545000Y-139700000D03*
X52705000Y-139700000D03*
D13*
X47625000Y-120650000D03*
D14*
X42545000Y-120650000D03*
X52705000Y-120650000D03*
D13*
X47624999Y-101600000D03*
D14*
X42544999Y-101600000D03*
X52704999Y-101600000D03*
D13*
X47625000Y-82550000D03*
D14*
X42545000Y-82550000D03*
X52705000Y-82550000D03*
D13*
X47625000Y-63500000D03*
D14*
X42545000Y-63500000D03*
X52705000Y-63500000D03*
D13*
X66675000Y-139700000D03*
D14*
X61595000Y-139700000D03*
X71755000Y-139700000D03*
D13*
X66675000Y-120650000D03*
D14*
X61595000Y-120650000D03*
X71755000Y-120650000D03*
D13*
X66675000Y-101600000D03*
D14*
X61595000Y-101600000D03*
X71755000Y-101600000D03*
D13*
X66675000Y-82550000D03*
D14*
X61595000Y-82550000D03*
X71755000Y-82550000D03*
D13*
X66675000Y-63500000D03*
D14*
X61595000Y-63500000D03*
X71755000Y-63500000D03*
D13*
X85725000Y-139700000D03*
D14*
X80645000Y-139700000D03*
X90805000Y-139700000D03*
D13*
X85725000Y-120650000D03*
D14*
X80645000Y-120650000D03*
X90805000Y-120650000D03*
D13*
X85725000Y-101600000D03*
D14*
X80645000Y-101600000D03*
X90805000Y-101600000D03*
D13*
X85725000Y-82550000D03*
D14*
X80645000Y-82550000D03*
X90805000Y-82550000D03*
D13*
X85725000Y-63500000D03*
D14*
X80645000Y-63500000D03*
X90805000Y-63500000D03*
D13*
X104775000Y-139700000D03*
D14*
X99695000Y-139700000D03*
X109855000Y-139700000D03*
D13*
X104775000Y-120650000D03*
D14*
X99695000Y-120650000D03*
X109855000Y-120650000D03*
D13*
X104775000Y-101600000D03*
D14*
X99695000Y-101600000D03*
X109855000Y-101600000D03*
D13*
X104775000Y-82550000D03*
D14*
X99695000Y-82550000D03*
X109855000Y-82550000D03*
D13*
X104775000Y-63500000D03*
D14*
X99695000Y-63500000D03*
X109855000Y-63500000D03*
D13*
X123825000Y-139700000D03*
D14*
X118745000Y-139700000D03*
X128905000Y-139700000D03*
D13*
X123825000Y-120650000D03*
D14*
X118745000Y-120650000D03*
X128905000Y-120650000D03*
D13*
X123825000Y-101599999D03*
D14*
X118745000Y-101599999D03*
X128905000Y-101599999D03*
D13*
X123825000Y-82550000D03*
D14*
X118745000Y-82550000D03*
X128905000Y-82550000D03*
D13*
X123825000Y-63500000D03*
D14*
X118745000Y-63500000D03*
X128905000Y-63500000D03*
X228917500Y-139700000D03*
X218757500Y-139700000D03*
D13*
X223837500Y-139700000D03*
D14*
X228917500Y-120650000D03*
X218757500Y-120650000D03*
D13*
X223837500Y-120650000D03*
D14*
X228917500Y-101600000D03*
X218757500Y-101600000D03*
D13*
X223837500Y-101600000D03*
D14*
X228917500Y-82550000D03*
X218757500Y-82550000D03*
D13*
X223837500Y-82550000D03*
D14*
X228917500Y-63500000D03*
X218757500Y-63500000D03*
D13*
X223837500Y-63500000D03*
D14*
X247967500Y-139700000D03*
X237807500Y-139700000D03*
D13*
X242887500Y-139700000D03*
D14*
X247967500Y-120650000D03*
X237807500Y-120650000D03*
D13*
X242887500Y-120650000D03*
D14*
X247967500Y-101600000D03*
X237807500Y-101600000D03*
D13*
X242887500Y-101600000D03*
D14*
X247967500Y-82550000D03*
X237807500Y-82550000D03*
D13*
X242887500Y-82550000D03*
D14*
X247967500Y-63500000D03*
X237807500Y-63500000D03*
D13*
X242887500Y-63500000D03*
D14*
X267017500Y-139700000D03*
X256857500Y-139700000D03*
D13*
X261937500Y-139700000D03*
D14*
X267017500Y-120650000D03*
X256857500Y-120650000D03*
D13*
X261937500Y-120650000D03*
D14*
X267017500Y-101600000D03*
X256857500Y-101600000D03*
D13*
X261937500Y-101600000D03*
D14*
X267017500Y-82550000D03*
X256857500Y-82550000D03*
D13*
X261937500Y-82550000D03*
D14*
X267017500Y-63500000D03*
X256857500Y-63500000D03*
D13*
X261937500Y-63500000D03*
D14*
X286067500Y-139700000D03*
X275907500Y-139700000D03*
D13*
X280987500Y-139700000D03*
D14*
X286067500Y-120650000D03*
X275907500Y-120650000D03*
D13*
X280987500Y-120650000D03*
D14*
X286067500Y-101600000D03*
X275907500Y-101600000D03*
D13*
X280987500Y-101600000D03*
D14*
X286067500Y-82550000D03*
X275907500Y-82550000D03*
D13*
X280987500Y-82550000D03*
D14*
X286067500Y-63500000D03*
X275907500Y-63500000D03*
D13*
X280987500Y-63500000D03*
D14*
X305117500Y-139700000D03*
X294957500Y-139700000D03*
D13*
X300037500Y-139700000D03*
D14*
X305117500Y-120650000D03*
X294957500Y-120650000D03*
D13*
X300037500Y-120650000D03*
D14*
X305117500Y-101600000D03*
X294957500Y-101600000D03*
D13*
X300037500Y-101600000D03*
D14*
X305117500Y-82550000D03*
X294957500Y-82550000D03*
D13*
X300037500Y-82550000D03*
D14*
X305117500Y-63500000D03*
X294957500Y-63500000D03*
D13*
X300037500Y-63500000D03*
D14*
X324167500Y-139700000D03*
X314007500Y-139700000D03*
D13*
X319087500Y-139700000D03*
D14*
X324167500Y-120650000D03*
X314007500Y-120650000D03*
D13*
X319087500Y-120650000D03*
D14*
X324167500Y-101600000D03*
X314007500Y-101600000D03*
D13*
X319087500Y-101600000D03*
D14*
X324167500Y-82550000D03*
X314007500Y-82550000D03*
D13*
X319087500Y-82550000D03*
D14*
X324167500Y-63500000D03*
X314007500Y-63500000D03*
D13*
X319087500Y-63500000D03*
D14*
X343217500Y-139700000D03*
X333057500Y-139700000D03*
D13*
X338137500Y-139700000D03*
D14*
X343217500Y-120650000D03*
X333057500Y-120650000D03*
D13*
X338137500Y-120650000D03*
D14*
X343217500Y-101600000D03*
X333057500Y-101600000D03*
D13*
X338137500Y-101600000D03*
D14*
X343217500Y-82550000D03*
X333057500Y-82550000D03*
D13*
X338137500Y-82550000D03*
D14*
X343217500Y-63500000D03*
X333057500Y-63500000D03*
D13*
X338137500Y-63500000D03*
M02*
