G04 #@! TF.GenerationSoftware,KiCad,Pcbnew,(5.1.4)-1*
G04 #@! TF.CreationDate,2021-12-20T20:52:28+07:00*
G04 #@! TF.ProjectId,Eihi5x13,45696869-3578-4313-932e-6b696361645f,rev?*
G04 #@! TF.SameCoordinates,Original*
G04 #@! TF.FileFunction,Copper,L2,Bot*
G04 #@! TF.FilePolarity,Positive*
%FSLAX46Y46*%
G04 Gerber Fmt 4.6, Leading zero omitted, Abs format (unit mm)*
G04 Created by KiCad (PCBNEW (5.1.4)-1) date 2021-12-20 20:52:28*
%MOMM*%
%LPD*%
G04 APERTURE LIST*
%ADD10C,1.600000*%
%ADD11R,1.600000X1.600000*%
%ADD12C,4.000000*%
%ADD13C,0.800000*%
%ADD14R,4.500000X2.500000*%
%ADD15R,1.200000X0.900000*%
%ADD16C,0.250000*%
G04 APERTURE END LIST*
D10*
X182245000Y-101123750D03*
X182245000Y-103663750D03*
X182245000Y-106203750D03*
X182245000Y-108743750D03*
X182245000Y-111283750D03*
X182245000Y-113823750D03*
X182245000Y-116363750D03*
X182245000Y-118903750D03*
X182245000Y-121443750D03*
X182245000Y-123983750D03*
X182245000Y-126523750D03*
X182245000Y-129063750D03*
X167005000Y-129063750D03*
X167005000Y-126523750D03*
X167005000Y-123983750D03*
X167005000Y-121443750D03*
X167005000Y-118903750D03*
X167005000Y-116363750D03*
X167005000Y-113823750D03*
X167005000Y-111283750D03*
X167005000Y-108743750D03*
X167005000Y-106203750D03*
X167005000Y-103663750D03*
D11*
X167005000Y-101123750D03*
D12*
X31115000Y-134620000D03*
X24765000Y-137160000D03*
D13*
X19685000Y-136398000D03*
X36195000Y-133858000D03*
X19685000Y-137922000D03*
X36195000Y-135382000D03*
D14*
X21490000Y-137160000D03*
X34417000Y-134620000D03*
D12*
X31115000Y-115569999D03*
X24765000Y-118109999D03*
D13*
X19685000Y-117347999D03*
X36195000Y-114807999D03*
X19685000Y-118871999D03*
X36195000Y-116331999D03*
D14*
X21490000Y-118109999D03*
X34417000Y-115569999D03*
D12*
X31114999Y-96520000D03*
X24764999Y-99060000D03*
D13*
X19684999Y-98298000D03*
X36194999Y-95758000D03*
X19684999Y-99822000D03*
X36194999Y-97282000D03*
D14*
X21489999Y-99060000D03*
X34416999Y-96520000D03*
D12*
X31115000Y-77470001D03*
X24765000Y-80010001D03*
D13*
X19685000Y-79248001D03*
X36195000Y-76708001D03*
X19685000Y-80772001D03*
X36195000Y-78232001D03*
D14*
X21490000Y-80010001D03*
X34417000Y-77470001D03*
D12*
X31115000Y-58420000D03*
X24765000Y-60960000D03*
D13*
X19685000Y-60198000D03*
X36195000Y-57658000D03*
X19685000Y-61722000D03*
X36195000Y-59182000D03*
D14*
X21490000Y-60960000D03*
X34417000Y-58420000D03*
D12*
X50165000Y-134620000D03*
X43815000Y-137160000D03*
D13*
X38735000Y-136398000D03*
X55245000Y-133858000D03*
X38735000Y-137922000D03*
X55245000Y-135382000D03*
D14*
X40540000Y-137160000D03*
X53467000Y-134620000D03*
D12*
X50165000Y-115570000D03*
X43815000Y-118110000D03*
D13*
X38735000Y-117348000D03*
X55245000Y-114808000D03*
X38735000Y-118872000D03*
X55245000Y-116332000D03*
D14*
X40540000Y-118110000D03*
X53467000Y-115570000D03*
D12*
X50164999Y-96520000D03*
X43814999Y-99060000D03*
D13*
X38734999Y-98298000D03*
X55244999Y-95758000D03*
X38734999Y-99822000D03*
X55244999Y-97282000D03*
D14*
X40539999Y-99060000D03*
X53466999Y-96520000D03*
D12*
X50165000Y-77470000D03*
X43815000Y-80010000D03*
D13*
X38735000Y-79248000D03*
X55245000Y-76708000D03*
X38735000Y-80772000D03*
X55245000Y-78232000D03*
D14*
X40540000Y-80010000D03*
X53467000Y-77470000D03*
D12*
X50165000Y-58420000D03*
X43815000Y-60960000D03*
D13*
X38735000Y-60198000D03*
X55245000Y-57658000D03*
X38735000Y-61722000D03*
X55245000Y-59182000D03*
D14*
X40540000Y-60960000D03*
X53467000Y-58420000D03*
D12*
X69215000Y-134620000D03*
X62865000Y-137160000D03*
D13*
X57785000Y-136398000D03*
X74295000Y-133858000D03*
X57785000Y-137922000D03*
X74295000Y-135382000D03*
D14*
X59590000Y-137160000D03*
X72517000Y-134620000D03*
D12*
X69215000Y-115570000D03*
X62865000Y-118110000D03*
D13*
X57785000Y-117348000D03*
X74295000Y-114808000D03*
X57785000Y-118872000D03*
X74295000Y-116332000D03*
D14*
X59590000Y-118110000D03*
X72517000Y-115570000D03*
D12*
X69215000Y-96520000D03*
X62865000Y-99060000D03*
D13*
X57785000Y-98298000D03*
X74295000Y-95758000D03*
X57785000Y-99822000D03*
X74295000Y-97282000D03*
D14*
X59590000Y-99060000D03*
X72517000Y-96520000D03*
D12*
X69215000Y-77470000D03*
X62865000Y-80010000D03*
D13*
X57785000Y-79248000D03*
X74295000Y-76708000D03*
X57785000Y-80772000D03*
X74295000Y-78232000D03*
D14*
X59590000Y-80010000D03*
X72517000Y-77470000D03*
D12*
X69215000Y-58420000D03*
X62865000Y-60960000D03*
D13*
X57785000Y-60198000D03*
X74295000Y-57658000D03*
X57785000Y-61722000D03*
X74295000Y-59182000D03*
D14*
X59590000Y-60960000D03*
X72517000Y-58420000D03*
D12*
X88265000Y-134620000D03*
X81915000Y-137160000D03*
D13*
X76835000Y-136398000D03*
X93345000Y-133858000D03*
X76835000Y-137922000D03*
X93345000Y-135382000D03*
D14*
X78640000Y-137160000D03*
X91567000Y-134620000D03*
D12*
X88265000Y-115570000D03*
X81915000Y-118110000D03*
D13*
X76835000Y-117348000D03*
X93345000Y-114808000D03*
X76835000Y-118872000D03*
X93345000Y-116332000D03*
D14*
X78640000Y-118110000D03*
X91567000Y-115570000D03*
D12*
X88265000Y-96520000D03*
X81915000Y-99060000D03*
D13*
X76835000Y-98298000D03*
X93345000Y-95758000D03*
X76835000Y-99822000D03*
X93345000Y-97282000D03*
D14*
X78640000Y-99060000D03*
X91567000Y-96520000D03*
D12*
X88265000Y-77470000D03*
X81915000Y-80010000D03*
D13*
X76835000Y-79248000D03*
X93345000Y-76708000D03*
X76835000Y-80772000D03*
X93345000Y-78232000D03*
D14*
X78640000Y-80010000D03*
X91567000Y-77470000D03*
D12*
X88265000Y-58420000D03*
X81915000Y-60960000D03*
D13*
X76835000Y-60198000D03*
X93345000Y-57658000D03*
X76835000Y-61722000D03*
X93345000Y-59182000D03*
D14*
X78640000Y-60960000D03*
X91567000Y-58420000D03*
D12*
X107315000Y-134620000D03*
X100965000Y-137160000D03*
D13*
X95885000Y-136398000D03*
X112395000Y-133858000D03*
X95885000Y-137922000D03*
X112395000Y-135382000D03*
D14*
X97690000Y-137160000D03*
X110617000Y-134620000D03*
D12*
X107315000Y-115570000D03*
X100965000Y-118110000D03*
D13*
X95885000Y-117348000D03*
X112395000Y-114808000D03*
X95885000Y-118872000D03*
X112395000Y-116332000D03*
D14*
X97690000Y-118110000D03*
X110617000Y-115570000D03*
D12*
X107315000Y-96520000D03*
X100965000Y-99060000D03*
D13*
X95885000Y-98298000D03*
X112395000Y-95758000D03*
X95885000Y-99822000D03*
X112395000Y-97282000D03*
D14*
X97690000Y-99060000D03*
X110617000Y-96520000D03*
D12*
X107315000Y-77470000D03*
X100965000Y-80010000D03*
D13*
X95885000Y-79248000D03*
X112395000Y-76708000D03*
X95885000Y-80772000D03*
X112395000Y-78232000D03*
D14*
X97690000Y-80010000D03*
X110617000Y-77470000D03*
D12*
X107315000Y-58420000D03*
X100965000Y-60960000D03*
D13*
X95885000Y-60198000D03*
X112395000Y-57658000D03*
X95885000Y-61722000D03*
X112395000Y-59182000D03*
D14*
X97690000Y-60960000D03*
X110617000Y-58420000D03*
D12*
X126365000Y-134620000D03*
X120015000Y-137160000D03*
D13*
X114935000Y-136398000D03*
X131445000Y-133858000D03*
X114935000Y-137922000D03*
X131445000Y-135382000D03*
D14*
X116740000Y-137160000D03*
X129667000Y-134620000D03*
D12*
X126365000Y-115570000D03*
X120015000Y-118110000D03*
D13*
X114935000Y-117348000D03*
X131445000Y-114808000D03*
X114935000Y-118872000D03*
X131445000Y-116332000D03*
D14*
X116740000Y-118110000D03*
X129667000Y-115570000D03*
D12*
X126365000Y-96519999D03*
X120015000Y-99059999D03*
D13*
X114935000Y-98297999D03*
X131445000Y-95757999D03*
X114935000Y-99821999D03*
X131445000Y-97281999D03*
D14*
X116740000Y-99059999D03*
X129667000Y-96519999D03*
D12*
X126365000Y-77470000D03*
X120015000Y-80010000D03*
D13*
X114935000Y-79248000D03*
X131445000Y-76708000D03*
X114935000Y-80772000D03*
X131445000Y-78232000D03*
D14*
X116740000Y-80010000D03*
X129667000Y-77470000D03*
D12*
X126365000Y-58420000D03*
X120015000Y-60960000D03*
D13*
X114935000Y-60198000D03*
X131445000Y-57658000D03*
X114935000Y-61722000D03*
X131445000Y-59182000D03*
D14*
X116740000Y-60960000D03*
X129667000Y-58420000D03*
X229679500Y-134620000D03*
X216752500Y-137160000D03*
D13*
X231457500Y-135382000D03*
X214947500Y-137922000D03*
X231457500Y-133858000D03*
X214947500Y-136398000D03*
D12*
X220027500Y-137160000D03*
X226377500Y-134620000D03*
D14*
X229679500Y-115570000D03*
X216752500Y-118110000D03*
D13*
X231457500Y-116332000D03*
X214947500Y-118872000D03*
X231457500Y-114808000D03*
X214947500Y-117348000D03*
D12*
X220027500Y-118110000D03*
X226377500Y-115570000D03*
D14*
X229679500Y-96520000D03*
X216752500Y-99060000D03*
D13*
X231457500Y-97282000D03*
X214947500Y-99822000D03*
X231457500Y-95758000D03*
X214947500Y-98298000D03*
D12*
X220027500Y-99060000D03*
X226377500Y-96520000D03*
D14*
X229679500Y-77470000D03*
X216752500Y-80010000D03*
D13*
X231457500Y-78232000D03*
X214947500Y-80772000D03*
X231457500Y-76708000D03*
X214947500Y-79248000D03*
D12*
X220027500Y-80010000D03*
X226377500Y-77470000D03*
D14*
X229679500Y-58420000D03*
X216752500Y-60960000D03*
D13*
X231457500Y-59182000D03*
X214947500Y-61722000D03*
X231457500Y-57658000D03*
X214947500Y-60198000D03*
D12*
X220027500Y-60960000D03*
X226377500Y-58420000D03*
D14*
X248729500Y-134620000D03*
X235802500Y-137160000D03*
D13*
X250507500Y-135382000D03*
X233997500Y-137922000D03*
X250507500Y-133858000D03*
X233997500Y-136398000D03*
D12*
X239077500Y-137160000D03*
X245427500Y-134620000D03*
D14*
X248729500Y-115570000D03*
X235802500Y-118110000D03*
D13*
X250507500Y-116332000D03*
X233997500Y-118872000D03*
X250507500Y-114808000D03*
X233997500Y-117348000D03*
D12*
X239077500Y-118110000D03*
X245427500Y-115570000D03*
D14*
X248729500Y-96520000D03*
X235802500Y-99060000D03*
D13*
X250507500Y-97282000D03*
X233997500Y-99822000D03*
X250507500Y-95758000D03*
X233997500Y-98298000D03*
D12*
X239077500Y-99060000D03*
X245427500Y-96520000D03*
D14*
X248729500Y-77470000D03*
X235802500Y-80010000D03*
D13*
X250507500Y-78232000D03*
X233997500Y-80772000D03*
X250507500Y-76708000D03*
X233997500Y-79248000D03*
D12*
X239077500Y-80010000D03*
X245427500Y-77470000D03*
D14*
X248729500Y-58420000D03*
X235802500Y-60960000D03*
D13*
X250507500Y-59182000D03*
X233997500Y-61722000D03*
X250507500Y-57658000D03*
X233997500Y-60198000D03*
D12*
X239077500Y-60960000D03*
X245427500Y-58420000D03*
D14*
X267779500Y-134620000D03*
X254852500Y-137160000D03*
D13*
X269557500Y-135382000D03*
X253047500Y-137922000D03*
X269557500Y-133858000D03*
X253047500Y-136398000D03*
D12*
X258127500Y-137160000D03*
X264477500Y-134620000D03*
D14*
X267779500Y-115570000D03*
X254852500Y-118110000D03*
D13*
X269557500Y-116332000D03*
X253047500Y-118872000D03*
X269557500Y-114808000D03*
X253047500Y-117348000D03*
D12*
X258127500Y-118110000D03*
X264477500Y-115570000D03*
D14*
X267779500Y-96520000D03*
X254852500Y-99060000D03*
D13*
X269557500Y-97282000D03*
X253047500Y-99822000D03*
X269557500Y-95758000D03*
X253047500Y-98298000D03*
D12*
X258127500Y-99060000D03*
X264477500Y-96520000D03*
D14*
X267779500Y-77470000D03*
X254852500Y-80010000D03*
D13*
X269557500Y-78232000D03*
X253047500Y-80772000D03*
X269557500Y-76708000D03*
X253047500Y-79248000D03*
D12*
X258127500Y-80010000D03*
X264477500Y-77470000D03*
D14*
X267779500Y-58420000D03*
X254852500Y-60960000D03*
D13*
X269557500Y-59182000D03*
X253047500Y-61722000D03*
X269557500Y-57658000D03*
X253047500Y-60198000D03*
D12*
X258127500Y-60960000D03*
X264477500Y-58420000D03*
D14*
X286829500Y-134620000D03*
X273902500Y-137160000D03*
D13*
X288607500Y-135382000D03*
X272097500Y-137922000D03*
X288607500Y-133858000D03*
X272097500Y-136398000D03*
D12*
X277177500Y-137160000D03*
X283527500Y-134620000D03*
D14*
X286829500Y-115570000D03*
X273902500Y-118110000D03*
D13*
X288607500Y-116332000D03*
X272097500Y-118872000D03*
X288607500Y-114808000D03*
X272097500Y-117348000D03*
D12*
X277177500Y-118110000D03*
X283527500Y-115570000D03*
D14*
X286829500Y-96520000D03*
X273902500Y-99060000D03*
D13*
X288607500Y-97282000D03*
X272097500Y-99822000D03*
X288607500Y-95758000D03*
X272097500Y-98298000D03*
D12*
X277177500Y-99060000D03*
X283527500Y-96520000D03*
D14*
X286829500Y-77470000D03*
X273902500Y-80010000D03*
D13*
X288607500Y-78232000D03*
X272097500Y-80772000D03*
X288607500Y-76708000D03*
X272097500Y-79248000D03*
D12*
X277177500Y-80010000D03*
X283527500Y-77470000D03*
D14*
X286829500Y-58420000D03*
X273902500Y-60960000D03*
D13*
X288607500Y-59182000D03*
X272097500Y-61722000D03*
X288607500Y-57658000D03*
X272097500Y-60198000D03*
D12*
X277177500Y-60960000D03*
X283527500Y-58420000D03*
D14*
X305879500Y-134620000D03*
X292952500Y-137160000D03*
D13*
X307657500Y-135382000D03*
X291147500Y-137922000D03*
X307657500Y-133858000D03*
X291147500Y-136398000D03*
D12*
X296227500Y-137160000D03*
X302577500Y-134620000D03*
D14*
X305879500Y-115570000D03*
X292952500Y-118110000D03*
D13*
X307657500Y-116332000D03*
X291147500Y-118872000D03*
X307657500Y-114808000D03*
X291147500Y-117348000D03*
D12*
X296227500Y-118110000D03*
X302577500Y-115570000D03*
D14*
X305879500Y-96520000D03*
X292952500Y-99060000D03*
D13*
X307657500Y-97282000D03*
X291147500Y-99822000D03*
X307657500Y-95758000D03*
X291147500Y-98298000D03*
D12*
X296227500Y-99060000D03*
X302577500Y-96520000D03*
D14*
X305879500Y-77470000D03*
X292952500Y-80010000D03*
D13*
X307657500Y-78232000D03*
X291147500Y-80772000D03*
X307657500Y-76708000D03*
X291147500Y-79248000D03*
D12*
X296227500Y-80010000D03*
X302577500Y-77470000D03*
D14*
X305879500Y-58420000D03*
X292952500Y-60960000D03*
D13*
X307657500Y-59182000D03*
X291147500Y-61722000D03*
X307657500Y-57658000D03*
X291147500Y-60198000D03*
D12*
X296227500Y-60960000D03*
X302577500Y-58420000D03*
D14*
X324929500Y-134620000D03*
X312002500Y-137160000D03*
D13*
X326707500Y-135382000D03*
X310197500Y-137922000D03*
X326707500Y-133858000D03*
X310197500Y-136398000D03*
D12*
X315277500Y-137160000D03*
X321627500Y-134620000D03*
D14*
X324929500Y-115570000D03*
X312002500Y-118110000D03*
D13*
X326707500Y-116332000D03*
X310197500Y-118872000D03*
X326707500Y-114808000D03*
X310197500Y-117348000D03*
D12*
X315277500Y-118110000D03*
X321627500Y-115570000D03*
D14*
X324929500Y-96520000D03*
X312002500Y-99060000D03*
D13*
X326707500Y-97282000D03*
X310197500Y-99822000D03*
X326707500Y-95758000D03*
X310197500Y-98298000D03*
D12*
X315277500Y-99060000D03*
X321627500Y-96520000D03*
D14*
X324929500Y-77470000D03*
X312002500Y-80010000D03*
D13*
X326707500Y-78232000D03*
X310197500Y-80772000D03*
X326707500Y-76708000D03*
X310197500Y-79248000D03*
D12*
X315277500Y-80010000D03*
X321627500Y-77470000D03*
D14*
X324929500Y-58420000D03*
X312002500Y-60960000D03*
D13*
X326707500Y-59182000D03*
X310197500Y-61722000D03*
X326707500Y-57658000D03*
X310197500Y-60198000D03*
D12*
X315277500Y-60960000D03*
X321627500Y-58420000D03*
D14*
X343979500Y-134620000D03*
X331052500Y-137160000D03*
D13*
X345757500Y-135382000D03*
X329247500Y-137922000D03*
X345757500Y-133858000D03*
X329247500Y-136398000D03*
D12*
X334327500Y-137160000D03*
X340677500Y-134620000D03*
D14*
X343979500Y-115570000D03*
X331052500Y-118110000D03*
D13*
X345757500Y-116332000D03*
X329247500Y-118872000D03*
X345757500Y-114808000D03*
X329247500Y-117348000D03*
D12*
X334327500Y-118110000D03*
X340677500Y-115570000D03*
D14*
X343979500Y-96520000D03*
X331052500Y-99060000D03*
D13*
X345757500Y-97282000D03*
X329247500Y-99822000D03*
X345757500Y-95758000D03*
X329247500Y-98298000D03*
D12*
X334327500Y-99060000D03*
X340677500Y-96520000D03*
D14*
X343979500Y-77470000D03*
X331052500Y-80010000D03*
D13*
X345757500Y-78232000D03*
X329247500Y-80772000D03*
X345757500Y-76708000D03*
X329247500Y-79248000D03*
D12*
X334327500Y-80010000D03*
X340677500Y-77470000D03*
D14*
X343979500Y-58420000D03*
X331052500Y-60960000D03*
D13*
X345757500Y-59182000D03*
X329247500Y-61722000D03*
X345757500Y-57658000D03*
X329247500Y-60198000D03*
D12*
X334327500Y-60960000D03*
X340677500Y-58420000D03*
D15*
X34925000Y-146906250D03*
X34925000Y-143606250D03*
X34925000Y-127856250D03*
X34925000Y-124556250D03*
X34925000Y-108806250D03*
X34925000Y-105506250D03*
X34925000Y-89756250D03*
X34925000Y-86456250D03*
X34925000Y-70706250D03*
X34925000Y-67406250D03*
X53975000Y-146906250D03*
X53975000Y-143606250D03*
X53975000Y-127856250D03*
X53975000Y-124556250D03*
X53975000Y-108806250D03*
X53975000Y-105506250D03*
X53975000Y-89756250D03*
X53975000Y-86456250D03*
X53975000Y-70706250D03*
X53975000Y-67406250D03*
X73025000Y-146906250D03*
X73025000Y-143606250D03*
X73025000Y-127856250D03*
X73025000Y-124556250D03*
X73025000Y-108806250D03*
X73025000Y-105506250D03*
X73025000Y-89756250D03*
X73025000Y-86456250D03*
X73025000Y-70706250D03*
X73025000Y-67406250D03*
X92075000Y-146906249D03*
X92075000Y-143606249D03*
X92075000Y-127856251D03*
X92075000Y-124556251D03*
X92075000Y-108806251D03*
X92075000Y-105506251D03*
X92075000Y-89756250D03*
X92075000Y-86456250D03*
X92075000Y-70706250D03*
X92075000Y-67406250D03*
X111125000Y-146906250D03*
X111125000Y-143606250D03*
X111125000Y-127856250D03*
X111125000Y-124556250D03*
X111125000Y-108806250D03*
X111125000Y-105506250D03*
X111125000Y-89756250D03*
X111125000Y-86456250D03*
X111125000Y-70706250D03*
X111125000Y-67406250D03*
X130175000Y-147160250D03*
X130175000Y-143860250D03*
X130175000Y-127856250D03*
X130175000Y-124556250D03*
X130175000Y-108806250D03*
X130175000Y-105506250D03*
X130175000Y-89756250D03*
X130175000Y-86456250D03*
X130175000Y-70706250D03*
X130175000Y-67406250D03*
X230187500Y-143606250D03*
X230187500Y-146906250D03*
X230981250Y-124556250D03*
X230981250Y-127856250D03*
X230187500Y-105506250D03*
X230187500Y-108806250D03*
X230187500Y-86456250D03*
X230187500Y-89756250D03*
X230187500Y-67406250D03*
X230187500Y-70706250D03*
X249237500Y-143606250D03*
X249237500Y-146906250D03*
X250031250Y-124556250D03*
X250031250Y-127856250D03*
X249237500Y-105506250D03*
X249237500Y-108806250D03*
X249237500Y-86456250D03*
X249237500Y-89756250D03*
X249237500Y-67406250D03*
X249237500Y-70706250D03*
X268287500Y-143606250D03*
X268287500Y-146906250D03*
X268287500Y-124556250D03*
X268287500Y-127856250D03*
X268287500Y-105506250D03*
X268287500Y-108806250D03*
X268287500Y-86456250D03*
X268287500Y-89756250D03*
X268287500Y-67406250D03*
X268287500Y-70706250D03*
X287337500Y-143606250D03*
X287337500Y-146906250D03*
X287337500Y-124556250D03*
X287337500Y-127856250D03*
X287337500Y-105506250D03*
X287337500Y-108806250D03*
X287337500Y-86456250D03*
X287337500Y-89756250D03*
X287337500Y-67406250D03*
X287337500Y-70706250D03*
X306387500Y-143606250D03*
X306387500Y-146906250D03*
X306387500Y-124556250D03*
X306387500Y-127856250D03*
X306387500Y-105506250D03*
X306387500Y-108806250D03*
X306387500Y-86456250D03*
X306387500Y-89756250D03*
X306387500Y-67406250D03*
X306387500Y-70706250D03*
X325437500Y-143606250D03*
X325437500Y-146906250D03*
X325437500Y-124556250D03*
X325437500Y-127856250D03*
X325437500Y-105506250D03*
X325437500Y-108806250D03*
X325437500Y-86456250D03*
X325437500Y-89756250D03*
X325437500Y-67406250D03*
X325437500Y-70706250D03*
X344487500Y-143606250D03*
X344487500Y-146906250D03*
X344487500Y-124556250D03*
X344487500Y-127856250D03*
X344487500Y-105506250D03*
X344487500Y-108806250D03*
X344487500Y-86456250D03*
X344487500Y-89756250D03*
X344487500Y-67406250D03*
X344487500Y-70706250D03*
D16*
X73175000Y-67406250D02*
X73025000Y-67406250D01*
X73175000Y-86456250D02*
X73025000Y-86456250D01*
X73175000Y-105506250D02*
X73025000Y-105506250D01*
X73175000Y-124556250D02*
X73025000Y-124556250D01*
X54125000Y-67406250D02*
X53975000Y-67406251D01*
X54124999Y-86456250D02*
X53975000Y-86456251D01*
X54125000Y-105506250D02*
X53975000Y-105506250D01*
X54125000Y-124556250D02*
X53975000Y-124556250D01*
X54125000Y-143606250D02*
X53975000Y-143606250D01*
X35075000Y-67406250D02*
X34925000Y-67406250D01*
X35075000Y-86456249D02*
X34925000Y-86456250D01*
X35075000Y-105506249D02*
X34925000Y-105506250D01*
X35075000Y-124556250D02*
X34925000Y-124556250D01*
X35075000Y-143606250D02*
X34925000Y-143606250D01*
M02*
