G04 #@! TF.GenerationSoftware,KiCad,Pcbnew,(5.1.4)-1*
G04 #@! TF.CreationDate,2021-12-20T20:52:28+07:00*
G04 #@! TF.ProjectId,Eihi5x13,45696869-3578-4313-932e-6b696361645f,rev?*
G04 #@! TF.SameCoordinates,Original*
G04 #@! TF.FileFunction,Legend,Bot*
G04 #@! TF.FilePolarity,Positive*
%FSLAX46Y46*%
G04 Gerber Fmt 4.6, Leading zero omitted, Abs format (unit mm)*
G04 Created by KiCad (PCBNEW (5.1.4)-1) date 2021-12-20 20:52:28*
%MOMM*%
%LPD*%
G04 APERTURE LIST*
%ADD10C,0.150000*%
%ADD11C,0.010000*%
%ADD12C,0.120000*%
%ADD13C,1.702000*%
%ADD14R,1.702000X1.702000*%
%ADD15C,4.089800*%
%ADD16C,1.852000*%
%ADD17R,2.550000X2.500000*%
%ADD18R,1.302000X1.002000*%
G04 APERTURE END LIST*
D10*
X212659523Y-147859523D02*
X212659523Y-143859523D01*
X212659523Y-145383333D02*
X212469047Y-145192857D01*
X212088095Y-145192857D01*
X211897619Y-145383333D01*
X211802380Y-145573809D01*
X211707142Y-145954761D01*
X211707142Y-147097619D01*
X211802380Y-147478571D01*
X211897619Y-147669047D01*
X212088095Y-147859523D01*
X212469047Y-147859523D01*
X212659523Y-147669047D01*
X211040476Y-145192857D02*
X210564285Y-147859523D01*
X210088095Y-145192857D02*
X210564285Y-147859523D01*
X210754761Y-148811904D01*
X210850000Y-149002380D01*
X211040476Y-149192857D01*
X207802380Y-145192857D02*
X207802380Y-149192857D01*
X207802380Y-145383333D02*
X207611904Y-145192857D01*
X207230952Y-145192857D01*
X207040476Y-145383333D01*
X206945238Y-145573809D01*
X206850000Y-145954761D01*
X206850000Y-147097619D01*
X206945238Y-147478571D01*
X207040476Y-147669047D01*
X207230952Y-147859523D01*
X207611904Y-147859523D01*
X207802380Y-147669047D01*
X205230952Y-147669047D02*
X205421428Y-147859523D01*
X205802380Y-147859523D01*
X205992857Y-147669047D01*
X206088095Y-147288095D01*
X206088095Y-145764285D01*
X205992857Y-145383333D01*
X205802380Y-145192857D01*
X205421428Y-145192857D01*
X205230952Y-145383333D01*
X205135714Y-145764285D01*
X205135714Y-146145238D01*
X206088095Y-146526190D01*
X204278571Y-145192857D02*
X204278571Y-149192857D01*
X204278571Y-145383333D02*
X204088095Y-145192857D01*
X203707142Y-145192857D01*
X203516666Y-145383333D01*
X203421428Y-145573809D01*
X203326190Y-145954761D01*
X203326190Y-147097619D01*
X203421428Y-147478571D01*
X203516666Y-147669047D01*
X203707142Y-147859523D01*
X204088095Y-147859523D01*
X204278571Y-147669047D01*
X202469047Y-145192857D02*
X202469047Y-149192857D01*
X202469047Y-145383333D02*
X202278571Y-145192857D01*
X201897619Y-145192857D01*
X201707142Y-145383333D01*
X201611904Y-145573809D01*
X201516666Y-145954761D01*
X201516666Y-147097619D01*
X201611904Y-147478571D01*
X201707142Y-147669047D01*
X201897619Y-147859523D01*
X202278571Y-147859523D01*
X202469047Y-147669047D01*
X199897619Y-147669047D02*
X200088095Y-147859523D01*
X200469047Y-147859523D01*
X200659523Y-147669047D01*
X200754761Y-147288095D01*
X200754761Y-145764285D01*
X200659523Y-145383333D01*
X200469047Y-145192857D01*
X200088095Y-145192857D01*
X199897619Y-145383333D01*
X199802380Y-145764285D01*
X199802380Y-146145238D01*
X200754761Y-146526190D01*
X198945238Y-147859523D02*
X198945238Y-145192857D01*
X198945238Y-145954761D02*
X198850000Y-145573809D01*
X198754761Y-145383333D01*
X198564285Y-145192857D01*
X198373809Y-145192857D01*
X196850000Y-147669047D02*
X197040476Y-147859523D01*
X197421428Y-147859523D01*
X197611904Y-147669047D01*
X197707142Y-147478571D01*
X197802380Y-147097619D01*
X197802380Y-145954761D01*
X197707142Y-145573809D01*
X197611904Y-145383333D01*
X197421428Y-145192857D01*
X197040476Y-145192857D01*
X196850000Y-145383333D01*
X195135714Y-147859523D02*
X195135714Y-145764285D01*
X195230952Y-145383333D01*
X195421428Y-145192857D01*
X195802380Y-145192857D01*
X195992857Y-145383333D01*
X195135714Y-147669047D02*
X195326190Y-147859523D01*
X195802380Y-147859523D01*
X195992857Y-147669047D01*
X196088095Y-147288095D01*
X196088095Y-146907142D01*
X195992857Y-146526190D01*
X195802380Y-146335714D01*
X195326190Y-146335714D01*
X195135714Y-146145238D01*
X194469047Y-145192857D02*
X193707142Y-145192857D01*
X194183333Y-143859523D02*
X194183333Y-147288095D01*
X194088095Y-147669047D01*
X193897619Y-147859523D01*
X193707142Y-147859523D01*
X192183333Y-147859523D02*
X192183333Y-145764285D01*
X192278571Y-145383333D01*
X192469047Y-145192857D01*
X192850000Y-145192857D01*
X193040476Y-145383333D01*
X192183333Y-147669047D02*
X192373809Y-147859523D01*
X192850000Y-147859523D01*
X193040476Y-147669047D01*
X193135714Y-147288095D01*
X193135714Y-146907142D01*
X193040476Y-146526190D01*
X192850000Y-146335714D01*
X192373809Y-146335714D01*
X192183333Y-146145238D01*
X191326190Y-147669047D02*
X191135714Y-147859523D01*
X190754761Y-147859523D01*
X190564285Y-147669047D01*
X190469047Y-147288095D01*
X190469047Y-147097619D01*
X190564285Y-146716666D01*
X190754761Y-146526190D01*
X191040476Y-146526190D01*
X191230952Y-146335714D01*
X191326190Y-145954761D01*
X191326190Y-145764285D01*
X191230952Y-145383333D01*
X191040476Y-145192857D01*
X190754761Y-145192857D01*
X190564285Y-145383333D01*
X189897619Y-145192857D02*
X189135714Y-145192857D01*
X189611904Y-143859523D02*
X189611904Y-147288095D01*
X189516666Y-147669047D01*
X189326190Y-147859523D01*
X189135714Y-147859523D01*
X188469047Y-147859523D02*
X188469047Y-145192857D01*
X188469047Y-145954761D02*
X188373809Y-145573809D01*
X188278571Y-145383333D01*
X188088095Y-145192857D01*
X187897619Y-145192857D01*
X186945238Y-147859523D02*
X187135714Y-147669047D01*
X187230952Y-147478571D01*
X187326190Y-147097619D01*
X187326190Y-145954761D01*
X187230952Y-145573809D01*
X187135714Y-145383333D01*
X186945238Y-145192857D01*
X186659523Y-145192857D01*
X186469047Y-145383333D01*
X186373809Y-145573809D01*
X186278571Y-145954761D01*
X186278571Y-147097619D01*
X186373809Y-147478571D01*
X186469047Y-147669047D01*
X186659523Y-147859523D01*
X186945238Y-147859523D01*
X185421428Y-145192857D02*
X185421428Y-149192857D01*
X185421428Y-145383333D02*
X185230952Y-145192857D01*
X184850000Y-145192857D01*
X184659523Y-145383333D01*
X184564285Y-145573809D01*
X184469047Y-145954761D01*
X184469047Y-147097619D01*
X184564285Y-147478571D01*
X184659523Y-147669047D01*
X184850000Y-147859523D01*
X185230952Y-147859523D01*
X185421428Y-147669047D01*
X183611904Y-147859523D02*
X183611904Y-143859523D01*
X182754761Y-147859523D02*
X182754761Y-145764285D01*
X182850000Y-145383333D01*
X183040476Y-145192857D01*
X183326190Y-145192857D01*
X183516666Y-145383333D01*
X183611904Y-145573809D01*
X181040476Y-147669047D02*
X181230952Y-147859523D01*
X181611904Y-147859523D01*
X181802380Y-147669047D01*
X181897619Y-147288095D01*
X181897619Y-145764285D01*
X181802380Y-145383333D01*
X181611904Y-145192857D01*
X181230952Y-145192857D01*
X181040476Y-145383333D01*
X180945238Y-145764285D01*
X180945238Y-146145238D01*
X181897619Y-146526190D01*
D11*
G36*
X174878011Y-55485978D02*
G01*
X175113716Y-55542891D01*
X175335209Y-55639081D01*
X175545587Y-55775639D01*
X175583534Y-55805413D01*
X175604074Y-55824863D01*
X175654013Y-55873728D01*
X175732824Y-55951480D01*
X175839977Y-56057592D01*
X175974946Y-56191538D01*
X176137203Y-56352790D01*
X176326219Y-56540821D01*
X176541468Y-56755104D01*
X176782422Y-56995111D01*
X177048552Y-57260316D01*
X177339331Y-57550191D01*
X177654232Y-57864210D01*
X177992726Y-58201844D01*
X178354286Y-58562567D01*
X178738384Y-58945852D01*
X179144492Y-59351172D01*
X179572083Y-59777999D01*
X180020629Y-60225806D01*
X180489601Y-60694066D01*
X180978473Y-61182253D01*
X181486717Y-61689838D01*
X182013804Y-62216295D01*
X182559208Y-62761096D01*
X183122400Y-63323715D01*
X183702852Y-63903623D01*
X184300037Y-64500295D01*
X184913427Y-65113203D01*
X185542495Y-65741819D01*
X186186712Y-66385618D01*
X186845551Y-67044070D01*
X187518484Y-67716650D01*
X188204983Y-68402830D01*
X188904521Y-69102083D01*
X189616570Y-69813881D01*
X190340602Y-70537699D01*
X191076089Y-71273008D01*
X191822504Y-72019281D01*
X192579318Y-72775992D01*
X193346005Y-73542612D01*
X194122036Y-74318616D01*
X194906884Y-75103475D01*
X195700021Y-75896663D01*
X196500918Y-76697652D01*
X197309049Y-77505915D01*
X197699485Y-77896430D01*
X198688147Y-78885309D01*
X199647307Y-79844695D01*
X200577403Y-80775027D01*
X201478870Y-81676743D01*
X202352147Y-82550281D01*
X203197669Y-83396078D01*
X204015874Y-84214573D01*
X204807197Y-85006204D01*
X205572076Y-85771408D01*
X206310947Y-86510624D01*
X207024247Y-87224290D01*
X207712413Y-87912844D01*
X208375881Y-88576724D01*
X209015088Y-89216368D01*
X209630471Y-89832213D01*
X210222466Y-90424698D01*
X210791511Y-90994261D01*
X211338041Y-91541341D01*
X211862494Y-92066374D01*
X212365307Y-92569799D01*
X212846915Y-93052054D01*
X213307756Y-93513577D01*
X213748266Y-93954806D01*
X214168882Y-94376179D01*
X214570041Y-94778134D01*
X214952180Y-95161109D01*
X215315735Y-95525542D01*
X215661142Y-95871871D01*
X215988839Y-96200535D01*
X216299262Y-96511971D01*
X216592848Y-96806616D01*
X216870034Y-97084910D01*
X217131256Y-97347290D01*
X217376951Y-97594195D01*
X217607556Y-97826061D01*
X217823507Y-98043328D01*
X218025241Y-98246433D01*
X218213195Y-98435815D01*
X218387806Y-98611911D01*
X218549509Y-98775159D01*
X218698743Y-98925997D01*
X218835943Y-99064864D01*
X218961547Y-99192197D01*
X219075990Y-99308435D01*
X219179710Y-99414015D01*
X219273144Y-99509375D01*
X219356727Y-99594954D01*
X219430898Y-99671189D01*
X219496091Y-99738519D01*
X219552745Y-99797381D01*
X219601296Y-99848214D01*
X219642181Y-99891456D01*
X219675835Y-99927544D01*
X219702697Y-99956916D01*
X219723202Y-99980011D01*
X219737787Y-99997267D01*
X219746890Y-100009122D01*
X219749579Y-100013259D01*
X219836907Y-100178542D01*
X219897409Y-100334066D01*
X219935466Y-100495033D01*
X219955461Y-100676647D01*
X219958639Y-100738568D01*
X219962040Y-100871979D01*
X219959358Y-100976490D01*
X219949759Y-101065206D01*
X219932409Y-101151234D01*
X219932389Y-101151318D01*
X219869919Y-101350521D01*
X219782875Y-101543160D01*
X219709227Y-101667468D01*
X219691680Y-101686334D01*
X219644828Y-101734485D01*
X219569309Y-101811284D01*
X219465763Y-101916090D01*
X219334829Y-102048266D01*
X219177144Y-102207172D01*
X218993348Y-102392169D01*
X218784079Y-102602618D01*
X218549976Y-102837881D01*
X218291678Y-103097319D01*
X218009823Y-103380292D01*
X217705051Y-103686161D01*
X217377999Y-104014289D01*
X217029307Y-104364035D01*
X216659614Y-104734762D01*
X216269557Y-105125829D01*
X215859776Y-105536599D01*
X215430909Y-105966432D01*
X214983596Y-106414689D01*
X214518474Y-106880732D01*
X214036183Y-107363921D01*
X213537361Y-107863618D01*
X213022647Y-108379183D01*
X212492680Y-108909979D01*
X211948098Y-109455365D01*
X211389541Y-110014703D01*
X210817646Y-110587354D01*
X210233052Y-111172680D01*
X209636399Y-111770040D01*
X209028325Y-112378797D01*
X208409468Y-112998311D01*
X207780468Y-113627944D01*
X207141963Y-114267056D01*
X206494591Y-114915010D01*
X205838992Y-115571164D01*
X205175804Y-116234882D01*
X204505666Y-116905524D01*
X203829217Y-117582450D01*
X203147095Y-118265023D01*
X202459939Y-118952603D01*
X201768388Y-119644551D01*
X201073080Y-120340229D01*
X200374654Y-121038997D01*
X199673750Y-121740217D01*
X198971004Y-122443250D01*
X198267058Y-123147456D01*
X197562548Y-123852197D01*
X196858113Y-124556834D01*
X196154393Y-125260728D01*
X195452027Y-125963240D01*
X194751652Y-126663731D01*
X194053907Y-127361562D01*
X193359432Y-128056095D01*
X192668865Y-128746691D01*
X191982845Y-129432710D01*
X191302009Y-130113513D01*
X190626998Y-130788463D01*
X189958450Y-131456919D01*
X189297003Y-132118243D01*
X188643297Y-132771796D01*
X187997969Y-133416939D01*
X187361659Y-134053033D01*
X186735005Y-134679440D01*
X186118646Y-135295520D01*
X185513222Y-135900634D01*
X184919369Y-136494144D01*
X184337728Y-137075411D01*
X183768936Y-137643795D01*
X183213634Y-138198658D01*
X182672458Y-138739361D01*
X182146048Y-139265265D01*
X181635044Y-139775731D01*
X181140082Y-140270120D01*
X180661803Y-140747794D01*
X180200845Y-141208112D01*
X179757846Y-141650437D01*
X179333445Y-142074130D01*
X178928282Y-142478552D01*
X178542994Y-142863063D01*
X178178220Y-143227024D01*
X177834600Y-143569798D01*
X177512771Y-143890745D01*
X177213373Y-144189225D01*
X176937044Y-144464601D01*
X176684423Y-144716233D01*
X176456149Y-144943483D01*
X176252860Y-145145710D01*
X176075195Y-145322278D01*
X175923793Y-145472546D01*
X175799293Y-145595875D01*
X175702332Y-145691628D01*
X175633551Y-145759164D01*
X175593587Y-145797845D01*
X175583534Y-145807078D01*
X175377225Y-145950173D01*
X175161743Y-146052906D01*
X174932863Y-146116749D01*
X174686361Y-146143174D01*
X174616323Y-146144085D01*
X174414599Y-146132479D01*
X174244000Y-146101681D01*
X174024982Y-146027129D01*
X173822908Y-145919913D01*
X173666466Y-145807078D01*
X173644808Y-145786726D01*
X173593933Y-145737120D01*
X173514481Y-145658899D01*
X173407090Y-145552702D01*
X173272398Y-145419168D01*
X173111046Y-145258936D01*
X172923671Y-145072645D01*
X172710912Y-144860933D01*
X172473408Y-144624441D01*
X172211798Y-144363805D01*
X171926719Y-144079667D01*
X171618812Y-143772663D01*
X171288714Y-143443434D01*
X170937065Y-143092619D01*
X170564503Y-142720855D01*
X170171666Y-142328782D01*
X169759194Y-141917040D01*
X169327725Y-141486266D01*
X168877898Y-141037100D01*
X168410352Y-140570180D01*
X167925725Y-140086146D01*
X167424656Y-139585637D01*
X166907784Y-139069291D01*
X166375747Y-138537747D01*
X165829185Y-137991645D01*
X165268735Y-137431623D01*
X164695037Y-136858319D01*
X164108729Y-136272374D01*
X163510450Y-135674426D01*
X162900839Y-135065113D01*
X162280534Y-134445075D01*
X161650174Y-133814951D01*
X161010399Y-133175379D01*
X160361845Y-132526999D01*
X159705153Y-131870449D01*
X159040961Y-131206368D01*
X158369908Y-130535395D01*
X157692632Y-129858170D01*
X157009772Y-129175330D01*
X156321967Y-128487515D01*
X155629855Y-127795364D01*
X154934076Y-127099516D01*
X154235268Y-126400610D01*
X153534069Y-125699283D01*
X152831118Y-124996177D01*
X152127055Y-124291929D01*
X151422517Y-123587178D01*
X150718144Y-122882563D01*
X150014574Y-122178723D01*
X149312446Y-121476297D01*
X148612398Y-120775924D01*
X147915070Y-120078243D01*
X147221100Y-119383893D01*
X146531127Y-118693512D01*
X145845788Y-118007740D01*
X145165725Y-117327215D01*
X144491574Y-116652577D01*
X143823974Y-115984464D01*
X143163565Y-115323515D01*
X142510985Y-114670369D01*
X141866872Y-114025666D01*
X141231866Y-113390043D01*
X140606605Y-112764140D01*
X139991728Y-112148596D01*
X139387873Y-111544049D01*
X138795680Y-110951139D01*
X138215787Y-110370504D01*
X137648832Y-109802784D01*
X137095454Y-109248617D01*
X136556293Y-108708643D01*
X136031986Y-108183499D01*
X135523173Y-107673826D01*
X135030492Y-107180261D01*
X134554582Y-106703444D01*
X134096082Y-106244015D01*
X133655630Y-105802610D01*
X133233865Y-105379871D01*
X132831426Y-104976434D01*
X132448951Y-104592941D01*
X132087080Y-104230028D01*
X131746450Y-103888336D01*
X131427701Y-103568503D01*
X131131471Y-103271168D01*
X130858399Y-102996969D01*
X130609124Y-102746547D01*
X130384284Y-102520540D01*
X130184519Y-102319586D01*
X130010466Y-102144325D01*
X129862765Y-101995395D01*
X129742054Y-101873436D01*
X129648972Y-101779086D01*
X129584158Y-101712984D01*
X129548250Y-101675770D01*
X129540773Y-101667468D01*
X129420079Y-101452587D01*
X129338430Y-101225806D01*
X129294684Y-100983252D01*
X129286107Y-100806247D01*
X132916089Y-100806247D01*
X153765249Y-121655415D01*
X154555150Y-122445309D01*
X155337876Y-123228013D01*
X156112890Y-124002991D01*
X156879656Y-124769705D01*
X157637636Y-125527620D01*
X158386293Y-126276197D01*
X159125089Y-127014901D01*
X159853488Y-127743193D01*
X160570951Y-128460538D01*
X161276943Y-129166398D01*
X161970926Y-129860236D01*
X162652362Y-130541515D01*
X163320714Y-131209699D01*
X163975446Y-131864251D01*
X164616019Y-132504633D01*
X165241898Y-133130308D01*
X165852543Y-133740741D01*
X166447420Y-134335393D01*
X167025989Y-134913728D01*
X167587714Y-135475208D01*
X168132058Y-136019298D01*
X168658484Y-136545460D01*
X169166454Y-137053157D01*
X169655431Y-137541853D01*
X170124878Y-138011009D01*
X170574258Y-138460090D01*
X171003033Y-138888558D01*
X171410667Y-139295877D01*
X171796622Y-139681509D01*
X172160360Y-140044918D01*
X172501346Y-140385567D01*
X172819041Y-140702918D01*
X173112908Y-140996435D01*
X173382410Y-141265581D01*
X173627011Y-141509820D01*
X173846172Y-141728613D01*
X174039356Y-141921424D01*
X174206027Y-142087716D01*
X174345647Y-142226953D01*
X174457679Y-142338597D01*
X174541585Y-142422111D01*
X174596829Y-142476959D01*
X174622874Y-142502604D01*
X174625000Y-142504584D01*
X174640280Y-142489705D01*
X174684955Y-142445428D01*
X174758488Y-142372288D01*
X174860342Y-142270824D01*
X174989980Y-142141571D01*
X175146864Y-141985067D01*
X175330457Y-141801849D01*
X175540223Y-141592453D01*
X175775623Y-141357417D01*
X176036121Y-141097278D01*
X176321180Y-140812572D01*
X176630261Y-140503836D01*
X176962829Y-140171607D01*
X177318346Y-139816423D01*
X177696274Y-139438820D01*
X178096077Y-139039335D01*
X178517217Y-138618504D01*
X178959157Y-138176866D01*
X179421360Y-137714957D01*
X179903289Y-137233313D01*
X180404406Y-136732472D01*
X180924174Y-136212971D01*
X181462057Y-135675346D01*
X182017516Y-135120135D01*
X182590015Y-134547874D01*
X183179016Y-133959101D01*
X183783983Y-133354352D01*
X184404377Y-132734164D01*
X185039662Y-132099074D01*
X185689302Y-131449620D01*
X186352757Y-130786337D01*
X187029492Y-130109763D01*
X187718968Y-129420436D01*
X188420650Y-128718891D01*
X189133999Y-128005665D01*
X189858478Y-127281297D01*
X190593551Y-126546321D01*
X191338680Y-125801277D01*
X192093328Y-125046700D01*
X192856957Y-124283127D01*
X193629030Y-123511096D01*
X194409011Y-122731142D01*
X195196362Y-121943804D01*
X195484752Y-121655415D01*
X216333911Y-100806247D01*
X174625000Y-59097336D01*
X153770545Y-79951792D01*
X132916089Y-100806247D01*
X129286107Y-100806247D01*
X129286000Y-100804053D01*
X129302912Y-100557527D01*
X129355072Y-100330022D01*
X129444615Y-100114184D01*
X129528164Y-99969990D01*
X129543317Y-99952617D01*
X129580704Y-99913064D01*
X129640514Y-99851144D01*
X129722935Y-99766668D01*
X129828155Y-99659447D01*
X129956361Y-99529293D01*
X130107742Y-99376018D01*
X130282485Y-99199435D01*
X130480778Y-98999353D01*
X130702809Y-98775586D01*
X130948765Y-98527945D01*
X131218835Y-98256241D01*
X131513207Y-97960287D01*
X131832068Y-97639894D01*
X132175605Y-97294874D01*
X132544008Y-96925039D01*
X132937464Y-96530200D01*
X133356160Y-96110168D01*
X133800284Y-95664757D01*
X134270025Y-95193777D01*
X134765570Y-94697041D01*
X135287107Y-94174359D01*
X135834824Y-93625544D01*
X136408908Y-93050408D01*
X137009548Y-92448762D01*
X137636931Y-91820417D01*
X138291246Y-91165187D01*
X138972679Y-90482881D01*
X139681419Y-89773313D01*
X140417654Y-89036293D01*
X141181571Y-88271635D01*
X141973359Y-87479148D01*
X142793205Y-86658645D01*
X143641297Y-85809938D01*
X144517823Y-84932839D01*
X145422971Y-84027159D01*
X146356928Y-83092710D01*
X147319882Y-82129303D01*
X148312022Y-81136751D01*
X149333535Y-80114865D01*
X150384609Y-79063457D01*
X151465432Y-77982338D01*
X151561899Y-77885846D01*
X152373097Y-77074466D01*
X153177316Y-76270107D01*
X153974027Y-75473297D01*
X154762702Y-74684562D01*
X155542813Y-73904431D01*
X156313834Y-73133431D01*
X157075235Y-72372088D01*
X157826488Y-71620931D01*
X158567067Y-70880486D01*
X159296444Y-70151280D01*
X160014089Y-69433842D01*
X160719476Y-68728698D01*
X161412076Y-68036376D01*
X162091362Y-67357402D01*
X162756806Y-66692305D01*
X163407879Y-66041611D01*
X164044055Y-65405849D01*
X164664805Y-64785544D01*
X165269601Y-64181225D01*
X165857916Y-63593418D01*
X166429221Y-63022651D01*
X166982989Y-62469452D01*
X167518692Y-61934347D01*
X168035801Y-61417864D01*
X168533790Y-60920531D01*
X169012130Y-60442874D01*
X169470293Y-59985420D01*
X169907752Y-59548698D01*
X170323978Y-59133234D01*
X170718444Y-58739555D01*
X171090621Y-58368190D01*
X171439983Y-58019665D01*
X171766001Y-57694507D01*
X172068147Y-57393245D01*
X172345893Y-57116404D01*
X172598712Y-56864513D01*
X172826075Y-56638099D01*
X173027455Y-56437688D01*
X173202324Y-56263809D01*
X173350154Y-56116989D01*
X173470417Y-55997754D01*
X173562586Y-55906633D01*
X173626131Y-55844152D01*
X173660526Y-55810840D01*
X173666466Y-55805413D01*
X173875128Y-55661267D01*
X174094331Y-55557692D01*
X174327174Y-55493596D01*
X174576750Y-55467886D01*
X174625000Y-55467250D01*
X174878011Y-55485978D01*
X174878011Y-55485978D01*
G37*
X174878011Y-55485978D02*
X175113716Y-55542891D01*
X175335209Y-55639081D01*
X175545587Y-55775639D01*
X175583534Y-55805413D01*
X175604074Y-55824863D01*
X175654013Y-55873728D01*
X175732824Y-55951480D01*
X175839977Y-56057592D01*
X175974946Y-56191538D01*
X176137203Y-56352790D01*
X176326219Y-56540821D01*
X176541468Y-56755104D01*
X176782422Y-56995111D01*
X177048552Y-57260316D01*
X177339331Y-57550191D01*
X177654232Y-57864210D01*
X177992726Y-58201844D01*
X178354286Y-58562567D01*
X178738384Y-58945852D01*
X179144492Y-59351172D01*
X179572083Y-59777999D01*
X180020629Y-60225806D01*
X180489601Y-60694066D01*
X180978473Y-61182253D01*
X181486717Y-61689838D01*
X182013804Y-62216295D01*
X182559208Y-62761096D01*
X183122400Y-63323715D01*
X183702852Y-63903623D01*
X184300037Y-64500295D01*
X184913427Y-65113203D01*
X185542495Y-65741819D01*
X186186712Y-66385618D01*
X186845551Y-67044070D01*
X187518484Y-67716650D01*
X188204983Y-68402830D01*
X188904521Y-69102083D01*
X189616570Y-69813881D01*
X190340602Y-70537699D01*
X191076089Y-71273008D01*
X191822504Y-72019281D01*
X192579318Y-72775992D01*
X193346005Y-73542612D01*
X194122036Y-74318616D01*
X194906884Y-75103475D01*
X195700021Y-75896663D01*
X196500918Y-76697652D01*
X197309049Y-77505915D01*
X197699485Y-77896430D01*
X198688147Y-78885309D01*
X199647307Y-79844695D01*
X200577403Y-80775027D01*
X201478870Y-81676743D01*
X202352147Y-82550281D01*
X203197669Y-83396078D01*
X204015874Y-84214573D01*
X204807197Y-85006204D01*
X205572076Y-85771408D01*
X206310947Y-86510624D01*
X207024247Y-87224290D01*
X207712413Y-87912844D01*
X208375881Y-88576724D01*
X209015088Y-89216368D01*
X209630471Y-89832213D01*
X210222466Y-90424698D01*
X210791511Y-90994261D01*
X211338041Y-91541341D01*
X211862494Y-92066374D01*
X212365307Y-92569799D01*
X212846915Y-93052054D01*
X213307756Y-93513577D01*
X213748266Y-93954806D01*
X214168882Y-94376179D01*
X214570041Y-94778134D01*
X214952180Y-95161109D01*
X215315735Y-95525542D01*
X215661142Y-95871871D01*
X215988839Y-96200535D01*
X216299262Y-96511971D01*
X216592848Y-96806616D01*
X216870034Y-97084910D01*
X217131256Y-97347290D01*
X217376951Y-97594195D01*
X217607556Y-97826061D01*
X217823507Y-98043328D01*
X218025241Y-98246433D01*
X218213195Y-98435815D01*
X218387806Y-98611911D01*
X218549509Y-98775159D01*
X218698743Y-98925997D01*
X218835943Y-99064864D01*
X218961547Y-99192197D01*
X219075990Y-99308435D01*
X219179710Y-99414015D01*
X219273144Y-99509375D01*
X219356727Y-99594954D01*
X219430898Y-99671189D01*
X219496091Y-99738519D01*
X219552745Y-99797381D01*
X219601296Y-99848214D01*
X219642181Y-99891456D01*
X219675835Y-99927544D01*
X219702697Y-99956916D01*
X219723202Y-99980011D01*
X219737787Y-99997267D01*
X219746890Y-100009122D01*
X219749579Y-100013259D01*
X219836907Y-100178542D01*
X219897409Y-100334066D01*
X219935466Y-100495033D01*
X219955461Y-100676647D01*
X219958639Y-100738568D01*
X219962040Y-100871979D01*
X219959358Y-100976490D01*
X219949759Y-101065206D01*
X219932409Y-101151234D01*
X219932389Y-101151318D01*
X219869919Y-101350521D01*
X219782875Y-101543160D01*
X219709227Y-101667468D01*
X219691680Y-101686334D01*
X219644828Y-101734485D01*
X219569309Y-101811284D01*
X219465763Y-101916090D01*
X219334829Y-102048266D01*
X219177144Y-102207172D01*
X218993348Y-102392169D01*
X218784079Y-102602618D01*
X218549976Y-102837881D01*
X218291678Y-103097319D01*
X218009823Y-103380292D01*
X217705051Y-103686161D01*
X217377999Y-104014289D01*
X217029307Y-104364035D01*
X216659614Y-104734762D01*
X216269557Y-105125829D01*
X215859776Y-105536599D01*
X215430909Y-105966432D01*
X214983596Y-106414689D01*
X214518474Y-106880732D01*
X214036183Y-107363921D01*
X213537361Y-107863618D01*
X213022647Y-108379183D01*
X212492680Y-108909979D01*
X211948098Y-109455365D01*
X211389541Y-110014703D01*
X210817646Y-110587354D01*
X210233052Y-111172680D01*
X209636399Y-111770040D01*
X209028325Y-112378797D01*
X208409468Y-112998311D01*
X207780468Y-113627944D01*
X207141963Y-114267056D01*
X206494591Y-114915010D01*
X205838992Y-115571164D01*
X205175804Y-116234882D01*
X204505666Y-116905524D01*
X203829217Y-117582450D01*
X203147095Y-118265023D01*
X202459939Y-118952603D01*
X201768388Y-119644551D01*
X201073080Y-120340229D01*
X200374654Y-121038997D01*
X199673750Y-121740217D01*
X198971004Y-122443250D01*
X198267058Y-123147456D01*
X197562548Y-123852197D01*
X196858113Y-124556834D01*
X196154393Y-125260728D01*
X195452027Y-125963240D01*
X194751652Y-126663731D01*
X194053907Y-127361562D01*
X193359432Y-128056095D01*
X192668865Y-128746691D01*
X191982845Y-129432710D01*
X191302009Y-130113513D01*
X190626998Y-130788463D01*
X189958450Y-131456919D01*
X189297003Y-132118243D01*
X188643297Y-132771796D01*
X187997969Y-133416939D01*
X187361659Y-134053033D01*
X186735005Y-134679440D01*
X186118646Y-135295520D01*
X185513222Y-135900634D01*
X184919369Y-136494144D01*
X184337728Y-137075411D01*
X183768936Y-137643795D01*
X183213634Y-138198658D01*
X182672458Y-138739361D01*
X182146048Y-139265265D01*
X181635044Y-139775731D01*
X181140082Y-140270120D01*
X180661803Y-140747794D01*
X180200845Y-141208112D01*
X179757846Y-141650437D01*
X179333445Y-142074130D01*
X178928282Y-142478552D01*
X178542994Y-142863063D01*
X178178220Y-143227024D01*
X177834600Y-143569798D01*
X177512771Y-143890745D01*
X177213373Y-144189225D01*
X176937044Y-144464601D01*
X176684423Y-144716233D01*
X176456149Y-144943483D01*
X176252860Y-145145710D01*
X176075195Y-145322278D01*
X175923793Y-145472546D01*
X175799293Y-145595875D01*
X175702332Y-145691628D01*
X175633551Y-145759164D01*
X175593587Y-145797845D01*
X175583534Y-145807078D01*
X175377225Y-145950173D01*
X175161743Y-146052906D01*
X174932863Y-146116749D01*
X174686361Y-146143174D01*
X174616323Y-146144085D01*
X174414599Y-146132479D01*
X174244000Y-146101681D01*
X174024982Y-146027129D01*
X173822908Y-145919913D01*
X173666466Y-145807078D01*
X173644808Y-145786726D01*
X173593933Y-145737120D01*
X173514481Y-145658899D01*
X173407090Y-145552702D01*
X173272398Y-145419168D01*
X173111046Y-145258936D01*
X172923671Y-145072645D01*
X172710912Y-144860933D01*
X172473408Y-144624441D01*
X172211798Y-144363805D01*
X171926719Y-144079667D01*
X171618812Y-143772663D01*
X171288714Y-143443434D01*
X170937065Y-143092619D01*
X170564503Y-142720855D01*
X170171666Y-142328782D01*
X169759194Y-141917040D01*
X169327725Y-141486266D01*
X168877898Y-141037100D01*
X168410352Y-140570180D01*
X167925725Y-140086146D01*
X167424656Y-139585637D01*
X166907784Y-139069291D01*
X166375747Y-138537747D01*
X165829185Y-137991645D01*
X165268735Y-137431623D01*
X164695037Y-136858319D01*
X164108729Y-136272374D01*
X163510450Y-135674426D01*
X162900839Y-135065113D01*
X162280534Y-134445075D01*
X161650174Y-133814951D01*
X161010399Y-133175379D01*
X160361845Y-132526999D01*
X159705153Y-131870449D01*
X159040961Y-131206368D01*
X158369908Y-130535395D01*
X157692632Y-129858170D01*
X157009772Y-129175330D01*
X156321967Y-128487515D01*
X155629855Y-127795364D01*
X154934076Y-127099516D01*
X154235268Y-126400610D01*
X153534069Y-125699283D01*
X152831118Y-124996177D01*
X152127055Y-124291929D01*
X151422517Y-123587178D01*
X150718144Y-122882563D01*
X150014574Y-122178723D01*
X149312446Y-121476297D01*
X148612398Y-120775924D01*
X147915070Y-120078243D01*
X147221100Y-119383893D01*
X146531127Y-118693512D01*
X145845788Y-118007740D01*
X145165725Y-117327215D01*
X144491574Y-116652577D01*
X143823974Y-115984464D01*
X143163565Y-115323515D01*
X142510985Y-114670369D01*
X141866872Y-114025666D01*
X141231866Y-113390043D01*
X140606605Y-112764140D01*
X139991728Y-112148596D01*
X139387873Y-111544049D01*
X138795680Y-110951139D01*
X138215787Y-110370504D01*
X137648832Y-109802784D01*
X137095454Y-109248617D01*
X136556293Y-108708643D01*
X136031986Y-108183499D01*
X135523173Y-107673826D01*
X135030492Y-107180261D01*
X134554582Y-106703444D01*
X134096082Y-106244015D01*
X133655630Y-105802610D01*
X133233865Y-105379871D01*
X132831426Y-104976434D01*
X132448951Y-104592941D01*
X132087080Y-104230028D01*
X131746450Y-103888336D01*
X131427701Y-103568503D01*
X131131471Y-103271168D01*
X130858399Y-102996969D01*
X130609124Y-102746547D01*
X130384284Y-102520540D01*
X130184519Y-102319586D01*
X130010466Y-102144325D01*
X129862765Y-101995395D01*
X129742054Y-101873436D01*
X129648972Y-101779086D01*
X129584158Y-101712984D01*
X129548250Y-101675770D01*
X129540773Y-101667468D01*
X129420079Y-101452587D01*
X129338430Y-101225806D01*
X129294684Y-100983252D01*
X129286107Y-100806247D01*
X132916089Y-100806247D01*
X153765249Y-121655415D01*
X154555150Y-122445309D01*
X155337876Y-123228013D01*
X156112890Y-124002991D01*
X156879656Y-124769705D01*
X157637636Y-125527620D01*
X158386293Y-126276197D01*
X159125089Y-127014901D01*
X159853488Y-127743193D01*
X160570951Y-128460538D01*
X161276943Y-129166398D01*
X161970926Y-129860236D01*
X162652362Y-130541515D01*
X163320714Y-131209699D01*
X163975446Y-131864251D01*
X164616019Y-132504633D01*
X165241898Y-133130308D01*
X165852543Y-133740741D01*
X166447420Y-134335393D01*
X167025989Y-134913728D01*
X167587714Y-135475208D01*
X168132058Y-136019298D01*
X168658484Y-136545460D01*
X169166454Y-137053157D01*
X169655431Y-137541853D01*
X170124878Y-138011009D01*
X170574258Y-138460090D01*
X171003033Y-138888558D01*
X171410667Y-139295877D01*
X171796622Y-139681509D01*
X172160360Y-140044918D01*
X172501346Y-140385567D01*
X172819041Y-140702918D01*
X173112908Y-140996435D01*
X173382410Y-141265581D01*
X173627011Y-141509820D01*
X173846172Y-141728613D01*
X174039356Y-141921424D01*
X174206027Y-142087716D01*
X174345647Y-142226953D01*
X174457679Y-142338597D01*
X174541585Y-142422111D01*
X174596829Y-142476959D01*
X174622874Y-142502604D01*
X174625000Y-142504584D01*
X174640280Y-142489705D01*
X174684955Y-142445428D01*
X174758488Y-142372288D01*
X174860342Y-142270824D01*
X174989980Y-142141571D01*
X175146864Y-141985067D01*
X175330457Y-141801849D01*
X175540223Y-141592453D01*
X175775623Y-141357417D01*
X176036121Y-141097278D01*
X176321180Y-140812572D01*
X176630261Y-140503836D01*
X176962829Y-140171607D01*
X177318346Y-139816423D01*
X177696274Y-139438820D01*
X178096077Y-139039335D01*
X178517217Y-138618504D01*
X178959157Y-138176866D01*
X179421360Y-137714957D01*
X179903289Y-137233313D01*
X180404406Y-136732472D01*
X180924174Y-136212971D01*
X181462057Y-135675346D01*
X182017516Y-135120135D01*
X182590015Y-134547874D01*
X183179016Y-133959101D01*
X183783983Y-133354352D01*
X184404377Y-132734164D01*
X185039662Y-132099074D01*
X185689302Y-131449620D01*
X186352757Y-130786337D01*
X187029492Y-130109763D01*
X187718968Y-129420436D01*
X188420650Y-128718891D01*
X189133999Y-128005665D01*
X189858478Y-127281297D01*
X190593551Y-126546321D01*
X191338680Y-125801277D01*
X192093328Y-125046700D01*
X192856957Y-124283127D01*
X193629030Y-123511096D01*
X194409011Y-122731142D01*
X195196362Y-121943804D01*
X195484752Y-121655415D01*
X216333911Y-100806247D01*
X174625000Y-59097336D01*
X153770545Y-79951792D01*
X132916089Y-100806247D01*
X129286107Y-100806247D01*
X129286000Y-100804053D01*
X129302912Y-100557527D01*
X129355072Y-100330022D01*
X129444615Y-100114184D01*
X129528164Y-99969990D01*
X129543317Y-99952617D01*
X129580704Y-99913064D01*
X129640514Y-99851144D01*
X129722935Y-99766668D01*
X129828155Y-99659447D01*
X129956361Y-99529293D01*
X130107742Y-99376018D01*
X130282485Y-99199435D01*
X130480778Y-98999353D01*
X130702809Y-98775586D01*
X130948765Y-98527945D01*
X131218835Y-98256241D01*
X131513207Y-97960287D01*
X131832068Y-97639894D01*
X132175605Y-97294874D01*
X132544008Y-96925039D01*
X132937464Y-96530200D01*
X133356160Y-96110168D01*
X133800284Y-95664757D01*
X134270025Y-95193777D01*
X134765570Y-94697041D01*
X135287107Y-94174359D01*
X135834824Y-93625544D01*
X136408908Y-93050408D01*
X137009548Y-92448762D01*
X137636931Y-91820417D01*
X138291246Y-91165187D01*
X138972679Y-90482881D01*
X139681419Y-89773313D01*
X140417654Y-89036293D01*
X141181571Y-88271635D01*
X141973359Y-87479148D01*
X142793205Y-86658645D01*
X143641297Y-85809938D01*
X144517823Y-84932839D01*
X145422971Y-84027159D01*
X146356928Y-83092710D01*
X147319882Y-82129303D01*
X148312022Y-81136751D01*
X149333535Y-80114865D01*
X150384609Y-79063457D01*
X151465432Y-77982338D01*
X151561899Y-77885846D01*
X152373097Y-77074466D01*
X153177316Y-76270107D01*
X153974027Y-75473297D01*
X154762702Y-74684562D01*
X155542813Y-73904431D01*
X156313834Y-73133431D01*
X157075235Y-72372088D01*
X157826488Y-71620931D01*
X158567067Y-70880486D01*
X159296444Y-70151280D01*
X160014089Y-69433842D01*
X160719476Y-68728698D01*
X161412076Y-68036376D01*
X162091362Y-67357402D01*
X162756806Y-66692305D01*
X163407879Y-66041611D01*
X164044055Y-65405849D01*
X164664805Y-64785544D01*
X165269601Y-64181225D01*
X165857916Y-63593418D01*
X166429221Y-63022651D01*
X166982989Y-62469452D01*
X167518692Y-61934347D01*
X168035801Y-61417864D01*
X168533790Y-60920531D01*
X169012130Y-60442874D01*
X169470293Y-59985420D01*
X169907752Y-59548698D01*
X170323978Y-59133234D01*
X170718444Y-58739555D01*
X171090621Y-58368190D01*
X171439983Y-58019665D01*
X171766001Y-57694507D01*
X172068147Y-57393245D01*
X172345893Y-57116404D01*
X172598712Y-56864513D01*
X172826075Y-56638099D01*
X173027455Y-56437688D01*
X173202324Y-56263809D01*
X173350154Y-56116989D01*
X173470417Y-55997754D01*
X173562586Y-55906633D01*
X173626131Y-55844152D01*
X173660526Y-55810840D01*
X173666466Y-55805413D01*
X173875128Y-55661267D01*
X174094331Y-55557692D01*
X174327174Y-55493596D01*
X174576750Y-55467886D01*
X174625000Y-55467250D01*
X174878011Y-55485978D01*
G36*
X174918121Y-65229157D02*
G01*
X175153467Y-65296555D01*
X175379068Y-65404054D01*
X175450500Y-65448105D01*
X175466277Y-65461315D01*
X175498755Y-65491313D01*
X175548270Y-65538434D01*
X175615157Y-65603013D01*
X175699752Y-65685382D01*
X175802389Y-65785879D01*
X175923405Y-65904835D01*
X176063134Y-66042587D01*
X176221912Y-66199469D01*
X176400074Y-66375815D01*
X176597955Y-66571960D01*
X176815891Y-66788237D01*
X177054217Y-67024983D01*
X177313269Y-67282531D01*
X177593382Y-67561215D01*
X177894890Y-67861371D01*
X178218130Y-68183332D01*
X178563437Y-68527433D01*
X178931146Y-68894010D01*
X179321593Y-69283395D01*
X179735112Y-69695924D01*
X180172039Y-70131931D01*
X180632710Y-70591751D01*
X181117460Y-71075718D01*
X181626624Y-71584167D01*
X182160537Y-72117432D01*
X182719535Y-72675848D01*
X183303953Y-73259749D01*
X183914127Y-73869469D01*
X184550391Y-74505344D01*
X185213082Y-75167707D01*
X185902534Y-75856894D01*
X186619082Y-76573238D01*
X187363063Y-77317074D01*
X188134812Y-78088737D01*
X188934663Y-78888561D01*
X189762952Y-79716881D01*
X190620015Y-80574031D01*
X191506187Y-81460346D01*
X192421803Y-82376160D01*
X192778491Y-82732938D01*
X209968898Y-99927834D01*
X210066832Y-100128917D01*
X210161751Y-100369004D01*
X210215811Y-100613040D01*
X210229203Y-100857599D01*
X210202118Y-101099256D01*
X210134746Y-101334584D01*
X210027279Y-101560158D01*
X209983129Y-101631750D01*
X209963840Y-101653357D01*
X209915323Y-101704131D01*
X209838302Y-101783348D01*
X209733501Y-101890286D01*
X209601644Y-102024220D01*
X209443454Y-102184426D01*
X209259656Y-102370181D01*
X209050972Y-102580761D01*
X208818128Y-102815442D01*
X208561847Y-103073500D01*
X208282853Y-103354212D01*
X207981870Y-103656853D01*
X207659621Y-103980701D01*
X207316831Y-104325031D01*
X206954223Y-104689119D01*
X206572521Y-105072242D01*
X206172449Y-105473676D01*
X205754731Y-105892697D01*
X205320091Y-106328581D01*
X204869253Y-106780605D01*
X204402940Y-107248045D01*
X203921876Y-107730177D01*
X203426786Y-108226277D01*
X202918392Y-108735621D01*
X202397420Y-109257487D01*
X201864592Y-109791149D01*
X201320634Y-110335884D01*
X200766267Y-110890969D01*
X200202217Y-111455680D01*
X199629207Y-112029292D01*
X199047962Y-112611082D01*
X198459204Y-113200327D01*
X197863658Y-113796302D01*
X197262048Y-114398284D01*
X196655098Y-115005549D01*
X196043531Y-115617373D01*
X195428071Y-116233033D01*
X194809442Y-116851804D01*
X194188368Y-117472963D01*
X193565574Y-118095787D01*
X192941782Y-118719550D01*
X192317716Y-119343530D01*
X191694101Y-119967004D01*
X191071661Y-120589246D01*
X190451118Y-121209533D01*
X189833198Y-121827142D01*
X189218623Y-122441348D01*
X188608118Y-123051428D01*
X188002407Y-123656659D01*
X187402214Y-124256316D01*
X186808262Y-124849676D01*
X186221274Y-125436014D01*
X185641977Y-126014607D01*
X185071092Y-126584732D01*
X184509343Y-127145664D01*
X183957456Y-127696680D01*
X183416153Y-128237056D01*
X182886158Y-128766069D01*
X182368196Y-129282993D01*
X181862990Y-129787107D01*
X181371264Y-130277685D01*
X180893741Y-130754004D01*
X180431147Y-131215340D01*
X179984204Y-131660971D01*
X179553636Y-132090170D01*
X179140168Y-132502216D01*
X178744523Y-132896385D01*
X178367424Y-133271951D01*
X178009597Y-133628192D01*
X177671765Y-133964385D01*
X177354651Y-134279804D01*
X177058979Y-134573727D01*
X176785474Y-134845429D01*
X176534859Y-135094187D01*
X176307858Y-135319277D01*
X176105195Y-135519976D01*
X175927594Y-135695559D01*
X175775779Y-135845302D01*
X175650473Y-135968483D01*
X175552400Y-136064377D01*
X175482284Y-136132260D01*
X175440850Y-136171409D01*
X175429334Y-136181307D01*
X175274972Y-136264336D01*
X175105228Y-136333244D01*
X174940155Y-136380108D01*
X174912154Y-136385652D01*
X174774996Y-136401648D01*
X174616508Y-136405995D01*
X174455968Y-136398998D01*
X174312658Y-136380963D01*
X174286334Y-136375753D01*
X174205799Y-136352935D01*
X174104366Y-136316273D01*
X173998437Y-136271944D01*
X173947667Y-136248229D01*
X173746584Y-136150168D01*
X156551693Y-118959751D01*
X155624502Y-118032778D01*
X154726938Y-117135377D01*
X153858667Y-116267214D01*
X153019353Y-115427952D01*
X152208664Y-114617256D01*
X151426264Y-113834792D01*
X150671819Y-113080225D01*
X149944995Y-112353218D01*
X149245457Y-111653438D01*
X148572872Y-110980548D01*
X147926905Y-110334214D01*
X147307221Y-109714101D01*
X146713487Y-109119873D01*
X146145367Y-108551195D01*
X145602528Y-108007732D01*
X145084635Y-107489150D01*
X144591355Y-106995112D01*
X144122352Y-106525283D01*
X143677292Y-106079329D01*
X143255842Y-105656915D01*
X142857666Y-105257704D01*
X142482430Y-104881362D01*
X142129801Y-104527555D01*
X141799443Y-104195946D01*
X141491023Y-103886200D01*
X141204205Y-103597983D01*
X140938657Y-103330959D01*
X140694043Y-103084793D01*
X140470029Y-102859150D01*
X140266281Y-102653695D01*
X140082465Y-102468092D01*
X139918245Y-102302007D01*
X139773289Y-102155104D01*
X139647261Y-102027048D01*
X139539827Y-101917504D01*
X139450653Y-101826137D01*
X139379405Y-101752611D01*
X139325748Y-101696592D01*
X139289348Y-101657745D01*
X139269871Y-101635733D01*
X139266860Y-101631750D01*
X139149472Y-101419520D01*
X139071300Y-101199570D01*
X139030456Y-100965436D01*
X139023034Y-100797071D01*
X139036880Y-100587240D01*
X139079752Y-100389271D01*
X139155074Y-100188873D01*
X139183157Y-100128917D01*
X139281080Y-99927834D01*
X173746584Y-65462300D01*
X173947667Y-65364392D01*
X174187801Y-65269478D01*
X174431868Y-65215428D01*
X174676448Y-65202051D01*
X174918121Y-65229157D01*
X174918121Y-65229157D01*
G37*
X174918121Y-65229157D02*
X175153467Y-65296555D01*
X175379068Y-65404054D01*
X175450500Y-65448105D01*
X175466277Y-65461315D01*
X175498755Y-65491313D01*
X175548270Y-65538434D01*
X175615157Y-65603013D01*
X175699752Y-65685382D01*
X175802389Y-65785879D01*
X175923405Y-65904835D01*
X176063134Y-66042587D01*
X176221912Y-66199469D01*
X176400074Y-66375815D01*
X176597955Y-66571960D01*
X176815891Y-66788237D01*
X177054217Y-67024983D01*
X177313269Y-67282531D01*
X177593382Y-67561215D01*
X177894890Y-67861371D01*
X178218130Y-68183332D01*
X178563437Y-68527433D01*
X178931146Y-68894010D01*
X179321593Y-69283395D01*
X179735112Y-69695924D01*
X180172039Y-70131931D01*
X180632710Y-70591751D01*
X181117460Y-71075718D01*
X181626624Y-71584167D01*
X182160537Y-72117432D01*
X182719535Y-72675848D01*
X183303953Y-73259749D01*
X183914127Y-73869469D01*
X184550391Y-74505344D01*
X185213082Y-75167707D01*
X185902534Y-75856894D01*
X186619082Y-76573238D01*
X187363063Y-77317074D01*
X188134812Y-78088737D01*
X188934663Y-78888561D01*
X189762952Y-79716881D01*
X190620015Y-80574031D01*
X191506187Y-81460346D01*
X192421803Y-82376160D01*
X192778491Y-82732938D01*
X209968898Y-99927834D01*
X210066832Y-100128917D01*
X210161751Y-100369004D01*
X210215811Y-100613040D01*
X210229203Y-100857599D01*
X210202118Y-101099256D01*
X210134746Y-101334584D01*
X210027279Y-101560158D01*
X209983129Y-101631750D01*
X209963840Y-101653357D01*
X209915323Y-101704131D01*
X209838302Y-101783348D01*
X209733501Y-101890286D01*
X209601644Y-102024220D01*
X209443454Y-102184426D01*
X209259656Y-102370181D01*
X209050972Y-102580761D01*
X208818128Y-102815442D01*
X208561847Y-103073500D01*
X208282853Y-103354212D01*
X207981870Y-103656853D01*
X207659621Y-103980701D01*
X207316831Y-104325031D01*
X206954223Y-104689119D01*
X206572521Y-105072242D01*
X206172449Y-105473676D01*
X205754731Y-105892697D01*
X205320091Y-106328581D01*
X204869253Y-106780605D01*
X204402940Y-107248045D01*
X203921876Y-107730177D01*
X203426786Y-108226277D01*
X202918392Y-108735621D01*
X202397420Y-109257487D01*
X201864592Y-109791149D01*
X201320634Y-110335884D01*
X200766267Y-110890969D01*
X200202217Y-111455680D01*
X199629207Y-112029292D01*
X199047962Y-112611082D01*
X198459204Y-113200327D01*
X197863658Y-113796302D01*
X197262048Y-114398284D01*
X196655098Y-115005549D01*
X196043531Y-115617373D01*
X195428071Y-116233033D01*
X194809442Y-116851804D01*
X194188368Y-117472963D01*
X193565574Y-118095787D01*
X192941782Y-118719550D01*
X192317716Y-119343530D01*
X191694101Y-119967004D01*
X191071661Y-120589246D01*
X190451118Y-121209533D01*
X189833198Y-121827142D01*
X189218623Y-122441348D01*
X188608118Y-123051428D01*
X188002407Y-123656659D01*
X187402214Y-124256316D01*
X186808262Y-124849676D01*
X186221274Y-125436014D01*
X185641977Y-126014607D01*
X185071092Y-126584732D01*
X184509343Y-127145664D01*
X183957456Y-127696680D01*
X183416153Y-128237056D01*
X182886158Y-128766069D01*
X182368196Y-129282993D01*
X181862990Y-129787107D01*
X181371264Y-130277685D01*
X180893741Y-130754004D01*
X180431147Y-131215340D01*
X179984204Y-131660971D01*
X179553636Y-132090170D01*
X179140168Y-132502216D01*
X178744523Y-132896385D01*
X178367424Y-133271951D01*
X178009597Y-133628192D01*
X177671765Y-133964385D01*
X177354651Y-134279804D01*
X177058979Y-134573727D01*
X176785474Y-134845429D01*
X176534859Y-135094187D01*
X176307858Y-135319277D01*
X176105195Y-135519976D01*
X175927594Y-135695559D01*
X175775779Y-135845302D01*
X175650473Y-135968483D01*
X175552400Y-136064377D01*
X175482284Y-136132260D01*
X175440850Y-136171409D01*
X175429334Y-136181307D01*
X175274972Y-136264336D01*
X175105228Y-136333244D01*
X174940155Y-136380108D01*
X174912154Y-136385652D01*
X174774996Y-136401648D01*
X174616508Y-136405995D01*
X174455968Y-136398998D01*
X174312658Y-136380963D01*
X174286334Y-136375753D01*
X174205799Y-136352935D01*
X174104366Y-136316273D01*
X173998437Y-136271944D01*
X173947667Y-136248229D01*
X173746584Y-136150168D01*
X156551693Y-118959751D01*
X155624502Y-118032778D01*
X154726938Y-117135377D01*
X153858667Y-116267214D01*
X153019353Y-115427952D01*
X152208664Y-114617256D01*
X151426264Y-113834792D01*
X150671819Y-113080225D01*
X149944995Y-112353218D01*
X149245457Y-111653438D01*
X148572872Y-110980548D01*
X147926905Y-110334214D01*
X147307221Y-109714101D01*
X146713487Y-109119873D01*
X146145367Y-108551195D01*
X145602528Y-108007732D01*
X145084635Y-107489150D01*
X144591355Y-106995112D01*
X144122352Y-106525283D01*
X143677292Y-106079329D01*
X143255842Y-105656915D01*
X142857666Y-105257704D01*
X142482430Y-104881362D01*
X142129801Y-104527555D01*
X141799443Y-104195946D01*
X141491023Y-103886200D01*
X141204205Y-103597983D01*
X140938657Y-103330959D01*
X140694043Y-103084793D01*
X140470029Y-102859150D01*
X140266281Y-102653695D01*
X140082465Y-102468092D01*
X139918245Y-102302007D01*
X139773289Y-102155104D01*
X139647261Y-102027048D01*
X139539827Y-101917504D01*
X139450653Y-101826137D01*
X139379405Y-101752611D01*
X139325748Y-101696592D01*
X139289348Y-101657745D01*
X139269871Y-101635733D01*
X139266860Y-101631750D01*
X139149472Y-101419520D01*
X139071300Y-101199570D01*
X139030456Y-100965436D01*
X139023034Y-100797071D01*
X139036880Y-100587240D01*
X139079752Y-100389271D01*
X139155074Y-100188873D01*
X139183157Y-100128917D01*
X139281080Y-99927834D01*
X173746584Y-65462300D01*
X173947667Y-65364392D01*
X174187801Y-65269478D01*
X174431868Y-65215428D01*
X174676448Y-65202051D01*
X174918121Y-65229157D01*
D10*
X183515000Y-99853750D02*
X183515000Y-130333750D01*
X178435000Y-99853750D02*
X183515000Y-99853750D01*
X178435000Y-97313750D02*
X178435000Y-99853750D01*
X170815000Y-97313750D02*
X178435000Y-97313750D01*
X170815000Y-99853750D02*
X170815000Y-97313750D01*
X165735000Y-99853750D02*
X170815000Y-99853750D01*
X165735000Y-130333750D02*
X165735000Y-99853750D01*
X183515000Y-130333750D02*
X165735000Y-130333750D01*
D12*
X35925000Y-147506250D02*
X33925000Y-147506250D01*
X33925000Y-147506250D02*
X33925000Y-143606250D01*
X35925000Y-147506250D02*
X35925000Y-143606250D01*
X35925000Y-128456250D02*
X33925000Y-128456250D01*
X33925000Y-128456250D02*
X33925000Y-124556250D01*
X35925000Y-128456250D02*
X35925000Y-124556250D01*
X35925000Y-109406250D02*
X33925000Y-109406250D01*
X33925000Y-109406250D02*
X33925000Y-105506250D01*
X35925000Y-109406250D02*
X35925000Y-105506250D01*
X35925000Y-90356250D02*
X33925000Y-90356250D01*
X33925000Y-90356250D02*
X33925000Y-86456250D01*
X35925000Y-90356250D02*
X35925000Y-86456250D01*
X35925000Y-71306250D02*
X33925000Y-71306250D01*
X33925000Y-71306250D02*
X33925000Y-67406250D01*
X35925000Y-71306250D02*
X35925000Y-67406250D01*
X54975000Y-147506250D02*
X52975000Y-147506250D01*
X52975000Y-147506250D02*
X52975000Y-143606250D01*
X54975000Y-147506250D02*
X54975000Y-143606250D01*
X54975000Y-128456250D02*
X52975000Y-128456250D01*
X52975000Y-128456250D02*
X52975000Y-124556250D01*
X54975000Y-128456250D02*
X54975000Y-124556250D01*
X54975000Y-109406250D02*
X52975000Y-109406250D01*
X52975000Y-109406250D02*
X52975000Y-105506250D01*
X54975000Y-109406250D02*
X54975000Y-105506250D01*
X54975000Y-90356250D02*
X52975000Y-90356250D01*
X52975000Y-90356250D02*
X52975000Y-86456250D01*
X54975000Y-90356250D02*
X54975000Y-86456250D01*
X54975000Y-71306250D02*
X52975000Y-71306250D01*
X52975000Y-71306250D02*
X52975000Y-67406250D01*
X54975000Y-71306250D02*
X54975000Y-67406250D01*
X74025000Y-147506250D02*
X72025000Y-147506250D01*
X72025000Y-147506250D02*
X72025000Y-143606250D01*
X74025000Y-147506250D02*
X74025000Y-143606250D01*
X74025000Y-128456250D02*
X72025000Y-128456250D01*
X72025000Y-128456250D02*
X72025000Y-124556250D01*
X74025000Y-128456250D02*
X74025000Y-124556250D01*
X74025000Y-109406250D02*
X72025000Y-109406250D01*
X72025000Y-109406250D02*
X72025000Y-105506250D01*
X74025000Y-109406250D02*
X74025000Y-105506250D01*
X74025000Y-90356250D02*
X72025000Y-90356250D01*
X72025000Y-90356250D02*
X72025000Y-86456250D01*
X74025000Y-90356250D02*
X74025000Y-86456250D01*
X74025000Y-71306250D02*
X72025000Y-71306250D01*
X72025000Y-71306250D02*
X72025000Y-67406250D01*
X74025000Y-71306250D02*
X74025000Y-67406250D01*
X93075000Y-147506249D02*
X91075000Y-147506249D01*
X91075000Y-147506249D02*
X91075000Y-143606249D01*
X93075000Y-147506249D02*
X93075000Y-143606249D01*
X93075000Y-128456251D02*
X91075000Y-128456251D01*
X91075000Y-128456251D02*
X91075000Y-124556251D01*
X93075000Y-128456251D02*
X93075000Y-124556251D01*
X93075000Y-109406251D02*
X91075000Y-109406251D01*
X91075000Y-109406251D02*
X91075000Y-105506251D01*
X93075000Y-109406251D02*
X93075000Y-105506251D01*
X93075000Y-90356250D02*
X91075000Y-90356250D01*
X91075000Y-90356250D02*
X91075000Y-86456250D01*
X93075000Y-90356250D02*
X93075000Y-86456250D01*
X93075000Y-71306250D02*
X91075000Y-71306250D01*
X91075000Y-71306250D02*
X91075000Y-67406250D01*
X93075000Y-71306250D02*
X93075000Y-67406250D01*
X112125000Y-147506250D02*
X110125000Y-147506250D01*
X110125000Y-147506250D02*
X110125000Y-143606250D01*
X112125000Y-147506250D02*
X112125000Y-143606250D01*
X112125000Y-128456250D02*
X110125000Y-128456250D01*
X110125000Y-128456250D02*
X110125000Y-124556250D01*
X112125000Y-128456250D02*
X112125000Y-124556250D01*
X112125000Y-109406250D02*
X110125000Y-109406250D01*
X110125000Y-109406250D02*
X110125000Y-105506250D01*
X112125000Y-109406250D02*
X112125000Y-105506250D01*
X112125000Y-90356250D02*
X110125000Y-90356250D01*
X110125000Y-90356250D02*
X110125000Y-86456250D01*
X112125000Y-90356250D02*
X112125000Y-86456250D01*
X112125000Y-71306250D02*
X110125000Y-71306250D01*
X110125000Y-71306250D02*
X110125000Y-67406250D01*
X112125000Y-71306250D02*
X112125000Y-67406250D01*
X131175000Y-147760250D02*
X129175000Y-147760250D01*
X129175000Y-147760250D02*
X129175000Y-143860250D01*
X131175000Y-147760250D02*
X131175000Y-143860250D01*
X131175000Y-128456250D02*
X129175000Y-128456250D01*
X129175000Y-128456250D02*
X129175000Y-124556250D01*
X131175000Y-128456250D02*
X131175000Y-124556250D01*
X131175000Y-109406250D02*
X129175000Y-109406250D01*
X129175000Y-109406250D02*
X129175000Y-105506250D01*
X131175000Y-109406250D02*
X131175000Y-105506250D01*
X131175000Y-90356250D02*
X129175000Y-90356250D01*
X129175000Y-90356250D02*
X129175000Y-86456250D01*
X131175000Y-90356250D02*
X131175000Y-86456250D01*
X131175000Y-71306250D02*
X129175000Y-71306250D01*
X129175000Y-71306250D02*
X129175000Y-67406250D01*
X131175000Y-71306250D02*
X131175000Y-67406250D01*
X231187500Y-147506250D02*
X231187500Y-143606250D01*
X229187500Y-147506250D02*
X229187500Y-143606250D01*
X231187500Y-147506250D02*
X229187500Y-147506250D01*
X231981250Y-128456250D02*
X231981250Y-124556250D01*
X229981250Y-128456250D02*
X229981250Y-124556250D01*
X231981250Y-128456250D02*
X229981250Y-128456250D01*
X231187500Y-109406250D02*
X231187500Y-105506250D01*
X229187500Y-109406250D02*
X229187500Y-105506250D01*
X231187500Y-109406250D02*
X229187500Y-109406250D01*
X231187500Y-90356250D02*
X231187500Y-86456250D01*
X229187500Y-90356250D02*
X229187500Y-86456250D01*
X231187500Y-90356250D02*
X229187500Y-90356250D01*
X231187500Y-71306250D02*
X231187500Y-67406250D01*
X229187500Y-71306250D02*
X229187500Y-67406250D01*
X231187500Y-71306250D02*
X229187500Y-71306250D01*
X250237500Y-147506250D02*
X250237500Y-143606250D01*
X248237500Y-147506250D02*
X248237500Y-143606250D01*
X250237500Y-147506250D02*
X248237500Y-147506250D01*
X251031250Y-128456250D02*
X251031250Y-124556250D01*
X249031250Y-128456250D02*
X249031250Y-124556250D01*
X251031250Y-128456250D02*
X249031250Y-128456250D01*
X250237500Y-109406250D02*
X250237500Y-105506250D01*
X248237500Y-109406250D02*
X248237500Y-105506250D01*
X250237500Y-109406250D02*
X248237500Y-109406250D01*
X250237500Y-90356250D02*
X250237500Y-86456250D01*
X248237500Y-90356250D02*
X248237500Y-86456250D01*
X250237500Y-90356250D02*
X248237500Y-90356250D01*
X250237500Y-71306250D02*
X250237500Y-67406250D01*
X248237500Y-71306250D02*
X248237500Y-67406250D01*
X250237500Y-71306250D02*
X248237500Y-71306250D01*
X269287500Y-147506250D02*
X269287500Y-143606250D01*
X267287500Y-147506250D02*
X267287500Y-143606250D01*
X269287500Y-147506250D02*
X267287500Y-147506250D01*
X269287500Y-128456250D02*
X269287500Y-124556250D01*
X267287500Y-128456250D02*
X267287500Y-124556250D01*
X269287500Y-128456250D02*
X267287500Y-128456250D01*
X269287500Y-109406250D02*
X269287500Y-105506250D01*
X267287500Y-109406250D02*
X267287500Y-105506250D01*
X269287500Y-109406250D02*
X267287500Y-109406250D01*
X269287500Y-90356250D02*
X269287500Y-86456250D01*
X267287500Y-90356250D02*
X267287500Y-86456250D01*
X269287500Y-90356250D02*
X267287500Y-90356250D01*
X269287500Y-71306250D02*
X269287500Y-67406250D01*
X267287500Y-71306250D02*
X267287500Y-67406250D01*
X269287500Y-71306250D02*
X267287500Y-71306250D01*
X288337500Y-147506250D02*
X288337500Y-143606250D01*
X286337500Y-147506250D02*
X286337500Y-143606250D01*
X288337500Y-147506250D02*
X286337500Y-147506250D01*
X288337500Y-128456250D02*
X288337500Y-124556250D01*
X286337500Y-128456250D02*
X286337500Y-124556250D01*
X288337500Y-128456250D02*
X286337500Y-128456250D01*
X288337500Y-109406250D02*
X288337500Y-105506250D01*
X286337500Y-109406250D02*
X286337500Y-105506250D01*
X288337500Y-109406250D02*
X286337500Y-109406250D01*
X288337500Y-90356250D02*
X288337500Y-86456250D01*
X286337500Y-90356250D02*
X286337500Y-86456250D01*
X288337500Y-90356250D02*
X286337500Y-90356250D01*
X288337500Y-71306250D02*
X288337500Y-67406250D01*
X286337500Y-71306250D02*
X286337500Y-67406250D01*
X288337500Y-71306250D02*
X286337500Y-71306250D01*
X307387500Y-147506250D02*
X307387500Y-143606250D01*
X305387500Y-147506250D02*
X305387500Y-143606250D01*
X307387500Y-147506250D02*
X305387500Y-147506250D01*
X307387500Y-128456250D02*
X307387500Y-124556250D01*
X305387500Y-128456250D02*
X305387500Y-124556250D01*
X307387500Y-128456250D02*
X305387500Y-128456250D01*
X307387500Y-109406250D02*
X307387500Y-105506250D01*
X305387500Y-109406250D02*
X305387500Y-105506250D01*
X307387500Y-109406250D02*
X305387500Y-109406250D01*
X307387500Y-90356250D02*
X307387500Y-86456250D01*
X305387500Y-90356250D02*
X305387500Y-86456250D01*
X307387500Y-90356250D02*
X305387500Y-90356250D01*
X307387500Y-71306250D02*
X307387500Y-67406250D01*
X305387500Y-71306250D02*
X305387500Y-67406250D01*
X307387500Y-71306250D02*
X305387500Y-71306250D01*
X326437500Y-147506250D02*
X326437500Y-143606250D01*
X324437500Y-147506250D02*
X324437500Y-143606250D01*
X326437500Y-147506250D02*
X324437500Y-147506250D01*
X326437500Y-128456250D02*
X326437500Y-124556250D01*
X324437500Y-128456250D02*
X324437500Y-124556250D01*
X326437500Y-128456250D02*
X324437500Y-128456250D01*
X326437500Y-109406250D02*
X326437500Y-105506250D01*
X324437500Y-109406250D02*
X324437500Y-105506250D01*
X326437500Y-109406250D02*
X324437500Y-109406250D01*
X326437500Y-90356250D02*
X326437500Y-86456250D01*
X324437500Y-90356250D02*
X324437500Y-86456250D01*
X326437500Y-90356250D02*
X324437500Y-90356250D01*
X326437500Y-71306250D02*
X326437500Y-67406250D01*
X324437500Y-71306250D02*
X324437500Y-67406250D01*
X326437500Y-71306250D02*
X324437500Y-71306250D01*
X345487500Y-147506250D02*
X345487500Y-143606250D01*
X343487500Y-147506250D02*
X343487500Y-143606250D01*
X345487500Y-147506250D02*
X343487500Y-147506250D01*
X345487500Y-128456250D02*
X345487500Y-124556250D01*
X343487500Y-128456250D02*
X343487500Y-124556250D01*
X345487500Y-128456250D02*
X343487500Y-128456250D01*
X345487500Y-109406250D02*
X345487500Y-105506250D01*
X343487500Y-109406250D02*
X343487500Y-105506250D01*
X345487500Y-109406250D02*
X343487500Y-109406250D01*
X345487500Y-90356250D02*
X345487500Y-86456250D01*
X343487500Y-90356250D02*
X343487500Y-86456250D01*
X345487500Y-90356250D02*
X343487500Y-90356250D01*
X345487500Y-71306250D02*
X345487500Y-67406250D01*
X343487500Y-71306250D02*
X343487500Y-67406250D01*
X345487500Y-71306250D02*
X343487500Y-71306250D01*
D10*
X37377380Y-144041964D02*
X36377380Y-144041964D01*
X36377380Y-144280059D01*
X36425000Y-144422916D01*
X36520238Y-144518154D01*
X36615476Y-144565773D01*
X36805952Y-144613392D01*
X36948809Y-144613392D01*
X37139285Y-144565773D01*
X37234523Y-144518154D01*
X37329761Y-144422916D01*
X37377380Y-144280059D01*
X37377380Y-144041964D01*
X36377380Y-145470535D02*
X36377380Y-145280059D01*
X36425000Y-145184821D01*
X36472619Y-145137202D01*
X36615476Y-145041964D01*
X36805952Y-144994345D01*
X37186904Y-144994345D01*
X37282142Y-145041964D01*
X37329761Y-145089583D01*
X37377380Y-145184821D01*
X37377380Y-145375297D01*
X37329761Y-145470535D01*
X37282142Y-145518154D01*
X37186904Y-145565773D01*
X36948809Y-145565773D01*
X36853571Y-145518154D01*
X36805952Y-145470535D01*
X36758333Y-145375297D01*
X36758333Y-145184821D01*
X36805952Y-145089583D01*
X36853571Y-145041964D01*
X36948809Y-144994345D01*
X36377380Y-146470535D02*
X36377380Y-145994345D01*
X36853571Y-145946726D01*
X36805952Y-145994345D01*
X36758333Y-146089583D01*
X36758333Y-146327678D01*
X36805952Y-146422916D01*
X36853571Y-146470535D01*
X36948809Y-146518154D01*
X37186904Y-146518154D01*
X37282142Y-146470535D01*
X37329761Y-146422916D01*
X37377380Y-146327678D01*
X37377380Y-146089583D01*
X37329761Y-145994345D01*
X37282142Y-145946726D01*
X37377380Y-124991964D02*
X36377380Y-124991964D01*
X36377380Y-125230059D01*
X36425000Y-125372916D01*
X36520238Y-125468154D01*
X36615476Y-125515773D01*
X36805952Y-125563392D01*
X36948809Y-125563392D01*
X37139285Y-125515773D01*
X37234523Y-125468154D01*
X37329761Y-125372916D01*
X37377380Y-125230059D01*
X37377380Y-124991964D01*
X36377380Y-126420535D02*
X36377380Y-126230059D01*
X36425000Y-126134821D01*
X36472619Y-126087202D01*
X36615476Y-125991964D01*
X36805952Y-125944345D01*
X37186904Y-125944345D01*
X37282142Y-125991964D01*
X37329761Y-126039583D01*
X37377380Y-126134821D01*
X37377380Y-126325297D01*
X37329761Y-126420535D01*
X37282142Y-126468154D01*
X37186904Y-126515773D01*
X36948809Y-126515773D01*
X36853571Y-126468154D01*
X36805952Y-126420535D01*
X36758333Y-126325297D01*
X36758333Y-126134821D01*
X36805952Y-126039583D01*
X36853571Y-125991964D01*
X36948809Y-125944345D01*
X36710714Y-127372916D02*
X37377380Y-127372916D01*
X36329761Y-127134821D02*
X37044047Y-126896726D01*
X37044047Y-127515773D01*
X37377380Y-105941964D02*
X36377380Y-105941964D01*
X36377380Y-106180059D01*
X36425000Y-106322916D01*
X36520238Y-106418154D01*
X36615476Y-106465773D01*
X36805952Y-106513392D01*
X36948809Y-106513392D01*
X37139285Y-106465773D01*
X37234523Y-106418154D01*
X37329761Y-106322916D01*
X37377380Y-106180059D01*
X37377380Y-105941964D01*
X36377380Y-107370535D02*
X36377380Y-107180059D01*
X36425000Y-107084821D01*
X36472619Y-107037202D01*
X36615476Y-106941964D01*
X36805952Y-106894345D01*
X37186904Y-106894345D01*
X37282142Y-106941964D01*
X37329761Y-106989583D01*
X37377380Y-107084821D01*
X37377380Y-107275297D01*
X37329761Y-107370535D01*
X37282142Y-107418154D01*
X37186904Y-107465773D01*
X36948809Y-107465773D01*
X36853571Y-107418154D01*
X36805952Y-107370535D01*
X36758333Y-107275297D01*
X36758333Y-107084821D01*
X36805952Y-106989583D01*
X36853571Y-106941964D01*
X36948809Y-106894345D01*
X36377380Y-107799107D02*
X36377380Y-108418154D01*
X36758333Y-108084821D01*
X36758333Y-108227678D01*
X36805952Y-108322916D01*
X36853571Y-108370535D01*
X36948809Y-108418154D01*
X37186904Y-108418154D01*
X37282142Y-108370535D01*
X37329761Y-108322916D01*
X37377380Y-108227678D01*
X37377380Y-107941964D01*
X37329761Y-107846726D01*
X37282142Y-107799107D01*
X37377380Y-86891964D02*
X36377380Y-86891964D01*
X36377380Y-87130059D01*
X36425000Y-87272916D01*
X36520238Y-87368154D01*
X36615476Y-87415773D01*
X36805952Y-87463392D01*
X36948809Y-87463392D01*
X37139285Y-87415773D01*
X37234523Y-87368154D01*
X37329761Y-87272916D01*
X37377380Y-87130059D01*
X37377380Y-86891964D01*
X36377380Y-88320535D02*
X36377380Y-88130059D01*
X36425000Y-88034821D01*
X36472619Y-87987202D01*
X36615476Y-87891964D01*
X36805952Y-87844345D01*
X37186904Y-87844345D01*
X37282142Y-87891964D01*
X37329761Y-87939583D01*
X37377380Y-88034821D01*
X37377380Y-88225297D01*
X37329761Y-88320535D01*
X37282142Y-88368154D01*
X37186904Y-88415773D01*
X36948809Y-88415773D01*
X36853571Y-88368154D01*
X36805952Y-88320535D01*
X36758333Y-88225297D01*
X36758333Y-88034821D01*
X36805952Y-87939583D01*
X36853571Y-87891964D01*
X36948809Y-87844345D01*
X36472619Y-88796726D02*
X36425000Y-88844345D01*
X36377380Y-88939583D01*
X36377380Y-89177678D01*
X36425000Y-89272916D01*
X36472619Y-89320535D01*
X36567857Y-89368154D01*
X36663095Y-89368154D01*
X36805952Y-89320535D01*
X37377380Y-88749107D01*
X37377380Y-89368154D01*
X37377380Y-67841964D02*
X36377380Y-67841964D01*
X36377380Y-68080059D01*
X36425000Y-68222916D01*
X36520238Y-68318154D01*
X36615476Y-68365773D01*
X36805952Y-68413392D01*
X36948809Y-68413392D01*
X37139285Y-68365773D01*
X37234523Y-68318154D01*
X37329761Y-68222916D01*
X37377380Y-68080059D01*
X37377380Y-67841964D01*
X36377380Y-69270535D02*
X36377380Y-69080059D01*
X36425000Y-68984821D01*
X36472619Y-68937202D01*
X36615476Y-68841964D01*
X36805952Y-68794345D01*
X37186904Y-68794345D01*
X37282142Y-68841964D01*
X37329761Y-68889583D01*
X37377380Y-68984821D01*
X37377380Y-69175297D01*
X37329761Y-69270535D01*
X37282142Y-69318154D01*
X37186904Y-69365773D01*
X36948809Y-69365773D01*
X36853571Y-69318154D01*
X36805952Y-69270535D01*
X36758333Y-69175297D01*
X36758333Y-68984821D01*
X36805952Y-68889583D01*
X36853571Y-68841964D01*
X36948809Y-68794345D01*
X37377380Y-70318154D02*
X37377380Y-69746726D01*
X37377380Y-70032440D02*
X36377380Y-70032440D01*
X36520238Y-69937202D01*
X36615476Y-69841964D01*
X36663095Y-69746726D01*
X56427380Y-144041964D02*
X55427380Y-144041964D01*
X55427380Y-144280059D01*
X55475000Y-144422916D01*
X55570238Y-144518154D01*
X55665476Y-144565773D01*
X55855952Y-144613392D01*
X55998809Y-144613392D01*
X56189285Y-144565773D01*
X56284523Y-144518154D01*
X56379761Y-144422916D01*
X56427380Y-144280059D01*
X56427380Y-144041964D01*
X55427380Y-145470535D02*
X55427380Y-145280059D01*
X55475000Y-145184821D01*
X55522619Y-145137202D01*
X55665476Y-145041964D01*
X55855952Y-144994345D01*
X56236904Y-144994345D01*
X56332142Y-145041964D01*
X56379761Y-145089583D01*
X56427380Y-145184821D01*
X56427380Y-145375297D01*
X56379761Y-145470535D01*
X56332142Y-145518154D01*
X56236904Y-145565773D01*
X55998809Y-145565773D01*
X55903571Y-145518154D01*
X55855952Y-145470535D01*
X55808333Y-145375297D01*
X55808333Y-145184821D01*
X55855952Y-145089583D01*
X55903571Y-145041964D01*
X55998809Y-144994345D01*
X55427380Y-146184821D02*
X55427380Y-146280059D01*
X55475000Y-146375297D01*
X55522619Y-146422916D01*
X55617857Y-146470535D01*
X55808333Y-146518154D01*
X56046428Y-146518154D01*
X56236904Y-146470535D01*
X56332142Y-146422916D01*
X56379761Y-146375297D01*
X56427380Y-146280059D01*
X56427380Y-146184821D01*
X56379761Y-146089583D01*
X56332142Y-146041964D01*
X56236904Y-145994345D01*
X56046428Y-145946726D01*
X55808333Y-145946726D01*
X55617857Y-145994345D01*
X55522619Y-146041964D01*
X55475000Y-146089583D01*
X55427380Y-146184821D01*
X56427380Y-124991964D02*
X55427380Y-124991964D01*
X55427380Y-125230059D01*
X55475000Y-125372916D01*
X55570238Y-125468154D01*
X55665476Y-125515773D01*
X55855952Y-125563392D01*
X55998809Y-125563392D01*
X56189285Y-125515773D01*
X56284523Y-125468154D01*
X56379761Y-125372916D01*
X56427380Y-125230059D01*
X56427380Y-124991964D01*
X55427380Y-126468154D02*
X55427380Y-125991964D01*
X55903571Y-125944345D01*
X55855952Y-125991964D01*
X55808333Y-126087202D01*
X55808333Y-126325297D01*
X55855952Y-126420535D01*
X55903571Y-126468154D01*
X55998809Y-126515773D01*
X56236904Y-126515773D01*
X56332142Y-126468154D01*
X56379761Y-126420535D01*
X56427380Y-126325297D01*
X56427380Y-126087202D01*
X56379761Y-125991964D01*
X56332142Y-125944345D01*
X56427380Y-126991964D02*
X56427380Y-127182440D01*
X56379761Y-127277678D01*
X56332142Y-127325297D01*
X56189285Y-127420535D01*
X55998809Y-127468154D01*
X55617857Y-127468154D01*
X55522619Y-127420535D01*
X55475000Y-127372916D01*
X55427380Y-127277678D01*
X55427380Y-127087202D01*
X55475000Y-126991964D01*
X55522619Y-126944345D01*
X55617857Y-126896726D01*
X55855952Y-126896726D01*
X55951190Y-126944345D01*
X55998809Y-126991964D01*
X56046428Y-127087202D01*
X56046428Y-127277678D01*
X55998809Y-127372916D01*
X55951190Y-127420535D01*
X55855952Y-127468154D01*
X56427380Y-105941964D02*
X55427380Y-105941964D01*
X55427380Y-106180059D01*
X55475000Y-106322916D01*
X55570238Y-106418154D01*
X55665476Y-106465773D01*
X55855952Y-106513392D01*
X55998809Y-106513392D01*
X56189285Y-106465773D01*
X56284523Y-106418154D01*
X56379761Y-106322916D01*
X56427380Y-106180059D01*
X56427380Y-105941964D01*
X55427380Y-107418154D02*
X55427380Y-106941964D01*
X55903571Y-106894345D01*
X55855952Y-106941964D01*
X55808333Y-107037202D01*
X55808333Y-107275297D01*
X55855952Y-107370535D01*
X55903571Y-107418154D01*
X55998809Y-107465773D01*
X56236904Y-107465773D01*
X56332142Y-107418154D01*
X56379761Y-107370535D01*
X56427380Y-107275297D01*
X56427380Y-107037202D01*
X56379761Y-106941964D01*
X56332142Y-106894345D01*
X55855952Y-108037202D02*
X55808333Y-107941964D01*
X55760714Y-107894345D01*
X55665476Y-107846726D01*
X55617857Y-107846726D01*
X55522619Y-107894345D01*
X55475000Y-107941964D01*
X55427380Y-108037202D01*
X55427380Y-108227678D01*
X55475000Y-108322916D01*
X55522619Y-108370535D01*
X55617857Y-108418154D01*
X55665476Y-108418154D01*
X55760714Y-108370535D01*
X55808333Y-108322916D01*
X55855952Y-108227678D01*
X55855952Y-108037202D01*
X55903571Y-107941964D01*
X55951190Y-107894345D01*
X56046428Y-107846726D01*
X56236904Y-107846726D01*
X56332142Y-107894345D01*
X56379761Y-107941964D01*
X56427380Y-108037202D01*
X56427380Y-108227678D01*
X56379761Y-108322916D01*
X56332142Y-108370535D01*
X56236904Y-108418154D01*
X56046428Y-108418154D01*
X55951190Y-108370535D01*
X55903571Y-108322916D01*
X55855952Y-108227678D01*
X56427380Y-86891964D02*
X55427380Y-86891964D01*
X55427380Y-87130059D01*
X55475000Y-87272916D01*
X55570238Y-87368154D01*
X55665476Y-87415773D01*
X55855952Y-87463392D01*
X55998809Y-87463392D01*
X56189285Y-87415773D01*
X56284523Y-87368154D01*
X56379761Y-87272916D01*
X56427380Y-87130059D01*
X56427380Y-86891964D01*
X55427380Y-88368154D02*
X55427380Y-87891964D01*
X55903571Y-87844345D01*
X55855952Y-87891964D01*
X55808333Y-87987202D01*
X55808333Y-88225297D01*
X55855952Y-88320535D01*
X55903571Y-88368154D01*
X55998809Y-88415773D01*
X56236904Y-88415773D01*
X56332142Y-88368154D01*
X56379761Y-88320535D01*
X56427380Y-88225297D01*
X56427380Y-87987202D01*
X56379761Y-87891964D01*
X56332142Y-87844345D01*
X55427380Y-88749107D02*
X55427380Y-89415773D01*
X56427380Y-88987202D01*
X56427380Y-67841964D02*
X55427380Y-67841964D01*
X55427380Y-68080059D01*
X55475000Y-68222916D01*
X55570238Y-68318154D01*
X55665476Y-68365773D01*
X55855952Y-68413392D01*
X55998809Y-68413392D01*
X56189285Y-68365773D01*
X56284523Y-68318154D01*
X56379761Y-68222916D01*
X56427380Y-68080059D01*
X56427380Y-67841964D01*
X55427380Y-69318154D02*
X55427380Y-68841964D01*
X55903571Y-68794345D01*
X55855952Y-68841964D01*
X55808333Y-68937202D01*
X55808333Y-69175297D01*
X55855952Y-69270535D01*
X55903571Y-69318154D01*
X55998809Y-69365773D01*
X56236904Y-69365773D01*
X56332142Y-69318154D01*
X56379761Y-69270535D01*
X56427380Y-69175297D01*
X56427380Y-68937202D01*
X56379761Y-68841964D01*
X56332142Y-68794345D01*
X55427380Y-70222916D02*
X55427380Y-70032440D01*
X55475000Y-69937202D01*
X55522619Y-69889583D01*
X55665476Y-69794345D01*
X55855952Y-69746726D01*
X56236904Y-69746726D01*
X56332142Y-69794345D01*
X56379761Y-69841964D01*
X56427380Y-69937202D01*
X56427380Y-70127678D01*
X56379761Y-70222916D01*
X56332142Y-70270535D01*
X56236904Y-70318154D01*
X55998809Y-70318154D01*
X55903571Y-70270535D01*
X55855952Y-70222916D01*
X55808333Y-70127678D01*
X55808333Y-69937202D01*
X55855952Y-69841964D01*
X55903571Y-69794345D01*
X55998809Y-69746726D01*
X75477380Y-144041964D02*
X74477380Y-144041964D01*
X74477380Y-144280059D01*
X74525000Y-144422916D01*
X74620238Y-144518154D01*
X74715476Y-144565773D01*
X74905952Y-144613392D01*
X75048809Y-144613392D01*
X75239285Y-144565773D01*
X75334523Y-144518154D01*
X75429761Y-144422916D01*
X75477380Y-144280059D01*
X75477380Y-144041964D01*
X74477380Y-145518154D02*
X74477380Y-145041964D01*
X74953571Y-144994345D01*
X74905952Y-145041964D01*
X74858333Y-145137202D01*
X74858333Y-145375297D01*
X74905952Y-145470535D01*
X74953571Y-145518154D01*
X75048809Y-145565773D01*
X75286904Y-145565773D01*
X75382142Y-145518154D01*
X75429761Y-145470535D01*
X75477380Y-145375297D01*
X75477380Y-145137202D01*
X75429761Y-145041964D01*
X75382142Y-144994345D01*
X74477380Y-146470535D02*
X74477380Y-145994345D01*
X74953571Y-145946726D01*
X74905952Y-145994345D01*
X74858333Y-146089583D01*
X74858333Y-146327678D01*
X74905952Y-146422916D01*
X74953571Y-146470535D01*
X75048809Y-146518154D01*
X75286904Y-146518154D01*
X75382142Y-146470535D01*
X75429761Y-146422916D01*
X75477380Y-146327678D01*
X75477380Y-146089583D01*
X75429761Y-145994345D01*
X75382142Y-145946726D01*
X75477380Y-124991964D02*
X74477380Y-124991964D01*
X74477380Y-125230059D01*
X74525000Y-125372916D01*
X74620238Y-125468154D01*
X74715476Y-125515773D01*
X74905952Y-125563392D01*
X75048809Y-125563392D01*
X75239285Y-125515773D01*
X75334523Y-125468154D01*
X75429761Y-125372916D01*
X75477380Y-125230059D01*
X75477380Y-124991964D01*
X74477380Y-126468154D02*
X74477380Y-125991964D01*
X74953571Y-125944345D01*
X74905952Y-125991964D01*
X74858333Y-126087202D01*
X74858333Y-126325297D01*
X74905952Y-126420535D01*
X74953571Y-126468154D01*
X75048809Y-126515773D01*
X75286904Y-126515773D01*
X75382142Y-126468154D01*
X75429761Y-126420535D01*
X75477380Y-126325297D01*
X75477380Y-126087202D01*
X75429761Y-125991964D01*
X75382142Y-125944345D01*
X74810714Y-127372916D02*
X75477380Y-127372916D01*
X74429761Y-127134821D02*
X75144047Y-126896726D01*
X75144047Y-127515773D01*
X75477380Y-105941964D02*
X74477380Y-105941964D01*
X74477380Y-106180059D01*
X74525000Y-106322916D01*
X74620238Y-106418154D01*
X74715476Y-106465773D01*
X74905952Y-106513392D01*
X75048809Y-106513392D01*
X75239285Y-106465773D01*
X75334523Y-106418154D01*
X75429761Y-106322916D01*
X75477380Y-106180059D01*
X75477380Y-105941964D01*
X74477380Y-107418154D02*
X74477380Y-106941964D01*
X74953571Y-106894345D01*
X74905952Y-106941964D01*
X74858333Y-107037202D01*
X74858333Y-107275297D01*
X74905952Y-107370535D01*
X74953571Y-107418154D01*
X75048809Y-107465773D01*
X75286904Y-107465773D01*
X75382142Y-107418154D01*
X75429761Y-107370535D01*
X75477380Y-107275297D01*
X75477380Y-107037202D01*
X75429761Y-106941964D01*
X75382142Y-106894345D01*
X74477380Y-107799107D02*
X74477380Y-108418154D01*
X74858333Y-108084821D01*
X74858333Y-108227678D01*
X74905952Y-108322916D01*
X74953571Y-108370535D01*
X75048809Y-108418154D01*
X75286904Y-108418154D01*
X75382142Y-108370535D01*
X75429761Y-108322916D01*
X75477380Y-108227678D01*
X75477380Y-107941964D01*
X75429761Y-107846726D01*
X75382142Y-107799107D01*
X75477380Y-86891964D02*
X74477380Y-86891964D01*
X74477380Y-87130059D01*
X74525000Y-87272916D01*
X74620238Y-87368154D01*
X74715476Y-87415773D01*
X74905952Y-87463392D01*
X75048809Y-87463392D01*
X75239285Y-87415773D01*
X75334523Y-87368154D01*
X75429761Y-87272916D01*
X75477380Y-87130059D01*
X75477380Y-86891964D01*
X74477380Y-88368154D02*
X74477380Y-87891964D01*
X74953571Y-87844345D01*
X74905952Y-87891964D01*
X74858333Y-87987202D01*
X74858333Y-88225297D01*
X74905952Y-88320535D01*
X74953571Y-88368154D01*
X75048809Y-88415773D01*
X75286904Y-88415773D01*
X75382142Y-88368154D01*
X75429761Y-88320535D01*
X75477380Y-88225297D01*
X75477380Y-87987202D01*
X75429761Y-87891964D01*
X75382142Y-87844345D01*
X74572619Y-88796726D02*
X74525000Y-88844345D01*
X74477380Y-88939583D01*
X74477380Y-89177678D01*
X74525000Y-89272916D01*
X74572619Y-89320535D01*
X74667857Y-89368154D01*
X74763095Y-89368154D01*
X74905952Y-89320535D01*
X75477380Y-88749107D01*
X75477380Y-89368154D01*
X75477380Y-67841964D02*
X74477380Y-67841964D01*
X74477380Y-68080059D01*
X74525000Y-68222916D01*
X74620238Y-68318154D01*
X74715476Y-68365773D01*
X74905952Y-68413392D01*
X75048809Y-68413392D01*
X75239285Y-68365773D01*
X75334523Y-68318154D01*
X75429761Y-68222916D01*
X75477380Y-68080059D01*
X75477380Y-67841964D01*
X74477380Y-69318154D02*
X74477380Y-68841964D01*
X74953571Y-68794345D01*
X74905952Y-68841964D01*
X74858333Y-68937202D01*
X74858333Y-69175297D01*
X74905952Y-69270535D01*
X74953571Y-69318154D01*
X75048809Y-69365773D01*
X75286904Y-69365773D01*
X75382142Y-69318154D01*
X75429761Y-69270535D01*
X75477380Y-69175297D01*
X75477380Y-68937202D01*
X75429761Y-68841964D01*
X75382142Y-68794345D01*
X75477380Y-70318154D02*
X75477380Y-69746726D01*
X75477380Y-70032440D02*
X74477380Y-70032440D01*
X74620238Y-69937202D01*
X74715476Y-69841964D01*
X74763095Y-69746726D01*
X94527380Y-144041963D02*
X93527380Y-144041963D01*
X93527380Y-144280058D01*
X93575000Y-144422915D01*
X93670238Y-144518153D01*
X93765476Y-144565772D01*
X93955952Y-144613391D01*
X94098809Y-144613391D01*
X94289285Y-144565772D01*
X94384523Y-144518153D01*
X94479761Y-144422915D01*
X94527380Y-144280058D01*
X94527380Y-144041963D01*
X93527380Y-145518153D02*
X93527380Y-145041963D01*
X94003571Y-144994344D01*
X93955952Y-145041963D01*
X93908333Y-145137201D01*
X93908333Y-145375296D01*
X93955952Y-145470534D01*
X94003571Y-145518153D01*
X94098809Y-145565772D01*
X94336904Y-145565772D01*
X94432142Y-145518153D01*
X94479761Y-145470534D01*
X94527380Y-145375296D01*
X94527380Y-145137201D01*
X94479761Y-145041963D01*
X94432142Y-144994344D01*
X93527380Y-146184820D02*
X93527380Y-146280058D01*
X93575000Y-146375296D01*
X93622619Y-146422915D01*
X93717857Y-146470534D01*
X93908333Y-146518153D01*
X94146428Y-146518153D01*
X94336904Y-146470534D01*
X94432142Y-146422915D01*
X94479761Y-146375296D01*
X94527380Y-146280058D01*
X94527380Y-146184820D01*
X94479761Y-146089582D01*
X94432142Y-146041963D01*
X94336904Y-145994344D01*
X94146428Y-145946725D01*
X93908333Y-145946725D01*
X93717857Y-145994344D01*
X93622619Y-146041963D01*
X93575000Y-146089582D01*
X93527380Y-146184820D01*
X94527380Y-124991965D02*
X93527380Y-124991965D01*
X93527380Y-125230060D01*
X93575000Y-125372917D01*
X93670238Y-125468155D01*
X93765476Y-125515774D01*
X93955952Y-125563393D01*
X94098809Y-125563393D01*
X94289285Y-125515774D01*
X94384523Y-125468155D01*
X94479761Y-125372917D01*
X94527380Y-125230060D01*
X94527380Y-124991965D01*
X93860714Y-126420536D02*
X94527380Y-126420536D01*
X93479761Y-126182441D02*
X94194047Y-125944346D01*
X94194047Y-126563393D01*
X94527380Y-126991965D02*
X94527380Y-127182441D01*
X94479761Y-127277679D01*
X94432142Y-127325298D01*
X94289285Y-127420536D01*
X94098809Y-127468155D01*
X93717857Y-127468155D01*
X93622619Y-127420536D01*
X93575000Y-127372917D01*
X93527380Y-127277679D01*
X93527380Y-127087203D01*
X93575000Y-126991965D01*
X93622619Y-126944346D01*
X93717857Y-126896727D01*
X93955952Y-126896727D01*
X94051190Y-126944346D01*
X94098809Y-126991965D01*
X94146428Y-127087203D01*
X94146428Y-127277679D01*
X94098809Y-127372917D01*
X94051190Y-127420536D01*
X93955952Y-127468155D01*
X94527380Y-105941965D02*
X93527380Y-105941965D01*
X93527380Y-106180060D01*
X93575000Y-106322917D01*
X93670238Y-106418155D01*
X93765476Y-106465774D01*
X93955952Y-106513393D01*
X94098809Y-106513393D01*
X94289285Y-106465774D01*
X94384523Y-106418155D01*
X94479761Y-106322917D01*
X94527380Y-106180060D01*
X94527380Y-105941965D01*
X93860714Y-107370536D02*
X94527380Y-107370536D01*
X93479761Y-107132441D02*
X94194047Y-106894346D01*
X94194047Y-107513393D01*
X93955952Y-108037203D02*
X93908333Y-107941965D01*
X93860714Y-107894346D01*
X93765476Y-107846727D01*
X93717857Y-107846727D01*
X93622619Y-107894346D01*
X93575000Y-107941965D01*
X93527380Y-108037203D01*
X93527380Y-108227679D01*
X93575000Y-108322917D01*
X93622619Y-108370536D01*
X93717857Y-108418155D01*
X93765476Y-108418155D01*
X93860714Y-108370536D01*
X93908333Y-108322917D01*
X93955952Y-108227679D01*
X93955952Y-108037203D01*
X94003571Y-107941965D01*
X94051190Y-107894346D01*
X94146428Y-107846727D01*
X94336904Y-107846727D01*
X94432142Y-107894346D01*
X94479761Y-107941965D01*
X94527380Y-108037203D01*
X94527380Y-108227679D01*
X94479761Y-108322917D01*
X94432142Y-108370536D01*
X94336904Y-108418155D01*
X94146428Y-108418155D01*
X94051190Y-108370536D01*
X94003571Y-108322917D01*
X93955952Y-108227679D01*
X94527380Y-86891964D02*
X93527380Y-86891964D01*
X93527380Y-87130059D01*
X93575000Y-87272916D01*
X93670238Y-87368154D01*
X93765476Y-87415773D01*
X93955952Y-87463392D01*
X94098809Y-87463392D01*
X94289285Y-87415773D01*
X94384523Y-87368154D01*
X94479761Y-87272916D01*
X94527380Y-87130059D01*
X94527380Y-86891964D01*
X93860714Y-88320535D02*
X94527380Y-88320535D01*
X93479761Y-88082440D02*
X94194047Y-87844345D01*
X94194047Y-88463392D01*
X93527380Y-88749107D02*
X93527380Y-89415773D01*
X94527380Y-88987202D01*
X94527380Y-67841964D02*
X93527380Y-67841964D01*
X93527380Y-68080059D01*
X93575000Y-68222916D01*
X93670238Y-68318154D01*
X93765476Y-68365773D01*
X93955952Y-68413392D01*
X94098809Y-68413392D01*
X94289285Y-68365773D01*
X94384523Y-68318154D01*
X94479761Y-68222916D01*
X94527380Y-68080059D01*
X94527380Y-67841964D01*
X93860714Y-69270535D02*
X94527380Y-69270535D01*
X93479761Y-69032440D02*
X94194047Y-68794345D01*
X94194047Y-69413392D01*
X93527380Y-70222916D02*
X93527380Y-70032440D01*
X93575000Y-69937202D01*
X93622619Y-69889583D01*
X93765476Y-69794345D01*
X93955952Y-69746726D01*
X94336904Y-69746726D01*
X94432142Y-69794345D01*
X94479761Y-69841964D01*
X94527380Y-69937202D01*
X94527380Y-70127678D01*
X94479761Y-70222916D01*
X94432142Y-70270535D01*
X94336904Y-70318154D01*
X94098809Y-70318154D01*
X94003571Y-70270535D01*
X93955952Y-70222916D01*
X93908333Y-70127678D01*
X93908333Y-69937202D01*
X93955952Y-69841964D01*
X94003571Y-69794345D01*
X94098809Y-69746726D01*
X113577380Y-144041964D02*
X112577380Y-144041964D01*
X112577380Y-144280059D01*
X112625000Y-144422916D01*
X112720238Y-144518154D01*
X112815476Y-144565773D01*
X113005952Y-144613392D01*
X113148809Y-144613392D01*
X113339285Y-144565773D01*
X113434523Y-144518154D01*
X113529761Y-144422916D01*
X113577380Y-144280059D01*
X113577380Y-144041964D01*
X112910714Y-145470535D02*
X113577380Y-145470535D01*
X112529761Y-145232440D02*
X113244047Y-144994345D01*
X113244047Y-145613392D01*
X112577380Y-146470535D02*
X112577380Y-145994345D01*
X113053571Y-145946726D01*
X113005952Y-145994345D01*
X112958333Y-146089583D01*
X112958333Y-146327678D01*
X113005952Y-146422916D01*
X113053571Y-146470535D01*
X113148809Y-146518154D01*
X113386904Y-146518154D01*
X113482142Y-146470535D01*
X113529761Y-146422916D01*
X113577380Y-146327678D01*
X113577380Y-146089583D01*
X113529761Y-145994345D01*
X113482142Y-145946726D01*
X113577380Y-124991964D02*
X112577380Y-124991964D01*
X112577380Y-125230059D01*
X112625000Y-125372916D01*
X112720238Y-125468154D01*
X112815476Y-125515773D01*
X113005952Y-125563392D01*
X113148809Y-125563392D01*
X113339285Y-125515773D01*
X113434523Y-125468154D01*
X113529761Y-125372916D01*
X113577380Y-125230059D01*
X113577380Y-124991964D01*
X112910714Y-126420535D02*
X113577380Y-126420535D01*
X112529761Y-126182440D02*
X113244047Y-125944345D01*
X113244047Y-126563392D01*
X112910714Y-127372916D02*
X113577380Y-127372916D01*
X112529761Y-127134821D02*
X113244047Y-126896726D01*
X113244047Y-127515773D01*
X113577380Y-105941964D02*
X112577380Y-105941964D01*
X112577380Y-106180059D01*
X112625000Y-106322916D01*
X112720238Y-106418154D01*
X112815476Y-106465773D01*
X113005952Y-106513392D01*
X113148809Y-106513392D01*
X113339285Y-106465773D01*
X113434523Y-106418154D01*
X113529761Y-106322916D01*
X113577380Y-106180059D01*
X113577380Y-105941964D01*
X112910714Y-107370535D02*
X113577380Y-107370535D01*
X112529761Y-107132440D02*
X113244047Y-106894345D01*
X113244047Y-107513392D01*
X112577380Y-107799107D02*
X112577380Y-108418154D01*
X112958333Y-108084821D01*
X112958333Y-108227678D01*
X113005952Y-108322916D01*
X113053571Y-108370535D01*
X113148809Y-108418154D01*
X113386904Y-108418154D01*
X113482142Y-108370535D01*
X113529761Y-108322916D01*
X113577380Y-108227678D01*
X113577380Y-107941964D01*
X113529761Y-107846726D01*
X113482142Y-107799107D01*
X113577380Y-86891964D02*
X112577380Y-86891964D01*
X112577380Y-87130059D01*
X112625000Y-87272916D01*
X112720238Y-87368154D01*
X112815476Y-87415773D01*
X113005952Y-87463392D01*
X113148809Y-87463392D01*
X113339285Y-87415773D01*
X113434523Y-87368154D01*
X113529761Y-87272916D01*
X113577380Y-87130059D01*
X113577380Y-86891964D01*
X112910714Y-88320535D02*
X113577380Y-88320535D01*
X112529761Y-88082440D02*
X113244047Y-87844345D01*
X113244047Y-88463392D01*
X112672619Y-88796726D02*
X112625000Y-88844345D01*
X112577380Y-88939583D01*
X112577380Y-89177678D01*
X112625000Y-89272916D01*
X112672619Y-89320535D01*
X112767857Y-89368154D01*
X112863095Y-89368154D01*
X113005952Y-89320535D01*
X113577380Y-88749107D01*
X113577380Y-89368154D01*
X113577380Y-67841964D02*
X112577380Y-67841964D01*
X112577380Y-68080059D01*
X112625000Y-68222916D01*
X112720238Y-68318154D01*
X112815476Y-68365773D01*
X113005952Y-68413392D01*
X113148809Y-68413392D01*
X113339285Y-68365773D01*
X113434523Y-68318154D01*
X113529761Y-68222916D01*
X113577380Y-68080059D01*
X113577380Y-67841964D01*
X112910714Y-69270535D02*
X113577380Y-69270535D01*
X112529761Y-69032440D02*
X113244047Y-68794345D01*
X113244047Y-69413392D01*
X113577380Y-70318154D02*
X113577380Y-69746726D01*
X113577380Y-70032440D02*
X112577380Y-70032440D01*
X112720238Y-69937202D01*
X112815476Y-69841964D01*
X112863095Y-69746726D01*
X132627380Y-144295964D02*
X131627380Y-144295964D01*
X131627380Y-144534059D01*
X131675000Y-144676916D01*
X131770238Y-144772154D01*
X131865476Y-144819773D01*
X132055952Y-144867392D01*
X132198809Y-144867392D01*
X132389285Y-144819773D01*
X132484523Y-144772154D01*
X132579761Y-144676916D01*
X132627380Y-144534059D01*
X132627380Y-144295964D01*
X131960714Y-145724535D02*
X132627380Y-145724535D01*
X131579761Y-145486440D02*
X132294047Y-145248345D01*
X132294047Y-145867392D01*
X131627380Y-146438821D02*
X131627380Y-146534059D01*
X131675000Y-146629297D01*
X131722619Y-146676916D01*
X131817857Y-146724535D01*
X132008333Y-146772154D01*
X132246428Y-146772154D01*
X132436904Y-146724535D01*
X132532142Y-146676916D01*
X132579761Y-146629297D01*
X132627380Y-146534059D01*
X132627380Y-146438821D01*
X132579761Y-146343583D01*
X132532142Y-146295964D01*
X132436904Y-146248345D01*
X132246428Y-146200726D01*
X132008333Y-146200726D01*
X131817857Y-146248345D01*
X131722619Y-146295964D01*
X131675000Y-146343583D01*
X131627380Y-146438821D01*
X132627380Y-124991964D02*
X131627380Y-124991964D01*
X131627380Y-125230059D01*
X131675000Y-125372916D01*
X131770238Y-125468154D01*
X131865476Y-125515773D01*
X132055952Y-125563392D01*
X132198809Y-125563392D01*
X132389285Y-125515773D01*
X132484523Y-125468154D01*
X132579761Y-125372916D01*
X132627380Y-125230059D01*
X132627380Y-124991964D01*
X131627380Y-125896726D02*
X131627380Y-126515773D01*
X132008333Y-126182440D01*
X132008333Y-126325297D01*
X132055952Y-126420535D01*
X132103571Y-126468154D01*
X132198809Y-126515773D01*
X132436904Y-126515773D01*
X132532142Y-126468154D01*
X132579761Y-126420535D01*
X132627380Y-126325297D01*
X132627380Y-126039583D01*
X132579761Y-125944345D01*
X132532142Y-125896726D01*
X132627380Y-126991964D02*
X132627380Y-127182440D01*
X132579761Y-127277678D01*
X132532142Y-127325297D01*
X132389285Y-127420535D01*
X132198809Y-127468154D01*
X131817857Y-127468154D01*
X131722619Y-127420535D01*
X131675000Y-127372916D01*
X131627380Y-127277678D01*
X131627380Y-127087202D01*
X131675000Y-126991964D01*
X131722619Y-126944345D01*
X131817857Y-126896726D01*
X132055952Y-126896726D01*
X132151190Y-126944345D01*
X132198809Y-126991964D01*
X132246428Y-127087202D01*
X132246428Y-127277678D01*
X132198809Y-127372916D01*
X132151190Y-127420535D01*
X132055952Y-127468154D01*
X132627380Y-105941964D02*
X131627380Y-105941964D01*
X131627380Y-106180059D01*
X131675000Y-106322916D01*
X131770238Y-106418154D01*
X131865476Y-106465773D01*
X132055952Y-106513392D01*
X132198809Y-106513392D01*
X132389285Y-106465773D01*
X132484523Y-106418154D01*
X132579761Y-106322916D01*
X132627380Y-106180059D01*
X132627380Y-105941964D01*
X131627380Y-106846726D02*
X131627380Y-107465773D01*
X132008333Y-107132440D01*
X132008333Y-107275297D01*
X132055952Y-107370535D01*
X132103571Y-107418154D01*
X132198809Y-107465773D01*
X132436904Y-107465773D01*
X132532142Y-107418154D01*
X132579761Y-107370535D01*
X132627380Y-107275297D01*
X132627380Y-106989583D01*
X132579761Y-106894345D01*
X132532142Y-106846726D01*
X132055952Y-108037202D02*
X132008333Y-107941964D01*
X131960714Y-107894345D01*
X131865476Y-107846726D01*
X131817857Y-107846726D01*
X131722619Y-107894345D01*
X131675000Y-107941964D01*
X131627380Y-108037202D01*
X131627380Y-108227678D01*
X131675000Y-108322916D01*
X131722619Y-108370535D01*
X131817857Y-108418154D01*
X131865476Y-108418154D01*
X131960714Y-108370535D01*
X132008333Y-108322916D01*
X132055952Y-108227678D01*
X132055952Y-108037202D01*
X132103571Y-107941964D01*
X132151190Y-107894345D01*
X132246428Y-107846726D01*
X132436904Y-107846726D01*
X132532142Y-107894345D01*
X132579761Y-107941964D01*
X132627380Y-108037202D01*
X132627380Y-108227678D01*
X132579761Y-108322916D01*
X132532142Y-108370535D01*
X132436904Y-108418154D01*
X132246428Y-108418154D01*
X132151190Y-108370535D01*
X132103571Y-108322916D01*
X132055952Y-108227678D01*
X132627380Y-86891964D02*
X131627380Y-86891964D01*
X131627380Y-87130059D01*
X131675000Y-87272916D01*
X131770238Y-87368154D01*
X131865476Y-87415773D01*
X132055952Y-87463392D01*
X132198809Y-87463392D01*
X132389285Y-87415773D01*
X132484523Y-87368154D01*
X132579761Y-87272916D01*
X132627380Y-87130059D01*
X132627380Y-86891964D01*
X131627380Y-87796726D02*
X131627380Y-88415773D01*
X132008333Y-88082440D01*
X132008333Y-88225297D01*
X132055952Y-88320535D01*
X132103571Y-88368154D01*
X132198809Y-88415773D01*
X132436904Y-88415773D01*
X132532142Y-88368154D01*
X132579761Y-88320535D01*
X132627380Y-88225297D01*
X132627380Y-87939583D01*
X132579761Y-87844345D01*
X132532142Y-87796726D01*
X131627380Y-88749107D02*
X131627380Y-89415773D01*
X132627380Y-88987202D01*
X132627380Y-67841964D02*
X131627380Y-67841964D01*
X131627380Y-68080059D01*
X131675000Y-68222916D01*
X131770238Y-68318154D01*
X131865476Y-68365773D01*
X132055952Y-68413392D01*
X132198809Y-68413392D01*
X132389285Y-68365773D01*
X132484523Y-68318154D01*
X132579761Y-68222916D01*
X132627380Y-68080059D01*
X132627380Y-67841964D01*
X131627380Y-68746726D02*
X131627380Y-69365773D01*
X132008333Y-69032440D01*
X132008333Y-69175297D01*
X132055952Y-69270535D01*
X132103571Y-69318154D01*
X132198809Y-69365773D01*
X132436904Y-69365773D01*
X132532142Y-69318154D01*
X132579761Y-69270535D01*
X132627380Y-69175297D01*
X132627380Y-68889583D01*
X132579761Y-68794345D01*
X132532142Y-68746726D01*
X131627380Y-70222916D02*
X131627380Y-70032440D01*
X131675000Y-69937202D01*
X131722619Y-69889583D01*
X131865476Y-69794345D01*
X132055952Y-69746726D01*
X132436904Y-69746726D01*
X132532142Y-69794345D01*
X132579761Y-69841964D01*
X132627380Y-69937202D01*
X132627380Y-70127678D01*
X132579761Y-70222916D01*
X132532142Y-70270535D01*
X132436904Y-70318154D01*
X132198809Y-70318154D01*
X132103571Y-70270535D01*
X132055952Y-70222916D01*
X132008333Y-70127678D01*
X132008333Y-69937202D01*
X132055952Y-69841964D01*
X132103571Y-69794345D01*
X132198809Y-69746726D01*
X232639880Y-144041964D02*
X231639880Y-144041964D01*
X231639880Y-144280059D01*
X231687500Y-144422916D01*
X231782738Y-144518154D01*
X231877976Y-144565773D01*
X232068452Y-144613392D01*
X232211309Y-144613392D01*
X232401785Y-144565773D01*
X232497023Y-144518154D01*
X232592261Y-144422916D01*
X232639880Y-144280059D01*
X232639880Y-144041964D01*
X231639880Y-144946726D02*
X231639880Y-145565773D01*
X232020833Y-145232440D01*
X232020833Y-145375297D01*
X232068452Y-145470535D01*
X232116071Y-145518154D01*
X232211309Y-145565773D01*
X232449404Y-145565773D01*
X232544642Y-145518154D01*
X232592261Y-145470535D01*
X232639880Y-145375297D01*
X232639880Y-145089583D01*
X232592261Y-144994345D01*
X232544642Y-144946726D01*
X231639880Y-146470535D02*
X231639880Y-145994345D01*
X232116071Y-145946726D01*
X232068452Y-145994345D01*
X232020833Y-146089583D01*
X232020833Y-146327678D01*
X232068452Y-146422916D01*
X232116071Y-146470535D01*
X232211309Y-146518154D01*
X232449404Y-146518154D01*
X232544642Y-146470535D01*
X232592261Y-146422916D01*
X232639880Y-146327678D01*
X232639880Y-146089583D01*
X232592261Y-145994345D01*
X232544642Y-145946726D01*
X233433630Y-124991964D02*
X232433630Y-124991964D01*
X232433630Y-125230059D01*
X232481250Y-125372916D01*
X232576488Y-125468154D01*
X232671726Y-125515773D01*
X232862202Y-125563392D01*
X233005059Y-125563392D01*
X233195535Y-125515773D01*
X233290773Y-125468154D01*
X233386011Y-125372916D01*
X233433630Y-125230059D01*
X233433630Y-124991964D01*
X232433630Y-125896726D02*
X232433630Y-126515773D01*
X232814583Y-126182440D01*
X232814583Y-126325297D01*
X232862202Y-126420535D01*
X232909821Y-126468154D01*
X233005059Y-126515773D01*
X233243154Y-126515773D01*
X233338392Y-126468154D01*
X233386011Y-126420535D01*
X233433630Y-126325297D01*
X233433630Y-126039583D01*
X233386011Y-125944345D01*
X233338392Y-125896726D01*
X232766964Y-127372916D02*
X233433630Y-127372916D01*
X232386011Y-127134821D02*
X233100297Y-126896726D01*
X233100297Y-127515773D01*
X232639880Y-105941964D02*
X231639880Y-105941964D01*
X231639880Y-106180059D01*
X231687500Y-106322916D01*
X231782738Y-106418154D01*
X231877976Y-106465773D01*
X232068452Y-106513392D01*
X232211309Y-106513392D01*
X232401785Y-106465773D01*
X232497023Y-106418154D01*
X232592261Y-106322916D01*
X232639880Y-106180059D01*
X232639880Y-105941964D01*
X231639880Y-106846726D02*
X231639880Y-107465773D01*
X232020833Y-107132440D01*
X232020833Y-107275297D01*
X232068452Y-107370535D01*
X232116071Y-107418154D01*
X232211309Y-107465773D01*
X232449404Y-107465773D01*
X232544642Y-107418154D01*
X232592261Y-107370535D01*
X232639880Y-107275297D01*
X232639880Y-106989583D01*
X232592261Y-106894345D01*
X232544642Y-106846726D01*
X231639880Y-107799107D02*
X231639880Y-108418154D01*
X232020833Y-108084821D01*
X232020833Y-108227678D01*
X232068452Y-108322916D01*
X232116071Y-108370535D01*
X232211309Y-108418154D01*
X232449404Y-108418154D01*
X232544642Y-108370535D01*
X232592261Y-108322916D01*
X232639880Y-108227678D01*
X232639880Y-107941964D01*
X232592261Y-107846726D01*
X232544642Y-107799107D01*
X232639880Y-86891964D02*
X231639880Y-86891964D01*
X231639880Y-87130059D01*
X231687500Y-87272916D01*
X231782738Y-87368154D01*
X231877976Y-87415773D01*
X232068452Y-87463392D01*
X232211309Y-87463392D01*
X232401785Y-87415773D01*
X232497023Y-87368154D01*
X232592261Y-87272916D01*
X232639880Y-87130059D01*
X232639880Y-86891964D01*
X231639880Y-87796726D02*
X231639880Y-88415773D01*
X232020833Y-88082440D01*
X232020833Y-88225297D01*
X232068452Y-88320535D01*
X232116071Y-88368154D01*
X232211309Y-88415773D01*
X232449404Y-88415773D01*
X232544642Y-88368154D01*
X232592261Y-88320535D01*
X232639880Y-88225297D01*
X232639880Y-87939583D01*
X232592261Y-87844345D01*
X232544642Y-87796726D01*
X231735119Y-88796726D02*
X231687500Y-88844345D01*
X231639880Y-88939583D01*
X231639880Y-89177678D01*
X231687500Y-89272916D01*
X231735119Y-89320535D01*
X231830357Y-89368154D01*
X231925595Y-89368154D01*
X232068452Y-89320535D01*
X232639880Y-88749107D01*
X232639880Y-89368154D01*
X232639880Y-67841964D02*
X231639880Y-67841964D01*
X231639880Y-68080059D01*
X231687500Y-68222916D01*
X231782738Y-68318154D01*
X231877976Y-68365773D01*
X232068452Y-68413392D01*
X232211309Y-68413392D01*
X232401785Y-68365773D01*
X232497023Y-68318154D01*
X232592261Y-68222916D01*
X232639880Y-68080059D01*
X232639880Y-67841964D01*
X231639880Y-68746726D02*
X231639880Y-69365773D01*
X232020833Y-69032440D01*
X232020833Y-69175297D01*
X232068452Y-69270535D01*
X232116071Y-69318154D01*
X232211309Y-69365773D01*
X232449404Y-69365773D01*
X232544642Y-69318154D01*
X232592261Y-69270535D01*
X232639880Y-69175297D01*
X232639880Y-68889583D01*
X232592261Y-68794345D01*
X232544642Y-68746726D01*
X232639880Y-70318154D02*
X232639880Y-69746726D01*
X232639880Y-70032440D02*
X231639880Y-70032440D01*
X231782738Y-69937202D01*
X231877976Y-69841964D01*
X231925595Y-69746726D01*
X251689880Y-144041964D02*
X250689880Y-144041964D01*
X250689880Y-144280059D01*
X250737500Y-144422916D01*
X250832738Y-144518154D01*
X250927976Y-144565773D01*
X251118452Y-144613392D01*
X251261309Y-144613392D01*
X251451785Y-144565773D01*
X251547023Y-144518154D01*
X251642261Y-144422916D01*
X251689880Y-144280059D01*
X251689880Y-144041964D01*
X250689880Y-144946726D02*
X250689880Y-145565773D01*
X251070833Y-145232440D01*
X251070833Y-145375297D01*
X251118452Y-145470535D01*
X251166071Y-145518154D01*
X251261309Y-145565773D01*
X251499404Y-145565773D01*
X251594642Y-145518154D01*
X251642261Y-145470535D01*
X251689880Y-145375297D01*
X251689880Y-145089583D01*
X251642261Y-144994345D01*
X251594642Y-144946726D01*
X250689880Y-146184821D02*
X250689880Y-146280059D01*
X250737500Y-146375297D01*
X250785119Y-146422916D01*
X250880357Y-146470535D01*
X251070833Y-146518154D01*
X251308928Y-146518154D01*
X251499404Y-146470535D01*
X251594642Y-146422916D01*
X251642261Y-146375297D01*
X251689880Y-146280059D01*
X251689880Y-146184821D01*
X251642261Y-146089583D01*
X251594642Y-146041964D01*
X251499404Y-145994345D01*
X251308928Y-145946726D01*
X251070833Y-145946726D01*
X250880357Y-145994345D01*
X250785119Y-146041964D01*
X250737500Y-146089583D01*
X250689880Y-146184821D01*
X252483630Y-124991964D02*
X251483630Y-124991964D01*
X251483630Y-125230059D01*
X251531250Y-125372916D01*
X251626488Y-125468154D01*
X251721726Y-125515773D01*
X251912202Y-125563392D01*
X252055059Y-125563392D01*
X252245535Y-125515773D01*
X252340773Y-125468154D01*
X252436011Y-125372916D01*
X252483630Y-125230059D01*
X252483630Y-124991964D01*
X251578869Y-125944345D02*
X251531250Y-125991964D01*
X251483630Y-126087202D01*
X251483630Y-126325297D01*
X251531250Y-126420535D01*
X251578869Y-126468154D01*
X251674107Y-126515773D01*
X251769345Y-126515773D01*
X251912202Y-126468154D01*
X252483630Y-125896726D01*
X252483630Y-126515773D01*
X252483630Y-126991964D02*
X252483630Y-127182440D01*
X252436011Y-127277678D01*
X252388392Y-127325297D01*
X252245535Y-127420535D01*
X252055059Y-127468154D01*
X251674107Y-127468154D01*
X251578869Y-127420535D01*
X251531250Y-127372916D01*
X251483630Y-127277678D01*
X251483630Y-127087202D01*
X251531250Y-126991964D01*
X251578869Y-126944345D01*
X251674107Y-126896726D01*
X251912202Y-126896726D01*
X252007440Y-126944345D01*
X252055059Y-126991964D01*
X252102678Y-127087202D01*
X252102678Y-127277678D01*
X252055059Y-127372916D01*
X252007440Y-127420535D01*
X251912202Y-127468154D01*
X251689880Y-105941964D02*
X250689880Y-105941964D01*
X250689880Y-106180059D01*
X250737500Y-106322916D01*
X250832738Y-106418154D01*
X250927976Y-106465773D01*
X251118452Y-106513392D01*
X251261309Y-106513392D01*
X251451785Y-106465773D01*
X251547023Y-106418154D01*
X251642261Y-106322916D01*
X251689880Y-106180059D01*
X251689880Y-105941964D01*
X250785119Y-106894345D02*
X250737500Y-106941964D01*
X250689880Y-107037202D01*
X250689880Y-107275297D01*
X250737500Y-107370535D01*
X250785119Y-107418154D01*
X250880357Y-107465773D01*
X250975595Y-107465773D01*
X251118452Y-107418154D01*
X251689880Y-106846726D01*
X251689880Y-107465773D01*
X251118452Y-108037202D02*
X251070833Y-107941964D01*
X251023214Y-107894345D01*
X250927976Y-107846726D01*
X250880357Y-107846726D01*
X250785119Y-107894345D01*
X250737500Y-107941964D01*
X250689880Y-108037202D01*
X250689880Y-108227678D01*
X250737500Y-108322916D01*
X250785119Y-108370535D01*
X250880357Y-108418154D01*
X250927976Y-108418154D01*
X251023214Y-108370535D01*
X251070833Y-108322916D01*
X251118452Y-108227678D01*
X251118452Y-108037202D01*
X251166071Y-107941964D01*
X251213690Y-107894345D01*
X251308928Y-107846726D01*
X251499404Y-107846726D01*
X251594642Y-107894345D01*
X251642261Y-107941964D01*
X251689880Y-108037202D01*
X251689880Y-108227678D01*
X251642261Y-108322916D01*
X251594642Y-108370535D01*
X251499404Y-108418154D01*
X251308928Y-108418154D01*
X251213690Y-108370535D01*
X251166071Y-108322916D01*
X251118452Y-108227678D01*
X251689880Y-86891964D02*
X250689880Y-86891964D01*
X250689880Y-87130059D01*
X250737500Y-87272916D01*
X250832738Y-87368154D01*
X250927976Y-87415773D01*
X251118452Y-87463392D01*
X251261309Y-87463392D01*
X251451785Y-87415773D01*
X251547023Y-87368154D01*
X251642261Y-87272916D01*
X251689880Y-87130059D01*
X251689880Y-86891964D01*
X250785119Y-87844345D02*
X250737500Y-87891964D01*
X250689880Y-87987202D01*
X250689880Y-88225297D01*
X250737500Y-88320535D01*
X250785119Y-88368154D01*
X250880357Y-88415773D01*
X250975595Y-88415773D01*
X251118452Y-88368154D01*
X251689880Y-87796726D01*
X251689880Y-88415773D01*
X250689880Y-88749107D02*
X250689880Y-89415773D01*
X251689880Y-88987202D01*
X251689880Y-67841964D02*
X250689880Y-67841964D01*
X250689880Y-68080059D01*
X250737500Y-68222916D01*
X250832738Y-68318154D01*
X250927976Y-68365773D01*
X251118452Y-68413392D01*
X251261309Y-68413392D01*
X251451785Y-68365773D01*
X251547023Y-68318154D01*
X251642261Y-68222916D01*
X251689880Y-68080059D01*
X251689880Y-67841964D01*
X250785119Y-68794345D02*
X250737500Y-68841964D01*
X250689880Y-68937202D01*
X250689880Y-69175297D01*
X250737500Y-69270535D01*
X250785119Y-69318154D01*
X250880357Y-69365773D01*
X250975595Y-69365773D01*
X251118452Y-69318154D01*
X251689880Y-68746726D01*
X251689880Y-69365773D01*
X250689880Y-70222916D02*
X250689880Y-70032440D01*
X250737500Y-69937202D01*
X250785119Y-69889583D01*
X250927976Y-69794345D01*
X251118452Y-69746726D01*
X251499404Y-69746726D01*
X251594642Y-69794345D01*
X251642261Y-69841964D01*
X251689880Y-69937202D01*
X251689880Y-70127678D01*
X251642261Y-70222916D01*
X251594642Y-70270535D01*
X251499404Y-70318154D01*
X251261309Y-70318154D01*
X251166071Y-70270535D01*
X251118452Y-70222916D01*
X251070833Y-70127678D01*
X251070833Y-69937202D01*
X251118452Y-69841964D01*
X251166071Y-69794345D01*
X251261309Y-69746726D01*
X270739880Y-144041964D02*
X269739880Y-144041964D01*
X269739880Y-144280059D01*
X269787500Y-144422916D01*
X269882738Y-144518154D01*
X269977976Y-144565773D01*
X270168452Y-144613392D01*
X270311309Y-144613392D01*
X270501785Y-144565773D01*
X270597023Y-144518154D01*
X270692261Y-144422916D01*
X270739880Y-144280059D01*
X270739880Y-144041964D01*
X269835119Y-144994345D02*
X269787500Y-145041964D01*
X269739880Y-145137202D01*
X269739880Y-145375297D01*
X269787500Y-145470535D01*
X269835119Y-145518154D01*
X269930357Y-145565773D01*
X270025595Y-145565773D01*
X270168452Y-145518154D01*
X270739880Y-144946726D01*
X270739880Y-145565773D01*
X269739880Y-146470535D02*
X269739880Y-145994345D01*
X270216071Y-145946726D01*
X270168452Y-145994345D01*
X270120833Y-146089583D01*
X270120833Y-146327678D01*
X270168452Y-146422916D01*
X270216071Y-146470535D01*
X270311309Y-146518154D01*
X270549404Y-146518154D01*
X270644642Y-146470535D01*
X270692261Y-146422916D01*
X270739880Y-146327678D01*
X270739880Y-146089583D01*
X270692261Y-145994345D01*
X270644642Y-145946726D01*
X270739880Y-124991964D02*
X269739880Y-124991964D01*
X269739880Y-125230059D01*
X269787500Y-125372916D01*
X269882738Y-125468154D01*
X269977976Y-125515773D01*
X270168452Y-125563392D01*
X270311309Y-125563392D01*
X270501785Y-125515773D01*
X270597023Y-125468154D01*
X270692261Y-125372916D01*
X270739880Y-125230059D01*
X270739880Y-124991964D01*
X269835119Y-125944345D02*
X269787500Y-125991964D01*
X269739880Y-126087202D01*
X269739880Y-126325297D01*
X269787500Y-126420535D01*
X269835119Y-126468154D01*
X269930357Y-126515773D01*
X270025595Y-126515773D01*
X270168452Y-126468154D01*
X270739880Y-125896726D01*
X270739880Y-126515773D01*
X270073214Y-127372916D02*
X270739880Y-127372916D01*
X269692261Y-127134821D02*
X270406547Y-126896726D01*
X270406547Y-127515773D01*
X270739880Y-105941964D02*
X269739880Y-105941964D01*
X269739880Y-106180059D01*
X269787500Y-106322916D01*
X269882738Y-106418154D01*
X269977976Y-106465773D01*
X270168452Y-106513392D01*
X270311309Y-106513392D01*
X270501785Y-106465773D01*
X270597023Y-106418154D01*
X270692261Y-106322916D01*
X270739880Y-106180059D01*
X270739880Y-105941964D01*
X269835119Y-106894345D02*
X269787500Y-106941964D01*
X269739880Y-107037202D01*
X269739880Y-107275297D01*
X269787500Y-107370535D01*
X269835119Y-107418154D01*
X269930357Y-107465773D01*
X270025595Y-107465773D01*
X270168452Y-107418154D01*
X270739880Y-106846726D01*
X270739880Y-107465773D01*
X269739880Y-107799107D02*
X269739880Y-108418154D01*
X270120833Y-108084821D01*
X270120833Y-108227678D01*
X270168452Y-108322916D01*
X270216071Y-108370535D01*
X270311309Y-108418154D01*
X270549404Y-108418154D01*
X270644642Y-108370535D01*
X270692261Y-108322916D01*
X270739880Y-108227678D01*
X270739880Y-107941964D01*
X270692261Y-107846726D01*
X270644642Y-107799107D01*
X270739880Y-86891964D02*
X269739880Y-86891964D01*
X269739880Y-87130059D01*
X269787500Y-87272916D01*
X269882738Y-87368154D01*
X269977976Y-87415773D01*
X270168452Y-87463392D01*
X270311309Y-87463392D01*
X270501785Y-87415773D01*
X270597023Y-87368154D01*
X270692261Y-87272916D01*
X270739880Y-87130059D01*
X270739880Y-86891964D01*
X269835119Y-87844345D02*
X269787500Y-87891964D01*
X269739880Y-87987202D01*
X269739880Y-88225297D01*
X269787500Y-88320535D01*
X269835119Y-88368154D01*
X269930357Y-88415773D01*
X270025595Y-88415773D01*
X270168452Y-88368154D01*
X270739880Y-87796726D01*
X270739880Y-88415773D01*
X269835119Y-88796726D02*
X269787500Y-88844345D01*
X269739880Y-88939583D01*
X269739880Y-89177678D01*
X269787500Y-89272916D01*
X269835119Y-89320535D01*
X269930357Y-89368154D01*
X270025595Y-89368154D01*
X270168452Y-89320535D01*
X270739880Y-88749107D01*
X270739880Y-89368154D01*
X270739880Y-67841964D02*
X269739880Y-67841964D01*
X269739880Y-68080059D01*
X269787500Y-68222916D01*
X269882738Y-68318154D01*
X269977976Y-68365773D01*
X270168452Y-68413392D01*
X270311309Y-68413392D01*
X270501785Y-68365773D01*
X270597023Y-68318154D01*
X270692261Y-68222916D01*
X270739880Y-68080059D01*
X270739880Y-67841964D01*
X269835119Y-68794345D02*
X269787500Y-68841964D01*
X269739880Y-68937202D01*
X269739880Y-69175297D01*
X269787500Y-69270535D01*
X269835119Y-69318154D01*
X269930357Y-69365773D01*
X270025595Y-69365773D01*
X270168452Y-69318154D01*
X270739880Y-68746726D01*
X270739880Y-69365773D01*
X270739880Y-70318154D02*
X270739880Y-69746726D01*
X270739880Y-70032440D02*
X269739880Y-70032440D01*
X269882738Y-69937202D01*
X269977976Y-69841964D01*
X270025595Y-69746726D01*
X289789880Y-144041964D02*
X288789880Y-144041964D01*
X288789880Y-144280059D01*
X288837500Y-144422916D01*
X288932738Y-144518154D01*
X289027976Y-144565773D01*
X289218452Y-144613392D01*
X289361309Y-144613392D01*
X289551785Y-144565773D01*
X289647023Y-144518154D01*
X289742261Y-144422916D01*
X289789880Y-144280059D01*
X289789880Y-144041964D01*
X288885119Y-144994345D02*
X288837500Y-145041964D01*
X288789880Y-145137202D01*
X288789880Y-145375297D01*
X288837500Y-145470535D01*
X288885119Y-145518154D01*
X288980357Y-145565773D01*
X289075595Y-145565773D01*
X289218452Y-145518154D01*
X289789880Y-144946726D01*
X289789880Y-145565773D01*
X288789880Y-146184821D02*
X288789880Y-146280059D01*
X288837500Y-146375297D01*
X288885119Y-146422916D01*
X288980357Y-146470535D01*
X289170833Y-146518154D01*
X289408928Y-146518154D01*
X289599404Y-146470535D01*
X289694642Y-146422916D01*
X289742261Y-146375297D01*
X289789880Y-146280059D01*
X289789880Y-146184821D01*
X289742261Y-146089583D01*
X289694642Y-146041964D01*
X289599404Y-145994345D01*
X289408928Y-145946726D01*
X289170833Y-145946726D01*
X288980357Y-145994345D01*
X288885119Y-146041964D01*
X288837500Y-146089583D01*
X288789880Y-146184821D01*
X289789880Y-124991964D02*
X288789880Y-124991964D01*
X288789880Y-125230059D01*
X288837500Y-125372916D01*
X288932738Y-125468154D01*
X289027976Y-125515773D01*
X289218452Y-125563392D01*
X289361309Y-125563392D01*
X289551785Y-125515773D01*
X289647023Y-125468154D01*
X289742261Y-125372916D01*
X289789880Y-125230059D01*
X289789880Y-124991964D01*
X289789880Y-126515773D02*
X289789880Y-125944345D01*
X289789880Y-126230059D02*
X288789880Y-126230059D01*
X288932738Y-126134821D01*
X289027976Y-126039583D01*
X289075595Y-125944345D01*
X289789880Y-126991964D02*
X289789880Y-127182440D01*
X289742261Y-127277678D01*
X289694642Y-127325297D01*
X289551785Y-127420535D01*
X289361309Y-127468154D01*
X288980357Y-127468154D01*
X288885119Y-127420535D01*
X288837500Y-127372916D01*
X288789880Y-127277678D01*
X288789880Y-127087202D01*
X288837500Y-126991964D01*
X288885119Y-126944345D01*
X288980357Y-126896726D01*
X289218452Y-126896726D01*
X289313690Y-126944345D01*
X289361309Y-126991964D01*
X289408928Y-127087202D01*
X289408928Y-127277678D01*
X289361309Y-127372916D01*
X289313690Y-127420535D01*
X289218452Y-127468154D01*
X289789880Y-105941964D02*
X288789880Y-105941964D01*
X288789880Y-106180059D01*
X288837500Y-106322916D01*
X288932738Y-106418154D01*
X289027976Y-106465773D01*
X289218452Y-106513392D01*
X289361309Y-106513392D01*
X289551785Y-106465773D01*
X289647023Y-106418154D01*
X289742261Y-106322916D01*
X289789880Y-106180059D01*
X289789880Y-105941964D01*
X289789880Y-107465773D02*
X289789880Y-106894345D01*
X289789880Y-107180059D02*
X288789880Y-107180059D01*
X288932738Y-107084821D01*
X289027976Y-106989583D01*
X289075595Y-106894345D01*
X289218452Y-108037202D02*
X289170833Y-107941964D01*
X289123214Y-107894345D01*
X289027976Y-107846726D01*
X288980357Y-107846726D01*
X288885119Y-107894345D01*
X288837500Y-107941964D01*
X288789880Y-108037202D01*
X288789880Y-108227678D01*
X288837500Y-108322916D01*
X288885119Y-108370535D01*
X288980357Y-108418154D01*
X289027976Y-108418154D01*
X289123214Y-108370535D01*
X289170833Y-108322916D01*
X289218452Y-108227678D01*
X289218452Y-108037202D01*
X289266071Y-107941964D01*
X289313690Y-107894345D01*
X289408928Y-107846726D01*
X289599404Y-107846726D01*
X289694642Y-107894345D01*
X289742261Y-107941964D01*
X289789880Y-108037202D01*
X289789880Y-108227678D01*
X289742261Y-108322916D01*
X289694642Y-108370535D01*
X289599404Y-108418154D01*
X289408928Y-108418154D01*
X289313690Y-108370535D01*
X289266071Y-108322916D01*
X289218452Y-108227678D01*
X289789880Y-86891964D02*
X288789880Y-86891964D01*
X288789880Y-87130059D01*
X288837500Y-87272916D01*
X288932738Y-87368154D01*
X289027976Y-87415773D01*
X289218452Y-87463392D01*
X289361309Y-87463392D01*
X289551785Y-87415773D01*
X289647023Y-87368154D01*
X289742261Y-87272916D01*
X289789880Y-87130059D01*
X289789880Y-86891964D01*
X289789880Y-88415773D02*
X289789880Y-87844345D01*
X289789880Y-88130059D02*
X288789880Y-88130059D01*
X288932738Y-88034821D01*
X289027976Y-87939583D01*
X289075595Y-87844345D01*
X288789880Y-88749107D02*
X288789880Y-89415773D01*
X289789880Y-88987202D01*
X289789880Y-67841964D02*
X288789880Y-67841964D01*
X288789880Y-68080059D01*
X288837500Y-68222916D01*
X288932738Y-68318154D01*
X289027976Y-68365773D01*
X289218452Y-68413392D01*
X289361309Y-68413392D01*
X289551785Y-68365773D01*
X289647023Y-68318154D01*
X289742261Y-68222916D01*
X289789880Y-68080059D01*
X289789880Y-67841964D01*
X289789880Y-69365773D02*
X289789880Y-68794345D01*
X289789880Y-69080059D02*
X288789880Y-69080059D01*
X288932738Y-68984821D01*
X289027976Y-68889583D01*
X289075595Y-68794345D01*
X288789880Y-70222916D02*
X288789880Y-70032440D01*
X288837500Y-69937202D01*
X288885119Y-69889583D01*
X289027976Y-69794345D01*
X289218452Y-69746726D01*
X289599404Y-69746726D01*
X289694642Y-69794345D01*
X289742261Y-69841964D01*
X289789880Y-69937202D01*
X289789880Y-70127678D01*
X289742261Y-70222916D01*
X289694642Y-70270535D01*
X289599404Y-70318154D01*
X289361309Y-70318154D01*
X289266071Y-70270535D01*
X289218452Y-70222916D01*
X289170833Y-70127678D01*
X289170833Y-69937202D01*
X289218452Y-69841964D01*
X289266071Y-69794345D01*
X289361309Y-69746726D01*
X308839880Y-144041964D02*
X307839880Y-144041964D01*
X307839880Y-144280059D01*
X307887500Y-144422916D01*
X307982738Y-144518154D01*
X308077976Y-144565773D01*
X308268452Y-144613392D01*
X308411309Y-144613392D01*
X308601785Y-144565773D01*
X308697023Y-144518154D01*
X308792261Y-144422916D01*
X308839880Y-144280059D01*
X308839880Y-144041964D01*
X308839880Y-145565773D02*
X308839880Y-144994345D01*
X308839880Y-145280059D02*
X307839880Y-145280059D01*
X307982738Y-145184821D01*
X308077976Y-145089583D01*
X308125595Y-144994345D01*
X307839880Y-146470535D02*
X307839880Y-145994345D01*
X308316071Y-145946726D01*
X308268452Y-145994345D01*
X308220833Y-146089583D01*
X308220833Y-146327678D01*
X308268452Y-146422916D01*
X308316071Y-146470535D01*
X308411309Y-146518154D01*
X308649404Y-146518154D01*
X308744642Y-146470535D01*
X308792261Y-146422916D01*
X308839880Y-146327678D01*
X308839880Y-146089583D01*
X308792261Y-145994345D01*
X308744642Y-145946726D01*
X308839880Y-124991964D02*
X307839880Y-124991964D01*
X307839880Y-125230059D01*
X307887500Y-125372916D01*
X307982738Y-125468154D01*
X308077976Y-125515773D01*
X308268452Y-125563392D01*
X308411309Y-125563392D01*
X308601785Y-125515773D01*
X308697023Y-125468154D01*
X308792261Y-125372916D01*
X308839880Y-125230059D01*
X308839880Y-124991964D01*
X308839880Y-126515773D02*
X308839880Y-125944345D01*
X308839880Y-126230059D02*
X307839880Y-126230059D01*
X307982738Y-126134821D01*
X308077976Y-126039583D01*
X308125595Y-125944345D01*
X308173214Y-127372916D02*
X308839880Y-127372916D01*
X307792261Y-127134821D02*
X308506547Y-126896726D01*
X308506547Y-127515773D01*
X308839880Y-105941964D02*
X307839880Y-105941964D01*
X307839880Y-106180059D01*
X307887500Y-106322916D01*
X307982738Y-106418154D01*
X308077976Y-106465773D01*
X308268452Y-106513392D01*
X308411309Y-106513392D01*
X308601785Y-106465773D01*
X308697023Y-106418154D01*
X308792261Y-106322916D01*
X308839880Y-106180059D01*
X308839880Y-105941964D01*
X308839880Y-107465773D02*
X308839880Y-106894345D01*
X308839880Y-107180059D02*
X307839880Y-107180059D01*
X307982738Y-107084821D01*
X308077976Y-106989583D01*
X308125595Y-106894345D01*
X307839880Y-107799107D02*
X307839880Y-108418154D01*
X308220833Y-108084821D01*
X308220833Y-108227678D01*
X308268452Y-108322916D01*
X308316071Y-108370535D01*
X308411309Y-108418154D01*
X308649404Y-108418154D01*
X308744642Y-108370535D01*
X308792261Y-108322916D01*
X308839880Y-108227678D01*
X308839880Y-107941964D01*
X308792261Y-107846726D01*
X308744642Y-107799107D01*
X308839880Y-86891964D02*
X307839880Y-86891964D01*
X307839880Y-87130059D01*
X307887500Y-87272916D01*
X307982738Y-87368154D01*
X308077976Y-87415773D01*
X308268452Y-87463392D01*
X308411309Y-87463392D01*
X308601785Y-87415773D01*
X308697023Y-87368154D01*
X308792261Y-87272916D01*
X308839880Y-87130059D01*
X308839880Y-86891964D01*
X308839880Y-88415773D02*
X308839880Y-87844345D01*
X308839880Y-88130059D02*
X307839880Y-88130059D01*
X307982738Y-88034821D01*
X308077976Y-87939583D01*
X308125595Y-87844345D01*
X307935119Y-88796726D02*
X307887500Y-88844345D01*
X307839880Y-88939583D01*
X307839880Y-89177678D01*
X307887500Y-89272916D01*
X307935119Y-89320535D01*
X308030357Y-89368154D01*
X308125595Y-89368154D01*
X308268452Y-89320535D01*
X308839880Y-88749107D01*
X308839880Y-89368154D01*
X308839880Y-67841964D02*
X307839880Y-67841964D01*
X307839880Y-68080059D01*
X307887500Y-68222916D01*
X307982738Y-68318154D01*
X308077976Y-68365773D01*
X308268452Y-68413392D01*
X308411309Y-68413392D01*
X308601785Y-68365773D01*
X308697023Y-68318154D01*
X308792261Y-68222916D01*
X308839880Y-68080059D01*
X308839880Y-67841964D01*
X308839880Y-69365773D02*
X308839880Y-68794345D01*
X308839880Y-69080059D02*
X307839880Y-69080059D01*
X307982738Y-68984821D01*
X308077976Y-68889583D01*
X308125595Y-68794345D01*
X308839880Y-70318154D02*
X308839880Y-69746726D01*
X308839880Y-70032440D02*
X307839880Y-70032440D01*
X307982738Y-69937202D01*
X308077976Y-69841964D01*
X308125595Y-69746726D01*
X327889880Y-144041964D02*
X326889880Y-144041964D01*
X326889880Y-144280059D01*
X326937500Y-144422916D01*
X327032738Y-144518154D01*
X327127976Y-144565773D01*
X327318452Y-144613392D01*
X327461309Y-144613392D01*
X327651785Y-144565773D01*
X327747023Y-144518154D01*
X327842261Y-144422916D01*
X327889880Y-144280059D01*
X327889880Y-144041964D01*
X327889880Y-145565773D02*
X327889880Y-144994345D01*
X327889880Y-145280059D02*
X326889880Y-145280059D01*
X327032738Y-145184821D01*
X327127976Y-145089583D01*
X327175595Y-144994345D01*
X326889880Y-146184821D02*
X326889880Y-146280059D01*
X326937500Y-146375297D01*
X326985119Y-146422916D01*
X327080357Y-146470535D01*
X327270833Y-146518154D01*
X327508928Y-146518154D01*
X327699404Y-146470535D01*
X327794642Y-146422916D01*
X327842261Y-146375297D01*
X327889880Y-146280059D01*
X327889880Y-146184821D01*
X327842261Y-146089583D01*
X327794642Y-146041964D01*
X327699404Y-145994345D01*
X327508928Y-145946726D01*
X327270833Y-145946726D01*
X327080357Y-145994345D01*
X326985119Y-146041964D01*
X326937500Y-146089583D01*
X326889880Y-146184821D01*
X327889880Y-125468154D02*
X326889880Y-125468154D01*
X326889880Y-125706250D01*
X326937500Y-125849107D01*
X327032738Y-125944345D01*
X327127976Y-125991964D01*
X327318452Y-126039583D01*
X327461309Y-126039583D01*
X327651785Y-125991964D01*
X327747023Y-125944345D01*
X327842261Y-125849107D01*
X327889880Y-125706250D01*
X327889880Y-125468154D01*
X327889880Y-126515773D02*
X327889880Y-126706250D01*
X327842261Y-126801488D01*
X327794642Y-126849107D01*
X327651785Y-126944345D01*
X327461309Y-126991964D01*
X327080357Y-126991964D01*
X326985119Y-126944345D01*
X326937500Y-126896726D01*
X326889880Y-126801488D01*
X326889880Y-126611011D01*
X326937500Y-126515773D01*
X326985119Y-126468154D01*
X327080357Y-126420535D01*
X327318452Y-126420535D01*
X327413690Y-126468154D01*
X327461309Y-126515773D01*
X327508928Y-126611011D01*
X327508928Y-126801488D01*
X327461309Y-126896726D01*
X327413690Y-126944345D01*
X327318452Y-126991964D01*
X327889880Y-106418154D02*
X326889880Y-106418154D01*
X326889880Y-106656250D01*
X326937500Y-106799107D01*
X327032738Y-106894345D01*
X327127976Y-106941964D01*
X327318452Y-106989583D01*
X327461309Y-106989583D01*
X327651785Y-106941964D01*
X327747023Y-106894345D01*
X327842261Y-106799107D01*
X327889880Y-106656250D01*
X327889880Y-106418154D01*
X327318452Y-107561011D02*
X327270833Y-107465773D01*
X327223214Y-107418154D01*
X327127976Y-107370535D01*
X327080357Y-107370535D01*
X326985119Y-107418154D01*
X326937500Y-107465773D01*
X326889880Y-107561011D01*
X326889880Y-107751488D01*
X326937500Y-107846726D01*
X326985119Y-107894345D01*
X327080357Y-107941964D01*
X327127976Y-107941964D01*
X327223214Y-107894345D01*
X327270833Y-107846726D01*
X327318452Y-107751488D01*
X327318452Y-107561011D01*
X327366071Y-107465773D01*
X327413690Y-107418154D01*
X327508928Y-107370535D01*
X327699404Y-107370535D01*
X327794642Y-107418154D01*
X327842261Y-107465773D01*
X327889880Y-107561011D01*
X327889880Y-107751488D01*
X327842261Y-107846726D01*
X327794642Y-107894345D01*
X327699404Y-107941964D01*
X327508928Y-107941964D01*
X327413690Y-107894345D01*
X327366071Y-107846726D01*
X327318452Y-107751488D01*
X327889880Y-87368154D02*
X326889880Y-87368154D01*
X326889880Y-87606250D01*
X326937500Y-87749107D01*
X327032738Y-87844345D01*
X327127976Y-87891964D01*
X327318452Y-87939583D01*
X327461309Y-87939583D01*
X327651785Y-87891964D01*
X327747023Y-87844345D01*
X327842261Y-87749107D01*
X327889880Y-87606250D01*
X327889880Y-87368154D01*
X326889880Y-88272916D02*
X326889880Y-88939583D01*
X327889880Y-88511011D01*
X327889880Y-68318154D02*
X326889880Y-68318154D01*
X326889880Y-68556250D01*
X326937500Y-68699107D01*
X327032738Y-68794345D01*
X327127976Y-68841964D01*
X327318452Y-68889583D01*
X327461309Y-68889583D01*
X327651785Y-68841964D01*
X327747023Y-68794345D01*
X327842261Y-68699107D01*
X327889880Y-68556250D01*
X327889880Y-68318154D01*
X326889880Y-69746726D02*
X326889880Y-69556250D01*
X326937500Y-69461011D01*
X326985119Y-69413392D01*
X327127976Y-69318154D01*
X327318452Y-69270535D01*
X327699404Y-69270535D01*
X327794642Y-69318154D01*
X327842261Y-69365773D01*
X327889880Y-69461011D01*
X327889880Y-69651488D01*
X327842261Y-69746726D01*
X327794642Y-69794345D01*
X327699404Y-69841964D01*
X327461309Y-69841964D01*
X327366071Y-69794345D01*
X327318452Y-69746726D01*
X327270833Y-69651488D01*
X327270833Y-69461011D01*
X327318452Y-69365773D01*
X327366071Y-69318154D01*
X327461309Y-69270535D01*
X346939880Y-144518154D02*
X345939880Y-144518154D01*
X345939880Y-144756250D01*
X345987500Y-144899107D01*
X346082738Y-144994345D01*
X346177976Y-145041964D01*
X346368452Y-145089583D01*
X346511309Y-145089583D01*
X346701785Y-145041964D01*
X346797023Y-144994345D01*
X346892261Y-144899107D01*
X346939880Y-144756250D01*
X346939880Y-144518154D01*
X345939880Y-145994345D02*
X345939880Y-145518154D01*
X346416071Y-145470535D01*
X346368452Y-145518154D01*
X346320833Y-145613392D01*
X346320833Y-145851488D01*
X346368452Y-145946726D01*
X346416071Y-145994345D01*
X346511309Y-146041964D01*
X346749404Y-146041964D01*
X346844642Y-145994345D01*
X346892261Y-145946726D01*
X346939880Y-145851488D01*
X346939880Y-145613392D01*
X346892261Y-145518154D01*
X346844642Y-145470535D01*
X346939880Y-125468154D02*
X345939880Y-125468154D01*
X345939880Y-125706250D01*
X345987500Y-125849107D01*
X346082738Y-125944345D01*
X346177976Y-125991964D01*
X346368452Y-126039583D01*
X346511309Y-126039583D01*
X346701785Y-125991964D01*
X346797023Y-125944345D01*
X346892261Y-125849107D01*
X346939880Y-125706250D01*
X346939880Y-125468154D01*
X346273214Y-126896726D02*
X346939880Y-126896726D01*
X345892261Y-126658630D02*
X346606547Y-126420535D01*
X346606547Y-127039583D01*
X346939880Y-106418154D02*
X345939880Y-106418154D01*
X345939880Y-106656250D01*
X345987500Y-106799107D01*
X346082738Y-106894345D01*
X346177976Y-106941964D01*
X346368452Y-106989583D01*
X346511309Y-106989583D01*
X346701785Y-106941964D01*
X346797023Y-106894345D01*
X346892261Y-106799107D01*
X346939880Y-106656250D01*
X346939880Y-106418154D01*
X345939880Y-107322916D02*
X345939880Y-107941964D01*
X346320833Y-107608630D01*
X346320833Y-107751488D01*
X346368452Y-107846726D01*
X346416071Y-107894345D01*
X346511309Y-107941964D01*
X346749404Y-107941964D01*
X346844642Y-107894345D01*
X346892261Y-107846726D01*
X346939880Y-107751488D01*
X346939880Y-107465773D01*
X346892261Y-107370535D01*
X346844642Y-107322916D01*
X346939880Y-87368154D02*
X345939880Y-87368154D01*
X345939880Y-87606250D01*
X345987500Y-87749107D01*
X346082738Y-87844345D01*
X346177976Y-87891964D01*
X346368452Y-87939583D01*
X346511309Y-87939583D01*
X346701785Y-87891964D01*
X346797023Y-87844345D01*
X346892261Y-87749107D01*
X346939880Y-87606250D01*
X346939880Y-87368154D01*
X346035119Y-88320535D02*
X345987500Y-88368154D01*
X345939880Y-88463392D01*
X345939880Y-88701488D01*
X345987500Y-88796726D01*
X346035119Y-88844345D01*
X346130357Y-88891964D01*
X346225595Y-88891964D01*
X346368452Y-88844345D01*
X346939880Y-88272916D01*
X346939880Y-88891964D01*
X346939880Y-68318154D02*
X345939880Y-68318154D01*
X345939880Y-68556250D01*
X345987500Y-68699107D01*
X346082738Y-68794345D01*
X346177976Y-68841964D01*
X346368452Y-68889583D01*
X346511309Y-68889583D01*
X346701785Y-68841964D01*
X346797023Y-68794345D01*
X346892261Y-68699107D01*
X346939880Y-68556250D01*
X346939880Y-68318154D01*
X346939880Y-69841964D02*
X346939880Y-69270535D01*
X346939880Y-69556250D02*
X345939880Y-69556250D01*
X346082738Y-69461011D01*
X346177976Y-69365773D01*
X346225595Y-69270535D01*
%LPC*%
D13*
X182245000Y-101123750D03*
X182245000Y-103663750D03*
X182245000Y-106203750D03*
X182245000Y-108743750D03*
X182245000Y-111283750D03*
X182245000Y-113823750D03*
X182245000Y-116363750D03*
X182245000Y-118903750D03*
X182245000Y-121443750D03*
X182245000Y-123983750D03*
X182245000Y-126523750D03*
X182245000Y-129063750D03*
X167005000Y-129063750D03*
X167005000Y-126523750D03*
X167005000Y-123983750D03*
X167005000Y-121443750D03*
X167005000Y-118903750D03*
X167005000Y-116363750D03*
X167005000Y-113823750D03*
X167005000Y-111283750D03*
X167005000Y-108743750D03*
X167005000Y-106203750D03*
X167005000Y-103663750D03*
D14*
X167005000Y-101123750D03*
D15*
X28575000Y-139700000D03*
D16*
X23495000Y-139700000D03*
X33655000Y-139700000D03*
D17*
X21490000Y-137160000D03*
X34390000Y-134620000D03*
D15*
X28575000Y-120649999D03*
D16*
X23495000Y-120649999D03*
X33655000Y-120649999D03*
D17*
X21490000Y-118109999D03*
X34390000Y-115569999D03*
D15*
X28574999Y-101600000D03*
D16*
X23494999Y-101600000D03*
X33654999Y-101600000D03*
D17*
X21489999Y-99060000D03*
X34389999Y-96520000D03*
D15*
X28575000Y-82550001D03*
D16*
X23495000Y-82550001D03*
X33655000Y-82550001D03*
D17*
X21490000Y-80010001D03*
X34390000Y-77470001D03*
D15*
X28575000Y-63500000D03*
D16*
X23495000Y-63500000D03*
X33655000Y-63500000D03*
D17*
X21490000Y-60960000D03*
X34390000Y-58420000D03*
D15*
X47625000Y-139700000D03*
D16*
X42545000Y-139700000D03*
X52705000Y-139700000D03*
D17*
X40540000Y-137160000D03*
X53440000Y-134620000D03*
D15*
X47625000Y-120650000D03*
D16*
X42545000Y-120650000D03*
X52705000Y-120650000D03*
D17*
X40540000Y-118110000D03*
X53440000Y-115570000D03*
D15*
X47624999Y-101600000D03*
D16*
X42544999Y-101600000D03*
X52704999Y-101600000D03*
D17*
X40539999Y-99060000D03*
X53439999Y-96520000D03*
D15*
X47625000Y-82550000D03*
D16*
X42545000Y-82550000D03*
X52705000Y-82550000D03*
D17*
X40540000Y-80010000D03*
X53440000Y-77470000D03*
D15*
X47625000Y-63500000D03*
D16*
X42545000Y-63500000D03*
X52705000Y-63500000D03*
D17*
X40540000Y-60960000D03*
X53440000Y-58420000D03*
D15*
X66675000Y-139700000D03*
D16*
X61595000Y-139700000D03*
X71755000Y-139700000D03*
D17*
X59590000Y-137160000D03*
X72490000Y-134620000D03*
D15*
X66675000Y-120650000D03*
D16*
X61595000Y-120650000D03*
X71755000Y-120650000D03*
D17*
X59590000Y-118110000D03*
X72490000Y-115570000D03*
D15*
X66675000Y-101600000D03*
D16*
X61595000Y-101600000D03*
X71755000Y-101600000D03*
D17*
X59590000Y-99060000D03*
X72490000Y-96520000D03*
D15*
X66675000Y-82550000D03*
D16*
X61595000Y-82550000D03*
X71755000Y-82550000D03*
D17*
X59590000Y-80010000D03*
X72490000Y-77470000D03*
D15*
X66675000Y-63500000D03*
D16*
X61595000Y-63500000D03*
X71755000Y-63500000D03*
D17*
X59590000Y-60960000D03*
X72490000Y-58420000D03*
D15*
X85725000Y-139700000D03*
D16*
X80645000Y-139700000D03*
X90805000Y-139700000D03*
D17*
X78640000Y-137160000D03*
X91540000Y-134620000D03*
D15*
X85725000Y-120650000D03*
D16*
X80645000Y-120650000D03*
X90805000Y-120650000D03*
D17*
X78640000Y-118110000D03*
X91540000Y-115570000D03*
D15*
X85725000Y-101600000D03*
D16*
X80645000Y-101600000D03*
X90805000Y-101600000D03*
D17*
X78640000Y-99060000D03*
X91540000Y-96520000D03*
D15*
X85725000Y-82550000D03*
D16*
X80645000Y-82550000D03*
X90805000Y-82550000D03*
D17*
X78640000Y-80010000D03*
X91540000Y-77470000D03*
D15*
X85725000Y-63500000D03*
D16*
X80645000Y-63500000D03*
X90805000Y-63500000D03*
D17*
X78640000Y-60960000D03*
X91540000Y-58420000D03*
D15*
X104775000Y-139700000D03*
D16*
X99695000Y-139700000D03*
X109855000Y-139700000D03*
D17*
X97690000Y-137160000D03*
X110590000Y-134620000D03*
D15*
X104775000Y-120650000D03*
D16*
X99695000Y-120650000D03*
X109855000Y-120650000D03*
D17*
X97690000Y-118110000D03*
X110590000Y-115570000D03*
D15*
X104775000Y-101600000D03*
D16*
X99695000Y-101600000D03*
X109855000Y-101600000D03*
D17*
X97690000Y-99060000D03*
X110590000Y-96520000D03*
D15*
X104775000Y-82550000D03*
D16*
X99695000Y-82550000D03*
X109855000Y-82550000D03*
D17*
X97690000Y-80010000D03*
X110590000Y-77470000D03*
D15*
X104775000Y-63500000D03*
D16*
X99695000Y-63500000D03*
X109855000Y-63500000D03*
D17*
X97690000Y-60960000D03*
X110590000Y-58420000D03*
D15*
X123825000Y-139700000D03*
D16*
X118745000Y-139700000D03*
X128905000Y-139700000D03*
D17*
X116740000Y-137160000D03*
X129640000Y-134620000D03*
D15*
X123825000Y-120650000D03*
D16*
X118745000Y-120650000D03*
X128905000Y-120650000D03*
D17*
X116740000Y-118110000D03*
X129640000Y-115570000D03*
D15*
X123825000Y-101599999D03*
D16*
X118745000Y-101599999D03*
X128905000Y-101599999D03*
D17*
X116740000Y-99059999D03*
X129640000Y-96519999D03*
D15*
X123825000Y-82550000D03*
D16*
X118745000Y-82550000D03*
X128905000Y-82550000D03*
D17*
X116740000Y-80010000D03*
X129640000Y-77470000D03*
D15*
X123825000Y-63500000D03*
D16*
X118745000Y-63500000D03*
X128905000Y-63500000D03*
D17*
X116740000Y-60960000D03*
X129640000Y-58420000D03*
X229652500Y-134620000D03*
X216752500Y-137160000D03*
D16*
X228917500Y-139700000D03*
X218757500Y-139700000D03*
D15*
X223837500Y-139700000D03*
D17*
X229652500Y-115570000D03*
X216752500Y-118110000D03*
D16*
X228917500Y-120650000D03*
X218757500Y-120650000D03*
D15*
X223837500Y-120650000D03*
D17*
X229652500Y-96520000D03*
X216752500Y-99060000D03*
D16*
X228917500Y-101600000D03*
X218757500Y-101600000D03*
D15*
X223837500Y-101600000D03*
D17*
X229652500Y-77470000D03*
X216752500Y-80010000D03*
D16*
X228917500Y-82550000D03*
X218757500Y-82550000D03*
D15*
X223837500Y-82550000D03*
D17*
X229652500Y-58420000D03*
X216752500Y-60960000D03*
D16*
X228917500Y-63500000D03*
X218757500Y-63500000D03*
D15*
X223837500Y-63500000D03*
D17*
X248702500Y-134620000D03*
X235802500Y-137160000D03*
D16*
X247967500Y-139700000D03*
X237807500Y-139700000D03*
D15*
X242887500Y-139700000D03*
D17*
X248702500Y-115570000D03*
X235802500Y-118110000D03*
D16*
X247967500Y-120650000D03*
X237807500Y-120650000D03*
D15*
X242887500Y-120650000D03*
D17*
X248702500Y-96520000D03*
X235802500Y-99060000D03*
D16*
X247967500Y-101600000D03*
X237807500Y-101600000D03*
D15*
X242887500Y-101600000D03*
D17*
X248702500Y-77470000D03*
X235802500Y-80010000D03*
D16*
X247967500Y-82550000D03*
X237807500Y-82550000D03*
D15*
X242887500Y-82550000D03*
D17*
X248702500Y-58420000D03*
X235802500Y-60960000D03*
D16*
X247967500Y-63500000D03*
X237807500Y-63500000D03*
D15*
X242887500Y-63500000D03*
D17*
X267752500Y-134620000D03*
X254852500Y-137160000D03*
D16*
X267017500Y-139700000D03*
X256857500Y-139700000D03*
D15*
X261937500Y-139700000D03*
D17*
X267752500Y-115570000D03*
X254852500Y-118110000D03*
D16*
X267017500Y-120650000D03*
X256857500Y-120650000D03*
D15*
X261937500Y-120650000D03*
D17*
X267752500Y-96520000D03*
X254852500Y-99060000D03*
D16*
X267017500Y-101600000D03*
X256857500Y-101600000D03*
D15*
X261937500Y-101600000D03*
D17*
X267752500Y-77470000D03*
X254852500Y-80010000D03*
D16*
X267017500Y-82550000D03*
X256857500Y-82550000D03*
D15*
X261937500Y-82550000D03*
D17*
X267752500Y-58420000D03*
X254852500Y-60960000D03*
D16*
X267017500Y-63500000D03*
X256857500Y-63500000D03*
D15*
X261937500Y-63500000D03*
D17*
X286802500Y-134620000D03*
X273902500Y-137160000D03*
D16*
X286067500Y-139700000D03*
X275907500Y-139700000D03*
D15*
X280987500Y-139700000D03*
D17*
X286802500Y-115570000D03*
X273902500Y-118110000D03*
D16*
X286067500Y-120650000D03*
X275907500Y-120650000D03*
D15*
X280987500Y-120650000D03*
D17*
X286802500Y-96520000D03*
X273902500Y-99060000D03*
D16*
X286067500Y-101600000D03*
X275907500Y-101600000D03*
D15*
X280987500Y-101600000D03*
D17*
X286802500Y-77470000D03*
X273902500Y-80010000D03*
D16*
X286067500Y-82550000D03*
X275907500Y-82550000D03*
D15*
X280987500Y-82550000D03*
D17*
X286802500Y-58420000D03*
X273902500Y-60960000D03*
D16*
X286067500Y-63500000D03*
X275907500Y-63500000D03*
D15*
X280987500Y-63500000D03*
D17*
X305852500Y-134620000D03*
X292952500Y-137160000D03*
D16*
X305117500Y-139700000D03*
X294957500Y-139700000D03*
D15*
X300037500Y-139700000D03*
D17*
X305852500Y-115570000D03*
X292952500Y-118110000D03*
D16*
X305117500Y-120650000D03*
X294957500Y-120650000D03*
D15*
X300037500Y-120650000D03*
D17*
X305852500Y-96520000D03*
X292952500Y-99060000D03*
D16*
X305117500Y-101600000D03*
X294957500Y-101600000D03*
D15*
X300037500Y-101600000D03*
D17*
X305852500Y-77470000D03*
X292952500Y-80010000D03*
D16*
X305117500Y-82550000D03*
X294957500Y-82550000D03*
D15*
X300037500Y-82550000D03*
D17*
X305852500Y-58420000D03*
X292952500Y-60960000D03*
D16*
X305117500Y-63500000D03*
X294957500Y-63500000D03*
D15*
X300037500Y-63500000D03*
D17*
X324902500Y-134620000D03*
X312002500Y-137160000D03*
D16*
X324167500Y-139700000D03*
X314007500Y-139700000D03*
D15*
X319087500Y-139700000D03*
D17*
X324902500Y-115570000D03*
X312002500Y-118110000D03*
D16*
X324167500Y-120650000D03*
X314007500Y-120650000D03*
D15*
X319087500Y-120650000D03*
D17*
X324902500Y-96520000D03*
X312002500Y-99060000D03*
D16*
X324167500Y-101600000D03*
X314007500Y-101600000D03*
D15*
X319087500Y-101600000D03*
D17*
X324902500Y-77470000D03*
X312002500Y-80010000D03*
D16*
X324167500Y-82550000D03*
X314007500Y-82550000D03*
D15*
X319087500Y-82550000D03*
D17*
X324902500Y-58420000D03*
X312002500Y-60960000D03*
D16*
X324167500Y-63500000D03*
X314007500Y-63500000D03*
D15*
X319087500Y-63500000D03*
D17*
X343952500Y-134620000D03*
X331052500Y-137160000D03*
D16*
X343217500Y-139700000D03*
X333057500Y-139700000D03*
D15*
X338137500Y-139700000D03*
D17*
X343952500Y-115570000D03*
X331052500Y-118110000D03*
D16*
X343217500Y-120650000D03*
X333057500Y-120650000D03*
D15*
X338137500Y-120650000D03*
D17*
X343952500Y-96520000D03*
X331052500Y-99060000D03*
D16*
X343217500Y-101600000D03*
X333057500Y-101600000D03*
D15*
X338137500Y-101600000D03*
D17*
X343952500Y-77470000D03*
X331052500Y-80010000D03*
D16*
X343217500Y-82550000D03*
X333057500Y-82550000D03*
D15*
X338137500Y-82550000D03*
D17*
X343952500Y-58420000D03*
X331052500Y-60960000D03*
D16*
X343217500Y-63500000D03*
X333057500Y-63500000D03*
D15*
X338137500Y-63500000D03*
D18*
X34925000Y-146906250D03*
X34925000Y-143606250D03*
X34925000Y-127856250D03*
X34925000Y-124556250D03*
X34925000Y-108806250D03*
X34925000Y-105506250D03*
X34925000Y-89756250D03*
X34925000Y-86456250D03*
X34925000Y-70706250D03*
X34925000Y-67406250D03*
X53975000Y-146906250D03*
X53975000Y-143606250D03*
X53975000Y-127856250D03*
X53975000Y-124556250D03*
X53975000Y-108806250D03*
X53975000Y-105506250D03*
X53975000Y-89756250D03*
X53975000Y-86456250D03*
X53975000Y-70706250D03*
X53975000Y-67406250D03*
X73025000Y-146906250D03*
X73025000Y-143606250D03*
X73025000Y-127856250D03*
X73025000Y-124556250D03*
X73025000Y-108806250D03*
X73025000Y-105506250D03*
X73025000Y-89756250D03*
X73025000Y-86456250D03*
X73025000Y-70706250D03*
X73025000Y-67406250D03*
X92075000Y-146906249D03*
X92075000Y-143606249D03*
X92075000Y-127856251D03*
X92075000Y-124556251D03*
X92075000Y-108806251D03*
X92075000Y-105506251D03*
X92075000Y-89756250D03*
X92075000Y-86456250D03*
X92075000Y-70706250D03*
X92075000Y-67406250D03*
X111125000Y-146906250D03*
X111125000Y-143606250D03*
X111125000Y-127856250D03*
X111125000Y-124556250D03*
X111125000Y-108806250D03*
X111125000Y-105506250D03*
X111125000Y-89756250D03*
X111125000Y-86456250D03*
X111125000Y-70706250D03*
X111125000Y-67406250D03*
X130175000Y-147160250D03*
X130175000Y-143860250D03*
X130175000Y-127856250D03*
X130175000Y-124556250D03*
X130175000Y-108806250D03*
X130175000Y-105506250D03*
X130175000Y-89756250D03*
X130175000Y-86456250D03*
X130175000Y-70706250D03*
X130175000Y-67406250D03*
X230187500Y-143606250D03*
X230187500Y-146906250D03*
X230981250Y-124556250D03*
X230981250Y-127856250D03*
X230187500Y-105506250D03*
X230187500Y-108806250D03*
X230187500Y-86456250D03*
X230187500Y-89756250D03*
X230187500Y-67406250D03*
X230187500Y-70706250D03*
X249237500Y-143606250D03*
X249237500Y-146906250D03*
X250031250Y-124556250D03*
X250031250Y-127856250D03*
X249237500Y-105506250D03*
X249237500Y-108806250D03*
X249237500Y-86456250D03*
X249237500Y-89756250D03*
X249237500Y-67406250D03*
X249237500Y-70706250D03*
X268287500Y-143606250D03*
X268287500Y-146906250D03*
X268287500Y-124556250D03*
X268287500Y-127856250D03*
X268287500Y-105506250D03*
X268287500Y-108806250D03*
X268287500Y-86456250D03*
X268287500Y-89756250D03*
X268287500Y-67406250D03*
X268287500Y-70706250D03*
X287337500Y-143606250D03*
X287337500Y-146906250D03*
X287337500Y-124556250D03*
X287337500Y-127856250D03*
X287337500Y-105506250D03*
X287337500Y-108806250D03*
X287337500Y-86456250D03*
X287337500Y-89756250D03*
X287337500Y-67406250D03*
X287337500Y-70706250D03*
X306387500Y-143606250D03*
X306387500Y-146906250D03*
X306387500Y-124556250D03*
X306387500Y-127856250D03*
X306387500Y-105506250D03*
X306387500Y-108806250D03*
X306387500Y-86456250D03*
X306387500Y-89756250D03*
X306387500Y-67406250D03*
X306387500Y-70706250D03*
X325437500Y-143606250D03*
X325437500Y-146906250D03*
X325437500Y-124556250D03*
X325437500Y-127856250D03*
X325437500Y-105506250D03*
X325437500Y-108806250D03*
X325437500Y-86456250D03*
X325437500Y-89756250D03*
X325437500Y-67406250D03*
X325437500Y-70706250D03*
X344487500Y-143606250D03*
X344487500Y-146906250D03*
X344487500Y-124556250D03*
X344487500Y-127856250D03*
X344487500Y-105506250D03*
X344487500Y-108806250D03*
X344487500Y-86456250D03*
X344487500Y-89756250D03*
X344487500Y-67406250D03*
X344487500Y-70706250D03*
M02*
